M48
; DRILL file KiCad 10.0.1 date 2026-04-28T13:54:57
; FORMAT={-:-/ absolute / metric / decimal}
; #@! TF.CreationDate,2026-04-28T13:54:57+02:00
; #@! TF.GenerationSoftware,Kicad,Pcbnew,10.0.1
; #@! TF.FileFunction,Plated,1,2,PTH
FMAT,2
METRIC
; #@! TA.AperFunction,Plated,PTH,ComponentDrill
T1C0.800
; #@! TA.AperFunction,Plated,PTH,ComponentDrill
T2C0.813
; #@! TA.AperFunction,Plated,PTH,ViaDrill
T3C0.830
; #@! TA.AperFunction,Plated,PTH,ComponentDrill
T4C0.830
; #@! TA.AperFunction,Plated,PTH,ComponentDrill
T5C1.000
; #@! TA.AperFunction,Plated,PTH,ComponentDrill
T6C1.100
; #@! TA.AperFunction,Plated,PTH,ComponentDrill
T7C1.200
; #@! TA.AperFunction,Plated,PTH,ComponentDrill
T8C1.300
; #@! TA.AperFunction,Plated,PTH,ComponentDrill
T9C1.330
; #@! TA.AperFunction,Plated,PTH,ComponentDrill
T10C1.600
; #@! TA.AperFunction,Plated,PTH,ComponentDrill
T11C1.900
%
G90
G05
T1
X85.5Y-47.0
X85.5Y-49.0
X85.5Y-51.0
X85.5Y-53.0
X85.5Y-55.0
X85.5Y-57.0
X85.5Y-62.0
X85.5Y-64.0
X85.5Y-66.0
X85.5Y-68.0
X85.5Y-70.0
X85.5Y-72.0
X85.5Y-74.0
X85.5Y-79.0
X85.5Y-81.0
X85.5Y-83.0
X85.5Y-85.0
X85.5Y-90.5
X85.5Y-92.5
X85.5Y-94.5
X85.5Y-96.5
X85.5Y-98.5
X118.69Y-80.31
X118.69Y-82.81
X121.0Y-90.0
X121.0Y-93.5
X123.5Y-77.0
X123.5Y-84.62
X127.19Y-79.0
X127.19Y-83.5
X127.19Y-88.0
X129.655Y-96.88
X132.0Y-73.5
X133.155Y-96.88
X134.5Y-73.5
X134.81Y-79.0
X134.81Y-83.5
X134.81Y-88.0
X135.0Y-66.0
X135.0Y-68.0
X137.0Y-66.0
X137.0Y-68.0
X146.0Y-67.5
X148.5Y-67.5
X151.19Y-82.0
X151.19Y-86.0
X152.25Y-90.5
X152.88Y-60.5
X154.75Y-90.5
X154.92Y-53.0
X157.46Y-55.54
X158.81Y-82.0
X158.81Y-86.0
X160.0Y-53.0
X160.5Y-60.5
X164.5Y-54.0
X164.5Y-56.5
X168.5Y-54.0
X168.5Y-56.5
T2
X118.5Y-64.88
X118.5Y-67.42
X118.5Y-69.96
X118.5Y-72.5
X126.12Y-64.88
X126.12Y-67.42
X126.12Y-69.96
X126.12Y-72.5
T3
X82.5Y-56.0
X100.5Y-76.5
X106.123Y-67.105
X108.0Y-61.0
X111.0Y-86.0
X125.5Y-61.5
X139.0Y-77.0
X143.5Y-82.5
T4
X122.0Y-31.5
X122.0Y-48.5
X139.19Y-79.69
X139.19Y-82.23
X139.19Y-84.77
X139.19Y-87.31
X146.81Y-79.69
X146.81Y-82.23
X146.81Y-84.77
X146.81Y-87.31
X166.0Y-31.5
X166.0Y-48.5
T5
X90.569Y-51.865
X90.569Y-54.405
X90.569Y-56.945
X90.569Y-59.485
X90.569Y-62.025
X90.569Y-64.565
X90.569Y-67.105
X90.569Y-69.645
X90.569Y-72.185
X90.569Y-74.725
X90.569Y-77.265
X90.569Y-79.805
X113.431Y-51.865
X113.431Y-54.405
X113.431Y-56.945
X113.431Y-59.485
X113.431Y-62.025
X113.431Y-64.565
X113.431Y-67.105
X113.431Y-69.645
X113.431Y-72.185
X113.431Y-74.725
X113.431Y-77.265
X113.431Y-79.805
X164.868Y-84.0
X169.868Y-84.0
T6
X172.5Y-59.5
X172.5Y-62.04
X172.5Y-64.58
T7
X127.4Y-58.5
X149.9Y-58.5
X160.0Y-67.0
X160.0Y-74.5
T8
X111.532Y-32.75
X111.532Y-37.75
X161.25Y-98.0
X166.25Y-98.0
T9
X139.46Y-73.62
X139.96Y-93.38
X142.0Y-73.62
X142.5Y-93.38
X144.54Y-73.62
X145.04Y-93.38
T10
X138.415Y-100.0
X153.655Y-100.0
T11
X179.0Y-79.0
X200.8Y-79.0
M30
