G04 #@! TF.GenerationSoftware,KiCad,Pcbnew,10.0.0*
G04 #@! TF.CreationDate,2026-05-08T09:31:34+02:00*
G04 #@! TF.ProjectId,buck-converter,6275636b-2d63-46f6-9e76-65727465722e,rev?*
G04 #@! TF.SameCoordinates,Original*
G04 #@! TF.FileFunction,Copper,L2,Bot*
G04 #@! TF.FilePolarity,Positive*
%FSLAX46Y46*%
G04 Gerber Fmt 4.6, Leading zero omitted, Abs format (unit mm)*
G04 Created by KiCad (PCBNEW 10.0.0) date 2026-05-08 09:31:34*
%MOMM*%
%LPD*%
G01*
G04 APERTURE LIST*
G04 Aperture macros list*
%AMRoundRect*
0 Rectangle with rounded corners*
0 $1 Rounding radius*
0 $2 $3 $4 $5 $6 $7 $8 $9 X,Y pos of 4 corners*
0 Add a 4 corners polygon primitive as box body*
4,1,4,$2,$3,$4,$5,$6,$7,$8,$9,$2,$3,0*
0 Add four circle primitives for the rounded corners*
1,1,$1+$1,$2,$3*
1,1,$1+$1,$4,$5*
1,1,$1+$1,$6,$7*
1,1,$1+$1,$8,$9*
0 Add four rect primitives between the rounded corners*
20,1,$1+$1,$2,$3,$4,$5,0*
20,1,$1+$1,$4,$5,$6,$7,0*
20,1,$1+$1,$6,$7,$8,$9,0*
20,1,$1+$1,$8,$9,$2,$3,0*%
G04 Aperture macros list end*
G04 #@! TA.AperFunction,ComponentPad*
%ADD10O,2.800000X1.400000*%
G04 #@! TD*
G04 #@! TA.AperFunction,ComponentPad*
%ADD11C,1.600000*%
G04 #@! TD*
G04 #@! TA.AperFunction,ComponentPad*
%ADD12RoundRect,0.250000X-0.550000X-0.550000X0.550000X-0.550000X0.550000X0.550000X-0.550000X0.550000X0*%
G04 #@! TD*
G04 #@! TA.AperFunction,ComponentPad*
%ADD13RoundRect,0.250001X-1.149999X1.149999X-1.149999X-1.149999X1.149999X-1.149999X1.149999X1.149999X0*%
G04 #@! TD*
G04 #@! TA.AperFunction,ComponentPad*
%ADD14C,2.800000*%
G04 #@! TD*
G04 #@! TA.AperFunction,ComponentPad*
%ADD15RoundRect,0.250000X0.750000X0.750000X-0.750000X0.750000X-0.750000X-0.750000X0.750000X-0.750000X0*%
G04 #@! TD*
G04 #@! TA.AperFunction,ComponentPad*
%ADD16C,2.000000*%
G04 #@! TD*
G04 #@! TA.AperFunction,ComponentPad*
%ADD17R,1.700000X1.700000*%
G04 #@! TD*
G04 #@! TA.AperFunction,ComponentPad*
%ADD18C,1.700000*%
G04 #@! TD*
G04 #@! TA.AperFunction,ComponentPad*
%ADD19C,2.400000*%
G04 #@! TD*
G04 #@! TA.AperFunction,ComponentPad*
%ADD20R,3.000000X3.000000*%
G04 #@! TD*
G04 #@! TA.AperFunction,ComponentPad*
%ADD21RoundRect,0.250001X1.149999X1.149999X-1.149999X1.149999X-1.149999X-1.149999X1.149999X-1.149999X0*%
G04 #@! TD*
G04 #@! TA.AperFunction,ComponentPad*
%ADD22R,1.250000X1.250000*%
G04 #@! TD*
G04 #@! TA.AperFunction,ComponentPad*
%ADD23C,1.250000*%
G04 #@! TD*
G04 #@! TA.AperFunction,ComponentPad*
%ADD24R,2.000000X2.000000*%
G04 #@! TD*
G04 #@! TA.AperFunction,ComponentPad*
%ADD25RoundRect,0.250000X1.350000X1.350000X-1.350000X1.350000X-1.350000X-1.350000X1.350000X-1.350000X0*%
G04 #@! TD*
G04 #@! TA.AperFunction,ComponentPad*
%ADD26C,3.200000*%
G04 #@! TD*
G04 #@! TA.AperFunction,ComponentPad*
%ADD27C,1.440000*%
G04 #@! TD*
G04 #@! TA.AperFunction,ComponentPad*
%ADD28C,3.600000*%
G04 #@! TD*
G04 #@! TA.AperFunction,ComponentPad*
%ADD29RoundRect,0.250001X0.949999X-0.949999X0.949999X0.949999X-0.949999X0.949999X-0.949999X-0.949999X0*%
G04 #@! TD*
G04 #@! TA.AperFunction,ComponentPad*
%ADD30R,1.905000X2.000000*%
G04 #@! TD*
G04 #@! TA.AperFunction,ComponentPad*
%ADD31O,1.905000X2.000000*%
G04 #@! TD*
G04 #@! TA.AperFunction,ViaPad*
%ADD32C,1.400000*%
G04 #@! TD*
G04 #@! TA.AperFunction,Conductor*
%ADD33C,1.000000*%
G04 #@! TD*
G04 #@! TA.AperFunction,Conductor*
%ADD34C,2.000000*%
G04 #@! TD*
G04 APERTURE END LIST*
D10*
X126120000Y-72500000D03*
X126120000Y-69960000D03*
X126120000Y-67420000D03*
X126120000Y-64880000D03*
X118500000Y-64880000D03*
X118500000Y-67420000D03*
X118500000Y-69960000D03*
X118500000Y-72500000D03*
D11*
X154750000Y-90500000D03*
X152250000Y-90500000D03*
D12*
X119380000Y-91440000D03*
D11*
X122880000Y-91440000D03*
D13*
X115602500Y-32675000D03*
D14*
X115602500Y-37675000D03*
D11*
X159500000Y-60500000D03*
X151880000Y-60500000D03*
D15*
X180340000Y-66675000D03*
D16*
X175340000Y-66675000D03*
D11*
X127190000Y-88000000D03*
X134810000Y-88000000D03*
X158810000Y-86000000D03*
X151190000Y-86000000D03*
X134500000Y-73500000D03*
X132000000Y-73500000D03*
D17*
X81700000Y-84480000D03*
D18*
X81700000Y-81940000D03*
X81700000Y-79400000D03*
X81700000Y-76860000D03*
X81700000Y-74320000D03*
D11*
X134810000Y-79000000D03*
X127190000Y-79000000D03*
X118130000Y-60325000D03*
X120630000Y-60325000D03*
D19*
X126750000Y-56200000D03*
X149250000Y-56200000D03*
D11*
X86258400Y-97612200D03*
X86258400Y-89992200D03*
D20*
X123310000Y-30600000D03*
X123310000Y-48600000D03*
X158810000Y-30600000D03*
X158810000Y-48600000D03*
D17*
X104140000Y-40005000D03*
D18*
X101600000Y-40005000D03*
X99060000Y-40005000D03*
X96520000Y-40005000D03*
X93980000Y-40005000D03*
X91440000Y-40005000D03*
X88900000Y-40005000D03*
D17*
X135060000Y-65160000D03*
D18*
X137600000Y-65160000D03*
X135060000Y-67700000D03*
X137600000Y-67700000D03*
D21*
X164465000Y-97155000D03*
D14*
X159465000Y-97155000D03*
D11*
X169545000Y-60000000D03*
X169545000Y-57500000D03*
D12*
X129655000Y-96880000D03*
D11*
X133155000Y-96880000D03*
X158810000Y-82000000D03*
X151190000Y-82000000D03*
D22*
X139190000Y-79690000D03*
D23*
X139190000Y-82230000D03*
X139190000Y-84770000D03*
X139190000Y-87310000D03*
X146810000Y-87310000D03*
X146810000Y-84770000D03*
X146810000Y-82230000D03*
X146810000Y-79690000D03*
D24*
X139520000Y-72780000D03*
D16*
X142060000Y-72780000D03*
X144600000Y-72780000D03*
D17*
X112776000Y-57404000D03*
D18*
X112776000Y-59944000D03*
X112776000Y-62484000D03*
X112776000Y-65024000D03*
X112776000Y-67564000D03*
X112776000Y-70104000D03*
D11*
X165755000Y-55245000D03*
X165755000Y-52745000D03*
D25*
X153655000Y-100000000D03*
D26*
X138415000Y-100000000D03*
D27*
X78857000Y-91338400D03*
X81397000Y-93878400D03*
X78857000Y-96418400D03*
D28*
X170420000Y-89315000D03*
X183920000Y-89315000D03*
D11*
X134810000Y-83500000D03*
X127190000Y-83500000D03*
X148560000Y-66660000D03*
X146060000Y-66660000D03*
X120500000Y-76000000D03*
X120500000Y-83620000D03*
D16*
X108430932Y-52265000D03*
X108430932Y-54805000D03*
X108430932Y-57345000D03*
X108430932Y-59885000D03*
X108430932Y-62425000D03*
X108430932Y-64965000D03*
X108430932Y-67505000D03*
X108430932Y-70045000D03*
X108430932Y-72585000D03*
X108430932Y-75125000D03*
X108430932Y-77665000D03*
X108430932Y-80205000D03*
X85569068Y-52265000D03*
X85569068Y-54805000D03*
X85569068Y-57345000D03*
X85569068Y-59885000D03*
X85569068Y-62425000D03*
X85569068Y-64965000D03*
X85569068Y-67505000D03*
X85569068Y-70045000D03*
X85569068Y-72585000D03*
X85569068Y-75125000D03*
X85569068Y-77665000D03*
X85569068Y-80205000D03*
D29*
X160000000Y-74500000D03*
D19*
X160000000Y-67000000D03*
D30*
X175895000Y-58420000D03*
D31*
X178435000Y-58420000D03*
X180975000Y-58420000D03*
D24*
X145040000Y-93380000D03*
D16*
X142500000Y-93380000D03*
X139960000Y-93380000D03*
D27*
X158500000Y-52000000D03*
X155960000Y-54540000D03*
X153420000Y-52000000D03*
D17*
X81600000Y-61080000D03*
D18*
X81600000Y-63620000D03*
X81600000Y-66160000D03*
X81600000Y-68700000D03*
D32*
X118110000Y-60325000D03*
X126000000Y-62750000D03*
X140335000Y-76835000D03*
D33*
X105845000Y-70045000D02*
X108430932Y-70045000D01*
X93980000Y-58180000D02*
X105845000Y-70045000D01*
X93980000Y-40005000D02*
X93980000Y-58180000D01*
X107305000Y-67505000D02*
X108430932Y-67505000D01*
X96520000Y-56720000D02*
X107305000Y-67505000D01*
X96520000Y-40005000D02*
X96520000Y-56720000D01*
X124100000Y-76900000D02*
X124100000Y-84910000D01*
X121000000Y-71500000D02*
X121000000Y-73800000D01*
X121000000Y-73800000D02*
X124100000Y-76900000D01*
X119460000Y-69960000D02*
X121000000Y-71500000D01*
X124100000Y-84910000D02*
X127190000Y-88000000D01*
X118500000Y-69960000D02*
X119460000Y-69960000D01*
X134900000Y-71900000D02*
X134900000Y-73100000D01*
X132000000Y-69000000D02*
X134900000Y-71900000D01*
X134900000Y-73100000D02*
X134500000Y-73500000D01*
X132000000Y-65000000D02*
X132000000Y-69000000D01*
X152690000Y-79690000D02*
X146810000Y-79690000D01*
X159300000Y-79200000D02*
X153180000Y-79200000D01*
X161100000Y-87700000D02*
X161100000Y-81000000D01*
X158300000Y-90500000D02*
X161100000Y-87700000D01*
X161100000Y-81000000D02*
X159300000Y-79200000D01*
X153180000Y-79200000D02*
X152690000Y-79690000D01*
X154750000Y-90500000D02*
X158300000Y-90500000D01*
X135000000Y-69500000D02*
X135000000Y-68000000D01*
X137000000Y-71500000D02*
X135000000Y-69500000D01*
X137000000Y-74400000D02*
X137000000Y-71500000D01*
X137600000Y-75000000D02*
X137000000Y-74400000D01*
X156400000Y-75500000D02*
X142500000Y-75500000D01*
X157800000Y-76900000D02*
X156400000Y-75500000D01*
X160900000Y-76900000D02*
X157800000Y-76900000D01*
X142500000Y-75500000D02*
X142000000Y-75000000D01*
X163600000Y-79600000D02*
X160900000Y-76900000D01*
X163600000Y-88100000D02*
X163600000Y-79600000D01*
X142000000Y-75000000D02*
X137600000Y-75000000D01*
X159465000Y-92235000D02*
X163600000Y-88100000D01*
X159465000Y-97155000D02*
X159465000Y-92235000D01*
X142000000Y-70000000D02*
X146000000Y-70000000D01*
X142000000Y-72720000D02*
X142000000Y-70000000D01*
X142060000Y-72780000D02*
X142000000Y-72720000D01*
X79800000Y-70500000D02*
X81600000Y-68700000D01*
X79800000Y-74960000D02*
X79800000Y-70500000D01*
X81700000Y-76860000D02*
X79800000Y-74960000D01*
X78000000Y-80780000D02*
X81700000Y-84480000D01*
X78000000Y-67220000D02*
X78000000Y-80780000D01*
X78900000Y-66320000D02*
X78000000Y-67220000D01*
X78900000Y-61920000D02*
X79400000Y-61420000D01*
X78900000Y-66320000D02*
X78900000Y-61920000D01*
X104140000Y-38140000D02*
X104140000Y-40005000D01*
X87000000Y-37500000D02*
X103500000Y-37500000D01*
X103500000Y-37500000D02*
X104140000Y-38140000D01*
X79400000Y-45100000D02*
X87000000Y-37500000D01*
X79400000Y-61420000D02*
X79400000Y-45100000D01*
X81600000Y-63620000D02*
X78900000Y-66320000D01*
X114600000Y-74035932D02*
X108430932Y-80205000D01*
X114600000Y-61768000D02*
X114600000Y-74035932D01*
X112776000Y-59944000D02*
X114600000Y-61768000D01*
X118110000Y-57785000D02*
X118110000Y-60325000D01*
X111125000Y-54610000D02*
X114935000Y-54610000D01*
X108430932Y-59885000D02*
X110490000Y-57825932D01*
X114935000Y-54610000D02*
X118110000Y-57785000D01*
X110490000Y-55245000D02*
X111125000Y-54610000D01*
X116205000Y-62230000D02*
X116205000Y-65405000D01*
X110490000Y-57825932D02*
X110490000Y-55245000D01*
X118220000Y-67420000D02*
X118500000Y-67420000D01*
X116205000Y-65405000D02*
X118220000Y-67420000D01*
X118110000Y-60325000D02*
X116205000Y-62230000D01*
X178435000Y-58420000D02*
X178435000Y-56515000D01*
X127190000Y-88000000D02*
X127190000Y-89090000D01*
X127190000Y-89090000D02*
X129655000Y-91555000D01*
X178435000Y-56515000D02*
X177165000Y-55245000D01*
X159500000Y-61500000D02*
X158000000Y-63000000D01*
X130500000Y-65000000D02*
X132000000Y-65000000D01*
X129655000Y-91555000D02*
X129655000Y-96880000D01*
X127190000Y-88000000D02*
X127000000Y-88000000D01*
X128250000Y-62750000D02*
X130500000Y-65000000D01*
X158000000Y-63000000D02*
X134000000Y-63000000D01*
X177165000Y-55245000D02*
X174755000Y-55245000D01*
X170000000Y-60000000D02*
X169545000Y-60000000D01*
X159500000Y-60500000D02*
X159500000Y-61500000D01*
X134000000Y-63000000D02*
X132000000Y-65000000D01*
X174755000Y-55245000D02*
X170000000Y-60000000D01*
X126000000Y-62750000D02*
X128250000Y-62750000D01*
X118500000Y-81620000D02*
X120500000Y-83620000D01*
X118500000Y-72500000D02*
X118500000Y-81620000D01*
X153655000Y-100000000D02*
X153655000Y-94630000D01*
X154752622Y-93532378D02*
X154752622Y-93157622D01*
X153655000Y-94630000D02*
X154752622Y-93532378D01*
X154750000Y-93155000D02*
X154750000Y-90500000D01*
X154752622Y-93157622D02*
X154750000Y-93155000D01*
X115570000Y-91440000D02*
X119380000Y-91440000D01*
X108430932Y-84300932D02*
X115570000Y-91440000D01*
X108430932Y-80205000D02*
X108430932Y-84300932D01*
X146000000Y-70000000D02*
X146000000Y-66720000D01*
X177960000Y-53500000D02*
X180975000Y-56515000D01*
X150609997Y-30609997D02*
X123246739Y-30609997D01*
X167005000Y-55245000D02*
X168910000Y-53340000D01*
X168910000Y-51910000D02*
X167000000Y-50000000D01*
X166000000Y-46000000D02*
X150609997Y-30609997D01*
X115602500Y-32675000D02*
X121181736Y-32675000D01*
X160000000Y-74500000D02*
X158000000Y-72500000D01*
X169500000Y-53340000D02*
X169660000Y-53500000D01*
X165735000Y-55245000D02*
X167005000Y-55245000D01*
X169660000Y-53500000D02*
X177960000Y-53500000D01*
X148500000Y-72500000D02*
X146000000Y-70000000D01*
X146000000Y-66720000D02*
X146060000Y-66660000D01*
X121181736Y-32675000D02*
X123246739Y-30609997D01*
X166000000Y-50000000D02*
X166000000Y-46000000D01*
X168910000Y-53340000D02*
X168910000Y-51910000D01*
X168910000Y-53340000D02*
X169500000Y-53340000D01*
X158000000Y-72500000D02*
X148500000Y-72500000D01*
X167000000Y-50000000D02*
X166000000Y-50000000D01*
X180975000Y-56515000D02*
X180975000Y-58420000D01*
X172315000Y-62000000D02*
X175895000Y-58420000D01*
X167981768Y-62000000D02*
X172315000Y-62000000D01*
X160000000Y-54018233D02*
X161575884Y-55594116D01*
X160000000Y-53500000D02*
X160000000Y-54018233D01*
X156670000Y-60500000D02*
X161575884Y-55594116D01*
X158500000Y-52000000D02*
X160000000Y-53500000D01*
X161575884Y-55594116D02*
X167981768Y-62000000D01*
X151880000Y-60500000D02*
X156670000Y-60500000D01*
X99136200Y-102870000D02*
X160020000Y-102870000D01*
X160020000Y-102870000D02*
X164465000Y-98425000D01*
D34*
X180340000Y-85735000D02*
X183920000Y-89315000D01*
D33*
X183515000Y-89535000D02*
X183735000Y-89315000D01*
D34*
X180340000Y-66675000D02*
X180340000Y-85735000D01*
D33*
X164465000Y-98425000D02*
X164465000Y-97155000D01*
D34*
X183920000Y-89315000D02*
X176080000Y-97155000D01*
D33*
X183920000Y-89315000D02*
X183735000Y-89315000D01*
X86258400Y-89992200D02*
X99136200Y-102870000D01*
D34*
X176080000Y-97155000D02*
X164465000Y-97155000D01*
D33*
X135890000Y-89080000D02*
X134810000Y-88000000D01*
X138415000Y-100000000D02*
X135890000Y-97475000D01*
X135890000Y-97475000D02*
X135890000Y-89080000D01*
X158000000Y-88000000D02*
X158810000Y-87190000D01*
X158810000Y-87190000D02*
X158810000Y-86000000D01*
X145040000Y-93380000D02*
X145040000Y-93460000D01*
X150500000Y-88000000D02*
X158000000Y-88000000D01*
X145040000Y-93460000D02*
X150500000Y-88000000D01*
X81700000Y-84480000D02*
X84020000Y-84480000D01*
X104140000Y-40005000D02*
X104140000Y-47974068D01*
X85569068Y-82930932D02*
X85569068Y-80205000D01*
X84020000Y-84480000D02*
X85569068Y-82930932D01*
X104140000Y-47974068D02*
X108430932Y-52265000D01*
X81600000Y-66160000D02*
X83650000Y-68210000D01*
X83650000Y-68210000D02*
X83650000Y-71350000D01*
X83650000Y-71350000D02*
X84955000Y-70045000D01*
X81700000Y-74320000D02*
X82296400Y-74320000D01*
X83650000Y-72966400D02*
X83650000Y-71350000D01*
X88900000Y-40005000D02*
X83650000Y-45255000D01*
X83650000Y-45255000D02*
X83650000Y-68210000D01*
X84955000Y-70045000D02*
X85569068Y-70045000D01*
X82296400Y-74320000D02*
X83650000Y-72966400D01*
X140335000Y-76835000D02*
X145730000Y-82230000D01*
X145730000Y-82230000D02*
X146810000Y-82230000D01*
X127190000Y-79000000D02*
X128530000Y-79000000D01*
X133030000Y-83500000D02*
X134810000Y-83500000D01*
X128530000Y-79000000D02*
X133030000Y-83500000D01*
X135060000Y-65160000D02*
X135060000Y-67700000D01*
X78857000Y-96418400D02*
X85064600Y-96418400D01*
X85064600Y-96418400D02*
X86258400Y-97612200D01*
X108489932Y-65024000D02*
X108430932Y-64965000D01*
X101600000Y-40005000D02*
X101600000Y-58134068D01*
X101600000Y-58134068D02*
X108430932Y-64965000D01*
X112776000Y-65024000D02*
X108489932Y-65024000D01*
X112776000Y-67564000D02*
X108489932Y-67564000D01*
X108489932Y-67564000D02*
X108430932Y-67505000D01*
X108489932Y-70104000D02*
X108430932Y-70045000D01*
X112776000Y-70104000D02*
X108489932Y-70104000D01*
X91440000Y-61634068D02*
X85569068Y-67505000D01*
X91440000Y-40005000D02*
X91440000Y-61634068D01*
X151190000Y-82930000D02*
X151190000Y-82000000D01*
X146810000Y-87310000D02*
X151190000Y-82930000D01*
X123190000Y-59055000D02*
X123190000Y-60310000D01*
X139190000Y-82230000D02*
X137730000Y-82230000D01*
X123190000Y-73190000D02*
X123190000Y-59055000D01*
X126000000Y-76000000D02*
X123190000Y-73190000D01*
X137000000Y-81500000D02*
X137000000Y-77500000D01*
X135500000Y-76000000D02*
X126000000Y-76000000D01*
X108430932Y-54805000D02*
X109895932Y-53340000D01*
X137000000Y-77500000D02*
X135500000Y-76000000D01*
X109895932Y-53340000D02*
X117475000Y-53340000D01*
X137730000Y-82230000D02*
X137000000Y-81500000D01*
X117475000Y-53340000D02*
X123190000Y-59055000D01*
X112776000Y-62484000D02*
X108489932Y-62484000D01*
X108489932Y-62484000D02*
X108430932Y-62425000D01*
G04 #@! TA.AperFunction,Conductor*
G36*
X121550294Y-28460185D02*
G01*
X121596049Y-28512989D01*
X121605993Y-28582147D01*
X121576968Y-28645703D01*
X121557567Y-28663766D01*
X121452452Y-28742455D01*
X121366206Y-28857664D01*
X121366202Y-28857671D01*
X121315908Y-28992517D01*
X121312672Y-29022620D01*
X121309501Y-29052123D01*
X121309500Y-29052135D01*
X121309500Y-31080952D01*
X121289815Y-31147991D01*
X121273181Y-31168633D01*
X120803635Y-31638181D01*
X120742312Y-31671666D01*
X120715954Y-31674500D01*
X117627000Y-31674500D01*
X117559961Y-31654815D01*
X117514206Y-31602011D01*
X117503000Y-31550500D01*
X117503000Y-31474997D01*
X117502999Y-31474984D01*
X117492499Y-31372204D01*
X117492499Y-31372203D01*
X117437314Y-31205666D01*
X117401739Y-31147991D01*
X117345213Y-31056348D01*
X117345210Y-31056344D01*
X117221155Y-30932289D01*
X117221151Y-30932286D01*
X117071837Y-30840187D01*
X117071835Y-30840186D01*
X116988565Y-30812593D01*
X116905297Y-30785001D01*
X116905295Y-30785000D01*
X116802515Y-30774500D01*
X116802508Y-30774500D01*
X114402492Y-30774500D01*
X114402484Y-30774500D01*
X114299704Y-30785000D01*
X114299703Y-30785001D01*
X114133164Y-30840186D01*
X114133162Y-30840187D01*
X113983848Y-30932286D01*
X113983844Y-30932289D01*
X113859789Y-31056344D01*
X113859786Y-31056348D01*
X113767687Y-31205662D01*
X113767686Y-31205664D01*
X113712501Y-31372203D01*
X113712500Y-31372204D01*
X113702000Y-31474984D01*
X113702000Y-33875015D01*
X113712500Y-33977795D01*
X113712501Y-33977796D01*
X113767686Y-34144335D01*
X113767687Y-34144337D01*
X113859786Y-34293651D01*
X113859789Y-34293655D01*
X113983844Y-34417710D01*
X113983848Y-34417713D01*
X114133162Y-34509812D01*
X114133164Y-34509813D01*
X114133166Y-34509814D01*
X114299703Y-34564999D01*
X114402492Y-34575500D01*
X114402497Y-34575500D01*
X116802503Y-34575500D01*
X116802508Y-34575500D01*
X116905297Y-34564999D01*
X117071834Y-34509814D01*
X117221155Y-34417711D01*
X117345211Y-34293655D01*
X117437314Y-34144334D01*
X117492499Y-33977797D01*
X117503000Y-33875008D01*
X117503000Y-33799500D01*
X117522685Y-33732461D01*
X117575489Y-33686706D01*
X117627000Y-33675500D01*
X121280278Y-33675500D01*
X121311302Y-33669328D01*
X121376924Y-33656275D01*
X121473572Y-33637051D01*
X121526901Y-33614961D01*
X121655650Y-33561632D01*
X121819518Y-33452139D01*
X121958875Y-33312782D01*
X121958875Y-33312780D01*
X121969083Y-33302573D01*
X121969085Y-33302570D01*
X122634837Y-32636818D01*
X122696160Y-32603333D01*
X122722518Y-32600499D01*
X124857871Y-32600499D01*
X124857872Y-32600499D01*
X124917483Y-32594091D01*
X125052331Y-32543796D01*
X125167546Y-32457546D01*
X125253796Y-32342331D01*
X125304091Y-32207483D01*
X125310500Y-32147873D01*
X125310500Y-31734497D01*
X125330185Y-31667458D01*
X125382989Y-31621703D01*
X125434500Y-31610497D01*
X150144215Y-31610497D01*
X150211254Y-31630182D01*
X150231896Y-31646816D01*
X164963181Y-46378101D01*
X164996666Y-46439424D01*
X164999500Y-46465782D01*
X164999500Y-49901459D01*
X164999500Y-50098541D01*
X164999500Y-50098543D01*
X164999499Y-50098543D01*
X165037947Y-50291829D01*
X165037950Y-50291839D01*
X165113364Y-50473907D01*
X165113371Y-50473920D01*
X165222860Y-50637781D01*
X165222863Y-50637785D01*
X165362214Y-50777136D01*
X165362218Y-50777139D01*
X165526079Y-50886628D01*
X165526092Y-50886635D01*
X165648753Y-50937442D01*
X165708165Y-50962051D01*
X165708169Y-50962051D01*
X165708170Y-50962052D01*
X165901456Y-51000500D01*
X165901459Y-51000500D01*
X166534218Y-51000500D01*
X166601257Y-51020185D01*
X166621899Y-51036819D01*
X167873181Y-52288101D01*
X167906666Y-52349424D01*
X167909500Y-52375782D01*
X167909500Y-52874218D01*
X167889815Y-52941257D01*
X167873181Y-52961899D01*
X166665421Y-54169658D01*
X166604098Y-54203143D01*
X166534406Y-54198159D01*
X166511752Y-54186961D01*
X166508227Y-54184745D01*
X166436610Y-54132713D01*
X166377657Y-54102675D01*
X166372929Y-54099703D01*
X166353332Y-54077540D01*
X166331825Y-54057228D01*
X166330445Y-54051658D01*
X166326646Y-54047361D01*
X166322142Y-54018124D01*
X166315031Y-53989407D01*
X166316881Y-53983976D01*
X166316008Y-53978306D01*
X166328025Y-53951275D01*
X166337569Y-53923272D01*
X166342297Y-53919174D01*
X166344393Y-53914462D01*
X166358220Y-53905378D01*
X166382624Y-53884233D01*
X166436349Y-53856859D01*
X166480921Y-53824474D01*
X165801447Y-53145000D01*
X165807661Y-53145000D01*
X165909394Y-53117741D01*
X166000606Y-53065080D01*
X166075080Y-52990606D01*
X166127741Y-52899394D01*
X166155000Y-52797661D01*
X166155000Y-52791447D01*
X166834474Y-53470921D01*
X166866859Y-53426349D01*
X166959755Y-53244031D01*
X167022990Y-53049417D01*
X167055000Y-52847317D01*
X167055000Y-52642682D01*
X167022990Y-52440582D01*
X166959755Y-52245968D01*
X166866859Y-52063650D01*
X166834474Y-52019077D01*
X166834474Y-52019076D01*
X166155000Y-52698551D01*
X166155000Y-52692339D01*
X166127741Y-52590606D01*
X166075080Y-52499394D01*
X166000606Y-52424920D01*
X165909394Y-52372259D01*
X165807661Y-52345000D01*
X165801446Y-52345000D01*
X166480922Y-51665524D01*
X166480921Y-51665523D01*
X166436359Y-51633147D01*
X166436350Y-51633141D01*
X166254031Y-51540244D01*
X166059417Y-51477009D01*
X165857317Y-51445000D01*
X165652683Y-51445000D01*
X165450582Y-51477009D01*
X165255968Y-51540244D01*
X165073644Y-51633143D01*
X165029077Y-51665523D01*
X165029077Y-51665524D01*
X165708554Y-52345000D01*
X165702339Y-52345000D01*
X165600606Y-52372259D01*
X165509394Y-52424920D01*
X165434920Y-52499394D01*
X165382259Y-52590606D01*
X165355000Y-52692339D01*
X165355000Y-52698553D01*
X164675524Y-52019077D01*
X164675523Y-52019077D01*
X164643143Y-52063644D01*
X164550244Y-52245968D01*
X164487009Y-52440582D01*
X164455000Y-52642682D01*
X164455000Y-52847317D01*
X164487009Y-53049417D01*
X164550244Y-53244031D01*
X164643141Y-53426350D01*
X164643147Y-53426359D01*
X164675523Y-53470921D01*
X164675524Y-53470922D01*
X165355000Y-52791446D01*
X165355000Y-52797661D01*
X165382259Y-52899394D01*
X165434920Y-52990606D01*
X165509394Y-53065080D01*
X165600606Y-53117741D01*
X165702339Y-53145000D01*
X165708553Y-53145000D01*
X165029076Y-53824474D01*
X165073652Y-53856861D01*
X165127376Y-53884234D01*
X165178172Y-53932208D01*
X165194968Y-54000028D01*
X165172431Y-54066164D01*
X165127379Y-54105203D01*
X165073386Y-54132714D01*
X164907786Y-54253028D01*
X164763028Y-54397786D01*
X164642715Y-54563386D01*
X164549781Y-54745776D01*
X164486522Y-54940465D01*
X164454500Y-55142648D01*
X164454500Y-55347351D01*
X164486522Y-55549534D01*
X164549781Y-55744223D01*
X164569291Y-55782512D01*
X164620381Y-55882782D01*
X164642715Y-55926613D01*
X164763028Y-56092213D01*
X164907786Y-56236971D01*
X165052209Y-56341898D01*
X165073390Y-56357287D01*
X165189512Y-56416454D01*
X165255776Y-56450218D01*
X165255778Y-56450218D01*
X165255781Y-56450220D01*
X165360137Y-56484127D01*
X165450465Y-56513477D01*
X165551557Y-56529488D01*
X165652648Y-56545500D01*
X165652649Y-56545500D01*
X165857351Y-56545500D01*
X165857352Y-56545500D01*
X166059534Y-56513477D01*
X166254219Y-56450220D01*
X166436610Y-56357287D01*
X166558403Y-56268799D01*
X166558786Y-56268527D01*
X166591321Y-56257248D01*
X166623683Y-56245702D01*
X166624716Y-56245672D01*
X166624802Y-56245643D01*
X166625756Y-56245642D01*
X166630762Y-56245500D01*
X167103542Y-56245500D01*
X167134566Y-56239328D01*
X167200188Y-56226275D01*
X167296836Y-56207051D01*
X167350165Y-56184961D01*
X167478914Y-56131632D01*
X167642782Y-56022139D01*
X167782139Y-55882782D01*
X167782140Y-55882779D01*
X167789206Y-55875714D01*
X167789209Y-55875710D01*
X169192697Y-54472221D01*
X169254018Y-54438738D01*
X169312504Y-54440138D01*
X169320329Y-54442237D01*
X169368164Y-54462051D01*
X169464812Y-54481275D01*
X169533435Y-54494925D01*
X169561458Y-54500500D01*
X169561459Y-54500500D01*
X169561460Y-54500500D01*
X169758540Y-54500500D01*
X173785217Y-54500500D01*
X173852256Y-54520185D01*
X173898011Y-54572989D01*
X173907955Y-54642147D01*
X173878930Y-54705703D01*
X173872898Y-54712181D01*
X171056681Y-57528397D01*
X170995358Y-57561882D01*
X170925666Y-57556898D01*
X170869733Y-57515026D01*
X170845316Y-57449562D01*
X170845000Y-57440716D01*
X170845000Y-57397682D01*
X170812990Y-57195582D01*
X170749755Y-57000968D01*
X170656859Y-56818650D01*
X170624474Y-56774077D01*
X170624474Y-56774076D01*
X169945000Y-57453553D01*
X169945000Y-57447339D01*
X169917741Y-57345606D01*
X169865080Y-57254394D01*
X169790606Y-57179920D01*
X169699394Y-57127259D01*
X169597661Y-57100000D01*
X169591446Y-57100000D01*
X170270922Y-56420524D01*
X170270921Y-56420523D01*
X170226359Y-56388147D01*
X170226350Y-56388141D01*
X170044031Y-56295244D01*
X169849417Y-56232009D01*
X169647317Y-56200000D01*
X169442683Y-56200000D01*
X169240582Y-56232009D01*
X169045968Y-56295244D01*
X168863644Y-56388143D01*
X168819077Y-56420523D01*
X168819077Y-56420524D01*
X169498554Y-57100000D01*
X169492339Y-57100000D01*
X169390606Y-57127259D01*
X169299394Y-57179920D01*
X169224920Y-57254394D01*
X169172259Y-57345606D01*
X169145000Y-57447339D01*
X169145000Y-57453553D01*
X168465524Y-56774077D01*
X168465523Y-56774077D01*
X168433143Y-56818644D01*
X168340244Y-57000968D01*
X168277009Y-57195582D01*
X168245000Y-57397682D01*
X168245000Y-57602317D01*
X168277009Y-57804417D01*
X168340244Y-57999031D01*
X168433141Y-58181350D01*
X168433147Y-58181359D01*
X168465523Y-58225921D01*
X168465524Y-58225922D01*
X169145000Y-57546446D01*
X169145000Y-57552661D01*
X169172259Y-57654394D01*
X169224920Y-57745606D01*
X169299394Y-57820080D01*
X169390606Y-57872741D01*
X169492339Y-57900000D01*
X169498553Y-57900000D01*
X168819076Y-58579474D01*
X168863652Y-58611861D01*
X168917376Y-58639234D01*
X168968172Y-58687208D01*
X168984968Y-58755028D01*
X168962431Y-58821164D01*
X168917379Y-58860203D01*
X168863386Y-58887714D01*
X168697786Y-59008028D01*
X168553028Y-59152786D01*
X168432715Y-59318386D01*
X168339781Y-59500776D01*
X168276522Y-59695465D01*
X168244500Y-59897648D01*
X168244500Y-60102351D01*
X168276522Y-60304534D01*
X168339781Y-60499223D01*
X168432712Y-60681609D01*
X168448253Y-60702999D01*
X168471732Y-60768806D01*
X168455906Y-60836860D01*
X168405800Y-60885554D01*
X168337322Y-60899429D01*
X168272213Y-60874079D01*
X168260253Y-60863565D01*
X162353028Y-54956340D01*
X162353024Y-54956334D01*
X162213666Y-54816976D01*
X162213659Y-54816971D01*
X161036819Y-53640131D01*
X161003334Y-53578808D01*
X161000500Y-53552450D01*
X161000500Y-53401458D01*
X161000499Y-53401457D01*
X160988563Y-53341447D01*
X160962051Y-53208164D01*
X160895777Y-53048165D01*
X160886632Y-53026086D01*
X160777139Y-52862218D01*
X160637782Y-52722861D01*
X160637781Y-52722860D01*
X159730476Y-51815556D01*
X159696992Y-51754234D01*
X159695689Y-51747296D01*
X159690447Y-51714199D01*
X159690446Y-51714195D01*
X159631083Y-51531493D01*
X159631082Y-51531491D01*
X159543865Y-51360319D01*
X159430945Y-51204898D01*
X159295102Y-51069055D01*
X159139681Y-50956135D01*
X159004374Y-50887192D01*
X158968506Y-50868916D01*
X158785802Y-50809553D01*
X158650338Y-50788097D01*
X158587204Y-50758167D01*
X158550273Y-50698856D01*
X158551271Y-50628993D01*
X158560000Y-50614518D01*
X158560000Y-48934863D01*
X158649816Y-48986718D01*
X158755364Y-49015000D01*
X158864636Y-49015000D01*
X158970184Y-48986718D01*
X159060000Y-48934863D01*
X159060000Y-50600000D01*
X160357828Y-50600000D01*
X160357844Y-50599999D01*
X160417372Y-50593598D01*
X160417379Y-50593596D01*
X160552086Y-50543354D01*
X160552093Y-50543350D01*
X160667187Y-50457190D01*
X160667190Y-50457187D01*
X160753350Y-50342093D01*
X160753354Y-50342086D01*
X160803596Y-50207379D01*
X160803598Y-50207372D01*
X160809999Y-50147844D01*
X160810000Y-50147827D01*
X160810000Y-48850000D01*
X159144863Y-48850000D01*
X159196718Y-48760184D01*
X159225000Y-48654636D01*
X159225000Y-48545364D01*
X159196718Y-48439816D01*
X159144863Y-48350000D01*
X160810000Y-48350000D01*
X160810000Y-47052172D01*
X160809999Y-47052155D01*
X160803598Y-46992627D01*
X160803596Y-46992620D01*
X160753354Y-46857913D01*
X160753350Y-46857906D01*
X160667190Y-46742812D01*
X160667187Y-46742809D01*
X160552093Y-46656649D01*
X160552086Y-46656645D01*
X160417379Y-46606403D01*
X160417372Y-46606401D01*
X160357844Y-46600000D01*
X159060000Y-46600000D01*
X159060000Y-48265136D01*
X158970184Y-48213282D01*
X158864636Y-48185000D01*
X158755364Y-48185000D01*
X158649816Y-48213282D01*
X158560000Y-48265136D01*
X158560000Y-46600000D01*
X157262155Y-46600000D01*
X157202627Y-46606401D01*
X157202620Y-46606403D01*
X157067913Y-46656645D01*
X157067906Y-46656649D01*
X156952812Y-46742809D01*
X156952809Y-46742812D01*
X156866649Y-46857906D01*
X156866645Y-46857913D01*
X156816403Y-46992620D01*
X156816401Y-46992627D01*
X156810000Y-47052155D01*
X156810000Y-48350000D01*
X158475137Y-48350000D01*
X158423282Y-48439816D01*
X158395000Y-48545364D01*
X158395000Y-48654636D01*
X158423282Y-48760184D01*
X158475137Y-48850000D01*
X156810000Y-48850000D01*
X156810000Y-50147844D01*
X156816401Y-50207372D01*
X156816403Y-50207379D01*
X156866645Y-50342086D01*
X156866649Y-50342093D01*
X156952809Y-50457187D01*
X156952812Y-50457190D01*
X157067906Y-50543350D01*
X157067913Y-50543354D01*
X157202620Y-50593596D01*
X157202627Y-50593598D01*
X157262155Y-50599999D01*
X157262172Y-50600000D01*
X158076229Y-50600000D01*
X158143268Y-50619685D01*
X158189023Y-50672489D01*
X158198967Y-50741647D01*
X158169942Y-50805203D01*
X158114547Y-50841931D01*
X158031493Y-50868916D01*
X157860318Y-50956135D01*
X157824599Y-50982087D01*
X157704898Y-51069055D01*
X157704896Y-51069057D01*
X157704895Y-51069057D01*
X157569057Y-51204895D01*
X157569057Y-51204896D01*
X157569055Y-51204898D01*
X157520560Y-51271645D01*
X157456135Y-51360318D01*
X157368916Y-51531493D01*
X157309553Y-51714197D01*
X157279500Y-51903945D01*
X157279500Y-52096054D01*
X157309553Y-52285802D01*
X157368916Y-52468506D01*
X157416992Y-52562859D01*
X157456135Y-52639681D01*
X157569055Y-52795102D01*
X157704898Y-52930945D01*
X157860319Y-53043865D01*
X157901956Y-53065080D01*
X158031493Y-53131083D01*
X158214192Y-53190445D01*
X158214193Y-53190445D01*
X158214199Y-53190447D01*
X158247275Y-53195685D01*
X158310407Y-53225613D01*
X158315557Y-53230477D01*
X158963181Y-53878101D01*
X158996666Y-53939424D01*
X158999500Y-53965782D01*
X158999500Y-54116778D01*
X159037947Y-54310062D01*
X159037948Y-54310066D01*
X159046655Y-54331085D01*
X159046656Y-54331089D01*
X159113364Y-54492139D01*
X159113371Y-54492152D01*
X159145342Y-54540000D01*
X159206858Y-54632065D01*
X159213595Y-54642147D01*
X159222862Y-54656017D01*
X160073280Y-55506435D01*
X160106765Y-55567758D01*
X160101781Y-55637450D01*
X160073280Y-55681797D01*
X156291899Y-59463181D01*
X156230576Y-59496666D01*
X156204218Y-59499500D01*
X152755762Y-59499500D01*
X152688723Y-59479815D01*
X152682877Y-59475818D01*
X152561613Y-59387715D01*
X152561612Y-59387714D01*
X152561610Y-59387713D01*
X152504653Y-59358691D01*
X152379223Y-59294781D01*
X152184534Y-59231522D01*
X152009995Y-59203878D01*
X151982352Y-59199500D01*
X151777648Y-59199500D01*
X151753329Y-59203351D01*
X151575465Y-59231522D01*
X151380776Y-59294781D01*
X151198386Y-59387715D01*
X151032786Y-59508028D01*
X150888028Y-59652786D01*
X150767715Y-59818386D01*
X150674781Y-60000776D01*
X150611522Y-60195465D01*
X150579500Y-60397648D01*
X150579500Y-60602351D01*
X150611522Y-60804534D01*
X150674781Y-60999223D01*
X150725647Y-61099051D01*
X150766702Y-61179626D01*
X150767715Y-61181613D01*
X150888028Y-61347213D01*
X151032786Y-61491971D01*
X151153950Y-61580000D01*
X151198390Y-61612287D01*
X151283163Y-61655481D01*
X151380776Y-61705218D01*
X151380778Y-61705218D01*
X151380781Y-61705220D01*
X151436241Y-61723240D01*
X151541894Y-61757569D01*
X151599569Y-61797007D01*
X151626767Y-61861366D01*
X151614852Y-61930212D01*
X151567608Y-61981688D01*
X151503575Y-61999500D01*
X133901457Y-61999500D01*
X133810316Y-62017629D01*
X133810306Y-62017631D01*
X133805740Y-62018540D01*
X133708164Y-62037949D01*
X133655325Y-62059836D01*
X133648380Y-62062712D01*
X133648375Y-62062714D01*
X133526089Y-62113366D01*
X133526080Y-62113371D01*
X133362219Y-62222859D01*
X133315579Y-62269500D01*
X133222861Y-62362218D01*
X133222858Y-62362221D01*
X131621899Y-63963181D01*
X131560576Y-63996666D01*
X131534218Y-63999500D01*
X130965783Y-63999500D01*
X130898744Y-63979815D01*
X130878102Y-63963181D01*
X129034209Y-62119289D01*
X129034206Y-62119285D01*
X129034206Y-62119286D01*
X129027139Y-62112219D01*
X129027139Y-62112218D01*
X128887782Y-61972861D01*
X128887781Y-61972860D01*
X128887780Y-61972859D01*
X128723920Y-61863371D01*
X128723907Y-61863364D01*
X128577905Y-61802889D01*
X128577901Y-61802888D01*
X128569722Y-61799500D01*
X128541836Y-61787949D01*
X128443944Y-61768477D01*
X128440673Y-61767826D01*
X128440664Y-61767824D01*
X128348543Y-61749500D01*
X128348541Y-61749500D01*
X126705633Y-61749500D01*
X126638594Y-61729815D01*
X126632746Y-61725817D01*
X126629200Y-61723240D01*
X126460836Y-61637454D01*
X126281118Y-61579059D01*
X126094486Y-61549500D01*
X126094481Y-61549500D01*
X125905519Y-61549500D01*
X125905514Y-61549500D01*
X125718881Y-61579059D01*
X125539163Y-61637454D01*
X125370800Y-61723240D01*
X125308538Y-61768477D01*
X125217927Y-61834310D01*
X125217925Y-61834312D01*
X125217924Y-61834312D01*
X125084312Y-61967924D01*
X125084312Y-61967925D01*
X125084310Y-61967927D01*
X125079953Y-61973924D01*
X124973240Y-62120800D01*
X124887454Y-62289163D01*
X124829059Y-62468881D01*
X124799500Y-62655513D01*
X124799500Y-62844486D01*
X124829059Y-63031118D01*
X124887454Y-63210836D01*
X124934802Y-63303760D01*
X124973240Y-63379199D01*
X125084310Y-63532073D01*
X125084312Y-63532075D01*
X125088590Y-63536353D01*
X125122075Y-63597676D01*
X125117091Y-63667368D01*
X125075219Y-63723301D01*
X125039227Y-63741965D01*
X124959362Y-63767914D01*
X124791059Y-63853670D01*
X124638258Y-63964685D01*
X124638253Y-63964689D01*
X124504689Y-64098253D01*
X124504685Y-64098258D01*
X124414818Y-64221951D01*
X124359489Y-64264617D01*
X124289875Y-64270596D01*
X124228080Y-64237991D01*
X124193723Y-64177152D01*
X124190500Y-64149066D01*
X124190500Y-59159675D01*
X124190501Y-59159654D01*
X124190501Y-58956457D01*
X124190500Y-58956455D01*
X124181500Y-58911208D01*
X124152052Y-58763165D01*
X124090680Y-58615000D01*
X124076633Y-58581088D01*
X124076628Y-58581079D01*
X123967140Y-58417219D01*
X123967137Y-58417215D01*
X121722086Y-56172165D01*
X121638470Y-56088549D01*
X125049500Y-56088549D01*
X125049500Y-56311450D01*
X125049501Y-56311466D01*
X125078594Y-56532452D01*
X125078595Y-56532457D01*
X125078596Y-56532463D01*
X125136290Y-56747780D01*
X125136293Y-56747790D01*
X125221593Y-56953722D01*
X125221595Y-56953726D01*
X125333052Y-57146774D01*
X125333057Y-57146780D01*
X125333058Y-57146782D01*
X125468751Y-57323622D01*
X125468757Y-57323629D01*
X125626370Y-57481242D01*
X125626377Y-57481248D01*
X125724430Y-57556486D01*
X125803226Y-57616948D01*
X125996274Y-57728405D01*
X126086023Y-57765580D01*
X126201074Y-57813236D01*
X126202219Y-57813710D01*
X126417537Y-57871404D01*
X126638543Y-57900500D01*
X126638550Y-57900500D01*
X126861450Y-57900500D01*
X126861457Y-57900500D01*
X127082463Y-57871404D01*
X127297781Y-57813710D01*
X127503726Y-57728405D01*
X127696774Y-57616948D01*
X127873624Y-57481247D01*
X127891779Y-57463092D01*
X127924550Y-57430322D01*
X128031242Y-57323629D01*
X128031247Y-57323624D01*
X128166948Y-57146774D01*
X128278405Y-56953726D01*
X128363710Y-56747781D01*
X128421404Y-56532463D01*
X128450500Y-56311457D01*
X128450500Y-56088575D01*
X147550000Y-56088575D01*
X147550000Y-56311424D01*
X147579085Y-56532354D01*
X147579088Y-56532367D01*
X147636763Y-56747618D01*
X147722045Y-56953502D01*
X147722054Y-56953520D01*
X147833464Y-57146491D01*
X147833473Y-57146504D01*
X147884040Y-57212403D01*
X147884043Y-57212403D01*
X148685387Y-56411059D01*
X148690889Y-56431591D01*
X148769881Y-56568408D01*
X148881592Y-56680119D01*
X149018409Y-56759111D01*
X149038940Y-56764612D01*
X148237595Y-57565955D01*
X148237595Y-57565956D01*
X148303507Y-57616533D01*
X148496485Y-57727949D01*
X148496497Y-57727954D01*
X148702381Y-57813236D01*
X148917632Y-57870911D01*
X148917645Y-57870914D01*
X149138575Y-57900000D01*
X149361425Y-57900000D01*
X149582354Y-57870914D01*
X149582367Y-57870911D01*
X149797618Y-57813236D01*
X150003502Y-57727954D01*
X150003514Y-57727949D01*
X150196498Y-57616530D01*
X150262403Y-57565957D01*
X150262404Y-57565956D01*
X149461059Y-56764612D01*
X149481591Y-56759111D01*
X149618408Y-56680119D01*
X149730119Y-56568408D01*
X149809111Y-56431591D01*
X149814612Y-56411059D01*
X150615956Y-57212404D01*
X150615957Y-57212403D01*
X150666530Y-57146498D01*
X150777949Y-56953514D01*
X150777954Y-56953502D01*
X150863236Y-56747618D01*
X150920911Y-56532367D01*
X150920914Y-56532354D01*
X150950000Y-56311424D01*
X150950000Y-56088575D01*
X150920914Y-55867645D01*
X150920911Y-55867632D01*
X150863236Y-55652381D01*
X150825962Y-55562394D01*
X150777952Y-55446492D01*
X150777949Y-55446485D01*
X150666533Y-55253507D01*
X150615956Y-55187595D01*
X150615955Y-55187595D01*
X149814612Y-55988939D01*
X149809111Y-55968409D01*
X149730119Y-55831592D01*
X149618408Y-55719881D01*
X149481591Y-55640889D01*
X149461058Y-55635387D01*
X150262403Y-54834043D01*
X150262403Y-54834040D01*
X150196504Y-54783473D01*
X150196491Y-54783464D01*
X150003520Y-54672054D01*
X150003502Y-54672045D01*
X149797618Y-54586763D01*
X149693580Y-54558887D01*
X149582367Y-54529088D01*
X149582354Y-54529085D01*
X149361425Y-54500000D01*
X149138575Y-54500000D01*
X148917645Y-54529085D01*
X148917632Y-54529088D01*
X148702381Y-54586763D01*
X148496497Y-54672045D01*
X148496479Y-54672054D01*
X148303511Y-54783462D01*
X148237595Y-54834042D01*
X149038941Y-55635387D01*
X149018409Y-55640889D01*
X148881592Y-55719881D01*
X148769881Y-55831592D01*
X148690889Y-55968409D01*
X148685387Y-55988940D01*
X147884042Y-55187595D01*
X147833462Y-55253511D01*
X147722054Y-55446479D01*
X147722045Y-55446497D01*
X147636763Y-55652381D01*
X147579088Y-55867632D01*
X147579085Y-55867645D01*
X147550000Y-56088575D01*
X128450500Y-56088575D01*
X128450500Y-56088543D01*
X128421404Y-55867537D01*
X128363710Y-55652219D01*
X128357592Y-55637450D01*
X128278406Y-55446277D01*
X128278405Y-55446274D01*
X128166948Y-55253226D01*
X128127867Y-55202294D01*
X128031248Y-55076377D01*
X128031242Y-55076370D01*
X127873629Y-54918757D01*
X127873622Y-54918751D01*
X127696782Y-54783058D01*
X127696780Y-54783057D01*
X127696774Y-54783052D01*
X127503726Y-54671595D01*
X127503722Y-54671593D01*
X127297790Y-54586293D01*
X127297783Y-54586291D01*
X127297781Y-54586290D01*
X127082463Y-54528596D01*
X127082457Y-54528595D01*
X127082452Y-54528594D01*
X126861466Y-54499501D01*
X126861463Y-54499500D01*
X126861457Y-54499500D01*
X126638543Y-54499500D01*
X126638537Y-54499500D01*
X126638533Y-54499501D01*
X126417547Y-54528594D01*
X126417540Y-54528595D01*
X126417537Y-54528596D01*
X126251859Y-54572989D01*
X126202219Y-54586290D01*
X126202209Y-54586293D01*
X125996277Y-54671593D01*
X125996273Y-54671595D01*
X125803226Y-54783052D01*
X125803217Y-54783058D01*
X125626377Y-54918751D01*
X125626370Y-54918757D01*
X125468757Y-55076370D01*
X125468751Y-55076377D01*
X125333058Y-55253217D01*
X125333052Y-55253226D01*
X125221595Y-55446273D01*
X125221593Y-55446277D01*
X125136293Y-55652209D01*
X125136290Y-55652219D01*
X125088228Y-55831592D01*
X125078597Y-55867534D01*
X125078594Y-55867547D01*
X125049501Y-56088533D01*
X125049500Y-56088549D01*
X121638470Y-56088549D01*
X119993904Y-54443984D01*
X154740000Y-54443984D01*
X154740000Y-54636015D01*
X154770040Y-54825684D01*
X154829383Y-55008321D01*
X154916561Y-55179415D01*
X154937798Y-55208646D01*
X155560000Y-54586445D01*
X155560000Y-54592661D01*
X155587259Y-54694394D01*
X155639920Y-54785606D01*
X155714394Y-54860080D01*
X155805606Y-54912741D01*
X155907339Y-54940000D01*
X155913554Y-54940000D01*
X155291351Y-55562200D01*
X155291352Y-55562201D01*
X155320577Y-55583434D01*
X155491678Y-55670616D01*
X155674315Y-55729959D01*
X155863985Y-55760000D01*
X156056015Y-55760000D01*
X156245684Y-55729959D01*
X156428321Y-55670616D01*
X156599419Y-55583436D01*
X156628646Y-55562201D01*
X156628646Y-55562200D01*
X156006447Y-54940000D01*
X156012661Y-54940000D01*
X156114394Y-54912741D01*
X156205606Y-54860080D01*
X156280080Y-54785606D01*
X156332741Y-54694394D01*
X156360000Y-54592661D01*
X156360000Y-54586446D01*
X156982200Y-55208646D01*
X156982201Y-55208646D01*
X157003436Y-55179419D01*
X157090616Y-55008321D01*
X157149959Y-54825684D01*
X157180000Y-54636015D01*
X157180000Y-54443984D01*
X157149959Y-54254315D01*
X157090616Y-54071678D01*
X157003434Y-53900577D01*
X156982201Y-53871352D01*
X156982200Y-53871351D01*
X156360000Y-54493552D01*
X156360000Y-54487339D01*
X156332741Y-54385606D01*
X156280080Y-54294394D01*
X156205606Y-54219920D01*
X156114394Y-54167259D01*
X156012661Y-54140000D01*
X156006447Y-54140000D01*
X156628646Y-53517798D01*
X156599415Y-53496561D01*
X156428321Y-53409383D01*
X156245684Y-53350040D01*
X156056015Y-53320000D01*
X155863985Y-53320000D01*
X155674315Y-53350040D01*
X155491678Y-53409383D01*
X155320578Y-53496564D01*
X155291352Y-53517798D01*
X155291351Y-53517798D01*
X155913554Y-54140000D01*
X155907339Y-54140000D01*
X155805606Y-54167259D01*
X155714394Y-54219920D01*
X155639920Y-54294394D01*
X155587259Y-54385606D01*
X155560000Y-54487339D01*
X155560000Y-54493553D01*
X154937798Y-53871351D01*
X154937798Y-53871352D01*
X154916564Y-53900578D01*
X154829383Y-54071678D01*
X154770040Y-54254315D01*
X154740000Y-54443984D01*
X119993904Y-54443984D01*
X119202658Y-53652738D01*
X118259209Y-52709289D01*
X118259206Y-52709285D01*
X118259206Y-52709286D01*
X118252139Y-52702219D01*
X118252139Y-52702218D01*
X118112782Y-52562861D01*
X118112781Y-52562860D01*
X118112780Y-52562859D01*
X117948920Y-52453371D01*
X117948911Y-52453366D01*
X117865483Y-52418809D01*
X117820165Y-52400038D01*
X117766836Y-52377949D01*
X117633426Y-52351412D01*
X117598297Y-52344424D01*
X117573542Y-52339500D01*
X117573541Y-52339500D01*
X110055432Y-52339500D01*
X109988393Y-52319815D01*
X109942638Y-52267011D01*
X109931432Y-52215500D01*
X109931432Y-52146902D01*
X109895253Y-51918481D01*
X109895252Y-51918476D01*
X109894485Y-51913632D01*
X109891337Y-51903945D01*
X152199500Y-51903945D01*
X152199500Y-52096054D01*
X152229553Y-52285802D01*
X152288916Y-52468506D01*
X152336992Y-52562859D01*
X152376135Y-52639681D01*
X152489055Y-52795102D01*
X152624898Y-52930945D01*
X152780319Y-53043865D01*
X152821956Y-53065080D01*
X152951493Y-53131083D01*
X153042845Y-53160764D01*
X153134199Y-53190447D01*
X153323945Y-53220500D01*
X153323946Y-53220500D01*
X153516054Y-53220500D01*
X153516055Y-53220500D01*
X153705801Y-53190447D01*
X153888509Y-53131082D01*
X154059681Y-53043865D01*
X154215102Y-52930945D01*
X154350945Y-52795102D01*
X154463865Y-52639681D01*
X154551082Y-52468509D01*
X154610447Y-52285801D01*
X154640500Y-52096055D01*
X154640500Y-51903945D01*
X154610447Y-51714199D01*
X154580764Y-51622845D01*
X154551083Y-51531493D01*
X154551082Y-51531491D01*
X154463865Y-51360319D01*
X154350945Y-51204898D01*
X154215102Y-51069055D01*
X154059681Y-50956135D01*
X153924374Y-50887192D01*
X153888506Y-50868916D01*
X153705802Y-50809553D01*
X153570334Y-50788097D01*
X153516055Y-50779500D01*
X153323945Y-50779500D01*
X153269666Y-50788097D01*
X153134197Y-50809553D01*
X152951493Y-50868916D01*
X152780318Y-50956135D01*
X152744599Y-50982087D01*
X152624898Y-51069055D01*
X152624896Y-51069057D01*
X152624895Y-51069057D01*
X152489057Y-51204895D01*
X152489057Y-51204896D01*
X152489055Y-51204898D01*
X152440560Y-51271645D01*
X152376135Y-51360318D01*
X152288916Y-51531493D01*
X152229553Y-51714197D01*
X152199500Y-51903945D01*
X109891337Y-51903945D01*
X109821500Y-51689008D01*
X109821498Y-51689005D01*
X109821498Y-51689003D01*
X109741241Y-51531491D01*
X109714275Y-51478567D01*
X109575449Y-51287490D01*
X109408442Y-51120483D01*
X109217365Y-50981657D01*
X109006928Y-50874433D01*
X108782300Y-50801446D01*
X108549029Y-50764500D01*
X108549024Y-50764500D01*
X108396714Y-50764500D01*
X108329675Y-50744815D01*
X108309033Y-50728181D01*
X105176819Y-47595967D01*
X105143334Y-47534644D01*
X105140500Y-47508286D01*
X105140500Y-47052155D01*
X121310000Y-47052155D01*
X121310000Y-48350000D01*
X122975137Y-48350000D01*
X122923282Y-48439816D01*
X122895000Y-48545364D01*
X122895000Y-48654636D01*
X122923282Y-48760184D01*
X122975137Y-48850000D01*
X121310000Y-48850000D01*
X121310000Y-50147844D01*
X121316401Y-50207372D01*
X121316403Y-50207379D01*
X121366645Y-50342086D01*
X121366649Y-50342093D01*
X121452809Y-50457187D01*
X121452812Y-50457190D01*
X121567906Y-50543350D01*
X121567913Y-50543354D01*
X121702620Y-50593596D01*
X121702627Y-50593598D01*
X121762155Y-50599999D01*
X121762172Y-50600000D01*
X123060000Y-50600000D01*
X123060000Y-48934863D01*
X123149816Y-48986718D01*
X123255364Y-49015000D01*
X123364636Y-49015000D01*
X123470184Y-48986718D01*
X123560000Y-48934863D01*
X123560000Y-50600000D01*
X124857828Y-50600000D01*
X124857844Y-50599999D01*
X124917372Y-50593598D01*
X124917379Y-50593596D01*
X125052086Y-50543354D01*
X125052093Y-50543350D01*
X125167187Y-50457190D01*
X125167190Y-50457187D01*
X125253350Y-50342093D01*
X125253354Y-50342086D01*
X125303596Y-50207379D01*
X125303598Y-50207372D01*
X125309999Y-50147844D01*
X125310000Y-50147827D01*
X125310000Y-48850000D01*
X123644863Y-48850000D01*
X123696718Y-48760184D01*
X123725000Y-48654636D01*
X123725000Y-48545364D01*
X123696718Y-48439816D01*
X123644863Y-48350000D01*
X125310000Y-48350000D01*
X125310000Y-47052172D01*
X125309999Y-47052155D01*
X125303598Y-46992627D01*
X125303596Y-46992620D01*
X125253354Y-46857913D01*
X125253350Y-46857906D01*
X125167190Y-46742812D01*
X125167187Y-46742809D01*
X125052093Y-46656649D01*
X125052086Y-46656645D01*
X124917379Y-46606403D01*
X124917372Y-46606401D01*
X124857844Y-46600000D01*
X123560000Y-46600000D01*
X123560000Y-48265136D01*
X123470184Y-48213282D01*
X123364636Y-48185000D01*
X123255364Y-48185000D01*
X123149816Y-48213282D01*
X123060000Y-48265136D01*
X123060000Y-46600000D01*
X121762155Y-46600000D01*
X121702627Y-46606401D01*
X121702620Y-46606403D01*
X121567913Y-46656645D01*
X121567906Y-46656649D01*
X121452812Y-46742809D01*
X121452809Y-46742812D01*
X121366649Y-46857906D01*
X121366645Y-46857913D01*
X121316403Y-46992620D01*
X121316401Y-46992627D01*
X121310000Y-47052155D01*
X105140500Y-47052155D01*
X105140500Y-41419141D01*
X105160185Y-41352102D01*
X105212989Y-41306347D01*
X105221149Y-41302966D01*
X105232331Y-41298796D01*
X105347546Y-41212546D01*
X105433796Y-41097331D01*
X105484091Y-40962483D01*
X105490500Y-40902873D01*
X105490499Y-39107128D01*
X105484091Y-39047517D01*
X105482810Y-39044083D01*
X105433797Y-38912671D01*
X105433793Y-38912664D01*
X105347547Y-38797455D01*
X105347544Y-38797452D01*
X105232335Y-38711206D01*
X105232332Y-38711205D01*
X105232331Y-38711204D01*
X105221161Y-38707038D01*
X105165231Y-38665166D01*
X105140816Y-38599701D01*
X105140500Y-38590858D01*
X105140500Y-38041457D01*
X105136247Y-38020078D01*
X105131994Y-37998697D01*
X105102052Y-37848165D01*
X105026632Y-37666086D01*
X105026631Y-37666085D01*
X105026628Y-37666079D01*
X104992698Y-37615299D01*
X104949378Y-37550466D01*
X113702500Y-37550466D01*
X113702500Y-37799533D01*
X113735008Y-38046463D01*
X113799473Y-38287049D01*
X113894783Y-38517148D01*
X113894788Y-38517159D01*
X114019313Y-38732841D01*
X114019319Y-38732849D01*
X114093900Y-38830045D01*
X115001458Y-37922487D01*
X115026478Y-37982890D01*
X115097612Y-38089351D01*
X115188149Y-38179888D01*
X115294610Y-38251022D01*
X115355011Y-38276041D01*
X114447453Y-39183598D01*
X114544650Y-39258180D01*
X114544658Y-39258186D01*
X114760340Y-39382711D01*
X114760351Y-39382716D01*
X114990450Y-39478026D01*
X115231036Y-39542491D01*
X115477966Y-39575000D01*
X115727034Y-39575000D01*
X115973963Y-39542491D01*
X116214549Y-39478026D01*
X116444648Y-39382716D01*
X116444659Y-39382711D01*
X116660355Y-39258178D01*
X116757545Y-39183600D01*
X116757545Y-39183597D01*
X115849988Y-38276041D01*
X115910390Y-38251022D01*
X116016851Y-38179888D01*
X116107388Y-38089351D01*
X116178522Y-37982890D01*
X116203541Y-37922489D01*
X117111097Y-38830045D01*
X117111100Y-38830045D01*
X117185678Y-38732855D01*
X117310211Y-38517159D01*
X117310216Y-38517148D01*
X117405526Y-38287049D01*
X117469991Y-38046463D01*
X117502500Y-37799533D01*
X117502500Y-37550466D01*
X117469991Y-37303536D01*
X117405526Y-37062950D01*
X117310216Y-36832851D01*
X117310211Y-36832840D01*
X117185686Y-36617158D01*
X117185680Y-36617150D01*
X117111098Y-36519953D01*
X116203541Y-37427510D01*
X116178522Y-37367110D01*
X116107388Y-37260649D01*
X116016851Y-37170112D01*
X115910390Y-37098978D01*
X115849987Y-37073957D01*
X116757545Y-36166400D01*
X116660349Y-36091819D01*
X116660341Y-36091813D01*
X116444659Y-35967288D01*
X116444648Y-35967283D01*
X116214549Y-35871973D01*
X115973963Y-35807508D01*
X115727034Y-35775000D01*
X115477966Y-35775000D01*
X115231036Y-35807508D01*
X114990450Y-35871973D01*
X114760351Y-35967283D01*
X114760347Y-35967285D01*
X114544643Y-36091823D01*
X114447453Y-36166399D01*
X114447453Y-36166400D01*
X115355011Y-37073958D01*
X115294610Y-37098978D01*
X115188149Y-37170112D01*
X115097612Y-37260649D01*
X115026478Y-37367110D01*
X115001458Y-37427511D01*
X114093900Y-36519953D01*
X114093899Y-36519953D01*
X114019323Y-36617143D01*
X113894785Y-36832847D01*
X113894783Y-36832851D01*
X113799473Y-37062950D01*
X113735008Y-37303536D01*
X113702500Y-37550466D01*
X104949378Y-37550466D01*
X104917140Y-37502219D01*
X104917137Y-37502215D01*
X104284209Y-36869289D01*
X104284206Y-36869285D01*
X104284206Y-36869286D01*
X104277139Y-36862219D01*
X104277139Y-36862218D01*
X104137782Y-36722861D01*
X104137781Y-36722860D01*
X104137780Y-36722859D01*
X103973920Y-36613371D01*
X103973911Y-36613366D01*
X103901315Y-36583296D01*
X103845165Y-36560038D01*
X103791836Y-36537949D01*
X103791832Y-36537948D01*
X103791828Y-36537946D01*
X103695188Y-36518724D01*
X103598544Y-36499500D01*
X103598541Y-36499500D01*
X86901459Y-36499500D01*
X86901455Y-36499500D01*
X86804812Y-36518724D01*
X86708167Y-36537947D01*
X86708161Y-36537949D01*
X86654834Y-36560037D01*
X86654834Y-36560038D01*
X86609315Y-36578892D01*
X86526089Y-36613366D01*
X86526079Y-36613371D01*
X86362219Y-36722859D01*
X86292540Y-36792538D01*
X86222861Y-36862218D01*
X86222858Y-36862221D01*
X78762221Y-44322858D01*
X78762218Y-44322861D01*
X78700971Y-44384108D01*
X78622859Y-44462219D01*
X78513371Y-44626079D01*
X78513364Y-44626092D01*
X78437950Y-44808160D01*
X78437949Y-44808165D01*
X78399500Y-45001456D01*
X78399500Y-60954217D01*
X78379815Y-61021256D01*
X78363181Y-61041898D01*
X78325079Y-61080000D01*
X78262221Y-61142858D01*
X78262218Y-61142861D01*
X78225453Y-61179626D01*
X78122859Y-61282219D01*
X78013371Y-61446080D01*
X78013364Y-61446093D01*
X77978520Y-61530218D01*
X77970533Y-61549500D01*
X77939053Y-61625500D01*
X77937949Y-61628165D01*
X77937948Y-61628168D01*
X77937946Y-61628175D01*
X77899500Y-61821454D01*
X77899500Y-65854217D01*
X77879815Y-65921256D01*
X77863181Y-65941898D01*
X77630079Y-66175000D01*
X77362221Y-66442858D01*
X77362218Y-66442861D01*
X77323072Y-66482007D01*
X77222859Y-66582219D01*
X77113371Y-66746079D01*
X77113364Y-66746092D01*
X77064064Y-66865117D01*
X77062946Y-66867816D01*
X77062873Y-66867993D01*
X77040226Y-66922667D01*
X77037951Y-66928157D01*
X77037946Y-66928175D01*
X76999500Y-67121454D01*
X76999500Y-67121459D01*
X76999500Y-80878541D01*
X77004059Y-80901459D01*
X77037949Y-81071836D01*
X77046149Y-81091632D01*
X77050105Y-81101183D01*
X77050106Y-81101186D01*
X77113366Y-81253911D01*
X77113371Y-81253920D01*
X77222860Y-81417781D01*
X77222863Y-81417785D01*
X77366537Y-81561459D01*
X77366559Y-81561479D01*
X80313181Y-84508101D01*
X80346666Y-84569424D01*
X80349500Y-84595782D01*
X80349500Y-85377870D01*
X80349501Y-85377876D01*
X80355908Y-85437483D01*
X80406202Y-85572328D01*
X80406206Y-85572335D01*
X80492452Y-85687544D01*
X80492455Y-85687547D01*
X80607664Y-85773793D01*
X80607671Y-85773797D01*
X80742517Y-85824091D01*
X80742516Y-85824091D01*
X80749444Y-85824835D01*
X80802127Y-85830500D01*
X82597872Y-85830499D01*
X82657483Y-85824091D01*
X82792331Y-85773796D01*
X82907546Y-85687546D01*
X82993796Y-85572331D01*
X82997960Y-85561165D01*
X83039829Y-85505234D01*
X83105293Y-85480816D01*
X83114141Y-85480500D01*
X84118542Y-85480500D01*
X84149566Y-85474328D01*
X84215188Y-85461275D01*
X84311836Y-85442051D01*
X84365165Y-85419961D01*
X84493914Y-85366632D01*
X84657782Y-85257139D01*
X84797139Y-85117782D01*
X84797140Y-85117779D01*
X84804206Y-85110714D01*
X84804209Y-85110710D01*
X86206846Y-83708073D01*
X86206850Y-83708071D01*
X86346207Y-83568714D01*
X86455700Y-83404846D01*
X86510538Y-83272454D01*
X86531119Y-83222768D01*
X86550343Y-83126120D01*
X86569568Y-83029473D01*
X86569568Y-81377889D01*
X86589253Y-81310850D01*
X86605887Y-81290208D01*
X86654196Y-81241899D01*
X86713585Y-81182510D01*
X86852411Y-80991433D01*
X86959636Y-80780992D01*
X87032621Y-80556368D01*
X87044149Y-80483581D01*
X87069568Y-80323097D01*
X87069568Y-80086902D01*
X87032621Y-79853631D01*
X86959634Y-79629003D01*
X86894647Y-79501460D01*
X86852411Y-79418567D01*
X86713585Y-79227490D01*
X86546578Y-79060483D01*
X86487350Y-79017451D01*
X86444685Y-78962122D01*
X86436618Y-78907404D01*
X86438172Y-78887657D01*
X85698476Y-78147962D01*
X85762061Y-78130925D01*
X85876075Y-78065099D01*
X85969167Y-77972007D01*
X86034993Y-77857993D01*
X86052030Y-77794409D01*
X86791726Y-78534105D01*
X86791726Y-78534104D01*
X86851982Y-78451169D01*
X86851986Y-78451163D01*
X86959170Y-78240802D01*
X87032133Y-78016247D01*
X87069068Y-77783052D01*
X87069068Y-77546947D01*
X87032133Y-77313752D01*
X86959170Y-77089197D01*
X86851982Y-76878828D01*
X86791726Y-76795894D01*
X86791726Y-76795893D01*
X86052030Y-77535590D01*
X86034993Y-77472007D01*
X85969167Y-77357993D01*
X85876075Y-77264901D01*
X85762061Y-77199075D01*
X85698477Y-77182037D01*
X86438172Y-76442340D01*
X86435212Y-76404735D01*
X86435212Y-76385275D01*
X86438172Y-76347657D01*
X85698476Y-75607962D01*
X85762061Y-75590925D01*
X85876075Y-75525099D01*
X85969167Y-75432007D01*
X86034993Y-75317993D01*
X86052030Y-75254409D01*
X86791726Y-75994105D01*
X86791726Y-75994104D01*
X86851982Y-75911169D01*
X86851986Y-75911163D01*
X86959170Y-75700802D01*
X87032133Y-75476247D01*
X87069068Y-75243052D01*
X87069068Y-75006947D01*
X87032133Y-74773752D01*
X86959170Y-74549197D01*
X86851982Y-74338828D01*
X86791726Y-74255894D01*
X86791726Y-74255893D01*
X86052030Y-74995590D01*
X86034993Y-74932007D01*
X85969167Y-74817993D01*
X85876075Y-74724901D01*
X85762061Y-74659075D01*
X85698477Y-74642037D01*
X86438173Y-73902340D01*
X86436619Y-73882594D01*
X86450983Y-73814216D01*
X86487352Y-73772547D01*
X86546578Y-73729517D01*
X86713585Y-73562510D01*
X86852411Y-73371433D01*
X86959636Y-73160992D01*
X87032621Y-72936368D01*
X87035621Y-72917429D01*
X87069568Y-72703097D01*
X87069568Y-72466902D01*
X87032621Y-72233631D01*
X86998757Y-72129412D01*
X86959636Y-72009008D01*
X86959634Y-72009005D01*
X86959634Y-72009003D01*
X86889216Y-71870801D01*
X86852411Y-71798567D01*
X86713585Y-71607490D01*
X86546578Y-71440483D01*
X86511940Y-71415317D01*
X86469275Y-71359989D01*
X86463296Y-71290375D01*
X86495901Y-71228580D01*
X86511941Y-71214682D01*
X86520918Y-71208160D01*
X86546578Y-71189517D01*
X86713585Y-71022510D01*
X86852411Y-70831433D01*
X86959636Y-70620992D01*
X87032621Y-70396368D01*
X87069568Y-70163097D01*
X87069568Y-69926902D01*
X87032621Y-69693631D01*
X86987122Y-69553600D01*
X86959636Y-69469008D01*
X86959634Y-69469005D01*
X86959634Y-69469003D01*
X86896256Y-69344617D01*
X86852411Y-69258567D01*
X86713585Y-69067490D01*
X86546578Y-68900483D01*
X86511940Y-68875317D01*
X86469275Y-68819989D01*
X86463296Y-68750375D01*
X86495901Y-68688580D01*
X86511941Y-68674682D01*
X86516318Y-68671502D01*
X86546578Y-68649517D01*
X86713585Y-68482510D01*
X86852411Y-68291433D01*
X86959636Y-68080992D01*
X87032621Y-67856368D01*
X87046006Y-67771859D01*
X87069568Y-67623097D01*
X87069568Y-67470782D01*
X87089253Y-67403743D01*
X87105887Y-67383101D01*
X89645229Y-64843760D01*
X92217140Y-62271849D01*
X92326632Y-62107982D01*
X92402052Y-61925903D01*
X92440500Y-61732608D01*
X92440500Y-61535527D01*
X92440500Y-40965199D01*
X92460185Y-40898160D01*
X92469471Y-40885664D01*
X92595048Y-40712820D01*
X92595047Y-40712820D01*
X92595051Y-40712816D01*
X92599514Y-40704054D01*
X92647488Y-40653259D01*
X92715308Y-40636463D01*
X92781444Y-40658999D01*
X92820486Y-40704056D01*
X92824951Y-40712820D01*
X92952759Y-40888734D01*
X92951888Y-40889366D01*
X92978357Y-40948401D01*
X92979500Y-40965199D01*
X92979500Y-58278543D01*
X93016333Y-58463713D01*
X93017949Y-58471835D01*
X93093364Y-58653907D01*
X93093371Y-58653920D01*
X93202860Y-58817781D01*
X93202863Y-58817785D01*
X93346537Y-58961459D01*
X93346559Y-58961479D01*
X105064735Y-70679655D01*
X105064764Y-70679686D01*
X105207217Y-70822139D01*
X105290971Y-70878101D01*
X105371086Y-70931632D01*
X105473165Y-70973914D01*
X105553164Y-71007051D01*
X105584922Y-71013368D01*
X105672741Y-71030836D01*
X105746456Y-71045500D01*
X105746459Y-71045500D01*
X105746460Y-71045500D01*
X105943540Y-71045500D01*
X107258043Y-71045500D01*
X107325082Y-71065185D01*
X107342292Y-71078516D01*
X107344034Y-71080129D01*
X107453422Y-71189517D01*
X107494018Y-71219011D01*
X107499422Y-71224016D01*
X107513708Y-71247946D01*
X107530724Y-71270013D01*
X107531369Y-71277528D01*
X107535238Y-71284008D01*
X107534318Y-71311863D01*
X107536703Y-71339626D01*
X107533181Y-71346299D01*
X107532933Y-71353840D01*
X107517102Y-71376772D01*
X107504097Y-71401421D01*
X107494120Y-71410065D01*
X107493241Y-71411340D01*
X107492100Y-71411816D01*
X107488062Y-71415315D01*
X107478237Y-71422454D01*
X107453420Y-71440484D01*
X107286417Y-71607487D01*
X107286417Y-71607488D01*
X107286415Y-71607490D01*
X107239170Y-71672517D01*
X107147589Y-71798566D01*
X107040365Y-72009003D01*
X106967378Y-72233631D01*
X106930432Y-72466902D01*
X106930432Y-72703097D01*
X106967378Y-72936368D01*
X107040365Y-73160996D01*
X107134429Y-73345606D01*
X107147589Y-73371433D01*
X107286415Y-73562510D01*
X107453422Y-73729517D01*
X107488059Y-73754683D01*
X107530724Y-73810013D01*
X107536703Y-73879626D01*
X107504097Y-73941421D01*
X107488062Y-73955315D01*
X107470297Y-73968222D01*
X107453420Y-73980484D01*
X107286417Y-74147487D01*
X107286417Y-74147488D01*
X107286415Y-74147490D01*
X107261625Y-74181611D01*
X107147589Y-74338566D01*
X107040365Y-74549003D01*
X106967378Y-74773631D01*
X106930432Y-75006902D01*
X106930432Y-75243097D01*
X106967378Y-75476368D01*
X107040365Y-75700996D01*
X107128914Y-75874782D01*
X107147589Y-75911433D01*
X107286415Y-76102510D01*
X107453422Y-76269517D01*
X107512648Y-76312547D01*
X107555313Y-76367875D01*
X107563380Y-76422593D01*
X107561825Y-76442340D01*
X108301523Y-77182037D01*
X108237939Y-77199075D01*
X108123925Y-77264901D01*
X108030833Y-77357993D01*
X107965007Y-77472007D01*
X107947969Y-77535591D01*
X107208272Y-76795894D01*
X107148016Y-76878830D01*
X107040829Y-77089197D01*
X106967866Y-77313752D01*
X106930932Y-77546947D01*
X106930932Y-77783052D01*
X106967866Y-78016247D01*
X107040829Y-78240802D01*
X107148019Y-78451174D01*
X107208270Y-78534104D01*
X107208272Y-78534105D01*
X107947969Y-77794408D01*
X107965007Y-77857993D01*
X108030833Y-77972007D01*
X108123925Y-78065099D01*
X108237939Y-78130925D01*
X108301522Y-78147962D01*
X107561825Y-78887658D01*
X107563380Y-78907405D01*
X107549016Y-78975783D01*
X107512649Y-79017451D01*
X107453422Y-79060482D01*
X107286417Y-79227487D01*
X107286417Y-79227488D01*
X107286415Y-79227490D01*
X107238272Y-79293753D01*
X107147589Y-79418566D01*
X107040365Y-79629003D01*
X106967378Y-79853631D01*
X106930432Y-80086902D01*
X106930432Y-80323097D01*
X106967378Y-80556368D01*
X107040365Y-80780996D01*
X107101744Y-80901457D01*
X107147589Y-80991433D01*
X107286415Y-81182510D01*
X107286417Y-81182512D01*
X107394113Y-81290208D01*
X107427598Y-81351531D01*
X107430432Y-81377889D01*
X107430432Y-84399476D01*
X107468879Y-84592760D01*
X107468882Y-84592772D01*
X107480368Y-84620500D01*
X107544298Y-84774843D01*
X107544303Y-84774852D01*
X107653792Y-84938713D01*
X107653795Y-84938717D01*
X107797469Y-85082391D01*
X107797491Y-85082411D01*
X114789735Y-92074655D01*
X114789764Y-92074686D01*
X114932217Y-92217139D01*
X115015097Y-92272517D01*
X115096086Y-92326632D01*
X115096088Y-92326633D01*
X115096092Y-92326635D01*
X115133737Y-92342227D01*
X115219765Y-92377861D01*
X115278164Y-92402051D01*
X115358089Y-92417949D01*
X115418019Y-92429870D01*
X115471456Y-92440500D01*
X115471459Y-92440500D01*
X115471460Y-92440500D01*
X115668540Y-92440500D01*
X118167769Y-92440500D01*
X118234808Y-92460185D01*
X118255450Y-92476818D01*
X118361344Y-92582712D01*
X118510666Y-92674814D01*
X118677203Y-92729999D01*
X118779991Y-92740500D01*
X119980008Y-92740499D01*
X120082797Y-92729999D01*
X120249334Y-92674814D01*
X120398656Y-92582712D01*
X120522712Y-92458656D01*
X120614814Y-92309334D01*
X120669999Y-92142797D01*
X120680500Y-92040009D01*
X120680499Y-91337682D01*
X121580000Y-91337682D01*
X121580000Y-91542317D01*
X121612009Y-91744417D01*
X121675244Y-91939031D01*
X121768141Y-92121350D01*
X121768147Y-92121359D01*
X121800523Y-92165921D01*
X121800524Y-92165922D01*
X122480000Y-91486446D01*
X122480000Y-91492661D01*
X122507259Y-91594394D01*
X122559920Y-91685606D01*
X122634394Y-91760080D01*
X122725606Y-91812741D01*
X122827339Y-91840000D01*
X122833553Y-91840000D01*
X122154076Y-92519474D01*
X122198650Y-92551859D01*
X122380968Y-92644755D01*
X122575582Y-92707990D01*
X122777683Y-92740000D01*
X122982317Y-92740000D01*
X123184417Y-92707990D01*
X123379031Y-92644755D01*
X123561349Y-92551859D01*
X123605921Y-92519474D01*
X122926447Y-91840000D01*
X122932661Y-91840000D01*
X123034394Y-91812741D01*
X123125606Y-91760080D01*
X123200080Y-91685606D01*
X123252741Y-91594394D01*
X123280000Y-91492661D01*
X123280000Y-91486447D01*
X123959474Y-92165921D01*
X123991859Y-92121349D01*
X124084755Y-91939031D01*
X124147990Y-91744417D01*
X124180000Y-91542317D01*
X124180000Y-91337682D01*
X124147990Y-91135582D01*
X124084755Y-90940968D01*
X123991859Y-90758650D01*
X123959474Y-90714077D01*
X123959474Y-90714076D01*
X123280000Y-91393551D01*
X123280000Y-91387339D01*
X123252741Y-91285606D01*
X123200080Y-91194394D01*
X123125606Y-91119920D01*
X123034394Y-91067259D01*
X122932661Y-91040000D01*
X122926446Y-91040000D01*
X123605922Y-90360524D01*
X123605921Y-90360523D01*
X123561359Y-90328147D01*
X123561350Y-90328141D01*
X123379031Y-90235244D01*
X123184417Y-90172009D01*
X122982317Y-90140000D01*
X122777683Y-90140000D01*
X122575582Y-90172009D01*
X122380968Y-90235244D01*
X122198644Y-90328143D01*
X122154077Y-90360523D01*
X122154077Y-90360524D01*
X122833554Y-91040000D01*
X122827339Y-91040000D01*
X122725606Y-91067259D01*
X122634394Y-91119920D01*
X122559920Y-91194394D01*
X122507259Y-91285606D01*
X122480000Y-91387339D01*
X122480000Y-91393553D01*
X121800524Y-90714077D01*
X121800523Y-90714077D01*
X121768143Y-90758644D01*
X121675244Y-90940968D01*
X121612009Y-91135582D01*
X121580000Y-91337682D01*
X120680499Y-91337682D01*
X120680499Y-90839992D01*
X120680440Y-90839419D01*
X120669999Y-90737203D01*
X120669998Y-90737200D01*
X120657332Y-90698977D01*
X120614814Y-90570666D01*
X120522712Y-90421344D01*
X120398656Y-90297288D01*
X120298066Y-90235244D01*
X120249336Y-90205187D01*
X120249331Y-90205185D01*
X120219998Y-90195465D01*
X120082797Y-90150001D01*
X120082795Y-90150000D01*
X119980010Y-90139500D01*
X118779998Y-90139500D01*
X118779981Y-90139501D01*
X118677203Y-90150000D01*
X118677200Y-90150001D01*
X118510668Y-90205185D01*
X118510663Y-90205187D01*
X118361345Y-90297287D01*
X118255450Y-90403182D01*
X118194127Y-90436666D01*
X118167769Y-90439500D01*
X116035782Y-90439500D01*
X115968743Y-90419815D01*
X115948101Y-90403181D01*
X109467751Y-83922831D01*
X109434266Y-83861508D01*
X109431432Y-83835150D01*
X109431432Y-81377889D01*
X109451117Y-81310850D01*
X109467751Y-81290208D01*
X109516060Y-81241899D01*
X109575449Y-81182510D01*
X109714275Y-80991433D01*
X109821500Y-80780992D01*
X109894485Y-80556368D01*
X109906013Y-80483581D01*
X109931432Y-80323097D01*
X109931432Y-80170782D01*
X109951117Y-80103743D01*
X109967751Y-80083101D01*
X112672439Y-77378414D01*
X115377140Y-74673713D01*
X115486632Y-74509846D01*
X115562052Y-74327767D01*
X115600500Y-74134472D01*
X115600500Y-73937391D01*
X115600500Y-66514782D01*
X115620185Y-66447743D01*
X115672989Y-66401988D01*
X115742147Y-66392044D01*
X115805703Y-66421069D01*
X115812181Y-66427101D01*
X116570014Y-67184934D01*
X116603499Y-67246257D01*
X116604806Y-67292012D01*
X116599500Y-67325513D01*
X116599500Y-67514486D01*
X116629059Y-67701118D01*
X116687454Y-67880836D01*
X116768038Y-68038990D01*
X116773240Y-68049199D01*
X116884310Y-68202073D01*
X117017927Y-68335690D01*
X117170801Y-68446760D01*
X117250347Y-68487290D01*
X117339163Y-68532545D01*
X117339165Y-68532545D01*
X117339168Y-68532547D01*
X117357539Y-68538516D01*
X117460803Y-68572069D01*
X117518478Y-68611507D01*
X117545676Y-68675866D01*
X117533761Y-68744712D01*
X117486516Y-68796188D01*
X117460803Y-68807931D01*
X117339163Y-68847454D01*
X117170800Y-68933240D01*
X117095026Y-68988294D01*
X117017927Y-69044310D01*
X117017925Y-69044312D01*
X117017924Y-69044312D01*
X116884312Y-69177924D01*
X116884312Y-69177925D01*
X116884310Y-69177927D01*
X116851662Y-69222863D01*
X116773240Y-69330800D01*
X116687454Y-69499163D01*
X116629059Y-69678881D01*
X116599500Y-69865513D01*
X116599500Y-70054486D01*
X116629059Y-70241118D01*
X116687454Y-70420836D01*
X116762127Y-70567388D01*
X116773240Y-70589199D01*
X116884310Y-70742073D01*
X117017927Y-70875690D01*
X117170801Y-70986760D01*
X117247969Y-71026079D01*
X117339163Y-71072545D01*
X117339165Y-71072545D01*
X117339168Y-71072547D01*
X117357539Y-71078516D01*
X117460803Y-71112069D01*
X117518478Y-71151507D01*
X117545676Y-71215866D01*
X117533761Y-71284712D01*
X117486516Y-71336188D01*
X117460803Y-71347931D01*
X117339163Y-71387454D01*
X117170800Y-71473240D01*
X117138570Y-71496657D01*
X117017927Y-71584310D01*
X117017925Y-71584312D01*
X117017924Y-71584312D01*
X116884312Y-71717924D01*
X116884312Y-71717925D01*
X116884310Y-71717927D01*
X116836610Y-71783579D01*
X116773240Y-71870800D01*
X116687454Y-72039163D01*
X116629059Y-72218881D01*
X116599500Y-72405513D01*
X116599500Y-72594486D01*
X116629059Y-72781118D01*
X116687454Y-72960836D01*
X116754011Y-73091460D01*
X116773240Y-73129199D01*
X116884310Y-73282073D01*
X117017927Y-73415690D01*
X117170801Y-73526760D01*
X117319134Y-73602339D01*
X117339172Y-73612549D01*
X117413817Y-73636802D01*
X117471493Y-73676238D01*
X117498692Y-73740597D01*
X117499500Y-73754733D01*
X117499500Y-81718542D01*
X117506968Y-81756085D01*
X117506968Y-81756086D01*
X117532934Y-81886629D01*
X117532935Y-81886629D01*
X117537950Y-81911839D01*
X117613364Y-82093907D01*
X117613371Y-82093920D01*
X117722860Y-82257781D01*
X117722863Y-82257785D01*
X117866537Y-82401459D01*
X117866559Y-82401479D01*
X119173281Y-83708201D01*
X119206766Y-83769524D01*
X119208073Y-83776483D01*
X119231523Y-83924535D01*
X119294781Y-84119223D01*
X119349147Y-84225921D01*
X119375244Y-84277139D01*
X119387715Y-84301613D01*
X119508028Y-84467213D01*
X119652786Y-84611971D01*
X119748378Y-84681421D01*
X119818390Y-84732287D01*
X119934607Y-84791503D01*
X120000776Y-84825218D01*
X120000778Y-84825218D01*
X120000781Y-84825220D01*
X120103446Y-84858578D01*
X120195465Y-84888477D01*
X120296557Y-84904488D01*
X120397648Y-84920500D01*
X120397649Y-84920500D01*
X120602351Y-84920500D01*
X120602352Y-84920500D01*
X120804534Y-84888477D01*
X120999219Y-84825220D01*
X121181610Y-84732287D01*
X121274590Y-84664732D01*
X121347213Y-84611971D01*
X121347215Y-84611968D01*
X121347219Y-84611966D01*
X121491966Y-84467219D01*
X121491968Y-84467215D01*
X121491971Y-84467213D01*
X121579150Y-84347219D01*
X121612287Y-84301610D01*
X121705220Y-84119219D01*
X121768477Y-83924534D01*
X121800500Y-83722352D01*
X121800500Y-83517648D01*
X121782977Y-83407011D01*
X121768477Y-83315465D01*
X121726477Y-83186204D01*
X121705220Y-83120781D01*
X121705218Y-83120778D01*
X121705218Y-83120776D01*
X121671503Y-83054607D01*
X121612287Y-82938390D01*
X121560985Y-82867778D01*
X121491971Y-82772786D01*
X121347213Y-82628028D01*
X121181613Y-82507715D01*
X121181612Y-82507714D01*
X121181610Y-82507713D01*
X121098076Y-82465150D01*
X120999223Y-82414781D01*
X120804535Y-82351523D01*
X120656483Y-82328073D01*
X120593349Y-82298143D01*
X120588201Y-82293281D01*
X119536819Y-81241899D01*
X119503334Y-81180576D01*
X119500500Y-81154218D01*
X119500500Y-77124691D01*
X119520185Y-77057652D01*
X119572989Y-77011897D01*
X119642147Y-77001953D01*
X119697385Y-77024373D01*
X119786609Y-77089197D01*
X119818390Y-77112287D01*
X119921845Y-77165000D01*
X120000776Y-77205218D01*
X120000778Y-77205218D01*
X120000781Y-77205220D01*
X120105137Y-77239127D01*
X120195465Y-77268477D01*
X120296557Y-77284488D01*
X120397648Y-77300500D01*
X120397649Y-77300500D01*
X120602351Y-77300500D01*
X120602352Y-77300500D01*
X120804534Y-77268477D01*
X120999219Y-77205220D01*
X121181610Y-77112287D01*
X121300247Y-77026093D01*
X121347213Y-76991971D01*
X121347215Y-76991968D01*
X121347219Y-76991966D01*
X121491966Y-76847219D01*
X121491968Y-76847215D01*
X121491971Y-76847213D01*
X121544732Y-76774590D01*
X121612287Y-76681610D01*
X121705220Y-76499219D01*
X121768477Y-76304534D01*
X121774315Y-76267670D01*
X121804243Y-76204538D01*
X121863554Y-76167607D01*
X121933417Y-76168603D01*
X121984469Y-76199389D01*
X123063181Y-77278101D01*
X123096666Y-77339424D01*
X123099500Y-77365782D01*
X123099500Y-85008544D01*
X123137947Y-85201828D01*
X123137949Y-85201836D01*
X123146658Y-85222861D01*
X123146658Y-85222862D01*
X123213364Y-85383907D01*
X123213371Y-85383920D01*
X123322860Y-85547781D01*
X123322863Y-85547785D01*
X123466537Y-85691459D01*
X123466559Y-85691479D01*
X125863281Y-88088201D01*
X125896766Y-88149524D01*
X125898073Y-88156483D01*
X125921523Y-88304535D01*
X125984781Y-88499223D01*
X126072510Y-88671398D01*
X126077713Y-88681610D01*
X126165819Y-88802877D01*
X126189298Y-88868681D01*
X126189500Y-88875761D01*
X126189500Y-89188541D01*
X126197528Y-89228902D01*
X126197531Y-89228915D01*
X126198050Y-89231523D01*
X126227949Y-89381836D01*
X126241082Y-89413541D01*
X126244728Y-89422343D01*
X126244729Y-89422347D01*
X126303364Y-89563907D01*
X126303371Y-89563920D01*
X126412859Y-89727780D01*
X126412860Y-89727781D01*
X126412861Y-89727782D01*
X126552218Y-89867139D01*
X126552219Y-89867139D01*
X126559286Y-89874206D01*
X126559285Y-89874206D01*
X126559289Y-89874209D01*
X128618181Y-91933101D01*
X128651666Y-91994424D01*
X128654500Y-92020782D01*
X128654500Y-95667769D01*
X128634815Y-95734808D01*
X128618182Y-95755450D01*
X128512287Y-95861345D01*
X128420187Y-96010663D01*
X128420186Y-96010666D01*
X128365001Y-96177203D01*
X128365001Y-96177204D01*
X128365000Y-96177204D01*
X128354500Y-96279983D01*
X128354500Y-97480001D01*
X128354501Y-97480018D01*
X128365000Y-97582796D01*
X128365001Y-97582799D01*
X128403971Y-97700401D01*
X128420186Y-97749334D01*
X128512288Y-97898656D01*
X128636344Y-98022712D01*
X128785666Y-98114814D01*
X128952203Y-98169999D01*
X129054991Y-98180500D01*
X130255008Y-98180499D01*
X130357797Y-98169999D01*
X130524334Y-98114814D01*
X130673656Y-98022712D01*
X130797712Y-97898656D01*
X130889814Y-97749334D01*
X130944999Y-97582797D01*
X130955500Y-97480009D01*
X130955499Y-96777682D01*
X131855000Y-96777682D01*
X131855000Y-96982317D01*
X131887009Y-97184417D01*
X131950244Y-97379031D01*
X132043141Y-97561350D01*
X132043147Y-97561359D01*
X132075523Y-97605921D01*
X132075524Y-97605922D01*
X132755000Y-96926446D01*
X132755000Y-96932661D01*
X132782259Y-97034394D01*
X132834920Y-97125606D01*
X132909394Y-97200080D01*
X133000606Y-97252741D01*
X133102339Y-97280000D01*
X133108553Y-97280000D01*
X132429076Y-97959474D01*
X132473650Y-97991859D01*
X132655968Y-98084755D01*
X132850582Y-98147990D01*
X133052683Y-98180000D01*
X133257317Y-98180000D01*
X133459417Y-98147990D01*
X133654031Y-98084755D01*
X133836349Y-97991859D01*
X133880921Y-97959474D01*
X133201447Y-97280000D01*
X133207661Y-97280000D01*
X133309394Y-97252741D01*
X133400606Y-97200080D01*
X133475080Y-97125606D01*
X133527741Y-97034394D01*
X133555000Y-96932661D01*
X133555000Y-96926447D01*
X134234474Y-97605921D01*
X134266859Y-97561349D01*
X134359755Y-97379031D01*
X134422990Y-97184417D01*
X134455000Y-96982317D01*
X134455000Y-96777682D01*
X134422990Y-96575582D01*
X134359755Y-96380968D01*
X134266859Y-96198650D01*
X134234474Y-96154077D01*
X134234474Y-96154076D01*
X133555000Y-96833551D01*
X133555000Y-96827339D01*
X133527741Y-96725606D01*
X133475080Y-96634394D01*
X133400606Y-96559920D01*
X133309394Y-96507259D01*
X133207661Y-96480000D01*
X133201446Y-96480000D01*
X133880922Y-95800524D01*
X133880921Y-95800523D01*
X133836359Y-95768147D01*
X133836350Y-95768141D01*
X133654031Y-95675244D01*
X133459417Y-95612009D01*
X133257317Y-95580000D01*
X133052683Y-95580000D01*
X132850582Y-95612009D01*
X132655968Y-95675244D01*
X132473644Y-95768143D01*
X132429077Y-95800523D01*
X132429077Y-95800524D01*
X133108554Y-96480000D01*
X133102339Y-96480000D01*
X133000606Y-96507259D01*
X132909394Y-96559920D01*
X132834920Y-96634394D01*
X132782259Y-96725606D01*
X132755000Y-96827339D01*
X132755000Y-96833553D01*
X132075524Y-96154077D01*
X132075523Y-96154077D01*
X132043143Y-96198644D01*
X131950244Y-96380968D01*
X131887009Y-96575582D01*
X131855000Y-96777682D01*
X130955499Y-96777682D01*
X130955499Y-96279992D01*
X130944999Y-96177203D01*
X130889814Y-96010666D01*
X130797712Y-95861344D01*
X130688626Y-95752258D01*
X130685672Y-95748839D01*
X130672997Y-95720982D01*
X130658334Y-95694127D01*
X130657577Y-95687090D01*
X130656737Y-95685243D01*
X130657105Y-95682703D01*
X130655500Y-95667769D01*
X130655500Y-91456456D01*
X130617051Y-91263165D01*
X130616021Y-91260679D01*
X130616013Y-91260659D01*
X130565116Y-91137782D01*
X130541635Y-91081093D01*
X130541634Y-91081092D01*
X130541632Y-91081086D01*
X130522675Y-91052715D01*
X130432140Y-90917219D01*
X130376321Y-90861400D01*
X130292782Y-90777861D01*
X130292781Y-90777860D01*
X128330293Y-88815373D01*
X128296809Y-88754051D01*
X128301793Y-88684359D01*
X128307490Y-88671398D01*
X128357165Y-88573907D01*
X128395220Y-88499219D01*
X128458477Y-88304534D01*
X128490500Y-88102352D01*
X128490500Y-87897648D01*
X128465854Y-87742039D01*
X128458477Y-87695465D01*
X128395218Y-87500776D01*
X128343145Y-87398578D01*
X128302287Y-87318390D01*
X128281281Y-87289477D01*
X128181971Y-87152786D01*
X128037213Y-87008028D01*
X127871613Y-86887715D01*
X127871612Y-86887714D01*
X127871610Y-86887713D01*
X127795563Y-86848965D01*
X127689223Y-86794781D01*
X127494535Y-86731523D01*
X127346483Y-86708073D01*
X127283349Y-86678143D01*
X127278201Y-86673281D01*
X125136819Y-84531899D01*
X125103334Y-84470576D01*
X125100500Y-84444218D01*
X125100500Y-83397682D01*
X125890000Y-83397682D01*
X125890000Y-83602317D01*
X125922009Y-83804417D01*
X125985244Y-83999031D01*
X126078141Y-84181350D01*
X126078147Y-84181359D01*
X126110523Y-84225921D01*
X126110524Y-84225922D01*
X126790000Y-83546446D01*
X126790000Y-83552661D01*
X126817259Y-83654394D01*
X126869920Y-83745606D01*
X126944394Y-83820080D01*
X127035606Y-83872741D01*
X127137339Y-83900000D01*
X127143553Y-83900000D01*
X126464076Y-84579474D01*
X126508650Y-84611859D01*
X126690968Y-84704755D01*
X126885582Y-84767990D01*
X127087683Y-84800000D01*
X127292317Y-84800000D01*
X127494417Y-84767990D01*
X127689031Y-84704755D01*
X127871349Y-84611859D01*
X127915921Y-84579474D01*
X127236447Y-83900000D01*
X127242661Y-83900000D01*
X127344394Y-83872741D01*
X127435606Y-83820080D01*
X127510080Y-83745606D01*
X127562741Y-83654394D01*
X127590000Y-83552661D01*
X127590000Y-83546447D01*
X128269474Y-84225921D01*
X128301859Y-84181349D01*
X128394755Y-83999031D01*
X128457990Y-83804417D01*
X128490000Y-83602317D01*
X128490000Y-83397682D01*
X128457990Y-83195582D01*
X128394755Y-83000968D01*
X128301859Y-82818650D01*
X128269474Y-82774077D01*
X128269474Y-82774076D01*
X127590000Y-83453551D01*
X127590000Y-83447339D01*
X127562741Y-83345606D01*
X127510080Y-83254394D01*
X127435606Y-83179920D01*
X127344394Y-83127259D01*
X127242661Y-83100000D01*
X127236446Y-83100000D01*
X127915922Y-82420524D01*
X127915921Y-82420523D01*
X127871359Y-82388147D01*
X127871350Y-82388141D01*
X127689031Y-82295244D01*
X127494417Y-82232009D01*
X127292317Y-82200000D01*
X127087683Y-82200000D01*
X126885582Y-82232009D01*
X126690968Y-82295244D01*
X126508644Y-82388143D01*
X126464077Y-82420523D01*
X126464077Y-82420524D01*
X127143554Y-83100000D01*
X127137339Y-83100000D01*
X127035606Y-83127259D01*
X126944394Y-83179920D01*
X126869920Y-83254394D01*
X126817259Y-83345606D01*
X126790000Y-83447339D01*
X126790000Y-83453553D01*
X126110524Y-82774077D01*
X126110523Y-82774077D01*
X126078143Y-82818644D01*
X125985244Y-83000968D01*
X125922009Y-83195582D01*
X125890000Y-83397682D01*
X125100500Y-83397682D01*
X125100500Y-78897648D01*
X125889500Y-78897648D01*
X125889500Y-79102351D01*
X125921522Y-79304534D01*
X125984781Y-79499223D01*
X126077715Y-79681613D01*
X126198028Y-79847213D01*
X126342786Y-79991971D01*
X126496630Y-80103743D01*
X126508390Y-80112287D01*
X126605400Y-80161716D01*
X126690776Y-80205218D01*
X126690778Y-80205218D01*
X126690781Y-80205220D01*
X126788030Y-80236818D01*
X126885465Y-80268477D01*
X126986557Y-80284488D01*
X127087648Y-80300500D01*
X127087649Y-80300500D01*
X127292351Y-80300500D01*
X127292352Y-80300500D01*
X127494534Y-80268477D01*
X127689219Y-80205220D01*
X127871610Y-80112287D01*
X127991986Y-80024828D01*
X128057787Y-80001351D01*
X128125841Y-80017176D01*
X128152548Y-80037468D01*
X132249735Y-84134655D01*
X132249764Y-84134686D01*
X132392214Y-84277136D01*
X132392218Y-84277139D01*
X132556079Y-84386628D01*
X132556092Y-84386635D01*
X132684833Y-84439961D01*
X132695111Y-84444218D01*
X132738164Y-84462051D01*
X132834812Y-84481275D01*
X132883135Y-84490887D01*
X132931458Y-84500500D01*
X132931459Y-84500500D01*
X132931460Y-84500500D01*
X133128540Y-84500500D01*
X133934238Y-84500500D01*
X134001277Y-84520185D01*
X134007119Y-84524179D01*
X134128390Y-84612287D01*
X134244607Y-84671503D01*
X134310776Y-84705218D01*
X134310778Y-84705218D01*
X134310781Y-84705220D01*
X134394085Y-84732287D01*
X134505465Y-84768477D01*
X134606557Y-84784488D01*
X134707648Y-84800500D01*
X134707649Y-84800500D01*
X134912351Y-84800500D01*
X134912352Y-84800500D01*
X135114534Y-84768477D01*
X135309219Y-84705220D01*
X135355927Y-84681421D01*
X138064500Y-84681421D01*
X138064500Y-84858579D01*
X138074308Y-84920500D01*
X138092214Y-85033556D01*
X138146956Y-85202039D01*
X138146957Y-85202042D01*
X138206373Y-85318650D01*
X138227386Y-85359890D01*
X138331517Y-85503214D01*
X138456786Y-85628483D01*
X138600110Y-85732614D01*
X138677529Y-85772061D01*
X138757957Y-85813042D01*
X138757960Y-85813043D01*
X138811689Y-85830500D01*
X138926445Y-85867786D01*
X139101421Y-85895500D01*
X139101422Y-85895500D01*
X139278578Y-85895500D01*
X139278579Y-85895500D01*
X139453555Y-85867786D01*
X139622042Y-85813042D01*
X139779890Y-85732614D01*
X139923214Y-85628483D01*
X140048483Y-85503214D01*
X140152614Y-85359890D01*
X140233042Y-85202042D01*
X140287786Y-85033555D01*
X140315500Y-84858579D01*
X140315500Y-84681421D01*
X140287786Y-84506445D01*
X140233042Y-84337958D01*
X140233042Y-84337957D01*
X140192061Y-84257529D01*
X140152614Y-84180110D01*
X140048483Y-84036786D01*
X139923214Y-83911517D01*
X139779890Y-83807386D01*
X139774063Y-83804417D01*
X139622042Y-83726957D01*
X139622039Y-83726956D01*
X139453556Y-83672214D01*
X139341046Y-83654394D01*
X139278579Y-83644500D01*
X139101421Y-83644500D01*
X139043095Y-83653738D01*
X138926443Y-83672214D01*
X138757960Y-83726956D01*
X138757957Y-83726957D01*
X138600109Y-83807386D01*
X138525617Y-83861508D01*
X138456786Y-83911517D01*
X138456784Y-83911519D01*
X138456783Y-83911519D01*
X138331519Y-84036783D01*
X138331519Y-84036784D01*
X138331517Y-84036786D01*
X138286796Y-84098338D01*
X138227386Y-84180109D01*
X138146957Y-84337957D01*
X138146956Y-84337960D01*
X138092214Y-84506443D01*
X138078541Y-84592772D01*
X138064500Y-84681421D01*
X135355927Y-84681421D01*
X135491610Y-84612287D01*
X135657219Y-84491966D01*
X135801966Y-84347219D01*
X135801968Y-84347215D01*
X135801971Y-84347213D01*
X135854732Y-84274590D01*
X135922287Y-84181610D01*
X136015220Y-83999219D01*
X136078477Y-83804534D01*
X136110500Y-83602352D01*
X136110500Y-83397648D01*
X136099435Y-83327785D01*
X136078477Y-83195465D01*
X136024543Y-83029474D01*
X136015220Y-83000781D01*
X136015218Y-83000778D01*
X136015218Y-83000776D01*
X135951519Y-82875761D01*
X135922287Y-82818390D01*
X135890092Y-82774077D01*
X135801971Y-82652786D01*
X135657213Y-82508028D01*
X135491613Y-82387715D01*
X135491612Y-82387714D01*
X135491610Y-82387713D01*
X135420583Y-82351523D01*
X135309223Y-82294781D01*
X135114534Y-82231522D01*
X134939995Y-82203878D01*
X134912352Y-82199500D01*
X134707648Y-82199500D01*
X134683329Y-82203351D01*
X134505465Y-82231522D01*
X134310776Y-82294781D01*
X134128386Y-82387715D01*
X134007123Y-82475818D01*
X133941317Y-82499298D01*
X133934238Y-82499500D01*
X133495782Y-82499500D01*
X133428743Y-82479815D01*
X133408101Y-82463181D01*
X129311479Y-78366559D01*
X129311459Y-78366537D01*
X129167785Y-78222863D01*
X129167781Y-78222860D01*
X129003920Y-78113371D01*
X129003911Y-78113366D01*
X128882485Y-78063070D01*
X128882484Y-78063069D01*
X128875165Y-78060038D01*
X128821836Y-78037949D01*
X128706720Y-78015051D01*
X128671414Y-78008028D01*
X128628543Y-77999500D01*
X128628541Y-77999500D01*
X128065762Y-77999500D01*
X127998723Y-77979815D01*
X127992877Y-77975818D01*
X127871613Y-77887715D01*
X127871612Y-77887714D01*
X127871610Y-77887713D01*
X127777892Y-77839961D01*
X127689223Y-77794781D01*
X127494534Y-77731522D01*
X127319995Y-77703878D01*
X127292352Y-77699500D01*
X127087648Y-77699500D01*
X127063329Y-77703351D01*
X126885465Y-77731522D01*
X126690776Y-77794781D01*
X126508386Y-77887715D01*
X126342786Y-78008028D01*
X126198028Y-78152786D01*
X126077715Y-78318386D01*
X125984781Y-78500776D01*
X125921522Y-78695465D01*
X125889500Y-78897648D01*
X125100500Y-78897648D01*
X125100500Y-76814784D01*
X125120185Y-76747745D01*
X125172989Y-76701990D01*
X125242147Y-76692046D01*
X125305703Y-76721071D01*
X125312181Y-76727103D01*
X125362214Y-76777136D01*
X125362218Y-76777139D01*
X125526082Y-76886630D01*
X125526084Y-76886630D01*
X125526086Y-76886632D01*
X125639333Y-76933540D01*
X125708164Y-76962051D01*
X125804812Y-76981275D01*
X125885214Y-76997268D01*
X125901458Y-77000500D01*
X125901459Y-77000500D01*
X125901460Y-77000500D01*
X126098540Y-77000500D01*
X135034218Y-77000500D01*
X135101257Y-77020185D01*
X135121899Y-77036819D01*
X135963181Y-77878101D01*
X135996666Y-77939424D01*
X135999500Y-77965782D01*
X135999500Y-78050953D01*
X135979815Y-78117992D01*
X135927011Y-78163747D01*
X135857853Y-78173691D01*
X135794297Y-78144666D01*
X135787819Y-78138634D01*
X135657213Y-78008028D01*
X135491613Y-77887715D01*
X135491612Y-77887714D01*
X135491610Y-77887713D01*
X135397892Y-77839961D01*
X135309223Y-77794781D01*
X135114534Y-77731522D01*
X134939995Y-77703878D01*
X134912352Y-77699500D01*
X134707648Y-77699500D01*
X134683329Y-77703351D01*
X134505465Y-77731522D01*
X134310776Y-77794781D01*
X134128386Y-77887715D01*
X133962786Y-78008028D01*
X133818028Y-78152786D01*
X133697715Y-78318386D01*
X133604781Y-78500776D01*
X133541522Y-78695465D01*
X133509500Y-78897648D01*
X133509500Y-79102351D01*
X133541522Y-79304534D01*
X133604781Y-79499223D01*
X133697715Y-79681613D01*
X133818028Y-79847213D01*
X133962786Y-79991971D01*
X134116630Y-80103743D01*
X134128390Y-80112287D01*
X134225400Y-80161716D01*
X134310776Y-80205218D01*
X134310778Y-80205218D01*
X134310781Y-80205220D01*
X134408030Y-80236818D01*
X134505465Y-80268477D01*
X134606557Y-80284488D01*
X134707648Y-80300500D01*
X134707649Y-80300500D01*
X134912351Y-80300500D01*
X134912352Y-80300500D01*
X135114534Y-80268477D01*
X135309219Y-80205220D01*
X135491610Y-80112287D01*
X135611984Y-80024831D01*
X135657213Y-79991971D01*
X135657215Y-79991968D01*
X135657219Y-79991966D01*
X135787819Y-79861366D01*
X135849142Y-79827881D01*
X135918834Y-79832865D01*
X135974767Y-79874737D01*
X135999184Y-79940201D01*
X135999500Y-79949047D01*
X135999500Y-81598541D01*
X135999500Y-81598543D01*
X135999499Y-81598543D01*
X136037947Y-81791829D01*
X136037950Y-81791839D01*
X136113364Y-81973907D01*
X136113371Y-81973920D01*
X136222860Y-82137781D01*
X136222863Y-82137785D01*
X136366537Y-82281459D01*
X136366559Y-82281479D01*
X136949735Y-82864655D01*
X136949764Y-82864686D01*
X137092214Y-83007136D01*
X137092218Y-83007139D01*
X137256079Y-83116628D01*
X137256092Y-83116635D01*
X137384833Y-83169961D01*
X137408877Y-83179920D01*
X137438164Y-83192051D01*
X137534812Y-83211275D01*
X137583135Y-83220887D01*
X137631458Y-83230500D01*
X137631459Y-83230500D01*
X137631460Y-83230500D01*
X137828540Y-83230500D01*
X138644694Y-83230500D01*
X138700989Y-83244015D01*
X138721359Y-83254394D01*
X138757958Y-83273042D01*
X138757960Y-83273043D01*
X138842201Y-83300414D01*
X138926445Y-83327786D01*
X139101421Y-83355500D01*
X139101422Y-83355500D01*
X139278578Y-83355500D01*
X139278579Y-83355500D01*
X139453555Y-83327786D01*
X139622042Y-83273042D01*
X139779890Y-83192614D01*
X139923214Y-83088483D01*
X140048483Y-82963214D01*
X140152614Y-82819890D01*
X140233042Y-82662042D01*
X140287786Y-82493555D01*
X140315500Y-82318579D01*
X140315500Y-82141421D01*
X140287786Y-81966445D01*
X140257806Y-81874174D01*
X140233043Y-81797960D01*
X140233042Y-81797957D01*
X140152613Y-81640109D01*
X140140814Y-81623869D01*
X140048483Y-81496786D01*
X139923214Y-81371517D01*
X139779890Y-81267386D01*
X139753444Y-81253911D01*
X139622042Y-81186957D01*
X139622039Y-81186956D01*
X139453556Y-81132214D01*
X139366067Y-81118357D01*
X139278579Y-81104500D01*
X139101421Y-81104500D01*
X139043095Y-81113738D01*
X138926443Y-81132214D01*
X138757960Y-81186956D01*
X138757957Y-81186958D01*
X138700989Y-81215985D01*
X138644694Y-81229500D01*
X138195782Y-81229500D01*
X138128743Y-81209815D01*
X138108101Y-81193181D01*
X138036819Y-81121899D01*
X138003334Y-81060576D01*
X138000500Y-81034218D01*
X138000500Y-80764954D01*
X138020185Y-80697915D01*
X138072989Y-80652160D01*
X138142147Y-80642216D01*
X138199480Y-80668399D01*
X138200355Y-80667232D01*
X138322664Y-80758793D01*
X138322671Y-80758797D01*
X138457517Y-80809091D01*
X138457516Y-80809091D01*
X138464444Y-80809835D01*
X138517127Y-80815500D01*
X139862872Y-80815499D01*
X139922483Y-80809091D01*
X140057331Y-80758796D01*
X140172546Y-80672546D01*
X140258796Y-80557331D01*
X140309091Y-80422483D01*
X140315500Y-80362873D01*
X140315499Y-79017128D01*
X140310299Y-78968757D01*
X140309091Y-78957516D01*
X140258797Y-78822671D01*
X140258793Y-78822664D01*
X140172547Y-78707455D01*
X140172544Y-78707452D01*
X140057335Y-78621206D01*
X140057328Y-78621202D01*
X139922482Y-78570908D01*
X139922483Y-78570908D01*
X139862883Y-78564501D01*
X139862881Y-78564500D01*
X139862873Y-78564500D01*
X139862864Y-78564500D01*
X138517129Y-78564500D01*
X138517123Y-78564501D01*
X138457516Y-78570908D01*
X138322671Y-78621202D01*
X138322664Y-78621206D01*
X138200355Y-78712768D01*
X138198450Y-78710224D01*
X138150858Y-78736212D01*
X138081166Y-78731228D01*
X138025233Y-78689356D01*
X138000816Y-78623892D01*
X138000500Y-78615046D01*
X138000500Y-77401457D01*
X137987064Y-77333915D01*
X137987064Y-77333913D01*
X137974048Y-77268477D01*
X137962051Y-77208164D01*
X137922322Y-77112251D01*
X137912771Y-77089193D01*
X137886635Y-77026093D01*
X137886634Y-77026092D01*
X137886632Y-77026086D01*
X137818701Y-76924420D01*
X137777140Y-76862219D01*
X137710814Y-76795893D01*
X137637782Y-76722861D01*
X137637781Y-76722860D01*
X137012874Y-76097953D01*
X136979390Y-76036632D01*
X136984374Y-75966941D01*
X137026245Y-75911007D01*
X137091710Y-75886590D01*
X137148007Y-75895712D01*
X137249977Y-75937949D01*
X137308164Y-75962051D01*
X137399445Y-75980208D01*
X137428657Y-75986018D01*
X137501456Y-76000500D01*
X137501459Y-76000500D01*
X137501460Y-76000500D01*
X137698540Y-76000500D01*
X139214036Y-76000500D01*
X139281075Y-76020185D01*
X139326830Y-76072989D01*
X139336774Y-76142147D01*
X139314354Y-76197386D01*
X139308240Y-76205800D01*
X139222454Y-76374163D01*
X139164059Y-76553881D01*
X139134500Y-76740513D01*
X139134500Y-76929486D01*
X139164059Y-77116118D01*
X139222454Y-77295836D01*
X139258094Y-77365782D01*
X139308240Y-77464199D01*
X139419310Y-77617073D01*
X139552927Y-77750690D01*
X139705801Y-77861760D01*
X139781833Y-77900500D01*
X139874163Y-77947545D01*
X139874165Y-77947545D01*
X139874168Y-77947547D01*
X140053882Y-78005940D01*
X140056177Y-78006303D01*
X140058212Y-78006626D01*
X140121348Y-78036554D01*
X140126499Y-78041419D01*
X144949735Y-82864655D01*
X144949764Y-82864686D01*
X145092214Y-83007136D01*
X145092218Y-83007139D01*
X145256079Y-83116628D01*
X145256092Y-83116635D01*
X145384833Y-83169961D01*
X145408877Y-83179920D01*
X145438164Y-83192051D01*
X145534812Y-83211275D01*
X145583135Y-83220887D01*
X145631458Y-83230500D01*
X145631459Y-83230500D01*
X145631460Y-83230500D01*
X145828540Y-83230500D01*
X146264694Y-83230500D01*
X146320989Y-83244015D01*
X146341359Y-83254394D01*
X146377958Y-83273042D01*
X146377960Y-83273043D01*
X146462201Y-83300414D01*
X146546445Y-83327786D01*
X146721421Y-83355500D01*
X146721422Y-83355500D01*
X146898578Y-83355500D01*
X146898579Y-83355500D01*
X147073555Y-83327786D01*
X147242042Y-83273042D01*
X147399890Y-83192614D01*
X147543214Y-83088483D01*
X147668483Y-82963214D01*
X147772614Y-82819890D01*
X147853042Y-82662042D01*
X147907786Y-82493555D01*
X147935500Y-82318579D01*
X147935500Y-82141421D01*
X147907786Y-81966445D01*
X147877806Y-81874174D01*
X147853043Y-81797960D01*
X147853042Y-81797957D01*
X147772613Y-81640109D01*
X147760814Y-81623869D01*
X147668483Y-81496786D01*
X147543214Y-81371517D01*
X147399890Y-81267386D01*
X147373444Y-81253911D01*
X147242042Y-81186957D01*
X147242039Y-81186956D01*
X147073556Y-81132214D01*
X146986067Y-81118357D01*
X146898579Y-81104500D01*
X146721421Y-81104500D01*
X146663095Y-81113738D01*
X146546443Y-81132214D01*
X146377960Y-81186956D01*
X146377957Y-81186958D01*
X146320989Y-81215985D01*
X146264694Y-81229500D01*
X146195782Y-81229500D01*
X146128743Y-81209815D01*
X146108101Y-81193181D01*
X141541419Y-76626499D01*
X141507934Y-76565176D01*
X141506626Y-76558212D01*
X141505940Y-76553884D01*
X141505940Y-76553882D01*
X141447547Y-76374168D01*
X141447545Y-76374165D01*
X141447545Y-76374163D01*
X141361759Y-76205800D01*
X141355646Y-76197386D01*
X141332166Y-76131580D01*
X141347991Y-76063526D01*
X141398097Y-76014831D01*
X141455964Y-76000500D01*
X141534218Y-76000500D01*
X141601257Y-76020185D01*
X141621899Y-76036819D01*
X141719735Y-76134655D01*
X141719764Y-76134686D01*
X141862214Y-76277136D01*
X141862218Y-76277139D01*
X142026079Y-76386628D01*
X142026092Y-76386635D01*
X142154833Y-76439961D01*
X142160577Y-76442340D01*
X142208164Y-76462051D01*
X142304812Y-76481275D01*
X142353135Y-76490887D01*
X142401458Y-76500500D01*
X142401459Y-76500500D01*
X142401460Y-76500500D01*
X142598540Y-76500500D01*
X155934218Y-76500500D01*
X156001257Y-76520185D01*
X156021899Y-76536819D01*
X157019735Y-77534655D01*
X157019764Y-77534686D01*
X157162214Y-77677136D01*
X157162218Y-77677139D01*
X157326079Y-77786628D01*
X157326092Y-77786635D01*
X157454833Y-77839961D01*
X157497744Y-77857735D01*
X157508164Y-77862051D01*
X157604812Y-77881275D01*
X157637177Y-77887713D01*
X157701458Y-77900500D01*
X157701459Y-77900500D01*
X157701460Y-77900500D01*
X157898540Y-77900500D01*
X160434218Y-77900500D01*
X160501257Y-77920185D01*
X160521899Y-77936819D01*
X162563181Y-79978101D01*
X162596666Y-80039424D01*
X162599500Y-80065782D01*
X162599500Y-87634217D01*
X162579815Y-87701256D01*
X162563181Y-87721898D01*
X162293690Y-87991389D01*
X162232367Y-88024874D01*
X162162675Y-88019890D01*
X162106742Y-87978018D01*
X162082325Y-87912554D01*
X162084391Y-87879524D01*
X162089976Y-87851448D01*
X162100500Y-87798541D01*
X162100500Y-80901459D01*
X162100138Y-80899641D01*
X162088828Y-80842782D01*
X162088828Y-80842780D01*
X162072956Y-80762989D01*
X162062051Y-80708164D01*
X162025325Y-80619500D01*
X161986632Y-80526086D01*
X161986631Y-80526084D01*
X161986630Y-80526082D01*
X161877140Y-80362219D01*
X161815421Y-80300500D01*
X161737782Y-80222861D01*
X161737781Y-80222860D01*
X160084208Y-78569288D01*
X160084206Y-78569285D01*
X160084206Y-78569286D01*
X160077139Y-78562219D01*
X160077139Y-78562218D01*
X159937782Y-78422861D01*
X159937781Y-78422860D01*
X159937780Y-78422859D01*
X159773920Y-78313371D01*
X159773911Y-78313366D01*
X159652898Y-78263241D01*
X159652897Y-78263240D01*
X159645165Y-78260038D01*
X159591836Y-78237949D01*
X159453841Y-78210500D01*
X159450104Y-78209756D01*
X159450094Y-78209754D01*
X159398543Y-78199500D01*
X159398541Y-78199500D01*
X153081459Y-78199500D01*
X153081454Y-78199500D01*
X153049391Y-78205876D01*
X153049392Y-78205877D01*
X152888170Y-78237946D01*
X152888164Y-78237948D01*
X152706088Y-78313366D01*
X152706079Y-78313371D01*
X152542219Y-78422859D01*
X152542215Y-78422862D01*
X152311898Y-78653181D01*
X152250575Y-78686666D01*
X152224217Y-78689500D01*
X147355306Y-78689500D01*
X147299011Y-78675985D01*
X147242042Y-78646958D01*
X147242039Y-78646956D01*
X147073556Y-78592214D01*
X146939043Y-78570909D01*
X146898579Y-78564500D01*
X146721421Y-78564500D01*
X146680957Y-78570909D01*
X146546443Y-78592214D01*
X146377960Y-78646956D01*
X146377957Y-78646957D01*
X146220109Y-78727386D01*
X146138338Y-78786796D01*
X146076786Y-78831517D01*
X146076784Y-78831519D01*
X146076783Y-78831519D01*
X145951519Y-78956783D01*
X145951519Y-78956784D01*
X145951517Y-78956786D01*
X145947573Y-78962215D01*
X145847386Y-79100109D01*
X145766957Y-79257957D01*
X145766956Y-79257960D01*
X145712214Y-79426443D01*
X145695801Y-79530071D01*
X145684500Y-79601421D01*
X145684500Y-79778579D01*
X145692309Y-79827881D01*
X145712214Y-79953556D01*
X145766956Y-80122039D01*
X145766957Y-80122042D01*
X145825440Y-80236819D01*
X145847386Y-80279890D01*
X145951517Y-80423214D01*
X146076786Y-80548483D01*
X146220110Y-80652614D01*
X146294465Y-80690500D01*
X146377957Y-80733042D01*
X146377960Y-80733043D01*
X146457222Y-80758796D01*
X146546445Y-80787786D01*
X146721421Y-80815500D01*
X146721422Y-80815500D01*
X146898578Y-80815500D01*
X146898579Y-80815500D01*
X147073555Y-80787786D01*
X147242042Y-80733042D01*
X147296169Y-80705463D01*
X147299011Y-80704015D01*
X147355306Y-80690500D01*
X150398197Y-80690500D01*
X150465236Y-80710185D01*
X150510991Y-80762989D01*
X150520935Y-80832147D01*
X150491910Y-80895703D01*
X150471083Y-80914817D01*
X150427597Y-80946411D01*
X150342780Y-81008034D01*
X150198028Y-81152786D01*
X150077715Y-81318386D01*
X149984781Y-81500776D01*
X149921522Y-81695465D01*
X149889500Y-81897648D01*
X149889500Y-82102351D01*
X149921522Y-82304534D01*
X149984782Y-82499226D01*
X150018502Y-82565404D01*
X150031398Y-82634073D01*
X150005121Y-82698813D01*
X149995698Y-82709379D01*
X148119637Y-84585441D01*
X148058314Y-84618926D01*
X147988622Y-84613942D01*
X147932689Y-84572070D01*
X147909483Y-84517159D01*
X147908048Y-84508101D01*
X147907786Y-84506445D01*
X147853042Y-84337958D01*
X147853042Y-84337957D01*
X147812061Y-84257529D01*
X147772614Y-84180110D01*
X147668483Y-84036786D01*
X147543214Y-83911517D01*
X147399890Y-83807386D01*
X147394063Y-83804417D01*
X147242042Y-83726957D01*
X147242039Y-83726956D01*
X147073556Y-83672214D01*
X146961046Y-83654394D01*
X146898579Y-83644500D01*
X146721421Y-83644500D01*
X146663095Y-83653738D01*
X146546443Y-83672214D01*
X146377960Y-83726956D01*
X146377957Y-83726957D01*
X146220109Y-83807386D01*
X146145617Y-83861508D01*
X146076786Y-83911517D01*
X146076784Y-83911519D01*
X146076783Y-83911519D01*
X145951519Y-84036783D01*
X145951519Y-84036784D01*
X145951517Y-84036786D01*
X145906796Y-84098338D01*
X145847386Y-84180109D01*
X145766957Y-84337957D01*
X145766956Y-84337960D01*
X145712214Y-84506443D01*
X145698541Y-84592772D01*
X145684500Y-84681421D01*
X145684500Y-84858579D01*
X145694308Y-84920500D01*
X145712214Y-85033556D01*
X145766956Y-85202039D01*
X145766957Y-85202042D01*
X145826373Y-85318650D01*
X145847386Y-85359890D01*
X145951517Y-85503214D01*
X146076786Y-85628483D01*
X146220110Y-85732614D01*
X146297529Y-85772061D01*
X146377957Y-85813042D01*
X146377960Y-85813043D01*
X146546444Y-85867786D01*
X146557158Y-85869483D01*
X146620293Y-85899412D01*
X146657225Y-85958723D01*
X146656227Y-86028586D01*
X146625442Y-86079636D01*
X146550685Y-86154394D01*
X146488128Y-86216951D01*
X146438767Y-86247200D01*
X146377952Y-86266960D01*
X146220109Y-86347386D01*
X146147693Y-86400000D01*
X146076786Y-86451517D01*
X146076784Y-86451519D01*
X146076783Y-86451519D01*
X145951519Y-86576783D01*
X145951519Y-86576784D01*
X145951517Y-86576786D01*
X145906796Y-86638338D01*
X145847386Y-86720109D01*
X145766957Y-86877957D01*
X145766956Y-86877960D01*
X145712214Y-87046443D01*
X145684500Y-87221421D01*
X145684500Y-87398578D01*
X145712214Y-87573556D01*
X145766956Y-87742039D01*
X145766957Y-87742042D01*
X145818660Y-87843513D01*
X145847386Y-87899890D01*
X145951517Y-88043214D01*
X146076786Y-88168483D01*
X146220110Y-88272614D01*
X146297529Y-88312061D01*
X146377957Y-88353042D01*
X146377960Y-88353043D01*
X146462201Y-88380414D01*
X146546445Y-88407786D01*
X146721421Y-88435500D01*
X146721422Y-88435500D01*
X146898578Y-88435500D01*
X146898579Y-88435500D01*
X147073555Y-88407786D01*
X147242042Y-88353042D01*
X147399890Y-88272614D01*
X147543214Y-88168483D01*
X147668483Y-88043214D01*
X147772614Y-87899890D01*
X147853042Y-87742042D01*
X147872799Y-87681232D01*
X147903047Y-87631871D01*
X149678320Y-85856598D01*
X149739642Y-85823115D01*
X149809334Y-85828099D01*
X149865267Y-85869971D01*
X149889684Y-85935435D01*
X149890000Y-85944281D01*
X149890000Y-86102317D01*
X149922009Y-86304417D01*
X149985244Y-86499031D01*
X150078141Y-86681350D01*
X150078147Y-86681359D01*
X150110523Y-86725921D01*
X150110524Y-86725922D01*
X150790000Y-86046446D01*
X150790000Y-86052661D01*
X150817259Y-86154394D01*
X150869920Y-86245606D01*
X150944394Y-86320080D01*
X151035606Y-86372741D01*
X151137339Y-86400000D01*
X151143554Y-86400000D01*
X150580372Y-86963181D01*
X150519049Y-86996666D01*
X150503940Y-86998989D01*
X150498330Y-86999500D01*
X150401459Y-86999500D01*
X150326050Y-87014500D01*
X150319629Y-87015777D01*
X150319620Y-87015778D01*
X150208171Y-87037947D01*
X150208163Y-87037949D01*
X150169747Y-87053862D01*
X150169746Y-87053862D01*
X150026092Y-87113364D01*
X150026079Y-87113371D01*
X149862219Y-87222859D01*
X149801016Y-87284063D01*
X149722861Y-87362218D01*
X149722858Y-87362221D01*
X145241897Y-91843181D01*
X145180574Y-91876666D01*
X145154216Y-91879500D01*
X143992129Y-91879500D01*
X143992123Y-91879501D01*
X143932516Y-91885908D01*
X143797671Y-91936202D01*
X143797664Y-91936206D01*
X143682455Y-92022452D01*
X143682452Y-92022455D01*
X143596206Y-92137664D01*
X143591953Y-92145454D01*
X143588707Y-92143682D01*
X143557125Y-92185669D01*
X143491605Y-92209935D01*
X143423366Y-92194926D01*
X143410158Y-92186549D01*
X143369955Y-92157340D01*
X143286433Y-92096657D01*
X143249381Y-92077778D01*
X143075996Y-91989433D01*
X142851368Y-91916446D01*
X142618097Y-91879500D01*
X142618092Y-91879500D01*
X142381908Y-91879500D01*
X142381903Y-91879500D01*
X142148631Y-91916446D01*
X141924003Y-91989433D01*
X141713566Y-92096657D01*
X141618232Y-92165922D01*
X141522490Y-92235483D01*
X141522488Y-92235485D01*
X141522487Y-92235485D01*
X141355482Y-92402490D01*
X141312451Y-92461717D01*
X141257120Y-92504382D01*
X141202405Y-92512448D01*
X141182658Y-92510893D01*
X140572522Y-93121029D01*
X140549316Y-93065004D01*
X140476539Y-92956087D01*
X140383913Y-92863461D01*
X140274996Y-92790684D01*
X140218969Y-92767477D01*
X140829105Y-92157340D01*
X140829104Y-92157338D01*
X140746174Y-92097087D01*
X140535802Y-91989897D01*
X140311247Y-91916934D01*
X140311248Y-91916934D01*
X140078052Y-91880000D01*
X139841948Y-91880000D01*
X139608752Y-91916934D01*
X139384197Y-91989897D01*
X139173830Y-92097084D01*
X139090894Y-92157340D01*
X139701031Y-92767477D01*
X139645004Y-92790684D01*
X139536087Y-92863461D01*
X139443461Y-92956087D01*
X139370684Y-93065004D01*
X139347477Y-93121031D01*
X138737340Y-92510894D01*
X138677084Y-92593830D01*
X138569897Y-92804197D01*
X138496934Y-93028752D01*
X138460000Y-93261947D01*
X138460000Y-93498052D01*
X138496934Y-93731247D01*
X138569897Y-93955802D01*
X138677087Y-94166174D01*
X138737338Y-94249104D01*
X138737340Y-94249105D01*
X139347476Y-93638968D01*
X139370684Y-93694996D01*
X139443461Y-93803913D01*
X139536087Y-93896539D01*
X139645004Y-93969316D01*
X139701030Y-93992522D01*
X139090893Y-94602658D01*
X139173828Y-94662914D01*
X139384197Y-94770102D01*
X139608752Y-94843065D01*
X139608751Y-94843065D01*
X139841948Y-94880000D01*
X140078052Y-94880000D01*
X140311247Y-94843065D01*
X140535802Y-94770102D01*
X140746163Y-94662918D01*
X140746169Y-94662914D01*
X140829104Y-94602658D01*
X140829105Y-94602658D01*
X140218969Y-93992522D01*
X140274996Y-93969316D01*
X140383913Y-93896539D01*
X140476539Y-93803913D01*
X140549316Y-93694996D01*
X140572522Y-93638969D01*
X141182657Y-94249104D01*
X141202404Y-94247550D01*
X141270781Y-94261914D01*
X141312451Y-94298282D01*
X141355483Y-94357510D01*
X141522490Y-94524517D01*
X141713567Y-94663343D01*
X141812991Y-94714002D01*
X141924003Y-94770566D01*
X141924005Y-94770566D01*
X141924008Y-94770568D01*
X142043342Y-94809342D01*
X142148631Y-94843553D01*
X142381903Y-94880500D01*
X142381908Y-94880500D01*
X142618097Y-94880500D01*
X142851368Y-94843553D01*
X142852870Y-94843065D01*
X143075992Y-94770568D01*
X143286433Y-94663343D01*
X143410161Y-94573448D01*
X143475964Y-94549970D01*
X143544018Y-94565795D01*
X143591589Y-94614744D01*
X143591953Y-94614546D01*
X143592665Y-94615851D01*
X143592713Y-94615900D01*
X143592807Y-94616111D01*
X143596206Y-94622335D01*
X143682452Y-94737544D01*
X143682455Y-94737547D01*
X143797664Y-94823793D01*
X143797671Y-94823797D01*
X143932517Y-94874091D01*
X143932516Y-94874091D01*
X143939444Y-94874835D01*
X143992127Y-94880500D01*
X146087872Y-94880499D01*
X146147483Y-94874091D01*
X146282331Y-94823796D01*
X146397546Y-94737546D01*
X146483796Y-94622331D01*
X146534091Y-94487483D01*
X146540500Y-94427873D01*
X146540499Y-93425780D01*
X146560183Y-93358742D01*
X146576813Y-93338105D01*
X150878101Y-89036819D01*
X150939424Y-89003334D01*
X150965782Y-89000500D01*
X151873575Y-89000500D01*
X151940614Y-89020185D01*
X151986369Y-89072989D01*
X151996313Y-89142147D01*
X151967288Y-89205703D01*
X151911894Y-89242431D01*
X151750776Y-89294781D01*
X151568386Y-89387715D01*
X151402786Y-89508028D01*
X151258028Y-89652786D01*
X151137715Y-89818386D01*
X151044781Y-90000776D01*
X150981522Y-90195465D01*
X150949500Y-90397648D01*
X150949500Y-90602351D01*
X150981522Y-90804534D01*
X151044781Y-90999223D01*
X151089224Y-91086446D01*
X151115381Y-91137782D01*
X151137715Y-91181613D01*
X151258028Y-91347213D01*
X151402786Y-91491971D01*
X151529464Y-91584006D01*
X151568390Y-91612287D01*
X151678151Y-91668213D01*
X151750776Y-91705218D01*
X151750778Y-91705218D01*
X151750781Y-91705220D01*
X151852899Y-91738400D01*
X151945465Y-91768477D01*
X152046557Y-91784488D01*
X152147648Y-91800500D01*
X152147649Y-91800500D01*
X152352351Y-91800500D01*
X152352352Y-91800500D01*
X152554534Y-91768477D01*
X152749219Y-91705220D01*
X152931610Y-91612287D01*
X153049274Y-91526800D01*
X153097213Y-91491971D01*
X153097215Y-91491968D01*
X153097219Y-91491966D01*
X153241966Y-91347219D01*
X153241968Y-91347215D01*
X153241971Y-91347213D01*
X153350800Y-91197420D01*
X153362287Y-91181610D01*
X153389515Y-91128171D01*
X153437490Y-91077376D01*
X153505311Y-91060581D01*
X153571446Y-91083118D01*
X153603679Y-91116448D01*
X153607405Y-91122127D01*
X153637713Y-91181610D01*
X153727559Y-91305272D01*
X153729179Y-91307742D01*
X153738507Y-91338439D01*
X153749298Y-91368681D01*
X153749463Y-91374492D01*
X153749494Y-91374592D01*
X153749469Y-91374679D01*
X153749500Y-91375761D01*
X153749500Y-93069217D01*
X153729815Y-93136256D01*
X153713181Y-93156898D01*
X153372027Y-93498052D01*
X153017221Y-93852858D01*
X153017218Y-93852861D01*
X152973540Y-93896539D01*
X152877859Y-93992219D01*
X152768371Y-94156079D01*
X152768364Y-94156092D01*
X152692950Y-94338160D01*
X152692947Y-94338170D01*
X152654500Y-94531456D01*
X152654500Y-97775500D01*
X152634815Y-97842539D01*
X152582011Y-97888294D01*
X152530500Y-97899500D01*
X152254999Y-97899500D01*
X152254980Y-97899501D01*
X152152203Y-97910000D01*
X152152200Y-97910001D01*
X151985668Y-97965185D01*
X151985663Y-97965187D01*
X151836342Y-98057289D01*
X151712289Y-98181342D01*
X151620187Y-98330663D01*
X151620185Y-98330668D01*
X151593641Y-98410774D01*
X151565001Y-98497203D01*
X151565001Y-98497204D01*
X151565000Y-98497204D01*
X151554500Y-98599983D01*
X151554500Y-101400001D01*
X151554501Y-101400018D01*
X151565000Y-101502796D01*
X151565001Y-101502799D01*
X151620185Y-101669331D01*
X151620190Y-101669342D01*
X151627013Y-101680403D01*
X151645454Y-101747795D01*
X151624532Y-101814459D01*
X151570890Y-101859228D01*
X151521475Y-101869500D01*
X139794361Y-101869500D01*
X139727322Y-101849815D01*
X139681567Y-101797011D01*
X139671623Y-101727853D01*
X139700648Y-101664297D01*
X139718875Y-101647124D01*
X139762714Y-101613485D01*
X139802928Y-101582628D01*
X139997628Y-101387928D01*
X140165249Y-101169479D01*
X140302923Y-100931021D01*
X140408295Y-100676632D01*
X140479560Y-100410666D01*
X140515500Y-100137674D01*
X140515500Y-99862326D01*
X140479560Y-99589334D01*
X140408295Y-99323368D01*
X140302923Y-99068979D01*
X140302921Y-99068976D01*
X140302919Y-99068971D01*
X140204041Y-98897711D01*
X140165249Y-98830521D01*
X140007037Y-98624334D01*
X139997629Y-98612073D01*
X139997623Y-98612066D01*
X139802933Y-98417376D01*
X139802926Y-98417370D01*
X139584483Y-98249754D01*
X139584482Y-98249753D01*
X139584479Y-98249751D01*
X139465995Y-98181344D01*
X139346028Y-98112080D01*
X139346017Y-98112075D01*
X139091630Y-98006704D01*
X138944984Y-97967411D01*
X138825666Y-97935440D01*
X138825660Y-97935439D01*
X138825655Y-97935438D01*
X138552684Y-97899501D01*
X138552679Y-97899500D01*
X138552674Y-97899500D01*
X138277326Y-97899500D01*
X138277320Y-97899500D01*
X138277315Y-97899501D01*
X138004337Y-97935439D01*
X138004323Y-97935442D01*
X137885011Y-97967411D01*
X137815161Y-97965748D01*
X137765237Y-97935317D01*
X136926819Y-97096899D01*
X136893334Y-97035576D01*
X136890500Y-97009218D01*
X136890500Y-88981457D01*
X136882245Y-88939961D01*
X136874396Y-88900500D01*
X136871156Y-88884212D01*
X136852053Y-88788172D01*
X136852052Y-88788165D01*
X136776632Y-88606086D01*
X136776631Y-88606085D01*
X136776628Y-88606079D01*
X136667141Y-88442220D01*
X136616749Y-88391828D01*
X136381403Y-88156483D01*
X136136717Y-87911797D01*
X136103232Y-87850474D01*
X136101925Y-87843513D01*
X136078477Y-87695466D01*
X136078477Y-87695465D01*
X136015218Y-87500776D01*
X135963145Y-87398578D01*
X135922287Y-87318390D01*
X135851860Y-87221455D01*
X138065000Y-87221455D01*
X138065000Y-87398544D01*
X138092701Y-87573439D01*
X138147419Y-87741847D01*
X138147423Y-87741855D01*
X138227808Y-87899621D01*
X138227816Y-87899635D01*
X138235809Y-87910634D01*
X138235811Y-87910635D01*
X138776439Y-87370006D01*
X138803282Y-87470184D01*
X138857917Y-87564816D01*
X138935184Y-87642083D01*
X139029816Y-87696718D01*
X139129993Y-87723560D01*
X138589364Y-88264189D01*
X138600368Y-88272185D01*
X138758149Y-88352579D01*
X138758152Y-88352580D01*
X138926560Y-88407298D01*
X139101456Y-88435000D01*
X139278544Y-88435000D01*
X139453439Y-88407298D01*
X139621847Y-88352580D01*
X139621850Y-88352578D01*
X139779633Y-88272184D01*
X139790634Y-88264189D01*
X139790635Y-88264188D01*
X139250007Y-87723560D01*
X139350184Y-87696718D01*
X139444816Y-87642083D01*
X139522083Y-87564816D01*
X139576718Y-87470184D01*
X139603560Y-87370006D01*
X140144189Y-87910635D01*
X140144189Y-87910634D01*
X140152184Y-87899633D01*
X140232578Y-87741850D01*
X140232580Y-87741847D01*
X140287298Y-87573439D01*
X140315000Y-87398544D01*
X140315000Y-87221455D01*
X140287298Y-87046560D01*
X140232580Y-86878152D01*
X140232579Y-86878149D01*
X140152185Y-86720368D01*
X140144189Y-86709364D01*
X139603560Y-87249992D01*
X139576718Y-87149816D01*
X139522083Y-87055184D01*
X139444816Y-86977917D01*
X139350184Y-86923282D01*
X139250007Y-86896439D01*
X139790635Y-86355811D01*
X139790634Y-86355809D01*
X139779635Y-86347816D01*
X139779621Y-86347808D01*
X139621855Y-86267423D01*
X139621847Y-86267419D01*
X139453439Y-86212701D01*
X139278544Y-86185000D01*
X139101456Y-86185000D01*
X138926560Y-86212701D01*
X138758152Y-86267419D01*
X138758149Y-86267421D01*
X138600366Y-86347815D01*
X138589364Y-86355809D01*
X138589363Y-86355810D01*
X139129993Y-86896439D01*
X139029816Y-86923282D01*
X138935184Y-86977917D01*
X138857917Y-87055184D01*
X138803282Y-87149816D01*
X138776439Y-87249992D01*
X138235810Y-86709363D01*
X138235809Y-86709364D01*
X138227815Y-86720366D01*
X138147421Y-86878149D01*
X138147419Y-86878152D01*
X138092701Y-87046560D01*
X138065000Y-87221455D01*
X135851860Y-87221455D01*
X135801966Y-87152781D01*
X135657219Y-87008034D01*
X135657213Y-87008028D01*
X135491613Y-86887715D01*
X135491612Y-86887714D01*
X135491610Y-86887713D01*
X135415563Y-86848965D01*
X135309223Y-86794781D01*
X135114534Y-86731522D01*
X134926690Y-86701771D01*
X134912352Y-86699500D01*
X134707648Y-86699500D01*
X134693310Y-86701771D01*
X134505465Y-86731522D01*
X134310776Y-86794781D01*
X134128386Y-86887715D01*
X133962786Y-87008028D01*
X133818028Y-87152786D01*
X133697715Y-87318386D01*
X133604781Y-87500776D01*
X133541522Y-87695465D01*
X133509500Y-87897648D01*
X133509500Y-88102351D01*
X133541522Y-88304534D01*
X133604781Y-88499223D01*
X133697715Y-88681613D01*
X133818028Y-88847213D01*
X133962786Y-88991971D01*
X134117749Y-89104556D01*
X134128390Y-89112287D01*
X134225037Y-89161531D01*
X134310776Y-89205218D01*
X134310778Y-89205218D01*
X134310781Y-89205220D01*
X134415137Y-89239127D01*
X134505465Y-89268477D01*
X134582966Y-89280751D01*
X134653513Y-89291925D01*
X134716648Y-89321854D01*
X134721797Y-89326717D01*
X134853181Y-89458101D01*
X134886666Y-89519424D01*
X134889500Y-89545782D01*
X134889500Y-97573543D01*
X134896523Y-97608847D01*
X134902501Y-97638900D01*
X134927949Y-97766836D01*
X134950038Y-97820165D01*
X134953168Y-97827723D01*
X134953169Y-97827724D01*
X135003366Y-97948911D01*
X135003371Y-97948920D01*
X135112860Y-98112781D01*
X135112863Y-98112785D01*
X135256537Y-98256459D01*
X135256559Y-98256479D01*
X136350317Y-99350237D01*
X136383802Y-99411560D01*
X136382411Y-99470011D01*
X136350442Y-99589323D01*
X136350439Y-99589337D01*
X136314501Y-99862315D01*
X136314500Y-99862332D01*
X136314500Y-100137667D01*
X136314501Y-100137684D01*
X136350438Y-100410655D01*
X136350439Y-100410660D01*
X136350440Y-100410666D01*
X136350441Y-100410668D01*
X136421704Y-100676630D01*
X136527075Y-100931017D01*
X136527080Y-100931028D01*
X136609861Y-101074407D01*
X136664751Y-101169479D01*
X136664753Y-101169482D01*
X136664754Y-101169483D01*
X136832370Y-101387926D01*
X136832376Y-101387933D01*
X137027066Y-101582623D01*
X137027073Y-101582629D01*
X137111125Y-101647124D01*
X137152328Y-101703551D01*
X137156483Y-101773297D01*
X137122271Y-101834218D01*
X137060554Y-101866971D01*
X137035639Y-101869500D01*
X99601983Y-101869500D01*
X99534944Y-101849815D01*
X99514302Y-101833181D01*
X87585117Y-89903997D01*
X87551632Y-89842674D01*
X87550325Y-89835713D01*
X87526877Y-89687666D01*
X87526877Y-89687665D01*
X87486669Y-89563920D01*
X87463620Y-89492981D01*
X87463618Y-89492978D01*
X87463618Y-89492976D01*
X87409983Y-89387713D01*
X87370687Y-89310590D01*
X87359201Y-89294781D01*
X87250371Y-89144986D01*
X87105613Y-89000228D01*
X86940013Y-88879915D01*
X86940012Y-88879914D01*
X86940010Y-88879913D01*
X86875833Y-88847213D01*
X86757623Y-88786981D01*
X86562934Y-88723722D01*
X86388395Y-88696078D01*
X86360752Y-88691700D01*
X86156048Y-88691700D01*
X86131729Y-88695551D01*
X85953865Y-88723722D01*
X85759176Y-88786981D01*
X85576786Y-88879915D01*
X85411186Y-89000228D01*
X85266428Y-89144986D01*
X85146115Y-89310586D01*
X85053181Y-89492976D01*
X84989922Y-89687665D01*
X84957900Y-89889848D01*
X84957900Y-90094551D01*
X84989922Y-90296734D01*
X85053181Y-90491423D01*
X85106381Y-90595832D01*
X85144045Y-90669752D01*
X85146115Y-90673813D01*
X85266428Y-90839413D01*
X85411186Y-90984171D01*
X85547378Y-91083118D01*
X85576790Y-91104487D01*
X85693007Y-91163703D01*
X85759176Y-91197418D01*
X85759178Y-91197418D01*
X85759181Y-91197420D01*
X85863537Y-91231327D01*
X85953865Y-91260677D01*
X86031366Y-91272951D01*
X86101913Y-91284125D01*
X86165048Y-91314054D01*
X86170196Y-91318916D01*
X98359060Y-103507781D01*
X98359061Y-103507782D01*
X98498418Y-103647139D01*
X98662286Y-103756632D01*
X98768945Y-103800811D01*
X98844364Y-103832051D01*
X99037654Y-103870499D01*
X99037657Y-103870500D01*
X99037659Y-103870500D01*
X160118542Y-103870500D01*
X160149566Y-103864328D01*
X160215188Y-103851275D01*
X160311836Y-103832051D01*
X160365165Y-103809961D01*
X160493914Y-103756632D01*
X160657782Y-103647139D01*
X160797139Y-103507782D01*
X160797139Y-103507780D01*
X160807347Y-103497573D01*
X160807348Y-103497570D01*
X161564572Y-102740347D01*
X184407676Y-102740347D01*
X184407676Y-102999652D01*
X184448237Y-103255749D01*
X184528366Y-103502357D01*
X184646084Y-103733389D01*
X184798485Y-103943153D01*
X184798489Y-103943158D01*
X184981841Y-104126510D01*
X184981846Y-104126514D01*
X185096793Y-104210027D01*
X185191614Y-104278918D01*
X185338828Y-104353927D01*
X185422642Y-104396633D01*
X185422644Y-104396633D01*
X185422647Y-104396635D01*
X185554832Y-104439584D01*
X185669250Y-104476762D01*
X185925348Y-104517324D01*
X185925353Y-104517324D01*
X186184652Y-104517324D01*
X186440749Y-104476762D01*
X186687353Y-104396635D01*
X186918386Y-104278918D01*
X187128160Y-104126509D01*
X187311509Y-103943160D01*
X187463918Y-103733386D01*
X187581635Y-103502353D01*
X187661762Y-103255749D01*
X187674603Y-103174675D01*
X187702324Y-102999652D01*
X187702324Y-102740347D01*
X187661762Y-102484250D01*
X187624584Y-102369832D01*
X187581635Y-102237647D01*
X187581633Y-102237644D01*
X187581633Y-102237642D01*
X187538927Y-102153828D01*
X187463918Y-102006614D01*
X187444446Y-101979813D01*
X187311514Y-101796846D01*
X187311510Y-101796841D01*
X187128158Y-101613489D01*
X187128153Y-101613485D01*
X186918389Y-101461084D01*
X186918388Y-101461083D01*
X186918386Y-101461082D01*
X186846237Y-101424320D01*
X186687357Y-101343366D01*
X186440749Y-101263237D01*
X186184652Y-101222676D01*
X186184647Y-101222676D01*
X185925353Y-101222676D01*
X185925348Y-101222676D01*
X185669250Y-101263237D01*
X185422642Y-101343366D01*
X185191610Y-101461084D01*
X184981846Y-101613485D01*
X184981841Y-101613489D01*
X184798489Y-101796841D01*
X184798485Y-101796846D01*
X184646084Y-102006610D01*
X184528366Y-102237642D01*
X184448237Y-102484250D01*
X184407676Y-102740347D01*
X161564572Y-102740347D01*
X165213102Y-99091819D01*
X165274425Y-99058334D01*
X165300783Y-99055500D01*
X165665003Y-99055500D01*
X165665008Y-99055500D01*
X165767797Y-99044999D01*
X165934334Y-98989814D01*
X166083655Y-98897711D01*
X166207711Y-98773655D01*
X166229334Y-98738599D01*
X166244259Y-98714403D01*
X166296207Y-98667678D01*
X166349797Y-98655500D01*
X176198097Y-98655500D01*
X176431368Y-98618553D01*
X176488474Y-98599998D01*
X176655992Y-98545568D01*
X176866434Y-98438343D01*
X177057510Y-98299517D01*
X183705207Y-91651818D01*
X183766530Y-91618334D01*
X183792888Y-91615500D01*
X184070776Y-91615500D01*
X184070783Y-91615500D01*
X184369768Y-91576138D01*
X184661058Y-91498087D01*
X184939668Y-91382683D01*
X185200832Y-91231900D01*
X185440080Y-91048319D01*
X185653319Y-90835080D01*
X185836900Y-90595832D01*
X185987683Y-90334668D01*
X186103087Y-90056058D01*
X186181138Y-89764768D01*
X186220500Y-89465783D01*
X186220500Y-89164217D01*
X186181138Y-88865232D01*
X186103087Y-88573942D01*
X186103075Y-88573914D01*
X186048526Y-88442220D01*
X185987683Y-88295332D01*
X185947364Y-88225498D01*
X185836900Y-88034168D01*
X185653320Y-87794921D01*
X185653314Y-87794914D01*
X185440085Y-87581685D01*
X185440078Y-87581679D01*
X185200831Y-87398099D01*
X184939671Y-87247318D01*
X184939661Y-87247314D01*
X184661060Y-87131913D01*
X184369766Y-87053861D01*
X184070793Y-87014501D01*
X184070788Y-87014500D01*
X184070783Y-87014500D01*
X183792889Y-87014500D01*
X183725850Y-86994815D01*
X183705208Y-86978181D01*
X181876819Y-85149791D01*
X181843334Y-85088468D01*
X181840500Y-85062110D01*
X181840500Y-66549313D01*
X181840499Y-66549295D01*
X181840499Y-65874998D01*
X181840498Y-65874981D01*
X181829999Y-65772203D01*
X181829998Y-65772200D01*
X181798920Y-65678414D01*
X181774814Y-65605666D01*
X181682712Y-65456344D01*
X181558656Y-65332288D01*
X181409334Y-65240186D01*
X181242797Y-65185001D01*
X181242795Y-65185000D01*
X181140016Y-65174500D01*
X181140009Y-65174500D01*
X180458094Y-65174500D01*
X180458092Y-65174500D01*
X180221908Y-65174500D01*
X180221904Y-65174500D01*
X179539998Y-65174500D01*
X179539980Y-65174501D01*
X179437203Y-65185000D01*
X179437200Y-65185001D01*
X179270668Y-65240185D01*
X179270663Y-65240187D01*
X179121342Y-65332289D01*
X178997289Y-65456342D01*
X178905187Y-65605663D01*
X178905185Y-65605668D01*
X178886603Y-65661746D01*
X178850001Y-65772203D01*
X178850001Y-65772204D01*
X178850000Y-65772204D01*
X178839500Y-65874983D01*
X178839500Y-85853097D01*
X178876446Y-86086368D01*
X178949433Y-86310996D01*
X179045242Y-86499031D01*
X179056657Y-86521434D01*
X179193197Y-86709364D01*
X179195484Y-86712511D01*
X181583181Y-89100208D01*
X181616666Y-89161531D01*
X181619500Y-89187889D01*
X181619500Y-89442110D01*
X181599815Y-89509149D01*
X181583181Y-89529791D01*
X175494792Y-95618181D01*
X175433469Y-95651666D01*
X175407111Y-95654500D01*
X166349797Y-95654500D01*
X166282758Y-95634815D01*
X166244259Y-95595597D01*
X166207713Y-95536348D01*
X166207710Y-95536344D01*
X166083655Y-95412289D01*
X166083651Y-95412286D01*
X165934337Y-95320187D01*
X165934335Y-95320186D01*
X165835139Y-95287316D01*
X165767797Y-95265001D01*
X165767795Y-95265000D01*
X165665015Y-95254500D01*
X165665008Y-95254500D01*
X163264992Y-95254500D01*
X163264984Y-95254500D01*
X163162204Y-95265000D01*
X163162203Y-95265001D01*
X162995664Y-95320186D01*
X162995662Y-95320187D01*
X162846348Y-95412286D01*
X162846344Y-95412289D01*
X162722289Y-95536344D01*
X162722286Y-95536348D01*
X162630187Y-95685662D01*
X162630186Y-95685664D01*
X162575001Y-95852203D01*
X162575000Y-95852204D01*
X162564500Y-95954984D01*
X162564500Y-98355015D01*
X162575000Y-98457795D01*
X162575001Y-98457797D01*
X162588058Y-98497200D01*
X162630185Y-98624332D01*
X162662857Y-98677301D01*
X162681297Y-98744693D01*
X162660375Y-98811357D01*
X162644999Y-98830079D01*
X159641899Y-101833181D01*
X159580576Y-101866666D01*
X159554218Y-101869500D01*
X155788525Y-101869500D01*
X155721486Y-101849815D01*
X155675731Y-101797011D01*
X155665787Y-101727853D01*
X155682987Y-101680403D01*
X155689809Y-101669342D01*
X155689808Y-101669342D01*
X155689814Y-101669334D01*
X155744999Y-101502797D01*
X155755500Y-101400009D01*
X155755499Y-98599992D01*
X155744999Y-98497203D01*
X155689814Y-98330666D01*
X155597712Y-98181344D01*
X155473656Y-98057288D01*
X155357982Y-97985940D01*
X155324336Y-97965187D01*
X155324331Y-97965185D01*
X155307096Y-97959474D01*
X155157797Y-97910001D01*
X155157795Y-97910000D01*
X155055016Y-97899500D01*
X155055009Y-97899500D01*
X154779500Y-97899500D01*
X154712461Y-97879815D01*
X154666706Y-97827011D01*
X154655500Y-97775500D01*
X154655500Y-95095781D01*
X154675185Y-95028742D01*
X154691815Y-95008104D01*
X155390400Y-94309519D01*
X155390404Y-94309517D01*
X155529761Y-94170160D01*
X155639254Y-94006292D01*
X155702807Y-93852861D01*
X155714673Y-93824214D01*
X155753122Y-93630918D01*
X155753122Y-93433838D01*
X155753122Y-93059081D01*
X155752883Y-93057877D01*
X155750500Y-93033686D01*
X155750500Y-91624500D01*
X155770185Y-91557461D01*
X155822989Y-91511706D01*
X155874500Y-91500500D01*
X158398542Y-91500500D01*
X158446864Y-91490887D01*
X158495188Y-91481275D01*
X158513135Y-91477705D01*
X158582725Y-91483935D01*
X158637900Y-91526800D01*
X158661142Y-91592691D01*
X158645072Y-91660687D01*
X158640422Y-91668213D01*
X158578374Y-91761074D01*
X158578364Y-91761092D01*
X158502950Y-91943160D01*
X158502947Y-91943170D01*
X158464500Y-92136456D01*
X158464500Y-95466617D01*
X158444815Y-95533656D01*
X158409384Y-95569724D01*
X158406865Y-95571406D01*
X158209225Y-95723060D01*
X158209218Y-95723066D01*
X158033066Y-95899218D01*
X158033060Y-95899225D01*
X157881400Y-96096873D01*
X157756837Y-96312623D01*
X157756830Y-96312638D01*
X157661498Y-96542792D01*
X157597017Y-96783438D01*
X157564501Y-97030424D01*
X157564500Y-97030441D01*
X157564500Y-97279558D01*
X157564501Y-97279575D01*
X157590889Y-97480016D01*
X157597018Y-97526565D01*
X157626068Y-97634980D01*
X157661498Y-97767207D01*
X157756830Y-97997361D01*
X157756837Y-97997376D01*
X157881400Y-98213126D01*
X158033060Y-98410774D01*
X158033066Y-98410781D01*
X158209218Y-98586933D01*
X158209225Y-98586939D01*
X158406873Y-98738599D01*
X158622623Y-98863162D01*
X158622638Y-98863169D01*
X158721825Y-98904253D01*
X158852793Y-98958502D01*
X159093435Y-99022982D01*
X159340435Y-99055500D01*
X159340442Y-99055500D01*
X159589558Y-99055500D01*
X159589565Y-99055500D01*
X159836565Y-99022982D01*
X160077207Y-98958502D01*
X160307373Y-98863164D01*
X160523127Y-98738599D01*
X160720776Y-98586938D01*
X160896938Y-98410776D01*
X161048599Y-98213127D01*
X161173164Y-97997373D01*
X161268502Y-97767207D01*
X161332982Y-97526565D01*
X161365500Y-97279565D01*
X161365500Y-97030435D01*
X161332982Y-96783435D01*
X161268502Y-96542793D01*
X161201472Y-96380968D01*
X161173169Y-96312638D01*
X161173162Y-96312623D01*
X161048599Y-96096873D01*
X160896939Y-95899225D01*
X160896933Y-95899218D01*
X160720781Y-95723066D01*
X160720774Y-95723060D01*
X160523134Y-95571406D01*
X160520616Y-95569724D01*
X160520033Y-95569027D01*
X160519907Y-95568930D01*
X160519928Y-95568901D01*
X160475808Y-95516115D01*
X160465500Y-95466617D01*
X160465500Y-92700781D01*
X160485185Y-92633742D01*
X160501814Y-92613105D01*
X163950696Y-89164223D01*
X168119500Y-89164223D01*
X168119500Y-89465776D01*
X168119501Y-89465793D01*
X168158861Y-89764766D01*
X168236913Y-90056060D01*
X168352314Y-90334661D01*
X168352318Y-90334671D01*
X168503099Y-90595831D01*
X168686679Y-90835078D01*
X168686685Y-90835085D01*
X168899914Y-91048314D01*
X168899921Y-91048320D01*
X169139168Y-91231900D01*
X169400328Y-91382681D01*
X169400329Y-91382681D01*
X169400332Y-91382683D01*
X169538705Y-91439999D01*
X169678939Y-91498086D01*
X169678940Y-91498086D01*
X169678942Y-91498087D01*
X169970232Y-91576138D01*
X170269217Y-91615500D01*
X170269224Y-91615500D01*
X170570776Y-91615500D01*
X170570783Y-91615500D01*
X170869768Y-91576138D01*
X171161058Y-91498087D01*
X171439668Y-91382683D01*
X171700832Y-91231900D01*
X171940080Y-91048319D01*
X172153319Y-90835080D01*
X172336900Y-90595832D01*
X172487683Y-90334668D01*
X172603087Y-90056058D01*
X172681138Y-89764768D01*
X172720500Y-89465783D01*
X172720500Y-89164217D01*
X172681138Y-88865232D01*
X172603087Y-88573942D01*
X172603075Y-88573914D01*
X172548526Y-88442220D01*
X172487683Y-88295332D01*
X172447364Y-88225498D01*
X172336900Y-88034168D01*
X172153320Y-87794921D01*
X172153314Y-87794914D01*
X171940085Y-87581685D01*
X171940078Y-87581679D01*
X171700831Y-87398099D01*
X171439671Y-87247318D01*
X171439661Y-87247314D01*
X171161060Y-87131913D01*
X170869766Y-87053861D01*
X170570793Y-87014501D01*
X170570788Y-87014500D01*
X170570783Y-87014500D01*
X170269217Y-87014500D01*
X170269211Y-87014500D01*
X170269206Y-87014501D01*
X169970233Y-87053861D01*
X169678939Y-87131913D01*
X169400338Y-87247314D01*
X169400328Y-87247318D01*
X169139168Y-87398099D01*
X168899921Y-87581679D01*
X168899914Y-87581685D01*
X168686685Y-87794914D01*
X168686679Y-87794921D01*
X168503099Y-88034168D01*
X168352318Y-88295328D01*
X168352314Y-88295338D01*
X168236913Y-88573939D01*
X168158861Y-88865233D01*
X168119501Y-89164206D01*
X168119500Y-89164223D01*
X163950696Y-89164223D01*
X164237778Y-88877141D01*
X164237782Y-88877139D01*
X164377139Y-88737782D01*
X164486632Y-88573914D01*
X164562051Y-88391835D01*
X164562051Y-88391832D01*
X164562053Y-88391828D01*
X164569768Y-88353043D01*
X164595137Y-88225502D01*
X164595137Y-88225498D01*
X164600500Y-88198540D01*
X164600500Y-79704675D01*
X164600501Y-79704654D01*
X164600501Y-79501457D01*
X164600500Y-79501455D01*
X164580319Y-79399999D01*
X164562052Y-79308165D01*
X164486632Y-79126086D01*
X164486631Y-79126085D01*
X164486628Y-79126079D01*
X164377140Y-78962219D01*
X164377137Y-78962215D01*
X161684520Y-76269600D01*
X161677140Y-76262220D01*
X161677139Y-76262218D01*
X161537782Y-76122861D01*
X161533473Y-76119982D01*
X161525488Y-76112072D01*
X161511285Y-76086353D01*
X161494753Y-76062082D01*
X161494593Y-76056125D01*
X161491712Y-76050908D01*
X161493668Y-76021600D01*
X161492882Y-75992238D01*
X161495989Y-75986837D01*
X161496366Y-75981194D01*
X161509198Y-75963880D01*
X161525071Y-75936294D01*
X161542711Y-75918655D01*
X161634814Y-75769334D01*
X161689999Y-75602797D01*
X161700500Y-75500008D01*
X161700500Y-73499992D01*
X161689999Y-73397203D01*
X161634814Y-73230666D01*
X161613102Y-73195466D01*
X161542713Y-73081348D01*
X161542710Y-73081344D01*
X161418655Y-72957289D01*
X161418651Y-72957286D01*
X161269337Y-72865187D01*
X161269335Y-72865186D01*
X161186065Y-72837593D01*
X161102797Y-72810001D01*
X161102795Y-72810000D01*
X161000015Y-72799500D01*
X161000008Y-72799500D01*
X159765782Y-72799500D01*
X159698743Y-72779815D01*
X159678101Y-72763181D01*
X158781479Y-71866559D01*
X158781459Y-71866537D01*
X158637785Y-71722863D01*
X158637781Y-71722860D01*
X158473920Y-71613371D01*
X158473911Y-71613366D01*
X158401315Y-71583296D01*
X158345165Y-71560038D01*
X158291836Y-71537949D01*
X158291832Y-71537948D01*
X158291828Y-71537946D01*
X158195188Y-71518724D01*
X158098544Y-71499500D01*
X158098541Y-71499500D01*
X148965782Y-71499500D01*
X148898743Y-71479815D01*
X148878101Y-71463181D01*
X147036819Y-69621899D01*
X147003334Y-69560576D01*
X147000500Y-69534218D01*
X147000500Y-67610047D01*
X147020185Y-67543008D01*
X147036819Y-67522366D01*
X147051966Y-67507219D01*
X147051968Y-67507215D01*
X147051971Y-67507213D01*
X147152817Y-67368408D01*
X147172287Y-67341610D01*
X147199795Y-67287621D01*
X147247769Y-67236826D01*
X147315589Y-67220030D01*
X147381725Y-67242567D01*
X147420765Y-67287621D01*
X147448141Y-67341350D01*
X147448147Y-67341359D01*
X147480523Y-67385921D01*
X147480524Y-67385922D01*
X148160000Y-66706446D01*
X148160000Y-66712661D01*
X148187259Y-66814394D01*
X148239920Y-66905606D01*
X148314394Y-66980080D01*
X148405606Y-67032741D01*
X148507339Y-67060000D01*
X148513553Y-67060000D01*
X147834076Y-67739474D01*
X147878650Y-67771859D01*
X148060968Y-67864755D01*
X148255582Y-67927990D01*
X148457683Y-67960000D01*
X148662317Y-67960000D01*
X148864417Y-67927990D01*
X149059031Y-67864755D01*
X149241349Y-67771859D01*
X149285921Y-67739474D01*
X148606447Y-67060000D01*
X148612661Y-67060000D01*
X148714394Y-67032741D01*
X148805606Y-66980080D01*
X148880080Y-66905606D01*
X148932741Y-66814394D01*
X148960000Y-66712661D01*
X148960000Y-66706447D01*
X149639474Y-67385921D01*
X149671859Y-67341349D01*
X149764755Y-67159031D01*
X149827989Y-66964418D01*
X149840002Y-66888575D01*
X158300000Y-66888575D01*
X158300000Y-67111424D01*
X158329085Y-67332354D01*
X158329088Y-67332367D01*
X158386763Y-67547618D01*
X158472045Y-67753502D01*
X158472054Y-67753520D01*
X158583464Y-67946491D01*
X158583473Y-67946504D01*
X158634040Y-68012403D01*
X158634043Y-68012403D01*
X159435387Y-67211059D01*
X159440889Y-67231591D01*
X159519881Y-67368408D01*
X159631592Y-67480119D01*
X159768409Y-67559111D01*
X159788940Y-67564612D01*
X158987595Y-68365955D01*
X158987595Y-68365956D01*
X159053507Y-68416533D01*
X159246485Y-68527949D01*
X159246497Y-68527954D01*
X159452381Y-68613236D01*
X159667632Y-68670911D01*
X159667645Y-68670914D01*
X159888575Y-68700000D01*
X160111425Y-68700000D01*
X160332354Y-68670914D01*
X160332367Y-68670911D01*
X160547618Y-68613236D01*
X160753502Y-68527954D01*
X160753514Y-68527949D01*
X160946498Y-68416530D01*
X161012403Y-68365957D01*
X161012404Y-68365956D01*
X160211059Y-67564612D01*
X160231591Y-67559111D01*
X160368408Y-67480119D01*
X160480119Y-67368408D01*
X160559111Y-67231591D01*
X160564612Y-67211059D01*
X161365956Y-68012404D01*
X161365957Y-68012403D01*
X161416530Y-67946498D01*
X161507809Y-67788399D01*
X161527951Y-67753509D01*
X161527954Y-67753502D01*
X161613236Y-67547618D01*
X161670911Y-67332367D01*
X161670914Y-67332354D01*
X161700000Y-67111424D01*
X161700000Y-66888575D01*
X161670914Y-66667645D01*
X161670911Y-66667632D01*
X161648548Y-66584168D01*
X161641254Y-66556947D01*
X173840000Y-66556947D01*
X173840000Y-66793052D01*
X173876934Y-67026247D01*
X173949897Y-67250802D01*
X174057087Y-67461174D01*
X174117338Y-67544104D01*
X174117340Y-67544105D01*
X174857037Y-66804408D01*
X174874075Y-66867993D01*
X174939901Y-66982007D01*
X175032993Y-67075099D01*
X175147007Y-67140925D01*
X175210590Y-67157962D01*
X174470893Y-67897658D01*
X174553828Y-67957914D01*
X174764197Y-68065102D01*
X174988752Y-68138065D01*
X174988751Y-68138065D01*
X175221948Y-68175000D01*
X175458052Y-68175000D01*
X175691247Y-68138065D01*
X175915802Y-68065102D01*
X176126163Y-67957918D01*
X176126169Y-67957914D01*
X176209104Y-67897658D01*
X176209105Y-67897658D01*
X175469408Y-67157962D01*
X175532993Y-67140925D01*
X175647007Y-67075099D01*
X175740099Y-66982007D01*
X175805925Y-66867993D01*
X175822962Y-66804408D01*
X176562658Y-67544105D01*
X176562658Y-67544104D01*
X176622914Y-67461169D01*
X176622918Y-67461163D01*
X176730102Y-67250802D01*
X176803065Y-67026247D01*
X176840000Y-66793052D01*
X176840000Y-66556947D01*
X176803065Y-66323752D01*
X176730102Y-66099197D01*
X176622914Y-65888828D01*
X176562658Y-65805894D01*
X176562658Y-65805893D01*
X175822962Y-66545590D01*
X175805925Y-66482007D01*
X175740099Y-66367993D01*
X175647007Y-66274901D01*
X175532993Y-66209075D01*
X175469409Y-66192037D01*
X176209105Y-65452340D01*
X176209104Y-65452338D01*
X176126174Y-65392087D01*
X175915802Y-65284897D01*
X175691247Y-65211934D01*
X175691248Y-65211934D01*
X175458052Y-65175000D01*
X175221948Y-65175000D01*
X174988752Y-65211934D01*
X174764197Y-65284897D01*
X174553830Y-65392084D01*
X174470894Y-65452340D01*
X175210591Y-66192037D01*
X175147007Y-66209075D01*
X175032993Y-66274901D01*
X174939901Y-66367993D01*
X174874075Y-66482007D01*
X174857037Y-66545591D01*
X174117340Y-65805894D01*
X174057084Y-65888830D01*
X173949897Y-66099197D01*
X173876934Y-66323752D01*
X173840000Y-66556947D01*
X161641254Y-66556947D01*
X161613236Y-66452381D01*
X161527954Y-66246497D01*
X161527949Y-66246485D01*
X161416533Y-66053507D01*
X161365956Y-65987595D01*
X161365955Y-65987595D01*
X160564612Y-66788939D01*
X160559111Y-66768409D01*
X160480119Y-66631592D01*
X160368408Y-66519881D01*
X160231591Y-66440889D01*
X160211058Y-66435387D01*
X161012403Y-65634043D01*
X161012403Y-65634042D01*
X160965400Y-65597974D01*
X160965399Y-65597973D01*
X160946496Y-65583467D01*
X160946491Y-65583464D01*
X160753520Y-65472054D01*
X160753502Y-65472045D01*
X160547618Y-65386763D01*
X160332367Y-65329088D01*
X160332354Y-65329085D01*
X160111425Y-65300000D01*
X159888575Y-65300000D01*
X159667645Y-65329085D01*
X159667632Y-65329088D01*
X159452381Y-65386763D01*
X159246497Y-65472045D01*
X159246479Y-65472054D01*
X159053511Y-65583462D01*
X158987595Y-65634042D01*
X159788941Y-66435387D01*
X159768409Y-66440889D01*
X159631592Y-66519881D01*
X159519881Y-66631592D01*
X159440889Y-66768409D01*
X159435387Y-66788940D01*
X158634042Y-65987595D01*
X158583462Y-66053511D01*
X158472054Y-66246479D01*
X158472045Y-66246497D01*
X158386763Y-66452381D01*
X158329088Y-66667632D01*
X158329085Y-66667645D01*
X158300000Y-66888575D01*
X149840002Y-66888575D01*
X149843718Y-66865118D01*
X149843718Y-66865117D01*
X149860000Y-66762317D01*
X149860000Y-66557682D01*
X149827990Y-66355582D01*
X149764755Y-66160968D01*
X149671859Y-65978650D01*
X149639474Y-65934077D01*
X149639474Y-65934076D01*
X148960000Y-66613551D01*
X148960000Y-66607339D01*
X148932741Y-66505606D01*
X148880080Y-66414394D01*
X148805606Y-66339920D01*
X148714394Y-66287259D01*
X148612661Y-66260000D01*
X148606446Y-66260000D01*
X149272133Y-65594314D01*
X149285922Y-65580524D01*
X149285921Y-65580523D01*
X149241359Y-65548147D01*
X149241350Y-65548141D01*
X149059031Y-65455244D01*
X148864417Y-65392009D01*
X148662317Y-65360000D01*
X148457683Y-65360000D01*
X148255582Y-65392009D01*
X148060968Y-65455244D01*
X147878644Y-65548143D01*
X147834077Y-65580523D01*
X147834077Y-65580524D01*
X148513554Y-66260000D01*
X148507339Y-66260000D01*
X148405606Y-66287259D01*
X148314394Y-66339920D01*
X148239920Y-66414394D01*
X148187259Y-66505606D01*
X148160000Y-66607339D01*
X148160000Y-66613553D01*
X147480524Y-65934077D01*
X147480523Y-65934077D01*
X147448143Y-65978644D01*
X147420765Y-66032378D01*
X147372790Y-66083174D01*
X147304969Y-66099969D01*
X147238834Y-66077431D01*
X147199795Y-66032378D01*
X147196671Y-66026246D01*
X147172287Y-65978390D01*
X147172285Y-65978387D01*
X147172284Y-65978385D01*
X147051971Y-65812786D01*
X146907213Y-65668028D01*
X146741613Y-65547715D01*
X146741612Y-65547714D01*
X146741610Y-65547713D01*
X146644316Y-65498139D01*
X146559223Y-65454781D01*
X146364534Y-65391522D01*
X146189995Y-65363878D01*
X146162352Y-65359500D01*
X145957648Y-65359500D01*
X145933329Y-65363351D01*
X145755465Y-65391522D01*
X145560776Y-65454781D01*
X145378386Y-65547715D01*
X145212786Y-65668028D01*
X145068028Y-65812786D01*
X144947715Y-65978386D01*
X144854781Y-66160776D01*
X144791522Y-66355465D01*
X144759500Y-66557648D01*
X144759500Y-66762351D01*
X144791522Y-66964534D01*
X144854781Y-67159223D01*
X144947713Y-67341611D01*
X144956390Y-67353553D01*
X144975817Y-67380292D01*
X144999298Y-67446097D01*
X144999500Y-67453178D01*
X144999500Y-68875500D01*
X144979815Y-68942539D01*
X144927011Y-68988294D01*
X144875500Y-68999500D01*
X141901457Y-68999500D01*
X141708170Y-69037947D01*
X141708160Y-69037950D01*
X141526092Y-69113364D01*
X141526079Y-69113371D01*
X141362218Y-69222860D01*
X141362214Y-69222863D01*
X141222863Y-69362214D01*
X141222860Y-69362218D01*
X141113371Y-69526079D01*
X141113364Y-69526092D01*
X141037950Y-69708160D01*
X141037947Y-69708170D01*
X140999500Y-69901456D01*
X140999500Y-71266026D01*
X140979815Y-71333065D01*
X140927011Y-71378820D01*
X140857853Y-71388764D01*
X140801189Y-71365293D01*
X140762331Y-71336204D01*
X140762328Y-71336202D01*
X140627482Y-71285908D01*
X140627483Y-71285908D01*
X140567883Y-71279501D01*
X140567881Y-71279500D01*
X140567873Y-71279500D01*
X140567864Y-71279500D01*
X138472129Y-71279500D01*
X138472123Y-71279501D01*
X138412516Y-71285908D01*
X138277671Y-71336202D01*
X138277668Y-71336204D01*
X138182662Y-71407326D01*
X138117198Y-71431743D01*
X138048925Y-71416891D01*
X137999519Y-71367486D01*
X137986734Y-71332251D01*
X137962052Y-71208170D01*
X137962051Y-71208169D01*
X137962051Y-71208165D01*
X137938583Y-71151507D01*
X137886635Y-71026092D01*
X137886628Y-71026079D01*
X137777139Y-70862218D01*
X137777136Y-70862214D01*
X137634686Y-70719764D01*
X137634655Y-70719735D01*
X136036819Y-69121899D01*
X136003334Y-69060576D01*
X136000500Y-69034218D01*
X136000500Y-68720758D01*
X136020185Y-68653719D01*
X136036819Y-68633077D01*
X136058389Y-68611507D01*
X136090104Y-68579792D01*
X136090106Y-68579788D01*
X136090109Y-68579786D01*
X136215048Y-68407820D01*
X136215047Y-68407820D01*
X136215051Y-68407816D01*
X136219514Y-68399054D01*
X136267488Y-68348259D01*
X136335308Y-68331463D01*
X136401444Y-68353999D01*
X136440486Y-68399056D01*
X136444951Y-68407820D01*
X136569890Y-68579786D01*
X136720213Y-68730109D01*
X136892179Y-68855048D01*
X136892181Y-68855049D01*
X136892184Y-68855051D01*
X137081588Y-68951557D01*
X137283757Y-69017246D01*
X137493713Y-69050500D01*
X137493714Y-69050500D01*
X137706286Y-69050500D01*
X137706287Y-69050500D01*
X137916243Y-69017246D01*
X138118412Y-68951557D01*
X138307816Y-68855051D01*
X138362175Y-68815557D01*
X138479786Y-68730109D01*
X138479788Y-68730106D01*
X138479792Y-68730104D01*
X138630104Y-68579792D01*
X138630106Y-68579788D01*
X138630109Y-68579786D01*
X138755048Y-68407820D01*
X138755047Y-68407820D01*
X138755051Y-68407816D01*
X138851557Y-68218412D01*
X138917246Y-68016243D01*
X138950500Y-67806287D01*
X138950500Y-67593713D01*
X138917246Y-67383757D01*
X138851557Y-67181588D01*
X138755051Y-66992184D01*
X138755049Y-66992181D01*
X138755048Y-66992179D01*
X138630109Y-66820213D01*
X138479786Y-66669890D01*
X138307820Y-66544951D01*
X138305590Y-66543815D01*
X138299054Y-66540485D01*
X138248259Y-66492512D01*
X138231463Y-66424692D01*
X138253999Y-66358556D01*
X138299054Y-66319515D01*
X138307816Y-66315051D01*
X138394138Y-66252335D01*
X138479786Y-66190109D01*
X138479788Y-66190106D01*
X138479792Y-66190104D01*
X138630104Y-66039792D01*
X138630106Y-66039788D01*
X138630109Y-66039786D01*
X138755048Y-65867820D01*
X138755047Y-65867820D01*
X138755051Y-65867816D01*
X138851557Y-65678412D01*
X138917246Y-65476243D01*
X138950500Y-65266287D01*
X138950500Y-65053713D01*
X138917246Y-64843757D01*
X138851557Y-64641588D01*
X138755051Y-64452184D01*
X138755049Y-64452181D01*
X138755048Y-64452179D01*
X138630109Y-64280213D01*
X138562077Y-64212181D01*
X138528592Y-64150858D01*
X138533576Y-64081166D01*
X138575448Y-64025233D01*
X138640912Y-64000816D01*
X138649758Y-64000500D01*
X158098542Y-64000500D01*
X158131740Y-63993896D01*
X158195188Y-63981275D01*
X158291836Y-63962051D01*
X158345165Y-63939961D01*
X158473914Y-63886632D01*
X158637782Y-63777139D01*
X158777139Y-63637782D01*
X158777139Y-63637780D01*
X158787347Y-63627573D01*
X158787348Y-63627570D01*
X160277139Y-62137782D01*
X160303360Y-62098540D01*
X160386632Y-61973914D01*
X160443746Y-61836027D01*
X160444457Y-61834312D01*
X160449782Y-61821454D01*
X160462051Y-61791836D01*
X160500500Y-61598541D01*
X160500500Y-61401460D01*
X160500500Y-61375761D01*
X160520185Y-61308722D01*
X160524165Y-61302899D01*
X160612287Y-61181610D01*
X160705220Y-60999219D01*
X160768477Y-60804534D01*
X160800500Y-60602352D01*
X160800500Y-60397648D01*
X160772782Y-60222648D01*
X160768477Y-60195465D01*
X160721305Y-60050286D01*
X160705220Y-60000781D01*
X160705218Y-60000778D01*
X160705218Y-60000776D01*
X160652671Y-59897648D01*
X160612287Y-59818390D01*
X160582613Y-59777547D01*
X160491971Y-59652786D01*
X160347213Y-59508028D01*
X160181613Y-59387715D01*
X160181612Y-59387714D01*
X160181610Y-59387713D01*
X160124653Y-59358691D01*
X159999223Y-59294781D01*
X159804534Y-59231522D01*
X159655447Y-59207909D01*
X159592312Y-59177979D01*
X159555381Y-59118668D01*
X159556379Y-59048805D01*
X159587162Y-58997757D01*
X161488203Y-57096717D01*
X161549526Y-57063232D01*
X161619218Y-57068216D01*
X161663565Y-57096717D01*
X167201503Y-62634655D01*
X167201532Y-62634686D01*
X167343982Y-62777136D01*
X167343986Y-62777139D01*
X167507847Y-62886628D01*
X167507860Y-62886635D01*
X167636601Y-62939961D01*
X167679512Y-62957735D01*
X167689932Y-62962051D01*
X167786580Y-62981275D01*
X167834903Y-62990887D01*
X167883226Y-63000500D01*
X167883227Y-63000500D01*
X172413542Y-63000500D01*
X172444566Y-62994328D01*
X172510188Y-62981275D01*
X172606836Y-62962051D01*
X172660165Y-62939961D01*
X172788914Y-62886632D01*
X172952782Y-62777139D01*
X173092139Y-62637782D01*
X173092139Y-62637780D01*
X173102347Y-62627573D01*
X173102348Y-62627570D01*
X175773102Y-59956818D01*
X175834425Y-59923333D01*
X175860783Y-59920499D01*
X176895371Y-59920499D01*
X176895372Y-59920499D01*
X176954983Y-59914091D01*
X177089831Y-59863796D01*
X177205046Y-59777546D01*
X177291296Y-59662331D01*
X177301690Y-59634460D01*
X177343560Y-59578527D01*
X177409023Y-59554108D01*
X177477297Y-59568958D01*
X177490746Y-59577465D01*
X177673462Y-59710217D01*
X177789382Y-59769281D01*
X177877244Y-59814049D01*
X178094751Y-59884721D01*
X178094752Y-59884721D01*
X178094755Y-59884722D01*
X178320646Y-59920500D01*
X178320647Y-59920500D01*
X178549353Y-59920500D01*
X178549354Y-59920500D01*
X178775245Y-59884722D01*
X178775248Y-59884721D01*
X178775249Y-59884721D01*
X178992755Y-59814049D01*
X178992755Y-59814048D01*
X178992758Y-59814048D01*
X179196538Y-59710217D01*
X179381566Y-59575786D01*
X179543286Y-59414066D01*
X179604683Y-59329559D01*
X179660012Y-59286896D01*
X179729625Y-59280917D01*
X179791420Y-59313523D01*
X179805314Y-59329556D01*
X179866714Y-59414066D01*
X180028434Y-59575786D01*
X180213462Y-59710217D01*
X180329382Y-59769281D01*
X180417244Y-59814049D01*
X180634751Y-59884721D01*
X180634752Y-59884721D01*
X180634755Y-59884722D01*
X180860646Y-59920500D01*
X180860647Y-59920500D01*
X181089353Y-59920500D01*
X181089354Y-59920500D01*
X181315245Y-59884722D01*
X181315248Y-59884721D01*
X181315249Y-59884721D01*
X181532755Y-59814049D01*
X181532755Y-59814048D01*
X181532758Y-59814048D01*
X181736538Y-59710217D01*
X181921566Y-59575786D01*
X182083286Y-59414066D01*
X182217717Y-59229038D01*
X182321548Y-59025258D01*
X182342271Y-58961479D01*
X182392221Y-58807749D01*
X182392221Y-58807748D01*
X182392222Y-58807745D01*
X182428000Y-58581854D01*
X182428000Y-58258146D01*
X182392222Y-58032255D01*
X182392221Y-58032251D01*
X182392221Y-58032250D01*
X182321549Y-57814744D01*
X182286321Y-57745606D01*
X182217717Y-57610962D01*
X182083286Y-57425934D01*
X182011819Y-57354467D01*
X181978334Y-57293144D01*
X181975500Y-57266786D01*
X181975500Y-56416456D01*
X181975499Y-56416454D01*
X181954615Y-56311466D01*
X181937051Y-56223165D01*
X181930376Y-56207051D01*
X181927656Y-56200485D01*
X181899137Y-56131632D01*
X181861635Y-56041093D01*
X181861634Y-56041092D01*
X181861632Y-56041086D01*
X181839332Y-56007711D01*
X181752139Y-55877217D01*
X181609686Y-55734764D01*
X181609655Y-55734735D01*
X178741478Y-52866558D01*
X178737140Y-52862220D01*
X178737139Y-52862218D01*
X178699290Y-52824369D01*
X178657102Y-52782180D01*
X178623617Y-52720857D01*
X178627672Y-52664175D01*
X178628602Y-52651166D01*
X178670474Y-52595233D01*
X178670474Y-52595232D01*
X178670475Y-52595232D01*
X178711522Y-52579922D01*
X178735938Y-52570816D01*
X178744784Y-52570500D01*
X179004108Y-52570500D01*
X185989108Y-52570500D01*
X186051754Y-52570500D01*
X186058243Y-52570669D01*
X186394450Y-52588290D01*
X186407357Y-52589647D01*
X186552616Y-52612653D01*
X186736662Y-52641802D01*
X186749349Y-52644498D01*
X187071422Y-52730797D01*
X187083755Y-52734805D01*
X187395038Y-52854296D01*
X187406873Y-52859565D01*
X187703976Y-53010947D01*
X187715191Y-53017423D01*
X187994832Y-53199023D01*
X188005313Y-53206638D01*
X188245898Y-53401459D01*
X188264441Y-53416475D01*
X188274086Y-53425160D01*
X188509839Y-53660913D01*
X188518524Y-53670558D01*
X188728359Y-53929683D01*
X188735978Y-53940171D01*
X188917573Y-54219802D01*
X188924055Y-54231029D01*
X189061358Y-54500500D01*
X189075429Y-54528115D01*
X189080708Y-54539972D01*
X189200192Y-54851239D01*
X189204203Y-54863583D01*
X189290499Y-55185644D01*
X189293197Y-55198341D01*
X189345352Y-55527642D01*
X189346709Y-55540549D01*
X189364330Y-55876756D01*
X189364500Y-55883246D01*
X189364500Y-102866753D01*
X189364330Y-102873243D01*
X189346709Y-103209450D01*
X189345352Y-103222357D01*
X189293197Y-103551658D01*
X189290499Y-103564355D01*
X189204203Y-103886416D01*
X189200192Y-103898760D01*
X189080708Y-104210027D01*
X189075429Y-104221884D01*
X188924059Y-104518964D01*
X188917569Y-104530204D01*
X188735983Y-104809822D01*
X188728354Y-104820323D01*
X188518524Y-105079441D01*
X188509839Y-105089086D01*
X188274086Y-105324839D01*
X188264441Y-105333524D01*
X188005323Y-105543354D01*
X187994822Y-105550983D01*
X187715204Y-105732569D01*
X187703964Y-105739059D01*
X187406884Y-105890429D01*
X187395027Y-105895708D01*
X187083760Y-106015192D01*
X187071416Y-106019203D01*
X186749355Y-106105499D01*
X186736658Y-106108197D01*
X186407357Y-106160352D01*
X186394450Y-106161709D01*
X186058244Y-106179330D01*
X186051754Y-106179500D01*
X80013246Y-106179500D01*
X80006756Y-106179330D01*
X79670549Y-106161709D01*
X79657642Y-106160352D01*
X79328341Y-106108197D01*
X79315644Y-106105499D01*
X78993583Y-106019203D01*
X78981239Y-106015192D01*
X78669972Y-105895708D01*
X78658115Y-105890429D01*
X78361029Y-105739055D01*
X78349802Y-105732573D01*
X78070171Y-105550978D01*
X78059683Y-105543359D01*
X77800558Y-105333524D01*
X77790913Y-105324839D01*
X77555160Y-105089086D01*
X77546475Y-105079441D01*
X77457648Y-104969749D01*
X77336638Y-104820313D01*
X77329023Y-104809832D01*
X77147423Y-104530191D01*
X77140947Y-104518976D01*
X76989565Y-104221873D01*
X76984296Y-104210038D01*
X76864805Y-103898755D01*
X76860796Y-103886416D01*
X76856531Y-103870500D01*
X76774498Y-103564349D01*
X76771802Y-103551658D01*
X76764852Y-103507779D01*
X76719647Y-103222357D01*
X76718290Y-103209450D01*
X76700670Y-102873243D01*
X76700500Y-102866753D01*
X76700500Y-102740347D01*
X78362676Y-102740347D01*
X78362676Y-102999652D01*
X78403237Y-103255749D01*
X78483366Y-103502357D01*
X78601084Y-103733389D01*
X78753485Y-103943153D01*
X78753489Y-103943158D01*
X78936841Y-104126510D01*
X78936846Y-104126514D01*
X79051793Y-104210027D01*
X79146614Y-104278918D01*
X79293828Y-104353927D01*
X79377642Y-104396633D01*
X79377644Y-104396633D01*
X79377647Y-104396635D01*
X79509832Y-104439584D01*
X79624250Y-104476762D01*
X79880348Y-104517324D01*
X79880353Y-104517324D01*
X80139652Y-104517324D01*
X80395749Y-104476762D01*
X80642353Y-104396635D01*
X80873386Y-104278918D01*
X81083160Y-104126509D01*
X81266509Y-103943160D01*
X81418918Y-103733386D01*
X81536635Y-103502353D01*
X81616762Y-103255749D01*
X81629603Y-103174675D01*
X81657324Y-102999652D01*
X81657324Y-102740347D01*
X81616762Y-102484250D01*
X81579584Y-102369832D01*
X81536635Y-102237647D01*
X81536633Y-102237644D01*
X81536633Y-102237642D01*
X81493927Y-102153828D01*
X81418918Y-102006614D01*
X81399446Y-101979813D01*
X81266514Y-101796846D01*
X81266510Y-101796841D01*
X81083158Y-101613489D01*
X81083153Y-101613485D01*
X80873389Y-101461084D01*
X80873388Y-101461083D01*
X80873386Y-101461082D01*
X80801237Y-101424320D01*
X80642357Y-101343366D01*
X80395749Y-101263237D01*
X80139652Y-101222676D01*
X80139647Y-101222676D01*
X79880353Y-101222676D01*
X79880348Y-101222676D01*
X79624250Y-101263237D01*
X79377642Y-101343366D01*
X79146610Y-101461084D01*
X78936846Y-101613485D01*
X78936841Y-101613489D01*
X78753489Y-101796841D01*
X78753485Y-101796846D01*
X78601084Y-102006610D01*
X78483366Y-102237642D01*
X78403237Y-102484250D01*
X78362676Y-102740347D01*
X76700500Y-102740347D01*
X76700500Y-96322345D01*
X77636500Y-96322345D01*
X77636500Y-96514454D01*
X77666553Y-96704202D01*
X77725916Y-96886906D01*
X77749230Y-96932661D01*
X77813135Y-97058081D01*
X77926055Y-97213502D01*
X78061898Y-97349345D01*
X78217319Y-97462265D01*
X78343514Y-97526565D01*
X78388493Y-97549483D01*
X78479845Y-97579164D01*
X78571199Y-97608847D01*
X78760945Y-97638900D01*
X78760946Y-97638900D01*
X78953054Y-97638900D01*
X78953055Y-97638900D01*
X79142801Y-97608847D01*
X79325509Y-97549482D01*
X79496681Y-97462265D01*
X79523772Y-97442581D01*
X79589578Y-97419102D01*
X79596658Y-97418900D01*
X84598818Y-97418900D01*
X84665857Y-97438585D01*
X84686499Y-97455219D01*
X84931681Y-97700401D01*
X84965166Y-97761724D01*
X84966473Y-97768683D01*
X84989923Y-97916735D01*
X85053181Y-98111423D01*
X85146115Y-98293813D01*
X85266428Y-98459413D01*
X85411186Y-98604171D01*
X85562910Y-98714403D01*
X85576790Y-98724487D01*
X85693007Y-98783703D01*
X85759176Y-98817418D01*
X85759178Y-98817418D01*
X85759181Y-98817420D01*
X85799502Y-98830521D01*
X85953865Y-98880677D01*
X86054957Y-98896688D01*
X86156048Y-98912700D01*
X86156049Y-98912700D01*
X86360751Y-98912700D01*
X86360752Y-98912700D01*
X86562934Y-98880677D01*
X86757619Y-98817420D01*
X86940010Y-98724487D01*
X87085817Y-98618553D01*
X87105613Y-98604171D01*
X87105615Y-98604168D01*
X87105619Y-98604166D01*
X87250366Y-98459419D01*
X87250368Y-98459415D01*
X87250371Y-98459413D01*
X87343908Y-98330668D01*
X87370687Y-98293810D01*
X87463620Y-98111419D01*
X87526877Y-97916734D01*
X87558900Y-97714552D01*
X87558900Y-97509848D01*
X87554173Y-97480001D01*
X87526877Y-97307665D01*
X87463618Y-97112976D01*
X87397043Y-96982317D01*
X87370687Y-96930590D01*
X87338949Y-96886906D01*
X87250371Y-96764986D01*
X87105613Y-96620228D01*
X86940013Y-96499915D01*
X86940012Y-96499914D01*
X86940010Y-96499913D01*
X86883053Y-96470891D01*
X86757623Y-96406981D01*
X86562935Y-96343723D01*
X86414883Y-96320273D01*
X86351749Y-96290343D01*
X86346601Y-96285481D01*
X85846079Y-95784959D01*
X85846059Y-95784937D01*
X85702385Y-95641263D01*
X85702381Y-95641260D01*
X85538520Y-95531771D01*
X85538511Y-95531766D01*
X85465915Y-95501696D01*
X85409765Y-95478438D01*
X85356436Y-95456349D01*
X85356432Y-95456348D01*
X85356428Y-95456346D01*
X85259788Y-95437124D01*
X85163144Y-95417900D01*
X85163141Y-95417900D01*
X79596658Y-95417900D01*
X79529619Y-95398215D01*
X79523772Y-95394218D01*
X79496681Y-95374535D01*
X79325506Y-95287316D01*
X79142802Y-95227953D01*
X79047928Y-95212926D01*
X78953055Y-95197900D01*
X78760945Y-95197900D01*
X78697696Y-95207917D01*
X78571197Y-95227953D01*
X78388493Y-95287316D01*
X78217318Y-95374535D01*
X78184726Y-95398215D01*
X78061898Y-95487455D01*
X78061896Y-95487457D01*
X78061895Y-95487457D01*
X77926057Y-95623295D01*
X77926057Y-95623296D01*
X77926055Y-95623298D01*
X77893745Y-95667769D01*
X77813135Y-95778718D01*
X77725916Y-95949893D01*
X77666553Y-96132597D01*
X77636500Y-96322345D01*
X76700500Y-96322345D01*
X76700500Y-93782345D01*
X80176500Y-93782345D01*
X80176500Y-93974455D01*
X80183626Y-94019445D01*
X80206553Y-94164202D01*
X80265916Y-94346906D01*
X80323114Y-94459162D01*
X80353135Y-94518081D01*
X80466055Y-94673502D01*
X80601898Y-94809345D01*
X80757319Y-94922265D01*
X80925779Y-95008100D01*
X80928493Y-95009483D01*
X81019845Y-95039164D01*
X81111199Y-95068847D01*
X81300945Y-95098900D01*
X81300946Y-95098900D01*
X81493054Y-95098900D01*
X81493055Y-95098900D01*
X81682801Y-95068847D01*
X81865509Y-95009482D01*
X82036681Y-94922265D01*
X82192102Y-94809345D01*
X82327945Y-94673502D01*
X82440865Y-94518081D01*
X82528082Y-94346909D01*
X82587447Y-94164201D01*
X82617500Y-93974455D01*
X82617500Y-93782345D01*
X82587447Y-93592599D01*
X82528082Y-93409891D01*
X82440865Y-93238719D01*
X82327945Y-93083298D01*
X82192102Y-92947455D01*
X82036681Y-92834535D01*
X81976769Y-92804008D01*
X81865506Y-92747316D01*
X81682802Y-92687953D01*
X81587928Y-92672926D01*
X81493055Y-92657900D01*
X81300945Y-92657900D01*
X81237696Y-92667917D01*
X81111197Y-92687953D01*
X80928493Y-92747316D01*
X80757318Y-92834535D01*
X80668645Y-92898960D01*
X80601898Y-92947455D01*
X80601896Y-92947457D01*
X80601895Y-92947457D01*
X80466057Y-93083295D01*
X80466057Y-93083296D01*
X80466055Y-93083298D01*
X80438968Y-93120580D01*
X80353135Y-93238718D01*
X80265916Y-93409893D01*
X80206553Y-93592597D01*
X80200483Y-93630922D01*
X80176500Y-93782345D01*
X76700500Y-93782345D01*
X76700500Y-91242384D01*
X77637000Y-91242384D01*
X77637000Y-91434415D01*
X77667040Y-91624084D01*
X77726383Y-91806721D01*
X77813561Y-91977815D01*
X77834798Y-92007046D01*
X78457000Y-91384845D01*
X78457000Y-91391061D01*
X78484259Y-91492794D01*
X78536920Y-91584006D01*
X78611394Y-91658480D01*
X78702606Y-91711141D01*
X78804339Y-91738400D01*
X78810554Y-91738400D01*
X78188351Y-92360600D01*
X78188352Y-92360601D01*
X78217577Y-92381834D01*
X78388678Y-92469016D01*
X78571315Y-92528359D01*
X78760985Y-92558400D01*
X78953015Y-92558400D01*
X79142684Y-92528359D01*
X79325321Y-92469016D01*
X79496419Y-92381836D01*
X79525646Y-92360601D01*
X79525646Y-92360600D01*
X78903447Y-91738400D01*
X78909661Y-91738400D01*
X79011394Y-91711141D01*
X79102606Y-91658480D01*
X79177080Y-91584006D01*
X79229741Y-91492794D01*
X79257000Y-91391061D01*
X79257000Y-91384846D01*
X79879200Y-92007046D01*
X79879201Y-92007046D01*
X79900436Y-91977819D01*
X79987616Y-91806721D01*
X80046959Y-91624084D01*
X80077000Y-91434415D01*
X80077000Y-91242384D01*
X80046959Y-91052715D01*
X79987616Y-90870078D01*
X79900434Y-90698977D01*
X79879201Y-90669752D01*
X79879200Y-90669751D01*
X79257000Y-91291952D01*
X79257000Y-91285739D01*
X79229741Y-91184006D01*
X79177080Y-91092794D01*
X79102606Y-91018320D01*
X79011394Y-90965659D01*
X78909661Y-90938400D01*
X78903447Y-90938400D01*
X79525646Y-90316198D01*
X79496415Y-90294961D01*
X79325321Y-90207783D01*
X79142684Y-90148440D01*
X78953015Y-90118400D01*
X78760985Y-90118400D01*
X78571315Y-90148440D01*
X78388678Y-90207783D01*
X78217578Y-90294964D01*
X78188352Y-90316198D01*
X78188351Y-90316198D01*
X78810554Y-90938400D01*
X78804339Y-90938400D01*
X78702606Y-90965659D01*
X78611394Y-91018320D01*
X78536920Y-91092794D01*
X78484259Y-91184006D01*
X78457000Y-91285739D01*
X78457000Y-91291953D01*
X77834798Y-90669751D01*
X77834798Y-90669752D01*
X77813564Y-90698978D01*
X77726383Y-90870078D01*
X77667040Y-91052715D01*
X77637000Y-91242384D01*
X76700500Y-91242384D01*
X76700500Y-39373246D01*
X76700576Y-39370347D01*
X78205852Y-39370347D01*
X78205852Y-39629652D01*
X78246413Y-39885749D01*
X78326542Y-40132357D01*
X78444260Y-40363389D01*
X78596661Y-40573153D01*
X78596665Y-40573158D01*
X78780017Y-40756510D01*
X78780022Y-40756514D01*
X78956575Y-40884786D01*
X78989790Y-40908918D01*
X79100248Y-40965199D01*
X79220818Y-41026633D01*
X79220820Y-41026633D01*
X79220823Y-41026635D01*
X79319878Y-41058820D01*
X79467426Y-41106762D01*
X79723524Y-41147324D01*
X79723529Y-41147324D01*
X79982828Y-41147324D01*
X80238925Y-41106762D01*
X80267950Y-41097331D01*
X80485529Y-41026635D01*
X80716562Y-40908918D01*
X80926336Y-40756509D01*
X81109685Y-40573160D01*
X81262094Y-40363386D01*
X81379811Y-40132353D01*
X81459938Y-39885749D01*
X81500500Y-39629652D01*
X81500500Y-39370347D01*
X81459938Y-39114250D01*
X81422760Y-38999832D01*
X81379811Y-38867647D01*
X81379809Y-38867644D01*
X81379809Y-38867642D01*
X81337103Y-38783828D01*
X81262094Y-38636614D01*
X81235275Y-38599701D01*
X81109690Y-38426846D01*
X81109686Y-38426841D01*
X80926334Y-38243489D01*
X80926329Y-38243485D01*
X80716565Y-38091084D01*
X80716564Y-38091083D01*
X80716562Y-38091082D01*
X80628992Y-38046463D01*
X80485533Y-37973366D01*
X80238925Y-37893237D01*
X79982828Y-37852676D01*
X79982823Y-37852676D01*
X79723529Y-37852676D01*
X79723524Y-37852676D01*
X79467426Y-37893237D01*
X79220818Y-37973366D01*
X78989786Y-38091084D01*
X78780022Y-38243485D01*
X78780017Y-38243489D01*
X78596665Y-38426841D01*
X78596661Y-38426846D01*
X78444260Y-38636610D01*
X78326542Y-38867642D01*
X78246413Y-39114250D01*
X78205852Y-39370347D01*
X76700576Y-39370347D01*
X76700670Y-39366755D01*
X76701077Y-39358990D01*
X76701077Y-39358989D01*
X76718290Y-39030549D01*
X76719647Y-39017642D01*
X76733529Y-38929993D01*
X76771803Y-38688333D01*
X76774497Y-38675654D01*
X76860799Y-38353572D01*
X76864803Y-38341250D01*
X76984298Y-38029954D01*
X76989561Y-38018133D01*
X77140951Y-37721014D01*
X77147417Y-37709816D01*
X77329029Y-37430158D01*
X77336631Y-37419695D01*
X77546483Y-37160548D01*
X77555150Y-37150923D01*
X77790923Y-36915150D01*
X77800548Y-36906483D01*
X78059695Y-36696631D01*
X78070158Y-36689029D01*
X78349816Y-36507417D01*
X78361014Y-36500951D01*
X78658133Y-36349561D01*
X78669954Y-36344298D01*
X78981250Y-36224803D01*
X78993572Y-36220799D01*
X79315654Y-36134497D01*
X79328333Y-36131803D01*
X79657642Y-36079647D01*
X79670547Y-36078290D01*
X80006756Y-36060669D01*
X80013246Y-36060500D01*
X100048360Y-36060500D01*
X100048363Y-36060500D01*
X100296835Y-36037475D01*
X100445227Y-36023725D01*
X100445227Y-36023724D01*
X100445236Y-36023724D01*
X100837022Y-35950487D01*
X101220380Y-35841412D01*
X101592038Y-35697431D01*
X101948826Y-35519772D01*
X102287700Y-35309950D01*
X102605768Y-35069756D01*
X102900316Y-34801239D01*
X103168833Y-34506691D01*
X103409027Y-34188623D01*
X103618849Y-33849749D01*
X103796508Y-33492961D01*
X103940489Y-33121303D01*
X104049564Y-32737945D01*
X104122801Y-32346159D01*
X104123156Y-32342335D01*
X104141176Y-32147864D01*
X104159577Y-31949286D01*
X104159577Y-31753246D01*
X104159747Y-31746756D01*
X104169410Y-31562382D01*
X104177367Y-31410547D01*
X104178724Y-31397642D01*
X104182753Y-31372203D01*
X104230880Y-31068333D01*
X104233574Y-31055654D01*
X104319876Y-30733572D01*
X104323880Y-30721250D01*
X104443375Y-30409954D01*
X104448638Y-30398133D01*
X104600028Y-30101014D01*
X104606494Y-30089816D01*
X104788106Y-29810158D01*
X104795708Y-29799695D01*
X105005560Y-29540548D01*
X105014227Y-29530923D01*
X105250000Y-29295150D01*
X105259625Y-29286483D01*
X105518772Y-29076631D01*
X105529235Y-29069029D01*
X105808893Y-28887417D01*
X105820091Y-28880951D01*
X106117210Y-28729561D01*
X106129031Y-28724298D01*
X106440327Y-28604803D01*
X106452649Y-28600799D01*
X106774731Y-28514497D01*
X106787410Y-28511803D01*
X107116719Y-28459647D01*
X107129624Y-28458290D01*
X107465833Y-28440669D01*
X107472323Y-28440500D01*
X107534969Y-28440500D01*
X121483255Y-28440500D01*
X121550294Y-28460185D01*
G37*
G04 #@! TD.AperFunction*
G04 #@! TA.AperFunction,Conductor*
G36*
X158901257Y-80220185D02*
G01*
X158921899Y-80236819D01*
X159203595Y-80518515D01*
X159237080Y-80579838D01*
X159232096Y-80649530D01*
X159190224Y-80705463D01*
X159124760Y-80729880D01*
X159096516Y-80728669D01*
X158979813Y-80710185D01*
X158912352Y-80699500D01*
X158707648Y-80699500D01*
X158683329Y-80703351D01*
X158505465Y-80731522D01*
X158310776Y-80794781D01*
X158128386Y-80887715D01*
X157962786Y-81008028D01*
X157818028Y-81152786D01*
X157697715Y-81318386D01*
X157604781Y-81500776D01*
X157541522Y-81695465D01*
X157509500Y-81897648D01*
X157509500Y-82102351D01*
X157541522Y-82304534D01*
X157604781Y-82499223D01*
X157638503Y-82565404D01*
X157683026Y-82652786D01*
X157697715Y-82681613D01*
X157818028Y-82847213D01*
X157962786Y-82991971D01*
X158111478Y-83100000D01*
X158128390Y-83112287D01*
X158241581Y-83169961D01*
X158310776Y-83205218D01*
X158310778Y-83205218D01*
X158310781Y-83205220D01*
X158388585Y-83230500D01*
X158505465Y-83268477D01*
X158606557Y-83284488D01*
X158707648Y-83300500D01*
X158707649Y-83300500D01*
X158912351Y-83300500D01*
X158912352Y-83300500D01*
X159114534Y-83268477D01*
X159309219Y-83205220D01*
X159491610Y-83112287D01*
X159584590Y-83044732D01*
X159657213Y-82991971D01*
X159657215Y-82991968D01*
X159657219Y-82991966D01*
X159801966Y-82847219D01*
X159875181Y-82746445D01*
X159930511Y-82703780D01*
X160000125Y-82697801D01*
X160061920Y-82730406D01*
X160096277Y-82791245D01*
X160099500Y-82819331D01*
X160099500Y-85180668D01*
X160079815Y-85247707D01*
X160027011Y-85293462D01*
X159957853Y-85303406D01*
X159894297Y-85274381D01*
X159875182Y-85253553D01*
X159801971Y-85152787D01*
X159801967Y-85152782D01*
X159657213Y-85008028D01*
X159491613Y-84887715D01*
X159491612Y-84887714D01*
X159491610Y-84887713D01*
X159434429Y-84858578D01*
X159309223Y-84794781D01*
X159114534Y-84731522D01*
X158939995Y-84703878D01*
X158912352Y-84699500D01*
X158707648Y-84699500D01*
X158683329Y-84703351D01*
X158505465Y-84731522D01*
X158310776Y-84794781D01*
X158128386Y-84887715D01*
X157962786Y-85008028D01*
X157818028Y-85152786D01*
X157697715Y-85318386D01*
X157604781Y-85500776D01*
X157541522Y-85695465D01*
X157509500Y-85897648D01*
X157509500Y-86102351D01*
X157541522Y-86304534D01*
X157604781Y-86499223D01*
X157644301Y-86576784D01*
X157697713Y-86681610D01*
X157714860Y-86705211D01*
X157722048Y-86715105D01*
X157745526Y-86780911D01*
X157729699Y-86848965D01*
X157709410Y-86875668D01*
X157621900Y-86963180D01*
X157560577Y-86996666D01*
X157534218Y-86999500D01*
X152314073Y-86999500D01*
X152247034Y-86979815D01*
X152201279Y-86927011D01*
X152191335Y-86857853D01*
X152213755Y-86802614D01*
X152301859Y-86681349D01*
X152394755Y-86499031D01*
X152457990Y-86304417D01*
X152490000Y-86102317D01*
X152490000Y-85897682D01*
X152457990Y-85695582D01*
X152394755Y-85500968D01*
X152301859Y-85318650D01*
X152269474Y-85274077D01*
X152269474Y-85274076D01*
X151590000Y-85953553D01*
X151590000Y-85947339D01*
X151562741Y-85845606D01*
X151510080Y-85754394D01*
X151435606Y-85679920D01*
X151344394Y-85627259D01*
X151242661Y-85600000D01*
X151236446Y-85600000D01*
X151915922Y-84920524D01*
X151915921Y-84920523D01*
X151871359Y-84888147D01*
X151871350Y-84888141D01*
X151689031Y-84795244D01*
X151494417Y-84732009D01*
X151292317Y-84700000D01*
X151134282Y-84700000D01*
X151067243Y-84680315D01*
X151021488Y-84627511D01*
X151011544Y-84558353D01*
X151040569Y-84494797D01*
X151046593Y-84488326D01*
X151967139Y-83567782D01*
X151987068Y-83537955D01*
X152026127Y-83479501D01*
X152026127Y-83479500D01*
X152047616Y-83447339D01*
X152076632Y-83403914D01*
X152076635Y-83403907D01*
X152131084Y-83272455D01*
X152131084Y-83272454D01*
X152132731Y-83268477D01*
X152152051Y-83221836D01*
X152190500Y-83028541D01*
X152190500Y-82875761D01*
X152210185Y-82808722D01*
X152214165Y-82802899D01*
X152302287Y-82681610D01*
X152395220Y-82499219D01*
X152458477Y-82304534D01*
X152490500Y-82102352D01*
X152490500Y-81897648D01*
X152473740Y-81791829D01*
X152458477Y-81695465D01*
X152395218Y-81500776D01*
X152332603Y-81377889D01*
X152302287Y-81318390D01*
X152265231Y-81267386D01*
X152181971Y-81152786D01*
X152037219Y-81008034D01*
X152014369Y-80991433D01*
X151908917Y-80914818D01*
X151866252Y-80859489D01*
X151860273Y-80789875D01*
X151892878Y-80728080D01*
X151953717Y-80693723D01*
X151981803Y-80690500D01*
X152788542Y-80690500D01*
X152819566Y-80684328D01*
X152885188Y-80671275D01*
X152981836Y-80652051D01*
X153035165Y-80629961D01*
X153163914Y-80576632D01*
X153327782Y-80467139D01*
X153467139Y-80327782D01*
X153467139Y-80327780D01*
X153477347Y-80317573D01*
X153477350Y-80317569D01*
X153558103Y-80236818D01*
X153619426Y-80203333D01*
X153645783Y-80200500D01*
X158834218Y-80200500D01*
X158901257Y-80220185D01*
G37*
G04 #@! TD.AperFunction*
G04 #@! TA.AperFunction,Conductor*
G36*
X84490015Y-73643820D02*
G01*
X84527540Y-73665992D01*
X84531064Y-73669023D01*
X84591558Y-73729517D01*
X84654909Y-73775544D01*
X84658757Y-73778854D01*
X84675095Y-73804074D01*
X84693449Y-73827875D01*
X84694313Y-73833739D01*
X84696746Y-73837494D01*
X84696793Y-73850563D01*
X84701516Y-73882593D01*
X84699961Y-73902340D01*
X85439659Y-74642037D01*
X85376075Y-74659075D01*
X85262061Y-74724901D01*
X85168969Y-74817993D01*
X85103143Y-74932007D01*
X85086105Y-74995591D01*
X84346408Y-74255894D01*
X84286152Y-74338830D01*
X84178965Y-74549197D01*
X84106002Y-74773752D01*
X84069068Y-75006947D01*
X84069068Y-75243052D01*
X84106002Y-75476247D01*
X84178965Y-75700802D01*
X84286155Y-75911174D01*
X84346406Y-75994104D01*
X84346408Y-75994105D01*
X85086105Y-75254408D01*
X85103143Y-75317993D01*
X85168969Y-75432007D01*
X85262061Y-75525099D01*
X85376075Y-75590925D01*
X85439658Y-75607962D01*
X84699961Y-76347658D01*
X84702922Y-76385276D01*
X84702922Y-76404733D01*
X84699962Y-76442340D01*
X85439659Y-77182037D01*
X85376075Y-77199075D01*
X85262061Y-77264901D01*
X85168969Y-77357993D01*
X85103143Y-77472007D01*
X85086105Y-77535591D01*
X84346408Y-76795894D01*
X84286152Y-76878830D01*
X84178965Y-77089197D01*
X84106002Y-77313752D01*
X84069068Y-77546947D01*
X84069068Y-77783052D01*
X84106002Y-78016247D01*
X84178965Y-78240802D01*
X84286155Y-78451174D01*
X84346406Y-78534104D01*
X84346408Y-78534105D01*
X85086105Y-77794408D01*
X85103143Y-77857993D01*
X85168969Y-77972007D01*
X85262061Y-78065099D01*
X85376075Y-78130925D01*
X85439658Y-78147962D01*
X84699961Y-78887658D01*
X84701516Y-78907405D01*
X84687152Y-78975783D01*
X84650785Y-79017451D01*
X84591558Y-79060482D01*
X84424553Y-79227487D01*
X84424553Y-79227488D01*
X84424551Y-79227490D01*
X84376408Y-79293753D01*
X84285725Y-79418566D01*
X84178501Y-79629003D01*
X84105514Y-79853631D01*
X84068568Y-80086902D01*
X84068568Y-80323097D01*
X84105514Y-80556368D01*
X84178501Y-80780996D01*
X84239880Y-80901457D01*
X84285725Y-80991433D01*
X84424551Y-81182510D01*
X84424553Y-81182512D01*
X84532249Y-81290208D01*
X84565734Y-81351531D01*
X84568568Y-81377889D01*
X84568568Y-82465150D01*
X84548883Y-82532189D01*
X84532249Y-82552831D01*
X83641899Y-83443181D01*
X83580576Y-83476666D01*
X83554218Y-83479500D01*
X83114141Y-83479500D01*
X83047102Y-83459815D01*
X83001347Y-83407011D01*
X82997969Y-83398859D01*
X82993796Y-83387669D01*
X82993793Y-83387665D01*
X82993793Y-83387664D01*
X82907546Y-83272454D01*
X82907544Y-83272452D01*
X82792335Y-83186206D01*
X82792328Y-83186202D01*
X82657482Y-83135908D01*
X82657483Y-83135908D01*
X82597883Y-83129501D01*
X82597881Y-83129500D01*
X82597873Y-83129500D01*
X82597865Y-83129500D01*
X82587309Y-83129500D01*
X82520270Y-83109815D01*
X82499628Y-83093181D01*
X81829408Y-82422962D01*
X81892993Y-82405925D01*
X82007007Y-82340099D01*
X82100099Y-82247007D01*
X82165925Y-82132993D01*
X82182962Y-82069409D01*
X82815270Y-82701717D01*
X82815270Y-82701716D01*
X82854622Y-82647554D01*
X82951095Y-82458217D01*
X83016757Y-82256130D01*
X83016757Y-82256127D01*
X83050000Y-82046246D01*
X83050000Y-81833753D01*
X83016757Y-81623872D01*
X83016757Y-81623869D01*
X82951095Y-81421782D01*
X82854624Y-81232449D01*
X82815270Y-81178282D01*
X82815269Y-81178282D01*
X82182962Y-81810590D01*
X82165925Y-81747007D01*
X82100099Y-81632993D01*
X82007007Y-81539901D01*
X81892993Y-81474075D01*
X81829409Y-81457037D01*
X82461716Y-80824728D01*
X82407550Y-80785375D01*
X82397954Y-80780486D01*
X82347157Y-80732512D01*
X82330361Y-80664692D01*
X82352897Y-80598556D01*
X82397954Y-80559514D01*
X82407554Y-80554622D01*
X82461716Y-80515270D01*
X82461717Y-80515270D01*
X81829408Y-79882962D01*
X81892993Y-79865925D01*
X82007007Y-79800099D01*
X82100099Y-79707007D01*
X82165925Y-79592993D01*
X82182962Y-79529409D01*
X82815270Y-80161717D01*
X82815270Y-80161716D01*
X82854622Y-80107554D01*
X82951095Y-79918217D01*
X83016757Y-79716130D01*
X83016757Y-79716127D01*
X83050000Y-79506246D01*
X83050000Y-79293753D01*
X83016757Y-79083872D01*
X83016757Y-79083869D01*
X82951095Y-78881782D01*
X82854624Y-78692449D01*
X82815270Y-78638282D01*
X82815269Y-78638282D01*
X82182962Y-79270590D01*
X82165925Y-79207007D01*
X82100099Y-79092993D01*
X82007007Y-78999901D01*
X81892993Y-78934075D01*
X81829409Y-78917037D01*
X82461716Y-78284728D01*
X82407547Y-78245373D01*
X82407547Y-78245372D01*
X82398500Y-78240763D01*
X82347706Y-78192788D01*
X82330912Y-78124966D01*
X82353451Y-78058832D01*
X82398508Y-78019793D01*
X82407816Y-78015051D01*
X82500731Y-77947545D01*
X82579786Y-77890109D01*
X82579788Y-77890106D01*
X82579792Y-77890104D01*
X82730104Y-77739792D01*
X82730106Y-77739788D01*
X82730109Y-77739786D01*
X82855048Y-77567820D01*
X82855047Y-77567820D01*
X82855051Y-77567816D01*
X82951557Y-77378412D01*
X83017246Y-77176243D01*
X83050500Y-76966287D01*
X83050500Y-76753713D01*
X83017246Y-76543757D01*
X82951557Y-76341588D01*
X82855051Y-76152184D01*
X82855049Y-76152181D01*
X82855048Y-76152179D01*
X82730109Y-75980213D01*
X82579786Y-75829890D01*
X82407820Y-75704951D01*
X82407115Y-75704591D01*
X82399054Y-75700485D01*
X82348259Y-75652512D01*
X82331463Y-75584692D01*
X82353999Y-75518556D01*
X82399054Y-75479515D01*
X82407816Y-75475051D01*
X82563116Y-75362220D01*
X82579784Y-75350110D01*
X82579784Y-75350109D01*
X82579792Y-75350104D01*
X82672556Y-75257338D01*
X82712780Y-75230462D01*
X82770314Y-75206632D01*
X82934182Y-75097139D01*
X83073539Y-74957782D01*
X83073539Y-74957780D01*
X83083747Y-74947573D01*
X83083748Y-74947570D01*
X84359000Y-73672321D01*
X84420323Y-73638836D01*
X84490015Y-73643820D01*
G37*
G04 #@! TD.AperFunction*
G04 #@! TA.AperFunction,Conductor*
G36*
X79205703Y-75781069D02*
G01*
X79212181Y-75787101D01*
X80313576Y-76888496D01*
X80347061Y-76949819D01*
X80349350Y-76965344D01*
X80382753Y-77176239D01*
X80382754Y-77176243D01*
X80444339Y-77365782D01*
X80448444Y-77378414D01*
X80544951Y-77567820D01*
X80669890Y-77739786D01*
X80820213Y-77890109D01*
X80992179Y-78015048D01*
X80992181Y-78015049D01*
X80992184Y-78015051D01*
X81001493Y-78019794D01*
X81052290Y-78067766D01*
X81069087Y-78135587D01*
X81046552Y-78201722D01*
X81001505Y-78240760D01*
X80992446Y-78245376D01*
X80992440Y-78245380D01*
X80938282Y-78284727D01*
X80938282Y-78284728D01*
X81570591Y-78917037D01*
X81507007Y-78934075D01*
X81392993Y-78999901D01*
X81299901Y-79092993D01*
X81234075Y-79207007D01*
X81217037Y-79270591D01*
X80584728Y-78638282D01*
X80584727Y-78638282D01*
X80545380Y-78692439D01*
X80448904Y-78881782D01*
X80383242Y-79083869D01*
X80383242Y-79083872D01*
X80350000Y-79293753D01*
X80350000Y-79506246D01*
X80383242Y-79716127D01*
X80383242Y-79716130D01*
X80448904Y-79918217D01*
X80545375Y-80107550D01*
X80584728Y-80161716D01*
X81217037Y-79529408D01*
X81234075Y-79592993D01*
X81299901Y-79707007D01*
X81392993Y-79800099D01*
X81507007Y-79865925D01*
X81570591Y-79882962D01*
X80969971Y-80483581D01*
X81048711Y-80600895D01*
X81049920Y-80604729D01*
X81052844Y-80607491D01*
X81060343Y-80637778D01*
X81069727Y-80667529D01*
X81068671Y-80671408D01*
X81069638Y-80675312D01*
X81059573Y-80704844D01*
X81051383Y-80734947D01*
X81048397Y-80737640D01*
X81047100Y-80741447D01*
X81002051Y-80780483D01*
X80992440Y-80785380D01*
X80938282Y-80824727D01*
X80938282Y-80824728D01*
X81570591Y-81457037D01*
X81507007Y-81474075D01*
X81392993Y-81539901D01*
X81299901Y-81632993D01*
X81234075Y-81747007D01*
X81217037Y-81810591D01*
X80584728Y-81178282D01*
X80584727Y-81178282D01*
X80545380Y-81232439D01*
X80448905Y-81421781D01*
X80415251Y-81525357D01*
X80375813Y-81583032D01*
X80311454Y-81610230D01*
X80242608Y-81598315D01*
X80209639Y-81574719D01*
X79036819Y-80401899D01*
X79003334Y-80340576D01*
X79000500Y-80314218D01*
X79000500Y-75874782D01*
X79020185Y-75807743D01*
X79072989Y-75761988D01*
X79142147Y-75752044D01*
X79205703Y-75781069D01*
G37*
G04 #@! TD.AperFunction*
G04 #@! TA.AperFunction,Conductor*
G36*
X111882839Y-71124185D02*
G01*
X111895365Y-71133493D01*
X112068179Y-71259048D01*
X112068181Y-71259049D01*
X112068184Y-71259051D01*
X112257588Y-71355557D01*
X112459757Y-71421246D01*
X112669713Y-71454500D01*
X112669714Y-71454500D01*
X112882286Y-71454500D01*
X112882287Y-71454500D01*
X113092243Y-71421246D01*
X113294412Y-71355557D01*
X113294415Y-71355554D01*
X113294419Y-71355554D01*
X113294420Y-71355553D01*
X113419205Y-71291972D01*
X113487874Y-71279075D01*
X113552614Y-71305351D01*
X113592872Y-71362457D01*
X113599500Y-71402456D01*
X113599500Y-73570148D01*
X113579815Y-73637187D01*
X113563181Y-73657829D01*
X110040331Y-77180678D01*
X109979008Y-77214163D01*
X109909316Y-77209179D01*
X109853383Y-77167307D01*
X109834718Y-77131314D01*
X109821032Y-77089193D01*
X109713846Y-76878828D01*
X109653590Y-76795894D01*
X109653590Y-76795893D01*
X108913894Y-77535590D01*
X108896857Y-77472007D01*
X108831031Y-77357993D01*
X108737939Y-77264901D01*
X108623925Y-77199075D01*
X108560341Y-77182037D01*
X109300037Y-76442340D01*
X109298483Y-76422594D01*
X109312847Y-76354216D01*
X109349216Y-76312547D01*
X109408442Y-76269517D01*
X109575449Y-76102510D01*
X109714275Y-75911433D01*
X109821500Y-75700992D01*
X109894485Y-75476368D01*
X109901511Y-75432007D01*
X109931432Y-75243097D01*
X109931432Y-75006902D01*
X109894485Y-74773631D01*
X109842412Y-74613368D01*
X109821500Y-74549008D01*
X109821498Y-74549005D01*
X109821498Y-74549003D01*
X109751757Y-74412130D01*
X109714275Y-74338567D01*
X109575449Y-74147490D01*
X109408442Y-73980483D01*
X109373804Y-73955317D01*
X109331139Y-73899989D01*
X109325160Y-73830375D01*
X109357765Y-73768580D01*
X109373805Y-73754682D01*
X109386297Y-73745606D01*
X109408442Y-73729517D01*
X109575449Y-73562510D01*
X109714275Y-73371433D01*
X109821500Y-73160992D01*
X109894485Y-72936368D01*
X109897485Y-72917429D01*
X109931432Y-72703097D01*
X109931432Y-72466902D01*
X109894485Y-72233631D01*
X109860621Y-72129412D01*
X109821500Y-72009008D01*
X109821498Y-72009005D01*
X109821498Y-72009003D01*
X109751080Y-71870801D01*
X109714275Y-71798567D01*
X109575449Y-71607490D01*
X109408442Y-71440483D01*
X109373804Y-71415317D01*
X109331139Y-71359989D01*
X109325160Y-71290375D01*
X109357765Y-71228580D01*
X109364695Y-71221980D01*
X109369076Y-71218117D01*
X109408442Y-71189517D01*
X109459898Y-71138060D01*
X109462826Y-71135480D01*
X109491089Y-71122281D01*
X109518463Y-71107334D01*
X109524482Y-71106686D01*
X109526133Y-71105916D01*
X109528578Y-71106246D01*
X109544821Y-71104500D01*
X111815800Y-71104500D01*
X111882839Y-71124185D01*
G37*
G04 #@! TD.AperFunction*
G04 #@! TA.AperFunction,Conductor*
G36*
X127851257Y-63770185D02*
G01*
X127871899Y-63786819D01*
X129862215Y-65777137D01*
X129862219Y-65777140D01*
X130026079Y-65886628D01*
X130026088Y-65886633D01*
X130031392Y-65888830D01*
X130208165Y-65962052D01*
X130401455Y-66000500D01*
X130401458Y-66000501D01*
X130401460Y-66000501D01*
X130604655Y-66000501D01*
X130604675Y-66000500D01*
X130875500Y-66000500D01*
X130942539Y-66020185D01*
X130988294Y-66072989D01*
X130999500Y-66124500D01*
X130999500Y-69098544D01*
X131018724Y-69195188D01*
X131031331Y-69258568D01*
X131037946Y-69291828D01*
X131037949Y-69291837D01*
X131113364Y-69473907D01*
X131113371Y-69473920D01*
X131222859Y-69637780D01*
X131222860Y-69637781D01*
X131222861Y-69637782D01*
X131362218Y-69777139D01*
X131362219Y-69777139D01*
X131369286Y-69784206D01*
X131369285Y-69784206D01*
X131369289Y-69784209D01*
X133805157Y-72220077D01*
X133838642Y-72281400D01*
X133833658Y-72351092D01*
X133791786Y-72407025D01*
X133790361Y-72408076D01*
X133652787Y-72508028D01*
X133652782Y-72508032D01*
X133508028Y-72652786D01*
X133387714Y-72818386D01*
X133360203Y-72872379D01*
X133312227Y-72923174D01*
X133244406Y-72939968D01*
X133178272Y-72917429D01*
X133139234Y-72872376D01*
X133111861Y-72818652D01*
X133079474Y-72774077D01*
X133079474Y-72774076D01*
X132400000Y-73453551D01*
X132400000Y-73447339D01*
X132372741Y-73345606D01*
X132320080Y-73254394D01*
X132245606Y-73179920D01*
X132154394Y-73127259D01*
X132052661Y-73100000D01*
X132046446Y-73100000D01*
X132725922Y-72420524D01*
X132725921Y-72420523D01*
X132681359Y-72388147D01*
X132681350Y-72388141D01*
X132499031Y-72295244D01*
X132304417Y-72232009D01*
X132102317Y-72200000D01*
X131897683Y-72200000D01*
X131695582Y-72232009D01*
X131500968Y-72295244D01*
X131318644Y-72388143D01*
X131274077Y-72420523D01*
X131274077Y-72420524D01*
X131953554Y-73100000D01*
X131947339Y-73100000D01*
X131845606Y-73127259D01*
X131754394Y-73179920D01*
X131679920Y-73254394D01*
X131627259Y-73345606D01*
X131600000Y-73447339D01*
X131600000Y-73453553D01*
X130920524Y-72774077D01*
X130920523Y-72774077D01*
X130888143Y-72818644D01*
X130795244Y-73000968D01*
X130732009Y-73195582D01*
X130700000Y-73397682D01*
X130700000Y-73602317D01*
X130732009Y-73804417D01*
X130795244Y-73999031D01*
X130888141Y-74181350D01*
X130888147Y-74181359D01*
X130920523Y-74225921D01*
X130920524Y-74225922D01*
X131600000Y-73546446D01*
X131600000Y-73552661D01*
X131627259Y-73654394D01*
X131679920Y-73745606D01*
X131754394Y-73820080D01*
X131845606Y-73872741D01*
X131947339Y-73900000D01*
X131953553Y-73900000D01*
X131274076Y-74579474D01*
X131318650Y-74611859D01*
X131500968Y-74704755D01*
X131663510Y-74757569D01*
X131721185Y-74797007D01*
X131748383Y-74861366D01*
X131736468Y-74930212D01*
X131689224Y-74981688D01*
X131625191Y-74999500D01*
X126465782Y-74999500D01*
X126398743Y-74979815D01*
X126378101Y-74963181D01*
X125327101Y-73912181D01*
X125293616Y-73850858D01*
X125298600Y-73781166D01*
X125340472Y-73725233D01*
X125405936Y-73700816D01*
X125414782Y-73700500D01*
X126914486Y-73700500D01*
X127101118Y-73670940D01*
X127120501Y-73664642D01*
X127280832Y-73612547D01*
X127449199Y-73526760D01*
X127602073Y-73415690D01*
X127735690Y-73282073D01*
X127846760Y-73129199D01*
X127932547Y-72960832D01*
X127990940Y-72781118D01*
X128011266Y-72652786D01*
X128020500Y-72594486D01*
X128020500Y-72405513D01*
X127990940Y-72218881D01*
X127932545Y-72039163D01*
X127856412Y-71889745D01*
X127846760Y-71870801D01*
X127735690Y-71717927D01*
X127602073Y-71584310D01*
X127449199Y-71473240D01*
X127412420Y-71454500D01*
X127280836Y-71387454D01*
X127176574Y-71353577D01*
X127158386Y-71347667D01*
X127100712Y-71308230D01*
X127073514Y-71243871D01*
X127085429Y-71175025D01*
X127132673Y-71123549D01*
X127158389Y-71111806D01*
X127280635Y-71072086D01*
X127448940Y-70986329D01*
X127601741Y-70875314D01*
X127601746Y-70875310D01*
X127735310Y-70741746D01*
X127735314Y-70741741D01*
X127846329Y-70588940D01*
X127932085Y-70420637D01*
X127990451Y-70241002D01*
X127995362Y-70210000D01*
X126444737Y-70210000D01*
X126445201Y-70209536D01*
X126498705Y-70116865D01*
X126526400Y-70013504D01*
X126526400Y-69906496D01*
X126498705Y-69803135D01*
X126445201Y-69710464D01*
X126444737Y-69710000D01*
X127995362Y-69710000D01*
X127990451Y-69678997D01*
X127932085Y-69499362D01*
X127846329Y-69331059D01*
X127735314Y-69178258D01*
X127735310Y-69178253D01*
X127601746Y-69044689D01*
X127601741Y-69044685D01*
X127448940Y-68933670D01*
X127280637Y-68847914D01*
X127158388Y-68808193D01*
X127100712Y-68768755D01*
X127073514Y-68704397D01*
X127085429Y-68635550D01*
X127132673Y-68584075D01*
X127158382Y-68572333D01*
X127280832Y-68532547D01*
X127449199Y-68446760D01*
X127602073Y-68335690D01*
X127735690Y-68202073D01*
X127846760Y-68049199D01*
X127932547Y-67880832D01*
X127990940Y-67701118D01*
X128005364Y-67610047D01*
X128020500Y-67514486D01*
X128020500Y-67325513D01*
X127990940Y-67138881D01*
X127958743Y-67039792D01*
X127932547Y-66959168D01*
X127932545Y-66959165D01*
X127932545Y-66959163D01*
X127861746Y-66820213D01*
X127846760Y-66790801D01*
X127735690Y-66637927D01*
X127602073Y-66504310D01*
X127449199Y-66393240D01*
X127446852Y-66392044D01*
X127280836Y-66307454D01*
X127158387Y-66267668D01*
X127100712Y-66228230D01*
X127073514Y-66163871D01*
X127085429Y-66095025D01*
X127132673Y-66043549D01*
X127158389Y-66031806D01*
X127280635Y-65992086D01*
X127448940Y-65906329D01*
X127601741Y-65795314D01*
X127601746Y-65795310D01*
X127735310Y-65661746D01*
X127735314Y-65661741D01*
X127846329Y-65508940D01*
X127932085Y-65340637D01*
X127990451Y-65161002D01*
X127995362Y-65130000D01*
X126444737Y-65130000D01*
X126445201Y-65129536D01*
X126498705Y-65036865D01*
X126526400Y-64933504D01*
X126526400Y-64826496D01*
X126498705Y-64723135D01*
X126445201Y-64630464D01*
X126444737Y-64630000D01*
X127995362Y-64630000D01*
X127990451Y-64598997D01*
X127932085Y-64419362D01*
X127846329Y-64251059D01*
X127735314Y-64098258D01*
X127735310Y-64098253D01*
X127599238Y-63962181D01*
X127565753Y-63900858D01*
X127570737Y-63831166D01*
X127612609Y-63775233D01*
X127678073Y-63750816D01*
X127686919Y-63750500D01*
X127784218Y-63750500D01*
X127851257Y-63770185D01*
G37*
G04 #@! TD.AperFunction*
G04 #@! TA.AperFunction,Conductor*
G36*
X133079474Y-74225921D02*
G01*
X133111859Y-74181349D01*
X133139233Y-74127624D01*
X133187207Y-74076827D01*
X133255028Y-74060031D01*
X133321163Y-74082567D01*
X133360203Y-74127621D01*
X133387713Y-74181611D01*
X133508028Y-74347213D01*
X133652786Y-74491971D01*
X133770015Y-74577141D01*
X133818390Y-74612287D01*
X133934607Y-74671503D01*
X134000776Y-74705218D01*
X134000778Y-74705218D01*
X134000781Y-74705220D01*
X134104881Y-74739044D01*
X134161894Y-74757569D01*
X134219569Y-74797007D01*
X134246767Y-74861366D01*
X134234852Y-74930212D01*
X134187608Y-74981688D01*
X134123575Y-74999500D01*
X132374809Y-74999500D01*
X132307770Y-74979815D01*
X132262015Y-74927011D01*
X132252071Y-74857853D01*
X132281096Y-74794297D01*
X132336490Y-74757569D01*
X132499031Y-74704755D01*
X132681349Y-74611859D01*
X132725921Y-74579474D01*
X132046447Y-73900000D01*
X132052661Y-73900000D01*
X132154394Y-73872741D01*
X132245606Y-73820080D01*
X132320080Y-73745606D01*
X132372741Y-73654394D01*
X132400000Y-73552661D01*
X132400000Y-73546447D01*
X133079474Y-74225921D01*
G37*
G04 #@! TD.AperFunction*
G04 #@! TA.AperFunction,Conductor*
G36*
X117076257Y-54360185D02*
G01*
X117096899Y-54376819D01*
X122153181Y-59433101D01*
X122186666Y-59494424D01*
X122189500Y-59520782D01*
X122189500Y-71133885D01*
X122169815Y-71200924D01*
X122117011Y-71246679D01*
X122047853Y-71256623D01*
X121984297Y-71227598D01*
X121950939Y-71181337D01*
X121886635Y-71026092D01*
X121886628Y-71026079D01*
X121777139Y-70862218D01*
X121777136Y-70862214D01*
X121634686Y-70719764D01*
X121634655Y-70719735D01*
X120241478Y-69326558D01*
X120237140Y-69322220D01*
X120237139Y-69322218D01*
X120183279Y-69268358D01*
X120170644Y-69253565D01*
X120115690Y-69177927D01*
X119982073Y-69044310D01*
X119829199Y-68933240D01*
X119660836Y-68847454D01*
X119557382Y-68813840D01*
X119539195Y-68807930D01*
X119481521Y-68768493D01*
X119454323Y-68704134D01*
X119466238Y-68635288D01*
X119513482Y-68583812D01*
X119539194Y-68572069D01*
X119660832Y-68532547D01*
X119829199Y-68446760D01*
X119982073Y-68335690D01*
X120115690Y-68202073D01*
X120226760Y-68049199D01*
X120312547Y-67880832D01*
X120370940Y-67701118D01*
X120385364Y-67610047D01*
X120400500Y-67514486D01*
X120400500Y-67325513D01*
X120370940Y-67138881D01*
X120338743Y-67039792D01*
X120312547Y-66959168D01*
X120312545Y-66959165D01*
X120312545Y-66959163D01*
X120241746Y-66820213D01*
X120226760Y-66790801D01*
X120115690Y-66637927D01*
X119982073Y-66504310D01*
X119829199Y-66393240D01*
X119826852Y-66392044D01*
X119660836Y-66307454D01*
X119538387Y-66267668D01*
X119480712Y-66228230D01*
X119453514Y-66163871D01*
X119465429Y-66095025D01*
X119512673Y-66043549D01*
X119538389Y-66031806D01*
X119660635Y-65992086D01*
X119828940Y-65906329D01*
X119981741Y-65795314D01*
X119981746Y-65795310D01*
X120115310Y-65661746D01*
X120115314Y-65661741D01*
X120226329Y-65508940D01*
X120312085Y-65340637D01*
X120370451Y-65161002D01*
X120375362Y-65130000D01*
X118824737Y-65130000D01*
X118825201Y-65129536D01*
X118878705Y-65036865D01*
X118906400Y-64933504D01*
X118906400Y-64826496D01*
X118878705Y-64723135D01*
X118825201Y-64630464D01*
X118824737Y-64630000D01*
X120375362Y-64630000D01*
X120370451Y-64598997D01*
X120312085Y-64419362D01*
X120226329Y-64251059D01*
X120115314Y-64098258D01*
X120115310Y-64098253D01*
X119981746Y-63964689D01*
X119981741Y-63964685D01*
X119828940Y-63853670D01*
X119660637Y-63767914D01*
X119481002Y-63709548D01*
X119294447Y-63680000D01*
X118750000Y-63680000D01*
X118750000Y-64555263D01*
X118749536Y-64554799D01*
X118656865Y-64501295D01*
X118553504Y-64473600D01*
X118446496Y-64473600D01*
X118343135Y-64501295D01*
X118250464Y-64554799D01*
X118250000Y-64555263D01*
X118250000Y-63680000D01*
X117705553Y-63680000D01*
X117518995Y-63709548D01*
X117367817Y-63758668D01*
X117297976Y-63760663D01*
X117238143Y-63724582D01*
X117207316Y-63661881D01*
X117205500Y-63640737D01*
X117205500Y-62695782D01*
X117225185Y-62628743D01*
X117241819Y-62608101D01*
X117712139Y-62137781D01*
X118194440Y-61655479D01*
X118255761Y-61621996D01*
X118262695Y-61620694D01*
X118434534Y-61593477D01*
X118629219Y-61530220D01*
X118811610Y-61437287D01*
X118904590Y-61369732D01*
X118977213Y-61316971D01*
X118977215Y-61316968D01*
X118977219Y-61316966D01*
X119121966Y-61172219D01*
X119121968Y-61172215D01*
X119121971Y-61172213D01*
X119242286Y-61006611D01*
X119242415Y-61006359D01*
X119269795Y-60952621D01*
X119317769Y-60901826D01*
X119385589Y-60885030D01*
X119451725Y-60907567D01*
X119490765Y-60952621D01*
X119518141Y-61006350D01*
X119518147Y-61006359D01*
X119550523Y-61050921D01*
X119550524Y-61050922D01*
X120230000Y-60371446D01*
X120230000Y-60377661D01*
X120257259Y-60479394D01*
X120309920Y-60570606D01*
X120384394Y-60645080D01*
X120475606Y-60697741D01*
X120577339Y-60725000D01*
X120583553Y-60725000D01*
X119904076Y-61404474D01*
X119948650Y-61436859D01*
X120130968Y-61529755D01*
X120325582Y-61592990D01*
X120527683Y-61625000D01*
X120732317Y-61625000D01*
X120934417Y-61592990D01*
X121129031Y-61529755D01*
X121311349Y-61436859D01*
X121355921Y-61404474D01*
X120676447Y-60725000D01*
X120682661Y-60725000D01*
X120784394Y-60697741D01*
X120875606Y-60645080D01*
X120950080Y-60570606D01*
X121002741Y-60479394D01*
X121030000Y-60377661D01*
X121030000Y-60371448D01*
X121709474Y-61050922D01*
X121709474Y-61050921D01*
X121741859Y-61006349D01*
X121834755Y-60824031D01*
X121897990Y-60629417D01*
X121930000Y-60427317D01*
X121930000Y-60222682D01*
X121897990Y-60020582D01*
X121834755Y-59825968D01*
X121741859Y-59643650D01*
X121709474Y-59599077D01*
X121709474Y-59599076D01*
X121030000Y-60278551D01*
X121030000Y-60272339D01*
X121002741Y-60170606D01*
X120950080Y-60079394D01*
X120875606Y-60004920D01*
X120784394Y-59952259D01*
X120682661Y-59925000D01*
X120676446Y-59925000D01*
X121355922Y-59245524D01*
X121355921Y-59245523D01*
X121311359Y-59213147D01*
X121311350Y-59213141D01*
X121129031Y-59120244D01*
X120934417Y-59057009D01*
X120732317Y-59025000D01*
X120527683Y-59025000D01*
X120325582Y-59057009D01*
X120130968Y-59120244D01*
X119948644Y-59213143D01*
X119904077Y-59245523D01*
X119904077Y-59245524D01*
X120583554Y-59925000D01*
X120577339Y-59925000D01*
X120475606Y-59952259D01*
X120384394Y-60004920D01*
X120309920Y-60079394D01*
X120257259Y-60170606D01*
X120230000Y-60272339D01*
X120230000Y-60278553D01*
X119550524Y-59599077D01*
X119550523Y-59599077D01*
X119518143Y-59643644D01*
X119490765Y-59697378D01*
X119442790Y-59748174D01*
X119374969Y-59764969D01*
X119308834Y-59742431D01*
X119269795Y-59697378D01*
X119268820Y-59695465D01*
X119242287Y-59643390D01*
X119242284Y-59643386D01*
X119134181Y-59494593D01*
X119110702Y-59428786D01*
X119110500Y-59421708D01*
X119110500Y-57686456D01*
X119089624Y-57581511D01*
X119076494Y-57515500D01*
X119072051Y-57493164D01*
X119034646Y-57402861D01*
X118996632Y-57311086D01*
X118958752Y-57254394D01*
X118887139Y-57147217D01*
X118744686Y-57004764D01*
X118744655Y-57004735D01*
X116292101Y-54552181D01*
X116258616Y-54490858D01*
X116263600Y-54421166D01*
X116305472Y-54365233D01*
X116370936Y-54340816D01*
X116379782Y-54340500D01*
X117009218Y-54340500D01*
X117076257Y-54360185D01*
G37*
G04 #@! TD.AperFunction*
G04 #@! TA.AperFunction,Conductor*
G36*
X100175270Y-40766717D02*
G01*
X100175270Y-40766716D01*
X100214622Y-40712555D01*
X100219232Y-40703507D01*
X100267205Y-40652709D01*
X100335025Y-40635912D01*
X100401161Y-40658447D01*
X100440204Y-40703504D01*
X100444949Y-40712817D01*
X100572759Y-40888734D01*
X100571888Y-40889366D01*
X100598357Y-40948401D01*
X100599500Y-40965199D01*
X100599500Y-58232610D01*
X100607848Y-58274581D01*
X100607850Y-58274591D01*
X100608501Y-58277861D01*
X100637949Y-58425904D01*
X100656975Y-58471836D01*
X100660358Y-58480003D01*
X100660359Y-58480007D01*
X100713369Y-58607985D01*
X100822859Y-58771848D01*
X100822860Y-58771849D01*
X100822861Y-58771850D01*
X100962218Y-58911207D01*
X100962219Y-58911207D01*
X100969286Y-58918274D01*
X100969285Y-58918274D01*
X100969289Y-58918277D01*
X106894113Y-64843101D01*
X106927598Y-64904424D01*
X106930432Y-64930782D01*
X106930432Y-65083097D01*
X106967379Y-65316369D01*
X106967379Y-65316372D01*
X107017665Y-65471133D01*
X107019660Y-65540974D01*
X106983580Y-65600807D01*
X106920879Y-65631635D01*
X106851465Y-65623670D01*
X106812053Y-65597132D01*
X97556819Y-56341898D01*
X97523334Y-56280575D01*
X97520500Y-56254217D01*
X97520500Y-40965199D01*
X97540185Y-40898160D01*
X97549471Y-40885664D01*
X97635890Y-40766717D01*
X97675051Y-40712816D01*
X97679793Y-40703508D01*
X97727763Y-40652711D01*
X97795583Y-40635911D01*
X97861719Y-40658445D01*
X97900763Y-40703500D01*
X97905373Y-40712547D01*
X97944728Y-40766716D01*
X98577037Y-40134408D01*
X98594075Y-40197993D01*
X98659901Y-40312007D01*
X98752993Y-40405099D01*
X98867007Y-40470925D01*
X98930590Y-40487962D01*
X98298282Y-41120269D01*
X98298282Y-41120270D01*
X98352449Y-41159624D01*
X98541782Y-41256095D01*
X98743870Y-41321757D01*
X98953754Y-41355000D01*
X99166246Y-41355000D01*
X99376127Y-41321757D01*
X99376130Y-41321757D01*
X99578217Y-41256095D01*
X99767554Y-41159622D01*
X99821716Y-41120270D01*
X99821717Y-41120270D01*
X99189408Y-40487962D01*
X99252993Y-40470925D01*
X99367007Y-40405099D01*
X99460099Y-40312007D01*
X99525925Y-40197993D01*
X99542962Y-40134408D01*
X100175270Y-40766717D01*
G37*
G04 #@! TD.AperFunction*
G04 #@! TA.AperFunction,Conductor*
G36*
X90241444Y-40658999D02*
G01*
X90280486Y-40704056D01*
X90284951Y-40712820D01*
X90412759Y-40888734D01*
X90411888Y-40889366D01*
X90438357Y-40948401D01*
X90439500Y-40965199D01*
X90439500Y-61168285D01*
X90419815Y-61235324D01*
X90403181Y-61255966D01*
X87178865Y-64480281D01*
X87117542Y-64513766D01*
X87047850Y-64508782D01*
X86991917Y-64466910D01*
X86973253Y-64430918D01*
X86959636Y-64389008D01*
X86852411Y-64178567D01*
X86713585Y-63987490D01*
X86546578Y-63820483D01*
X86511940Y-63795317D01*
X86469275Y-63739989D01*
X86463296Y-63670375D01*
X86495901Y-63608580D01*
X86511941Y-63594682D01*
X86516318Y-63591502D01*
X86546578Y-63569517D01*
X86713585Y-63402510D01*
X86852411Y-63211433D01*
X86959636Y-63000992D01*
X87032621Y-62776368D01*
X87038348Y-62740208D01*
X87069568Y-62543097D01*
X87069568Y-62306902D01*
X87032621Y-62073631D01*
X86964302Y-61863368D01*
X86959636Y-61849008D01*
X86959634Y-61849005D01*
X86959634Y-61849003D01*
X86889743Y-61711835D01*
X86852411Y-61638567D01*
X86713585Y-61447490D01*
X86546578Y-61280483D01*
X86511940Y-61255317D01*
X86469275Y-61199989D01*
X86463296Y-61130375D01*
X86495901Y-61068580D01*
X86511941Y-61054682D01*
X86546578Y-61029517D01*
X86713585Y-60862510D01*
X86852411Y-60671433D01*
X86958911Y-60462414D01*
X86959634Y-60460996D01*
X86959634Y-60460995D01*
X86959636Y-60460992D01*
X87032621Y-60236368D01*
X87053847Y-60102351D01*
X87069568Y-60003097D01*
X87069568Y-59766902D01*
X87032621Y-59533631D01*
X86993772Y-59414067D01*
X86959636Y-59309008D01*
X86959634Y-59309005D01*
X86959634Y-59309003D01*
X86880424Y-59153546D01*
X86852411Y-59098567D01*
X86713585Y-58907490D01*
X86546578Y-58740483D01*
X86511940Y-58715317D01*
X86469275Y-58659989D01*
X86463296Y-58590375D01*
X86495901Y-58528580D01*
X86511941Y-58514682D01*
X86546578Y-58489517D01*
X86713585Y-58322510D01*
X86852411Y-58131433D01*
X86959636Y-57920992D01*
X87032621Y-57696368D01*
X87039269Y-57654394D01*
X87069568Y-57463097D01*
X87069568Y-57226902D01*
X87032621Y-56993631D01*
X86983581Y-56842702D01*
X86959636Y-56769008D01*
X86959634Y-56769005D01*
X86959634Y-56769003D01*
X86885110Y-56622743D01*
X86852411Y-56558567D01*
X86713585Y-56367490D01*
X86546578Y-56200483D01*
X86487350Y-56157451D01*
X86444685Y-56102122D01*
X86436618Y-56047404D01*
X86438172Y-56027657D01*
X85698477Y-55287962D01*
X85762061Y-55270925D01*
X85876075Y-55205099D01*
X85969167Y-55112007D01*
X86034993Y-54997993D01*
X86052030Y-54934409D01*
X86791726Y-55674105D01*
X86791726Y-55674104D01*
X86851982Y-55591169D01*
X86851986Y-55591163D01*
X86959170Y-55380802D01*
X87032133Y-55156247D01*
X87069068Y-54923052D01*
X87069068Y-54686947D01*
X87032133Y-54453752D01*
X86959170Y-54229197D01*
X86851982Y-54018828D01*
X86791726Y-53935894D01*
X86791726Y-53935893D01*
X86052030Y-54675590D01*
X86034993Y-54612007D01*
X85969167Y-54497993D01*
X85876075Y-54404901D01*
X85762061Y-54339075D01*
X85698475Y-54322036D01*
X86438172Y-53582340D01*
X86435212Y-53544735D01*
X86435212Y-53525275D01*
X86438172Y-53487657D01*
X85698477Y-52747962D01*
X85762061Y-52730925D01*
X85876075Y-52665099D01*
X85969167Y-52572007D01*
X86034993Y-52457993D01*
X86052030Y-52394409D01*
X86791726Y-53134105D01*
X86791726Y-53134104D01*
X86851982Y-53051169D01*
X86851986Y-53051163D01*
X86959170Y-52840802D01*
X87032133Y-52616247D01*
X87069068Y-52383052D01*
X87069068Y-52146947D01*
X87032133Y-51913752D01*
X86959170Y-51689197D01*
X86851982Y-51478828D01*
X86791726Y-51395894D01*
X86791726Y-51395893D01*
X86052030Y-52135590D01*
X86034993Y-52072007D01*
X85969167Y-51957993D01*
X85876075Y-51864901D01*
X85762061Y-51799075D01*
X85698476Y-51782037D01*
X86438173Y-51042340D01*
X86438172Y-51042338D01*
X86355242Y-50982087D01*
X86144870Y-50874897D01*
X85920315Y-50801934D01*
X85920316Y-50801934D01*
X85687120Y-50765000D01*
X85451016Y-50765000D01*
X85217820Y-50801934D01*
X84993262Y-50874898D01*
X84830794Y-50957679D01*
X84762125Y-50970575D01*
X84697385Y-50944298D01*
X84657128Y-50887192D01*
X84650500Y-50847194D01*
X84650500Y-45720782D01*
X84670185Y-45653743D01*
X84686819Y-45633101D01*
X85997062Y-44322858D01*
X88928498Y-41391421D01*
X88989819Y-41357938D01*
X89005279Y-41355659D01*
X89006283Y-41355500D01*
X89006287Y-41355500D01*
X89216243Y-41322246D01*
X89418412Y-41256557D01*
X89607816Y-41160051D01*
X89694142Y-41097332D01*
X89779786Y-41035109D01*
X89779788Y-41035106D01*
X89779792Y-41035104D01*
X89930104Y-40884792D01*
X89930106Y-40884788D01*
X89930109Y-40884786D01*
X90055048Y-40712820D01*
X90055047Y-40712820D01*
X90055051Y-40712816D01*
X90059514Y-40704054D01*
X90107488Y-40653259D01*
X90175308Y-40636463D01*
X90241444Y-40658999D01*
G37*
G04 #@! TD.AperFunction*
G04 #@! TA.AperFunction,Conductor*
G36*
X114536257Y-55630185D02*
G01*
X114556899Y-55646819D01*
X117073181Y-58163101D01*
X117106666Y-58224424D01*
X117109500Y-58250782D01*
X117109500Y-59476765D01*
X117089815Y-59543804D01*
X117085818Y-59549650D01*
X117017715Y-59643386D01*
X116924781Y-59825778D01*
X116861522Y-60020468D01*
X116841837Y-60144751D01*
X116811907Y-60207885D01*
X116807045Y-60213033D01*
X115687963Y-61332115D01*
X115626640Y-61365600D01*
X115556948Y-61360616D01*
X115501015Y-61318744D01*
X115489911Y-61299242D01*
X115489505Y-61299460D01*
X115486631Y-61294084D01*
X115377143Y-61130223D01*
X115377137Y-61130215D01*
X114162423Y-59915502D01*
X114128938Y-59854179D01*
X114126655Y-59838697D01*
X114126500Y-59837718D01*
X114126500Y-59837713D01*
X114093246Y-59627757D01*
X114027557Y-59425588D01*
X113931051Y-59236184D01*
X113931049Y-59236181D01*
X113931048Y-59236179D01*
X113806109Y-59064213D01*
X113692181Y-58950285D01*
X113658696Y-58888962D01*
X113663680Y-58819270D01*
X113705552Y-58763337D01*
X113736529Y-58746422D01*
X113868086Y-58697354D01*
X113868093Y-58697350D01*
X113983187Y-58611190D01*
X113983190Y-58611187D01*
X114069350Y-58496093D01*
X114069354Y-58496086D01*
X114119596Y-58361379D01*
X114119598Y-58361372D01*
X114125999Y-58301844D01*
X114126000Y-58301827D01*
X114126000Y-57654000D01*
X113209012Y-57654000D01*
X113241925Y-57596993D01*
X113276000Y-57469826D01*
X113276000Y-57338174D01*
X113241925Y-57211007D01*
X113209012Y-57154000D01*
X114126000Y-57154000D01*
X114126000Y-56506172D01*
X114125999Y-56506155D01*
X114119598Y-56446627D01*
X114119596Y-56446620D01*
X114069354Y-56311913D01*
X114069350Y-56311906D01*
X113983190Y-56196812D01*
X113983187Y-56196809D01*
X113868093Y-56110649D01*
X113868086Y-56110645D01*
X113733379Y-56060403D01*
X113733372Y-56060401D01*
X113673844Y-56054000D01*
X113026000Y-56054000D01*
X113026000Y-56970988D01*
X112968993Y-56938075D01*
X112841826Y-56904000D01*
X112710174Y-56904000D01*
X112583007Y-56938075D01*
X112526000Y-56970988D01*
X112526000Y-56054000D01*
X111878155Y-56054000D01*
X111818627Y-56060401D01*
X111818620Y-56060403D01*
X111683913Y-56110645D01*
X111676128Y-56114897D01*
X111674684Y-56112252D01*
X111623314Y-56131397D01*
X111555045Y-56116528D01*
X111505652Y-56067109D01*
X111490500Y-56007711D01*
X111490500Y-55734500D01*
X111510185Y-55667461D01*
X111562989Y-55621706D01*
X111614500Y-55610500D01*
X114469218Y-55610500D01*
X114536257Y-55630185D01*
G37*
G04 #@! TD.AperFunction*
G04 #@! TA.AperFunction,Conductor*
G36*
X88444201Y-38520185D02*
G01*
X88489956Y-38572989D01*
X88499900Y-38642147D01*
X88470875Y-38705703D01*
X88415482Y-38742429D01*
X88399528Y-38747613D01*
X88381583Y-38753444D01*
X88192179Y-38849951D01*
X88020213Y-38974890D01*
X87869890Y-39125213D01*
X87744951Y-39297179D01*
X87648444Y-39486585D01*
X87582753Y-39688760D01*
X87548738Y-39903525D01*
X87547684Y-39903358D01*
X87524621Y-39963850D01*
X87513576Y-39976503D01*
X83167221Y-44322858D01*
X83012221Y-44477858D01*
X83012218Y-44477861D01*
X82942538Y-44547540D01*
X82872859Y-44617219D01*
X82763369Y-44781083D01*
X82752152Y-44808165D01*
X82687949Y-44963163D01*
X82687947Y-44963171D01*
X82673073Y-45037949D01*
X82673073Y-45037950D01*
X82649500Y-45156457D01*
X82649500Y-59608260D01*
X82629815Y-59675299D01*
X82577011Y-59721054D01*
X82512245Y-59731550D01*
X82497828Y-59730000D01*
X81850000Y-59730000D01*
X81850000Y-60646988D01*
X81792993Y-60614075D01*
X81665826Y-60580000D01*
X81534174Y-60580000D01*
X81407007Y-60614075D01*
X81350000Y-60646988D01*
X81350000Y-59730000D01*
X80702155Y-59730000D01*
X80642627Y-59736401D01*
X80642620Y-59736403D01*
X80567833Y-59764297D01*
X80498141Y-59769281D01*
X80436818Y-59735796D01*
X80403334Y-59674473D01*
X80400500Y-59648115D01*
X80400500Y-45565782D01*
X80420185Y-45498743D01*
X80436819Y-45478101D01*
X87378101Y-38536819D01*
X87439424Y-38503334D01*
X87465782Y-38500500D01*
X88377162Y-38500500D01*
X88444201Y-38520185D01*
G37*
G04 #@! TD.AperFunction*
G04 #@! TA.AperFunction,Conductor*
G36*
X98605816Y-38520185D02*
G01*
X98651571Y-38572989D01*
X98661515Y-38642147D01*
X98632490Y-38705703D01*
X98577095Y-38742431D01*
X98541782Y-38753904D01*
X98352439Y-38850380D01*
X98298282Y-38889727D01*
X98298282Y-38889728D01*
X98930591Y-39522037D01*
X98867007Y-39539075D01*
X98752993Y-39604901D01*
X98659901Y-39697993D01*
X98594075Y-39812007D01*
X98577037Y-39875591D01*
X97944728Y-39243282D01*
X97944727Y-39243282D01*
X97905380Y-39297440D01*
X97905376Y-39297446D01*
X97900760Y-39306505D01*
X97852781Y-39357297D01*
X97784959Y-39374087D01*
X97718826Y-39351543D01*
X97679794Y-39306493D01*
X97675051Y-39297184D01*
X97675049Y-39297181D01*
X97675048Y-39297179D01*
X97550109Y-39125213D01*
X97399786Y-38974890D01*
X97227820Y-38849951D01*
X97038416Y-38753444D01*
X97026533Y-38749583D01*
X97004517Y-38742429D01*
X96946844Y-38702993D01*
X96919646Y-38638635D01*
X96931561Y-38569788D01*
X96978805Y-38518313D01*
X97042838Y-38500500D01*
X98538777Y-38500500D01*
X98605816Y-38520185D01*
G37*
G04 #@! TD.AperFunction*
G04 #@! TA.AperFunction,Conductor*
G36*
X101144201Y-38520185D02*
G01*
X101189956Y-38572989D01*
X101199900Y-38642147D01*
X101170875Y-38705703D01*
X101115482Y-38742429D01*
X101099528Y-38747613D01*
X101081583Y-38753444D01*
X100892179Y-38849951D01*
X100720213Y-38974890D01*
X100569890Y-39125213D01*
X100444949Y-39297182D01*
X100440202Y-39306499D01*
X100392227Y-39357293D01*
X100324405Y-39374087D01*
X100258271Y-39351548D01*
X100219234Y-39306495D01*
X100214626Y-39297452D01*
X100175270Y-39243282D01*
X100175269Y-39243282D01*
X99542962Y-39875590D01*
X99525925Y-39812007D01*
X99460099Y-39697993D01*
X99367007Y-39604901D01*
X99252993Y-39539075D01*
X99189409Y-39522037D01*
X99821716Y-38889728D01*
X99767550Y-38850375D01*
X99578217Y-38753904D01*
X99542905Y-38742431D01*
X99485230Y-38702994D01*
X99458031Y-38638636D01*
X99469945Y-38569789D01*
X99517189Y-38518313D01*
X99581223Y-38500500D01*
X101077162Y-38500500D01*
X101144201Y-38520185D01*
G37*
G04 #@! TD.AperFunction*
M02*
