M48
; DRILL file KiCad 10.0.1 date 2026-04-29T10:29:20
; FORMAT={-:-/ absolute / metric / decimal}
; #@! TF.CreationDate,2026-04-29T10:29:20+02:00
; #@! TF.GenerationSoftware,Kicad,Pcbnew,10.0.1
; #@! TF.FileFunction,Plated,1,2,PTH
FMAT,2
METRIC
; #@! TA.AperFunction,Plated,PTH,ComponentDrill
T1C0.800
; #@! TA.AperFunction,Plated,PTH,ComponentDrill
T2C0.813
; #@! TA.AperFunction,Plated,PTH,ComponentDrill
T3C0.830
; #@! TA.AperFunction,Plated,PTH,ViaDrill
T4C0.900
; #@! TA.AperFunction,Plated,PTH,ComponentDrill
T5C1.000
; #@! TA.AperFunction,Plated,PTH,ComponentDrill
T6C1.100
; #@! TA.AperFunction,Plated,PTH,ComponentDrill
T7C1.200
; #@! TA.AperFunction,Plated,PTH,ComponentDrill
T8C1.300
; #@! TA.AperFunction,Plated,PTH,ComponentDrill
T9C1.330
; #@! TA.AperFunction,Plated,PTH,ComponentDrill
T10C1.600
; #@! TA.AperFunction,Plated,PTH,ComponentDrill
T11C1.800
%
G90
G05
T1
X118.13Y-60.325
X119.38Y-91.44
X120.63Y-60.325
X121.92Y-77.0
X121.92Y-84.62
X122.88Y-91.44
X127.19Y-79.0
X127.19Y-83.5
X127.19Y-88.0
X129.655Y-96.88
X132.0Y-73.5
X133.155Y-96.88
X134.5Y-73.5
X134.81Y-79.0
X134.81Y-83.5
X134.81Y-88.0
X146.0Y-67.5
X148.5Y-67.5
X151.19Y-82.0
X151.19Y-86.0
X152.25Y-90.5
X152.88Y-60.5
X154.75Y-90.5
X154.92Y-53.0
X157.46Y-55.54
X158.81Y-82.0
X158.81Y-86.0
X160.0Y-53.0
X160.5Y-60.5
X165.735Y-52.745
X165.735Y-55.245
X169.545Y-55.9
X169.545Y-58.4
T2
X118.5Y-64.88
X118.5Y-67.42
X118.5Y-69.96
X118.5Y-72.5
X126.12Y-64.88
X126.12Y-67.42
X126.12Y-69.96
X126.12Y-72.5
T3
X123.247Y-30.61
X123.247Y-48.61
X139.19Y-79.69
X139.19Y-82.23
X139.19Y-84.77
X139.19Y-87.31
X146.81Y-79.69
X146.81Y-82.23
X146.81Y-84.77
X146.81Y-87.31
X161.247Y-30.61
X161.247Y-48.61
T4
X118.11Y-60.325
X125.5Y-61.5
X140.335Y-76.835
T5
X81.6Y-61.08
X81.6Y-63.62
X81.6Y-66.16
X81.6Y-68.7
X81.7Y-74.32
X81.7Y-76.86
X81.7Y-79.4
X81.7Y-81.94
X81.7Y-84.48
X85.569Y-52.265
X85.569Y-54.805
X85.569Y-57.345
X85.569Y-59.885
X85.569Y-62.425
X85.569Y-64.965
X85.569Y-67.505
X85.569Y-70.045
X85.569Y-72.585
X85.569Y-75.125
X85.569Y-77.665
X85.569Y-80.205
X88.9Y-40.005
X91.44Y-40.005
X93.98Y-40.005
X96.52Y-40.005
X99.06Y-40.005
X101.6Y-40.005
X104.14Y-40.005
X108.431Y-52.265
X108.431Y-54.805
X108.431Y-57.345
X108.431Y-59.885
X108.431Y-62.425
X108.431Y-64.965
X108.431Y-67.505
X108.431Y-70.045
X108.431Y-72.585
X108.431Y-75.125
X108.431Y-77.665
X108.431Y-80.205
X112.776Y-57.404
X112.776Y-59.944
X112.776Y-62.484
X112.776Y-65.024
X112.776Y-67.564
X112.776Y-70.104
X135.0Y-66.0
X135.0Y-68.54
X137.54Y-66.0
X137.54Y-68.54
X175.34Y-66.675
X180.34Y-66.675
T6
X175.895Y-58.42
X178.435Y-58.42
X180.975Y-58.42
T7
X127.4Y-58.5
X149.9Y-58.5
X160.0Y-67.0
X160.0Y-74.5
T8
X115.602Y-32.675
X115.602Y-37.675
X159.465Y-97.155
X164.465Y-97.155
T9
X139.46Y-73.62
X139.96Y-93.38
X142.0Y-73.62
X142.5Y-93.38
X144.54Y-73.62
X145.04Y-93.38
T10
X138.415Y-100.0
X153.655Y-100.0
T11
X170.42Y-89.315
X183.92Y-89.315
M30
