G04 #@! TF.GenerationSoftware,KiCad,Pcbnew,10.0.1*
G04 #@! TF.CreationDate,2026-04-29T10:29:05+02:00*
G04 #@! TF.ProjectId,buck-converter,6275636b-2d63-46f6-9e76-65727465722e,rev?*
G04 #@! TF.SameCoordinates,Original*
G04 #@! TF.FileFunction,Profile,NP*
%FSLAX46Y46*%
G04 Gerber Fmt 4.6, Leading zero omitted, Abs format (unit mm)*
G04 Created by KiCad (PCBNEW 10.0.1) date 2026-04-29 10:29:05*
%MOMM*%
%LPD*%
G01*
G04 APERTURE LIST*
G04 #@! TA.AperFunction,Profile*
%ADD10C,0.050000*%
G04 #@! TD*
G04 APERTURE END LIST*
D10*
X76200000Y-39370000D02*
X76200000Y-44450000D01*
X76200000Y-39370000D02*
G75*
G02*
X80010000Y-35560000I3810000J0D01*
G01*
X76200000Y-44450000D02*
X76200000Y-102870000D01*
X81000000Y-39500000D02*
G75*
G02*
X78706352Y-39500000I-1146824J0D01*
G01*
X78706352Y-39500000D02*
G75*
G02*
X81000000Y-39500000I1146824J0D01*
G01*
X81156824Y-102870000D02*
G75*
G02*
X78863176Y-102870000I-1146824J0D01*
G01*
X78863176Y-102870000D02*
G75*
G02*
X81156824Y-102870000I1146824J0D01*
G01*
X80010000Y-106680000D02*
G75*
G02*
X76200000Y-102870000I0J3810000D01*
G01*
X82550000Y-35560000D02*
X80010000Y-35560000D01*
X82550000Y-106680000D02*
X80010000Y-106680000D01*
X82550000Y-106680000D02*
X186055000Y-106680000D01*
X90805000Y-35560000D02*
X82550000Y-35560000D01*
X90805000Y-35560000D02*
X99849077Y-35560000D01*
X103659077Y-31750000D02*
G75*
G02*
X99849077Y-35559977I-3809977J0D01*
G01*
X103659077Y-31750000D02*
G75*
G02*
X107469077Y-27939977I3810023J0D01*
G01*
X107469077Y-27940000D02*
X165657961Y-27940000D01*
X166727747Y-31750000D02*
G75*
G02*
X164434099Y-31750000I-1146824J0D01*
G01*
X164434099Y-31750000D02*
G75*
G02*
X166727747Y-31750000I1146824J0D01*
G01*
X165657961Y-27940000D02*
G75*
G02*
X169391679Y-31750000I-77061J-3810000D01*
G01*
X169390923Y-48260000D02*
X169390923Y-31750000D01*
X173200923Y-52070000D02*
G75*
G02*
X169390900Y-48260000I-23J3810000D01*
G01*
X173200923Y-52070000D02*
X179070000Y-52070000D01*
X187000000Y-62500000D02*
G75*
G02*
X184706352Y-62500000I-1146824J0D01*
G01*
X184706352Y-62500000D02*
G75*
G02*
X187000000Y-62500000I1146824J0D01*
G01*
X186055000Y-52070000D02*
X179070000Y-52070000D01*
X186055000Y-52070000D02*
G75*
G02*
X189865000Y-55880000I0J-3810000D01*
G01*
X189865000Y-55880000D02*
X189865000Y-102870000D01*
X189865000Y-102870000D02*
G75*
G02*
X186055000Y-106680000I-3810000J0D01*
G01*
M02*
