G04 #@! TF.GenerationSoftware,KiCad,Pcbnew,10.0.1*
G04 #@! TF.CreationDate,2026-04-28T13:54:34+02:00*
G04 #@! TF.ProjectId,buck-converter,6275636b-2d63-46f6-9e76-65727465722e,rev?*
G04 #@! TF.SameCoordinates,Original*
G04 #@! TF.FileFunction,Legend,Top*
G04 #@! TF.FilePolarity,Positive*
%FSLAX46Y46*%
G04 Gerber Fmt 4.6, Leading zero omitted, Abs format (unit mm)*
G04 Created by KiCad (PCBNEW 10.0.1) date 2026-04-28 13:54:34*
%MOMM*%
%LPD*%
G01*
G04 APERTURE LIST*
%ADD10C,0.100000*%
%ADD11C,0.150000*%
%ADD12C,0.127000*%
%ADD13C,0.120000*%
%ADD14C,0.200000*%
G04 APERTURE END LIST*
D10*
X103803884Y-32922419D02*
X103803884Y-31922419D01*
X104280074Y-32922419D02*
X104280074Y-31922419D01*
X104280074Y-31922419D02*
X104851502Y-32922419D01*
X104851502Y-32922419D02*
X104851502Y-31922419D01*
X105327693Y-32541466D02*
X106089598Y-32541466D01*
X105708645Y-32922419D02*
X105708645Y-32160514D01*
X103803884Y-38262475D02*
X103803884Y-37262475D01*
X104280074Y-38262475D02*
X104280074Y-37262475D01*
X104280074Y-37262475D02*
X104851502Y-38262475D01*
X104851502Y-38262475D02*
X104851502Y-37262475D01*
X105327693Y-37881522D02*
X106089598Y-37881522D01*
X116803884Y-31872419D02*
X116803884Y-30872419D01*
X117280074Y-31872419D02*
X117280074Y-30872419D01*
X117280074Y-30872419D02*
X117851502Y-31872419D01*
X117851502Y-31872419D02*
X117851502Y-30872419D01*
X118327693Y-31491466D02*
X119089598Y-31491466D01*
X118708645Y-31872419D02*
X118708645Y-31110514D01*
X116803884Y-48762475D02*
X116803884Y-47762475D01*
X117280074Y-48762475D02*
X117280074Y-47762475D01*
X117280074Y-47762475D02*
X117851502Y-48762475D01*
X117851502Y-48762475D02*
X117851502Y-47762475D01*
X118327693Y-48381522D02*
X119089598Y-48381522D01*
X138954610Y-66823306D02*
X139716514Y-66823306D01*
X139716515Y-66823306D02*
X140478419Y-66823306D01*
X140478420Y-66823306D02*
X141240324Y-66823306D01*
X141240325Y-66823306D02*
X142002229Y-66823306D01*
X142002230Y-66823306D02*
X142764134Y-66823306D01*
X139303884Y-66372419D02*
X139303884Y-65372419D01*
X139780074Y-66372419D02*
X139780074Y-65372419D01*
X139780074Y-65372419D02*
X140351502Y-66372419D01*
X140351502Y-66372419D02*
X140351502Y-65372419D01*
X141351502Y-65420038D02*
X141256264Y-65372419D01*
X141256264Y-65372419D02*
X141113407Y-65372419D01*
X141113407Y-65372419D02*
X140970550Y-65420038D01*
X140970550Y-65420038D02*
X140875312Y-65515276D01*
X140875312Y-65515276D02*
X140827693Y-65610514D01*
X140827693Y-65610514D02*
X140780074Y-65800990D01*
X140780074Y-65800990D02*
X140780074Y-65943847D01*
X140780074Y-65943847D02*
X140827693Y-66134323D01*
X140827693Y-66134323D02*
X140875312Y-66229561D01*
X140875312Y-66229561D02*
X140970550Y-66324800D01*
X140970550Y-66324800D02*
X141113407Y-66372419D01*
X141113407Y-66372419D02*
X141208645Y-66372419D01*
X141208645Y-66372419D02*
X141351502Y-66324800D01*
X141351502Y-66324800D02*
X141399121Y-66277180D01*
X141399121Y-66277180D02*
X141399121Y-65943847D01*
X141399121Y-65943847D02*
X141208645Y-65943847D01*
X141827693Y-65848609D02*
X142161026Y-65848609D01*
X142303883Y-66372419D02*
X141827693Y-66372419D01*
X141827693Y-66372419D02*
X141827693Y-65372419D01*
X141827693Y-65372419D02*
X142303883Y-65372419D01*
X142732455Y-66372419D02*
X142732455Y-65372419D01*
X142732455Y-65372419D02*
X143303883Y-66372419D01*
X143303883Y-66372419D02*
X143303883Y-65372419D01*
X139256265Y-68086704D02*
X139732455Y-68086704D01*
X139161027Y-68372419D02*
X139494360Y-67372419D01*
X139494360Y-67372419D02*
X139827693Y-68372419D01*
X140161027Y-68372419D02*
X140161027Y-67372419D01*
X140161027Y-67372419D02*
X140494360Y-68086704D01*
X140494360Y-68086704D02*
X140827693Y-67372419D01*
X140827693Y-67372419D02*
X140827693Y-68372419D01*
X141303884Y-68372419D02*
X141303884Y-67372419D01*
X141303884Y-67372419D02*
X141684836Y-67372419D01*
X141684836Y-67372419D02*
X141780074Y-67420038D01*
X141780074Y-67420038D02*
X141827693Y-67467657D01*
X141827693Y-67467657D02*
X141875312Y-67562895D01*
X141875312Y-67562895D02*
X141875312Y-67705752D01*
X141875312Y-67705752D02*
X141827693Y-67800990D01*
X141827693Y-67800990D02*
X141780074Y-67848609D01*
X141780074Y-67848609D02*
X141684836Y-67896228D01*
X141684836Y-67896228D02*
X141303884Y-67896228D01*
X159661027Y-49872419D02*
X159994360Y-50872419D01*
X159994360Y-50872419D02*
X160327693Y-49872419D01*
X160803884Y-50872419D02*
X160708646Y-50824800D01*
X160708646Y-50824800D02*
X160661027Y-50777180D01*
X160661027Y-50777180D02*
X160613408Y-50681942D01*
X160613408Y-50681942D02*
X160613408Y-50396228D01*
X160613408Y-50396228D02*
X160661027Y-50300990D01*
X160661027Y-50300990D02*
X160708646Y-50253371D01*
X160708646Y-50253371D02*
X160803884Y-50205752D01*
X160803884Y-50205752D02*
X160946741Y-50205752D01*
X160946741Y-50205752D02*
X161041979Y-50253371D01*
X161041979Y-50253371D02*
X161089598Y-50300990D01*
X161089598Y-50300990D02*
X161137217Y-50396228D01*
X161137217Y-50396228D02*
X161137217Y-50681942D01*
X161137217Y-50681942D02*
X161089598Y-50777180D01*
X161089598Y-50777180D02*
X161041979Y-50824800D01*
X161041979Y-50824800D02*
X160946741Y-50872419D01*
X160946741Y-50872419D02*
X160803884Y-50872419D01*
X161994360Y-50205752D02*
X161994360Y-50872419D01*
X161565789Y-50205752D02*
X161565789Y-50729561D01*
X161565789Y-50729561D02*
X161613408Y-50824800D01*
X161613408Y-50824800D02*
X161708646Y-50872419D01*
X161708646Y-50872419D02*
X161851503Y-50872419D01*
X161851503Y-50872419D02*
X161946741Y-50824800D01*
X161946741Y-50824800D02*
X161994360Y-50777180D01*
X162327694Y-50205752D02*
X162708646Y-50205752D01*
X162470551Y-49872419D02*
X162470551Y-50729561D01*
X162470551Y-50729561D02*
X162518170Y-50824800D01*
X162518170Y-50824800D02*
X162613408Y-50872419D01*
X162613408Y-50872419D02*
X162708646Y-50872419D01*
X163803885Y-50872419D02*
X163803885Y-50205752D01*
X163803885Y-50396228D02*
X163851504Y-50300990D01*
X163851504Y-50300990D02*
X163899123Y-50253371D01*
X163899123Y-50253371D02*
X163994361Y-50205752D01*
X163994361Y-50205752D02*
X164089599Y-50205752D01*
X164803885Y-50824800D02*
X164708647Y-50872419D01*
X164708647Y-50872419D02*
X164518171Y-50872419D01*
X164518171Y-50872419D02*
X164422933Y-50824800D01*
X164422933Y-50824800D02*
X164375314Y-50729561D01*
X164375314Y-50729561D02*
X164375314Y-50348609D01*
X164375314Y-50348609D02*
X164422933Y-50253371D01*
X164422933Y-50253371D02*
X164518171Y-50205752D01*
X164518171Y-50205752D02*
X164708647Y-50205752D01*
X164708647Y-50205752D02*
X164803885Y-50253371D01*
X164803885Y-50253371D02*
X164851504Y-50348609D01*
X164851504Y-50348609D02*
X164851504Y-50443847D01*
X164851504Y-50443847D02*
X164375314Y-50539085D01*
X165708647Y-50205752D02*
X165708647Y-51015276D01*
X165708647Y-51015276D02*
X165661028Y-51110514D01*
X165661028Y-51110514D02*
X165613409Y-51158133D01*
X165613409Y-51158133D02*
X165518171Y-51205752D01*
X165518171Y-51205752D02*
X165375314Y-51205752D01*
X165375314Y-51205752D02*
X165280076Y-51158133D01*
X165708647Y-50824800D02*
X165613409Y-50872419D01*
X165613409Y-50872419D02*
X165422933Y-50872419D01*
X165422933Y-50872419D02*
X165327695Y-50824800D01*
X165327695Y-50824800D02*
X165280076Y-50777180D01*
X165280076Y-50777180D02*
X165232457Y-50681942D01*
X165232457Y-50681942D02*
X165232457Y-50396228D01*
X165232457Y-50396228D02*
X165280076Y-50300990D01*
X165280076Y-50300990D02*
X165327695Y-50253371D01*
X165327695Y-50253371D02*
X165422933Y-50205752D01*
X165422933Y-50205752D02*
X165613409Y-50205752D01*
X165613409Y-50205752D02*
X165708647Y-50253371D01*
X169494360Y-31372419D02*
X169684836Y-31372419D01*
X169684836Y-31372419D02*
X169780074Y-31420038D01*
X169780074Y-31420038D02*
X169875312Y-31515276D01*
X169875312Y-31515276D02*
X169922931Y-31705752D01*
X169922931Y-31705752D02*
X169922931Y-32039085D01*
X169922931Y-32039085D02*
X169875312Y-32229561D01*
X169875312Y-32229561D02*
X169780074Y-32324800D01*
X169780074Y-32324800D02*
X169684836Y-32372419D01*
X169684836Y-32372419D02*
X169494360Y-32372419D01*
X169494360Y-32372419D02*
X169399122Y-32324800D01*
X169399122Y-32324800D02*
X169303884Y-32229561D01*
X169303884Y-32229561D02*
X169256265Y-32039085D01*
X169256265Y-32039085D02*
X169256265Y-31705752D01*
X169256265Y-31705752D02*
X169303884Y-31515276D01*
X169303884Y-31515276D02*
X169399122Y-31420038D01*
X169399122Y-31420038D02*
X169494360Y-31372419D01*
X170351503Y-31372419D02*
X170351503Y-32181942D01*
X170351503Y-32181942D02*
X170399122Y-32277180D01*
X170399122Y-32277180D02*
X170446741Y-32324800D01*
X170446741Y-32324800D02*
X170541979Y-32372419D01*
X170541979Y-32372419D02*
X170732455Y-32372419D01*
X170732455Y-32372419D02*
X170827693Y-32324800D01*
X170827693Y-32324800D02*
X170875312Y-32277180D01*
X170875312Y-32277180D02*
X170922931Y-32181942D01*
X170922931Y-32181942D02*
X170922931Y-31372419D01*
X171256265Y-31372419D02*
X171827693Y-31372419D01*
X171541979Y-32372419D02*
X171541979Y-31372419D01*
X172161027Y-31991466D02*
X172922932Y-31991466D01*
X172541979Y-32372419D02*
X172541979Y-31610514D01*
X169494360Y-48372419D02*
X169684836Y-48372419D01*
X169684836Y-48372419D02*
X169780074Y-48420038D01*
X169780074Y-48420038D02*
X169875312Y-48515276D01*
X169875312Y-48515276D02*
X169922931Y-48705752D01*
X169922931Y-48705752D02*
X169922931Y-49039085D01*
X169922931Y-49039085D02*
X169875312Y-49229561D01*
X169875312Y-49229561D02*
X169780074Y-49324800D01*
X169780074Y-49324800D02*
X169684836Y-49372419D01*
X169684836Y-49372419D02*
X169494360Y-49372419D01*
X169494360Y-49372419D02*
X169399122Y-49324800D01*
X169399122Y-49324800D02*
X169303884Y-49229561D01*
X169303884Y-49229561D02*
X169256265Y-49039085D01*
X169256265Y-49039085D02*
X169256265Y-48705752D01*
X169256265Y-48705752D02*
X169303884Y-48515276D01*
X169303884Y-48515276D02*
X169399122Y-48420038D01*
X169399122Y-48420038D02*
X169494360Y-48372419D01*
X170351503Y-48372419D02*
X170351503Y-49181942D01*
X170351503Y-49181942D02*
X170399122Y-49277180D01*
X170399122Y-49277180D02*
X170446741Y-49324800D01*
X170446741Y-49324800D02*
X170541979Y-49372419D01*
X170541979Y-49372419D02*
X170732455Y-49372419D01*
X170732455Y-49372419D02*
X170827693Y-49324800D01*
X170827693Y-49324800D02*
X170875312Y-49277180D01*
X170875312Y-49277180D02*
X170922931Y-49181942D01*
X170922931Y-49181942D02*
X170922931Y-48372419D01*
X171256265Y-48372419D02*
X171827693Y-48372419D01*
X171541979Y-49372419D02*
X171541979Y-48372419D01*
X172161027Y-48991466D02*
X172922932Y-48991466D01*
X170780074Y-102372419D02*
X170303884Y-102372419D01*
X170303884Y-102372419D02*
X170303884Y-101372419D01*
X171303884Y-101372419D02*
X171494360Y-101372419D01*
X171494360Y-101372419D02*
X171589598Y-101420038D01*
X171589598Y-101420038D02*
X171684836Y-101515276D01*
X171684836Y-101515276D02*
X171732455Y-101705752D01*
X171732455Y-101705752D02*
X171732455Y-102039085D01*
X171732455Y-102039085D02*
X171684836Y-102229561D01*
X171684836Y-102229561D02*
X171589598Y-102324800D01*
X171589598Y-102324800D02*
X171494360Y-102372419D01*
X171494360Y-102372419D02*
X171303884Y-102372419D01*
X171303884Y-102372419D02*
X171208646Y-102324800D01*
X171208646Y-102324800D02*
X171113408Y-102229561D01*
X171113408Y-102229561D02*
X171065789Y-102039085D01*
X171065789Y-102039085D02*
X171065789Y-101705752D01*
X171065789Y-101705752D02*
X171113408Y-101515276D01*
X171113408Y-101515276D02*
X171208646Y-101420038D01*
X171208646Y-101420038D02*
X171303884Y-101372419D01*
X172113408Y-102086704D02*
X172589598Y-102086704D01*
X172018170Y-102372419D02*
X172351503Y-101372419D01*
X172351503Y-101372419D02*
X172684836Y-102372419D01*
X173018170Y-102372419D02*
X173018170Y-101372419D01*
X173018170Y-101372419D02*
X173256265Y-101372419D01*
X173256265Y-101372419D02*
X173399122Y-101420038D01*
X173399122Y-101420038D02*
X173494360Y-101515276D01*
X173494360Y-101515276D02*
X173541979Y-101610514D01*
X173541979Y-101610514D02*
X173589598Y-101800990D01*
X173589598Y-101800990D02*
X173589598Y-101943847D01*
X173589598Y-101943847D02*
X173541979Y-102134323D01*
X173541979Y-102134323D02*
X173494360Y-102229561D01*
X173494360Y-102229561D02*
X173399122Y-102324800D01*
X173399122Y-102324800D02*
X173256265Y-102372419D01*
X173256265Y-102372419D02*
X173018170Y-102372419D01*
D11*
X120391733Y-68217833D02*
X121298400Y-68217833D01*
X121298400Y-68217833D02*
X121405066Y-68164500D01*
X121405066Y-68164500D02*
X121458400Y-68111166D01*
X121458400Y-68111166D02*
X121511733Y-68004500D01*
X121511733Y-68004500D02*
X121511733Y-67791166D01*
X121511733Y-67791166D02*
X121458400Y-67684500D01*
X121458400Y-67684500D02*
X121405066Y-67631166D01*
X121405066Y-67631166D02*
X121298400Y-67577833D01*
X121298400Y-67577833D02*
X120391733Y-67577833D01*
X120498400Y-67097833D02*
X120445066Y-67044500D01*
X120445066Y-67044500D02*
X120391733Y-66937833D01*
X120391733Y-66937833D02*
X120391733Y-66671167D01*
X120391733Y-66671167D02*
X120445066Y-66564500D01*
X120445066Y-66564500D02*
X120498400Y-66511167D01*
X120498400Y-66511167D02*
X120605066Y-66457833D01*
X120605066Y-66457833D02*
X120711733Y-66457833D01*
X120711733Y-66457833D02*
X120871733Y-66511167D01*
X120871733Y-66511167D02*
X121511733Y-67151167D01*
X121511733Y-67151167D02*
X121511733Y-66457833D01*
X151309523Y-93359580D02*
X151261904Y-93407200D01*
X151261904Y-93407200D02*
X151119047Y-93454819D01*
X151119047Y-93454819D02*
X151023809Y-93454819D01*
X151023809Y-93454819D02*
X150880952Y-93407200D01*
X150880952Y-93407200D02*
X150785714Y-93311961D01*
X150785714Y-93311961D02*
X150738095Y-93216723D01*
X150738095Y-93216723D02*
X150690476Y-93026247D01*
X150690476Y-93026247D02*
X150690476Y-92883390D01*
X150690476Y-92883390D02*
X150738095Y-92692914D01*
X150738095Y-92692914D02*
X150785714Y-92597676D01*
X150785714Y-92597676D02*
X150880952Y-92502438D01*
X150880952Y-92502438D02*
X151023809Y-92454819D01*
X151023809Y-92454819D02*
X151119047Y-92454819D01*
X151119047Y-92454819D02*
X151261904Y-92502438D01*
X151261904Y-92502438D02*
X151309523Y-92550057D01*
X151500000Y-93550057D02*
X152261904Y-93550057D01*
X152500000Y-93454819D02*
X152500000Y-92454819D01*
X152500000Y-92835771D02*
X152595238Y-92788152D01*
X152595238Y-92788152D02*
X152785714Y-92788152D01*
X152785714Y-92788152D02*
X152880952Y-92835771D01*
X152880952Y-92835771D02*
X152928571Y-92883390D01*
X152928571Y-92883390D02*
X152976190Y-92978628D01*
X152976190Y-92978628D02*
X152976190Y-93264342D01*
X152976190Y-93264342D02*
X152928571Y-93359580D01*
X152928571Y-93359580D02*
X152880952Y-93407200D01*
X152880952Y-93407200D02*
X152785714Y-93454819D01*
X152785714Y-93454819D02*
X152595238Y-93454819D01*
X152595238Y-93454819D02*
X152500000Y-93407200D01*
X153547619Y-93454819D02*
X153452381Y-93407200D01*
X153452381Y-93407200D02*
X153404762Y-93359580D01*
X153404762Y-93359580D02*
X153357143Y-93264342D01*
X153357143Y-93264342D02*
X153357143Y-92978628D01*
X153357143Y-92978628D02*
X153404762Y-92883390D01*
X153404762Y-92883390D02*
X153452381Y-92835771D01*
X153452381Y-92835771D02*
X153547619Y-92788152D01*
X153547619Y-92788152D02*
X153690476Y-92788152D01*
X153690476Y-92788152D02*
X153785714Y-92835771D01*
X153785714Y-92835771D02*
X153833333Y-92883390D01*
X153833333Y-92883390D02*
X153880952Y-92978628D01*
X153880952Y-92978628D02*
X153880952Y-93264342D01*
X153880952Y-93264342D02*
X153833333Y-93359580D01*
X153833333Y-93359580D02*
X153785714Y-93407200D01*
X153785714Y-93407200D02*
X153690476Y-93454819D01*
X153690476Y-93454819D02*
X153547619Y-93454819D01*
X154452381Y-93454819D02*
X154357143Y-93407200D01*
X154357143Y-93407200D02*
X154309524Y-93359580D01*
X154309524Y-93359580D02*
X154261905Y-93264342D01*
X154261905Y-93264342D02*
X154261905Y-92978628D01*
X154261905Y-92978628D02*
X154309524Y-92883390D01*
X154309524Y-92883390D02*
X154357143Y-92835771D01*
X154357143Y-92835771D02*
X154452381Y-92788152D01*
X154452381Y-92788152D02*
X154595238Y-92788152D01*
X154595238Y-92788152D02*
X154690476Y-92835771D01*
X154690476Y-92835771D02*
X154738095Y-92883390D01*
X154738095Y-92883390D02*
X154785714Y-92978628D01*
X154785714Y-92978628D02*
X154785714Y-93264342D01*
X154785714Y-93264342D02*
X154738095Y-93359580D01*
X154738095Y-93359580D02*
X154690476Y-93407200D01*
X154690476Y-93407200D02*
X154595238Y-93454819D01*
X154595238Y-93454819D02*
X154452381Y-93454819D01*
X155071429Y-92788152D02*
X155452381Y-92788152D01*
X155214286Y-92454819D02*
X155214286Y-93311961D01*
X155214286Y-93311961D02*
X155261905Y-93407200D01*
X155261905Y-93407200D02*
X155357143Y-93454819D01*
X155357143Y-93454819D02*
X155452381Y-93454819D01*
X156309524Y-93454819D02*
X155738096Y-93454819D01*
X156023810Y-93454819D02*
X156023810Y-92454819D01*
X156023810Y-92454819D02*
X155928572Y-92597676D01*
X155928572Y-92597676D02*
X155833334Y-92692914D01*
X155833334Y-92692914D02*
X155738096Y-92740533D01*
D10*
X143238095Y-37957419D02*
X143238095Y-38766942D01*
X143238095Y-38766942D02*
X143285714Y-38862180D01*
X143285714Y-38862180D02*
X143333333Y-38909800D01*
X143333333Y-38909800D02*
X143428571Y-38957419D01*
X143428571Y-38957419D02*
X143619047Y-38957419D01*
X143619047Y-38957419D02*
X143714285Y-38909800D01*
X143714285Y-38909800D02*
X143761904Y-38862180D01*
X143761904Y-38862180D02*
X143809523Y-38766942D01*
X143809523Y-38766942D02*
X143809523Y-37957419D01*
X144714285Y-37957419D02*
X144523809Y-37957419D01*
X144523809Y-37957419D02*
X144428571Y-38005038D01*
X144428571Y-38005038D02*
X144380952Y-38052657D01*
X144380952Y-38052657D02*
X144285714Y-38195514D01*
X144285714Y-38195514D02*
X144238095Y-38385990D01*
X144238095Y-38385990D02*
X144238095Y-38766942D01*
X144238095Y-38766942D02*
X144285714Y-38862180D01*
X144285714Y-38862180D02*
X144333333Y-38909800D01*
X144333333Y-38909800D02*
X144428571Y-38957419D01*
X144428571Y-38957419D02*
X144619047Y-38957419D01*
X144619047Y-38957419D02*
X144714285Y-38909800D01*
X144714285Y-38909800D02*
X144761904Y-38862180D01*
X144761904Y-38862180D02*
X144809523Y-38766942D01*
X144809523Y-38766942D02*
X144809523Y-38528847D01*
X144809523Y-38528847D02*
X144761904Y-38433609D01*
X144761904Y-38433609D02*
X144714285Y-38385990D01*
X144714285Y-38385990D02*
X144619047Y-38338371D01*
X144619047Y-38338371D02*
X144428571Y-38338371D01*
X144428571Y-38338371D02*
X144333333Y-38385990D01*
X144333333Y-38385990D02*
X144285714Y-38433609D01*
X144285714Y-38433609D02*
X144238095Y-38528847D01*
D11*
X116109580Y-92392857D02*
X116157200Y-92440476D01*
X116157200Y-92440476D02*
X116204819Y-92583333D01*
X116204819Y-92583333D02*
X116204819Y-92678571D01*
X116204819Y-92678571D02*
X116157200Y-92821428D01*
X116157200Y-92821428D02*
X116061961Y-92916666D01*
X116061961Y-92916666D02*
X115966723Y-92964285D01*
X115966723Y-92964285D02*
X115776247Y-93011904D01*
X115776247Y-93011904D02*
X115633390Y-93011904D01*
X115633390Y-93011904D02*
X115442914Y-92964285D01*
X115442914Y-92964285D02*
X115347676Y-92916666D01*
X115347676Y-92916666D02*
X115252438Y-92821428D01*
X115252438Y-92821428D02*
X115204819Y-92678571D01*
X115204819Y-92678571D02*
X115204819Y-92583333D01*
X115204819Y-92583333D02*
X115252438Y-92440476D01*
X115252438Y-92440476D02*
X115300057Y-92392857D01*
X116204819Y-91440476D02*
X116204819Y-92011904D01*
X116204819Y-91726190D02*
X115204819Y-91726190D01*
X115204819Y-91726190D02*
X115347676Y-91821428D01*
X115347676Y-91821428D02*
X115442914Y-91916666D01*
X115442914Y-91916666D02*
X115490533Y-92011904D01*
X116204819Y-90488095D02*
X116204819Y-91059523D01*
X116204819Y-90773809D02*
X115204819Y-90773809D01*
X115204819Y-90773809D02*
X115347676Y-90869047D01*
X115347676Y-90869047D02*
X115442914Y-90964285D01*
X115442914Y-90964285D02*
X115490533Y-91059523D01*
X116107319Y-35333333D02*
X116821604Y-35333333D01*
X116821604Y-35333333D02*
X116964461Y-35380952D01*
X116964461Y-35380952D02*
X117059700Y-35476190D01*
X117059700Y-35476190D02*
X117107319Y-35619047D01*
X117107319Y-35619047D02*
X117107319Y-35714285D01*
X116107319Y-34952380D02*
X116107319Y-34333333D01*
X116107319Y-34333333D02*
X116488271Y-34666666D01*
X116488271Y-34666666D02*
X116488271Y-34523809D01*
X116488271Y-34523809D02*
X116535890Y-34428571D01*
X116535890Y-34428571D02*
X116583509Y-34380952D01*
X116583509Y-34380952D02*
X116678747Y-34333333D01*
X116678747Y-34333333D02*
X116916842Y-34333333D01*
X116916842Y-34333333D02*
X117012080Y-34380952D01*
X117012080Y-34380952D02*
X117059700Y-34428571D01*
X117059700Y-34428571D02*
X117107319Y-34523809D01*
X117107319Y-34523809D02*
X117107319Y-34809523D01*
X117107319Y-34809523D02*
X117059700Y-34904761D01*
X117059700Y-34904761D02*
X117012080Y-34952380D01*
X83407200Y-53285713D02*
X83454819Y-53142856D01*
X83454819Y-53142856D02*
X83454819Y-52904761D01*
X83454819Y-52904761D02*
X83407200Y-52809523D01*
X83407200Y-52809523D02*
X83359580Y-52761904D01*
X83359580Y-52761904D02*
X83264342Y-52714285D01*
X83264342Y-52714285D02*
X83169104Y-52714285D01*
X83169104Y-52714285D02*
X83073866Y-52761904D01*
X83073866Y-52761904D02*
X83026247Y-52809523D01*
X83026247Y-52809523D02*
X82978628Y-52904761D01*
X82978628Y-52904761D02*
X82931009Y-53095237D01*
X82931009Y-53095237D02*
X82883390Y-53190475D01*
X82883390Y-53190475D02*
X82835771Y-53238094D01*
X82835771Y-53238094D02*
X82740533Y-53285713D01*
X82740533Y-53285713D02*
X82645295Y-53285713D01*
X82645295Y-53285713D02*
X82550057Y-53238094D01*
X82550057Y-53238094D02*
X82502438Y-53190475D01*
X82502438Y-53190475D02*
X82454819Y-53095237D01*
X82454819Y-53095237D02*
X82454819Y-52857142D01*
X82454819Y-52857142D02*
X82502438Y-52714285D01*
X83454819Y-52285713D02*
X82454819Y-52285713D01*
X82454819Y-52285713D02*
X82454819Y-52047618D01*
X82454819Y-52047618D02*
X82502438Y-51904761D01*
X82502438Y-51904761D02*
X82597676Y-51809523D01*
X82597676Y-51809523D02*
X82692914Y-51761904D01*
X82692914Y-51761904D02*
X82883390Y-51714285D01*
X82883390Y-51714285D02*
X83026247Y-51714285D01*
X83026247Y-51714285D02*
X83216723Y-51761904D01*
X83216723Y-51761904D02*
X83311961Y-51809523D01*
X83311961Y-51809523D02*
X83407200Y-51904761D01*
X83407200Y-51904761D02*
X83454819Y-52047618D01*
X83454819Y-52047618D02*
X83454819Y-52285713D01*
X156523333Y-63324819D02*
X156190000Y-62848628D01*
X155951905Y-63324819D02*
X155951905Y-62324819D01*
X155951905Y-62324819D02*
X156332857Y-62324819D01*
X156332857Y-62324819D02*
X156428095Y-62372438D01*
X156428095Y-62372438D02*
X156475714Y-62420057D01*
X156475714Y-62420057D02*
X156523333Y-62515295D01*
X156523333Y-62515295D02*
X156523333Y-62658152D01*
X156523333Y-62658152D02*
X156475714Y-62753390D01*
X156475714Y-62753390D02*
X156428095Y-62801009D01*
X156428095Y-62801009D02*
X156332857Y-62848628D01*
X156332857Y-62848628D02*
X155951905Y-62848628D01*
X156856667Y-62324819D02*
X157523333Y-62324819D01*
X157523333Y-62324819D02*
X157094762Y-63324819D01*
X164105771Y-90609580D02*
X164058152Y-90657200D01*
X164058152Y-90657200D02*
X163915295Y-90704819D01*
X163915295Y-90704819D02*
X163820057Y-90704819D01*
X163820057Y-90704819D02*
X163677200Y-90657200D01*
X163677200Y-90657200D02*
X163581962Y-90561961D01*
X163581962Y-90561961D02*
X163534343Y-90466723D01*
X163534343Y-90466723D02*
X163486724Y-90276247D01*
X163486724Y-90276247D02*
X163486724Y-90133390D01*
X163486724Y-90133390D02*
X163534343Y-89942914D01*
X163534343Y-89942914D02*
X163581962Y-89847676D01*
X163581962Y-89847676D02*
X163677200Y-89752438D01*
X163677200Y-89752438D02*
X163820057Y-89704819D01*
X163820057Y-89704819D02*
X163915295Y-89704819D01*
X163915295Y-89704819D02*
X164058152Y-89752438D01*
X164058152Y-89752438D02*
X164105771Y-89800057D01*
X164296248Y-90800057D02*
X165058152Y-90800057D01*
X165772438Y-90704819D02*
X165296248Y-90704819D01*
X165296248Y-90704819D02*
X165296248Y-89704819D01*
X166677200Y-90609580D02*
X166629581Y-90657200D01*
X166629581Y-90657200D02*
X166486724Y-90704819D01*
X166486724Y-90704819D02*
X166391486Y-90704819D01*
X166391486Y-90704819D02*
X166248629Y-90657200D01*
X166248629Y-90657200D02*
X166153391Y-90561961D01*
X166153391Y-90561961D02*
X166105772Y-90466723D01*
X166105772Y-90466723D02*
X166058153Y-90276247D01*
X166058153Y-90276247D02*
X166058153Y-90133390D01*
X166058153Y-90133390D02*
X166105772Y-89942914D01*
X166105772Y-89942914D02*
X166153391Y-89847676D01*
X166153391Y-89847676D02*
X166248629Y-89752438D01*
X166248629Y-89752438D02*
X166391486Y-89704819D01*
X166391486Y-89704819D02*
X166486724Y-89704819D01*
X166486724Y-89704819D02*
X166629581Y-89752438D01*
X166629581Y-89752438D02*
X166677200Y-89800057D01*
X166962915Y-90038152D02*
X167343867Y-90038152D01*
X167105772Y-90704819D02*
X167105772Y-89847676D01*
X167105772Y-89847676D02*
X167153391Y-89752438D01*
X167153391Y-89752438D02*
X167248629Y-89704819D01*
X167248629Y-89704819D02*
X167343867Y-89704819D01*
X167677201Y-90704819D02*
X167677201Y-90038152D01*
X167677201Y-89704819D02*
X167629582Y-89752438D01*
X167629582Y-89752438D02*
X167677201Y-89800057D01*
X167677201Y-89800057D02*
X167724820Y-89752438D01*
X167724820Y-89752438D02*
X167677201Y-89704819D01*
X167677201Y-89704819D02*
X167677201Y-89800057D01*
X168296248Y-90704819D02*
X168201010Y-90657200D01*
X168201010Y-90657200D02*
X168153391Y-90561961D01*
X168153391Y-90561961D02*
X168153391Y-89704819D01*
X168534344Y-90038152D02*
X168915296Y-90038152D01*
X168677201Y-89704819D02*
X168677201Y-90561961D01*
X168677201Y-90561961D02*
X168724820Y-90657200D01*
X168724820Y-90657200D02*
X168820058Y-90704819D01*
X168820058Y-90704819D02*
X168915296Y-90704819D01*
X169629582Y-90657200D02*
X169534344Y-90704819D01*
X169534344Y-90704819D02*
X169343868Y-90704819D01*
X169343868Y-90704819D02*
X169248630Y-90657200D01*
X169248630Y-90657200D02*
X169201011Y-90561961D01*
X169201011Y-90561961D02*
X169201011Y-90181009D01*
X169201011Y-90181009D02*
X169248630Y-90085771D01*
X169248630Y-90085771D02*
X169343868Y-90038152D01*
X169343868Y-90038152D02*
X169534344Y-90038152D01*
X169534344Y-90038152D02*
X169629582Y-90085771D01*
X169629582Y-90085771D02*
X169677201Y-90181009D01*
X169677201Y-90181009D02*
X169677201Y-90276247D01*
X169677201Y-90276247D02*
X169201011Y-90371485D01*
X170105773Y-90704819D02*
X170105773Y-90038152D01*
X170105773Y-90228628D02*
X170153392Y-90133390D01*
X170153392Y-90133390D02*
X170201011Y-90085771D01*
X170201011Y-90085771D02*
X170296249Y-90038152D01*
X170296249Y-90038152D02*
X170391487Y-90038152D01*
X171248630Y-90704819D02*
X170677202Y-90704819D01*
X170962916Y-90704819D02*
X170962916Y-89704819D01*
X170962916Y-89704819D02*
X170867678Y-89847676D01*
X170867678Y-89847676D02*
X170772440Y-89942914D01*
X170772440Y-89942914D02*
X170677202Y-89990533D01*
X130643333Y-88084819D02*
X130310000Y-87608628D01*
X130071905Y-88084819D02*
X130071905Y-87084819D01*
X130071905Y-87084819D02*
X130452857Y-87084819D01*
X130452857Y-87084819D02*
X130548095Y-87132438D01*
X130548095Y-87132438D02*
X130595714Y-87180057D01*
X130595714Y-87180057D02*
X130643333Y-87275295D01*
X130643333Y-87275295D02*
X130643333Y-87418152D01*
X130643333Y-87418152D02*
X130595714Y-87513390D01*
X130595714Y-87513390D02*
X130548095Y-87561009D01*
X130548095Y-87561009D02*
X130452857Y-87608628D01*
X130452857Y-87608628D02*
X130071905Y-87608628D01*
X130976667Y-87084819D02*
X131595714Y-87084819D01*
X131595714Y-87084819D02*
X131262381Y-87465771D01*
X131262381Y-87465771D02*
X131405238Y-87465771D01*
X131405238Y-87465771D02*
X131500476Y-87513390D01*
X131500476Y-87513390D02*
X131548095Y-87561009D01*
X131548095Y-87561009D02*
X131595714Y-87656247D01*
X131595714Y-87656247D02*
X131595714Y-87894342D01*
X131595714Y-87894342D02*
X131548095Y-87989580D01*
X131548095Y-87989580D02*
X131500476Y-88037200D01*
X131500476Y-88037200D02*
X131405238Y-88084819D01*
X131405238Y-88084819D02*
X131119524Y-88084819D01*
X131119524Y-88084819D02*
X131024286Y-88037200D01*
X131024286Y-88037200D02*
X130976667Y-87989580D01*
X154833333Y-88824819D02*
X154500000Y-88348628D01*
X154261905Y-88824819D02*
X154261905Y-87824819D01*
X154261905Y-87824819D02*
X154642857Y-87824819D01*
X154642857Y-87824819D02*
X154738095Y-87872438D01*
X154738095Y-87872438D02*
X154785714Y-87920057D01*
X154785714Y-87920057D02*
X154833333Y-88015295D01*
X154833333Y-88015295D02*
X154833333Y-88158152D01*
X154833333Y-88158152D02*
X154785714Y-88253390D01*
X154785714Y-88253390D02*
X154738095Y-88301009D01*
X154738095Y-88301009D02*
X154642857Y-88348628D01*
X154642857Y-88348628D02*
X154261905Y-88348628D01*
X155738095Y-87824819D02*
X155261905Y-87824819D01*
X155261905Y-87824819D02*
X155214286Y-88301009D01*
X155214286Y-88301009D02*
X155261905Y-88253390D01*
X155261905Y-88253390D02*
X155357143Y-88205771D01*
X155357143Y-88205771D02*
X155595238Y-88205771D01*
X155595238Y-88205771D02*
X155690476Y-88253390D01*
X155690476Y-88253390D02*
X155738095Y-88301009D01*
X155738095Y-88301009D02*
X155785714Y-88396247D01*
X155785714Y-88396247D02*
X155785714Y-88634342D01*
X155785714Y-88634342D02*
X155738095Y-88729580D01*
X155738095Y-88729580D02*
X155690476Y-88777200D01*
X155690476Y-88777200D02*
X155595238Y-88824819D01*
X155595238Y-88824819D02*
X155357143Y-88824819D01*
X155357143Y-88824819D02*
X155261905Y-88777200D01*
X155261905Y-88777200D02*
X155214286Y-88729580D01*
X130654761Y-76359580D02*
X130607142Y-76407200D01*
X130607142Y-76407200D02*
X130464285Y-76454819D01*
X130464285Y-76454819D02*
X130369047Y-76454819D01*
X130369047Y-76454819D02*
X130226190Y-76407200D01*
X130226190Y-76407200D02*
X130130952Y-76311961D01*
X130130952Y-76311961D02*
X130083333Y-76216723D01*
X130083333Y-76216723D02*
X130035714Y-76026247D01*
X130035714Y-76026247D02*
X130035714Y-75883390D01*
X130035714Y-75883390D02*
X130083333Y-75692914D01*
X130083333Y-75692914D02*
X130130952Y-75597676D01*
X130130952Y-75597676D02*
X130226190Y-75502438D01*
X130226190Y-75502438D02*
X130369047Y-75454819D01*
X130369047Y-75454819D02*
X130464285Y-75454819D01*
X130464285Y-75454819D02*
X130607142Y-75502438D01*
X130607142Y-75502438D02*
X130654761Y-75550057D01*
X130845238Y-76550057D02*
X131607142Y-76550057D01*
X132273809Y-76454819D02*
X132273809Y-75931009D01*
X132273809Y-75931009D02*
X132226190Y-75835771D01*
X132226190Y-75835771D02*
X132130952Y-75788152D01*
X132130952Y-75788152D02*
X131940476Y-75788152D01*
X131940476Y-75788152D02*
X131845238Y-75835771D01*
X132273809Y-76407200D02*
X132178571Y-76454819D01*
X132178571Y-76454819D02*
X131940476Y-76454819D01*
X131940476Y-76454819D02*
X131845238Y-76407200D01*
X131845238Y-76407200D02*
X131797619Y-76311961D01*
X131797619Y-76311961D02*
X131797619Y-76216723D01*
X131797619Y-76216723D02*
X131845238Y-76121485D01*
X131845238Y-76121485D02*
X131940476Y-76073866D01*
X131940476Y-76073866D02*
X132178571Y-76073866D01*
X132178571Y-76073866D02*
X132273809Y-76026247D01*
X132607143Y-75788152D02*
X132988095Y-75788152D01*
X132750000Y-76454819D02*
X132750000Y-75597676D01*
X132750000Y-75597676D02*
X132797619Y-75502438D01*
X132797619Y-75502438D02*
X132892857Y-75454819D01*
X132892857Y-75454819D02*
X132988095Y-75454819D01*
X133321429Y-76454819D02*
X133321429Y-75454819D01*
X133416667Y-76073866D02*
X133702381Y-76454819D01*
X133702381Y-75788152D02*
X133321429Y-76169104D01*
X134273810Y-76454819D02*
X134178572Y-76407200D01*
X134178572Y-76407200D02*
X134130953Y-76359580D01*
X134130953Y-76359580D02*
X134083334Y-76264342D01*
X134083334Y-76264342D02*
X134083334Y-75978628D01*
X134083334Y-75978628D02*
X134130953Y-75883390D01*
X134130953Y-75883390D02*
X134178572Y-75835771D01*
X134178572Y-75835771D02*
X134273810Y-75788152D01*
X134273810Y-75788152D02*
X134416667Y-75788152D01*
X134416667Y-75788152D02*
X134511905Y-75835771D01*
X134511905Y-75835771D02*
X134559524Y-75883390D01*
X134559524Y-75883390D02*
X134607143Y-75978628D01*
X134607143Y-75978628D02*
X134607143Y-76264342D01*
X134607143Y-76264342D02*
X134559524Y-76359580D01*
X134559524Y-76359580D02*
X134511905Y-76407200D01*
X134511905Y-76407200D02*
X134416667Y-76454819D01*
X134416667Y-76454819D02*
X134273810Y-76454819D01*
X135035715Y-76454819D02*
X135035715Y-75454819D01*
X135035715Y-75835771D02*
X135130953Y-75788152D01*
X135130953Y-75788152D02*
X135321429Y-75788152D01*
X135321429Y-75788152D02*
X135416667Y-75835771D01*
X135416667Y-75835771D02*
X135464286Y-75883390D01*
X135464286Y-75883390D02*
X135511905Y-75978628D01*
X135511905Y-75978628D02*
X135511905Y-76264342D01*
X135511905Y-76264342D02*
X135464286Y-76359580D01*
X135464286Y-76359580D02*
X135416667Y-76407200D01*
X135416667Y-76407200D02*
X135321429Y-76454819D01*
X135321429Y-76454819D02*
X135130953Y-76454819D01*
X135130953Y-76454819D02*
X135035715Y-76407200D01*
X136464286Y-76454819D02*
X135892858Y-76454819D01*
X136178572Y-76454819D02*
X136178572Y-75454819D01*
X136178572Y-75454819D02*
X136083334Y-75597676D01*
X136083334Y-75597676D02*
X135988096Y-75692914D01*
X135988096Y-75692914D02*
X135892858Y-75740533D01*
X82954819Y-96309523D02*
X81954819Y-96309523D01*
X81954819Y-96309523D02*
X82954819Y-95738095D01*
X82954819Y-95738095D02*
X81954819Y-95738095D01*
X81954819Y-95261904D02*
X82764342Y-95261904D01*
X82764342Y-95261904D02*
X82859580Y-95214285D01*
X82859580Y-95214285D02*
X82907200Y-95166666D01*
X82907200Y-95166666D02*
X82954819Y-95071428D01*
X82954819Y-95071428D02*
X82954819Y-94880952D01*
X82954819Y-94880952D02*
X82907200Y-94785714D01*
X82907200Y-94785714D02*
X82859580Y-94738095D01*
X82859580Y-94738095D02*
X82764342Y-94690476D01*
X82764342Y-94690476D02*
X81954819Y-94690476D01*
X82954819Y-94214285D02*
X81954819Y-94214285D01*
X81954819Y-94214285D02*
X82669104Y-93880952D01*
X82669104Y-93880952D02*
X81954819Y-93547619D01*
X81954819Y-93547619D02*
X82954819Y-93547619D01*
X82954819Y-93071428D02*
X81954819Y-93071428D01*
X81954819Y-93071428D02*
X81954819Y-92690476D01*
X81954819Y-92690476D02*
X82002438Y-92595238D01*
X82002438Y-92595238D02*
X82050057Y-92547619D01*
X82050057Y-92547619D02*
X82145295Y-92500000D01*
X82145295Y-92500000D02*
X82288152Y-92500000D01*
X82288152Y-92500000D02*
X82383390Y-92547619D01*
X82383390Y-92547619D02*
X82431009Y-92595238D01*
X82431009Y-92595238D02*
X82478628Y-92690476D01*
X82478628Y-92690476D02*
X82478628Y-93071428D01*
X82669104Y-92119047D02*
X82669104Y-91642857D01*
X82954819Y-92214285D02*
X81954819Y-91880952D01*
X81954819Y-91880952D02*
X82954819Y-91547619D01*
X82954819Y-91214285D02*
X81954819Y-91214285D01*
X81954819Y-91214285D02*
X81954819Y-90976190D01*
X81954819Y-90976190D02*
X82002438Y-90833333D01*
X82002438Y-90833333D02*
X82097676Y-90738095D01*
X82097676Y-90738095D02*
X82192914Y-90690476D01*
X82192914Y-90690476D02*
X82383390Y-90642857D01*
X82383390Y-90642857D02*
X82526247Y-90642857D01*
X82526247Y-90642857D02*
X82716723Y-90690476D01*
X82716723Y-90690476D02*
X82811961Y-90738095D01*
X82811961Y-90738095D02*
X82907200Y-90833333D01*
X82907200Y-90833333D02*
X82954819Y-90976190D01*
X82954819Y-90976190D02*
X82954819Y-91214285D01*
X130643333Y-79194819D02*
X130310000Y-78718628D01*
X130071905Y-79194819D02*
X130071905Y-78194819D01*
X130071905Y-78194819D02*
X130452857Y-78194819D01*
X130452857Y-78194819D02*
X130548095Y-78242438D01*
X130548095Y-78242438D02*
X130595714Y-78290057D01*
X130595714Y-78290057D02*
X130643333Y-78385295D01*
X130643333Y-78385295D02*
X130643333Y-78528152D01*
X130643333Y-78528152D02*
X130595714Y-78623390D01*
X130595714Y-78623390D02*
X130548095Y-78671009D01*
X130548095Y-78671009D02*
X130452857Y-78718628D01*
X130452857Y-78718628D02*
X130071905Y-78718628D01*
X131595714Y-79194819D02*
X131024286Y-79194819D01*
X131310000Y-79194819D02*
X131310000Y-78194819D01*
X131310000Y-78194819D02*
X131214762Y-78337676D01*
X131214762Y-78337676D02*
X131119524Y-78432914D01*
X131119524Y-78432914D02*
X131024286Y-78480533D01*
X121549580Y-84155238D02*
X121597200Y-84202857D01*
X121597200Y-84202857D02*
X121644819Y-84345714D01*
X121644819Y-84345714D02*
X121644819Y-84440952D01*
X121644819Y-84440952D02*
X121597200Y-84583809D01*
X121597200Y-84583809D02*
X121501961Y-84679047D01*
X121501961Y-84679047D02*
X121406723Y-84726666D01*
X121406723Y-84726666D02*
X121216247Y-84774285D01*
X121216247Y-84774285D02*
X121073390Y-84774285D01*
X121073390Y-84774285D02*
X120882914Y-84726666D01*
X120882914Y-84726666D02*
X120787676Y-84679047D01*
X120787676Y-84679047D02*
X120692438Y-84583809D01*
X120692438Y-84583809D02*
X120644819Y-84440952D01*
X120644819Y-84440952D02*
X120644819Y-84345714D01*
X120644819Y-84345714D02*
X120692438Y-84202857D01*
X120692438Y-84202857D02*
X120740057Y-84155238D01*
X121740057Y-83964762D02*
X121740057Y-83202857D01*
X121644819Y-82536190D02*
X121121009Y-82536190D01*
X121121009Y-82536190D02*
X121025771Y-82583809D01*
X121025771Y-82583809D02*
X120978152Y-82679047D01*
X120978152Y-82679047D02*
X120978152Y-82869523D01*
X120978152Y-82869523D02*
X121025771Y-82964761D01*
X121597200Y-82536190D02*
X121644819Y-82631428D01*
X121644819Y-82631428D02*
X121644819Y-82869523D01*
X121644819Y-82869523D02*
X121597200Y-82964761D01*
X121597200Y-82964761D02*
X121501961Y-83012380D01*
X121501961Y-83012380D02*
X121406723Y-83012380D01*
X121406723Y-83012380D02*
X121311485Y-82964761D01*
X121311485Y-82964761D02*
X121263866Y-82869523D01*
X121263866Y-82869523D02*
X121263866Y-82631428D01*
X121263866Y-82631428D02*
X121216247Y-82536190D01*
X120978152Y-82202856D02*
X120978152Y-81821904D01*
X121644819Y-82059999D02*
X120787676Y-82059999D01*
X120787676Y-82059999D02*
X120692438Y-82012380D01*
X120692438Y-82012380D02*
X120644819Y-81917142D01*
X120644819Y-81917142D02*
X120644819Y-81821904D01*
X121644819Y-81488570D02*
X120644819Y-81488570D01*
X121263866Y-81393332D02*
X121644819Y-81107618D01*
X120978152Y-81107618D02*
X121359104Y-81488570D01*
X121644819Y-80536189D02*
X121597200Y-80631427D01*
X121597200Y-80631427D02*
X121549580Y-80679046D01*
X121549580Y-80679046D02*
X121454342Y-80726665D01*
X121454342Y-80726665D02*
X121168628Y-80726665D01*
X121168628Y-80726665D02*
X121073390Y-80679046D01*
X121073390Y-80679046D02*
X121025771Y-80631427D01*
X121025771Y-80631427D02*
X120978152Y-80536189D01*
X120978152Y-80536189D02*
X120978152Y-80393332D01*
X120978152Y-80393332D02*
X121025771Y-80298094D01*
X121025771Y-80298094D02*
X121073390Y-80250475D01*
X121073390Y-80250475D02*
X121168628Y-80202856D01*
X121168628Y-80202856D02*
X121454342Y-80202856D01*
X121454342Y-80202856D02*
X121549580Y-80250475D01*
X121549580Y-80250475D02*
X121597200Y-80298094D01*
X121597200Y-80298094D02*
X121644819Y-80393332D01*
X121644819Y-80393332D02*
X121644819Y-80536189D01*
X121644819Y-79774284D02*
X120644819Y-79774284D01*
X121025771Y-79774284D02*
X120978152Y-79679046D01*
X120978152Y-79679046D02*
X120978152Y-79488570D01*
X120978152Y-79488570D02*
X121025771Y-79393332D01*
X121025771Y-79393332D02*
X121073390Y-79345713D01*
X121073390Y-79345713D02*
X121168628Y-79298094D01*
X121168628Y-79298094D02*
X121454342Y-79298094D01*
X121454342Y-79298094D02*
X121549580Y-79345713D01*
X121549580Y-79345713D02*
X121597200Y-79393332D01*
X121597200Y-79393332D02*
X121644819Y-79488570D01*
X121644819Y-79488570D02*
X121644819Y-79679046D01*
X121644819Y-79679046D02*
X121597200Y-79774284D01*
X120644819Y-78964760D02*
X120644819Y-78345713D01*
X120644819Y-78345713D02*
X121025771Y-78679046D01*
X121025771Y-78679046D02*
X121025771Y-78536189D01*
X121025771Y-78536189D02*
X121073390Y-78440951D01*
X121073390Y-78440951D02*
X121121009Y-78393332D01*
X121121009Y-78393332D02*
X121216247Y-78345713D01*
X121216247Y-78345713D02*
X121454342Y-78345713D01*
X121454342Y-78345713D02*
X121549580Y-78393332D01*
X121549580Y-78393332D02*
X121597200Y-78440951D01*
X121597200Y-78440951D02*
X121644819Y-78536189D01*
X121644819Y-78536189D02*
X121644819Y-78821903D01*
X121644819Y-78821903D02*
X121597200Y-78917141D01*
X121597200Y-78917141D02*
X121549580Y-78964760D01*
X134604761Y-53334819D02*
X134271428Y-52858628D01*
X134033333Y-53334819D02*
X134033333Y-52334819D01*
X134033333Y-52334819D02*
X134414285Y-52334819D01*
X134414285Y-52334819D02*
X134509523Y-52382438D01*
X134509523Y-52382438D02*
X134557142Y-52430057D01*
X134557142Y-52430057D02*
X134604761Y-52525295D01*
X134604761Y-52525295D02*
X134604761Y-52668152D01*
X134604761Y-52668152D02*
X134557142Y-52763390D01*
X134557142Y-52763390D02*
X134509523Y-52811009D01*
X134509523Y-52811009D02*
X134414285Y-52858628D01*
X134414285Y-52858628D02*
X134033333Y-52858628D01*
X134795238Y-53430057D02*
X135557142Y-53430057D01*
X135747619Y-53287200D02*
X135842857Y-53334819D01*
X135842857Y-53334819D02*
X136033333Y-53334819D01*
X136033333Y-53334819D02*
X136128571Y-53287200D01*
X136128571Y-53287200D02*
X136176190Y-53191961D01*
X136176190Y-53191961D02*
X136176190Y-53144342D01*
X136176190Y-53144342D02*
X136128571Y-53049104D01*
X136128571Y-53049104D02*
X136033333Y-53001485D01*
X136033333Y-53001485D02*
X135890476Y-53001485D01*
X135890476Y-53001485D02*
X135795238Y-52953866D01*
X135795238Y-52953866D02*
X135747619Y-52858628D01*
X135747619Y-52858628D02*
X135747619Y-52811009D01*
X135747619Y-52811009D02*
X135795238Y-52715771D01*
X135795238Y-52715771D02*
X135890476Y-52668152D01*
X135890476Y-52668152D02*
X136033333Y-52668152D01*
X136033333Y-52668152D02*
X136128571Y-52715771D01*
X136604762Y-53334819D02*
X136604762Y-52334819D01*
X137033333Y-53334819D02*
X137033333Y-52811009D01*
X137033333Y-52811009D02*
X136985714Y-52715771D01*
X136985714Y-52715771D02*
X136890476Y-52668152D01*
X136890476Y-52668152D02*
X136747619Y-52668152D01*
X136747619Y-52668152D02*
X136652381Y-52715771D01*
X136652381Y-52715771D02*
X136604762Y-52763390D01*
X137938095Y-52668152D02*
X137938095Y-53334819D01*
X137509524Y-52668152D02*
X137509524Y-53191961D01*
X137509524Y-53191961D02*
X137557143Y-53287200D01*
X137557143Y-53287200D02*
X137652381Y-53334819D01*
X137652381Y-53334819D02*
X137795238Y-53334819D01*
X137795238Y-53334819D02*
X137890476Y-53287200D01*
X137890476Y-53287200D02*
X137938095Y-53239580D01*
X138414286Y-52668152D02*
X138414286Y-53334819D01*
X138414286Y-52763390D02*
X138461905Y-52715771D01*
X138461905Y-52715771D02*
X138557143Y-52668152D01*
X138557143Y-52668152D02*
X138700000Y-52668152D01*
X138700000Y-52668152D02*
X138795238Y-52715771D01*
X138795238Y-52715771D02*
X138842857Y-52811009D01*
X138842857Y-52811009D02*
X138842857Y-53334819D01*
X139176191Y-52668152D02*
X139557143Y-52668152D01*
X139319048Y-52334819D02*
X139319048Y-53191961D01*
X139319048Y-53191961D02*
X139366667Y-53287200D01*
X139366667Y-53287200D02*
X139461905Y-53334819D01*
X139461905Y-53334819D02*
X139557143Y-53334819D01*
X140414286Y-53334819D02*
X139842858Y-53334819D01*
X140128572Y-53334819D02*
X140128572Y-52334819D01*
X140128572Y-52334819D02*
X140033334Y-52477676D01*
X140033334Y-52477676D02*
X139938096Y-52572914D01*
X139938096Y-52572914D02*
X139842858Y-52620533D01*
X82454819Y-67857142D02*
X81978628Y-68190475D01*
X82454819Y-68428570D02*
X81454819Y-68428570D01*
X81454819Y-68428570D02*
X81454819Y-68047618D01*
X81454819Y-68047618D02*
X81502438Y-67952380D01*
X81502438Y-67952380D02*
X81550057Y-67904761D01*
X81550057Y-67904761D02*
X81645295Y-67857142D01*
X81645295Y-67857142D02*
X81788152Y-67857142D01*
X81788152Y-67857142D02*
X81883390Y-67904761D01*
X81883390Y-67904761D02*
X81931009Y-67952380D01*
X81931009Y-67952380D02*
X81978628Y-68047618D01*
X81978628Y-68047618D02*
X81978628Y-68428570D01*
X81931009Y-67095237D02*
X81931009Y-67428570D01*
X82454819Y-67428570D02*
X81454819Y-67428570D01*
X81454819Y-67428570D02*
X81454819Y-66952380D01*
X82454819Y-66571427D02*
X81454819Y-66571427D01*
X82454819Y-66095237D02*
X81454819Y-66095237D01*
X81454819Y-66095237D02*
X81454819Y-65857142D01*
X81454819Y-65857142D02*
X81502438Y-65714285D01*
X81502438Y-65714285D02*
X81597676Y-65619047D01*
X81597676Y-65619047D02*
X81692914Y-65571428D01*
X81692914Y-65571428D02*
X81883390Y-65523809D01*
X81883390Y-65523809D02*
X82026247Y-65523809D01*
X82026247Y-65523809D02*
X82216723Y-65571428D01*
X82216723Y-65571428D02*
X82311961Y-65619047D01*
X82311961Y-65619047D02*
X82407200Y-65714285D01*
X82407200Y-65714285D02*
X82454819Y-65857142D01*
X82454819Y-65857142D02*
X82454819Y-66095237D01*
X135666666Y-63344819D02*
X135666666Y-64059104D01*
X135666666Y-64059104D02*
X135619047Y-64201961D01*
X135619047Y-64201961D02*
X135523809Y-64297200D01*
X135523809Y-64297200D02*
X135380952Y-64344819D01*
X135380952Y-64344819D02*
X135285714Y-64344819D01*
X136095238Y-63440057D02*
X136142857Y-63392438D01*
X136142857Y-63392438D02*
X136238095Y-63344819D01*
X136238095Y-63344819D02*
X136476190Y-63344819D01*
X136476190Y-63344819D02*
X136571428Y-63392438D01*
X136571428Y-63392438D02*
X136619047Y-63440057D01*
X136619047Y-63440057D02*
X136666666Y-63535295D01*
X136666666Y-63535295D02*
X136666666Y-63630533D01*
X136666666Y-63630533D02*
X136619047Y-63773390D01*
X136619047Y-63773390D02*
X136047619Y-64344819D01*
X136047619Y-64344819D02*
X136666666Y-64344819D01*
X163666666Y-103003069D02*
X163666666Y-103717354D01*
X163666666Y-103717354D02*
X163619047Y-103860211D01*
X163619047Y-103860211D02*
X163523809Y-103955450D01*
X163523809Y-103955450D02*
X163380952Y-104003069D01*
X163380952Y-104003069D02*
X163285714Y-104003069D01*
X164666666Y-104003069D02*
X164095238Y-104003069D01*
X164380952Y-104003069D02*
X164380952Y-103003069D01*
X164380952Y-103003069D02*
X164285714Y-103145926D01*
X164285714Y-103145926D02*
X164190476Y-103241164D01*
X164190476Y-103241164D02*
X164095238Y-103288783D01*
X166359580Y-55416666D02*
X166407200Y-55464285D01*
X166407200Y-55464285D02*
X166454819Y-55607142D01*
X166454819Y-55607142D02*
X166454819Y-55702380D01*
X166454819Y-55702380D02*
X166407200Y-55845237D01*
X166407200Y-55845237D02*
X166311961Y-55940475D01*
X166311961Y-55940475D02*
X166216723Y-55988094D01*
X166216723Y-55988094D02*
X166026247Y-56035713D01*
X166026247Y-56035713D02*
X165883390Y-56035713D01*
X165883390Y-56035713D02*
X165692914Y-55988094D01*
X165692914Y-55988094D02*
X165597676Y-55940475D01*
X165597676Y-55940475D02*
X165502438Y-55845237D01*
X165502438Y-55845237D02*
X165454819Y-55702380D01*
X165454819Y-55702380D02*
X165454819Y-55607142D01*
X165454819Y-55607142D02*
X165502438Y-55464285D01*
X165502438Y-55464285D02*
X165550057Y-55416666D01*
X165454819Y-55083332D02*
X165454819Y-54464285D01*
X165454819Y-54464285D02*
X165835771Y-54797618D01*
X165835771Y-54797618D02*
X165835771Y-54654761D01*
X165835771Y-54654761D02*
X165883390Y-54559523D01*
X165883390Y-54559523D02*
X165931009Y-54511904D01*
X165931009Y-54511904D02*
X166026247Y-54464285D01*
X166026247Y-54464285D02*
X166264342Y-54464285D01*
X166264342Y-54464285D02*
X166359580Y-54511904D01*
X166359580Y-54511904D02*
X166407200Y-54559523D01*
X166407200Y-54559523D02*
X166454819Y-54654761D01*
X166454819Y-54654761D02*
X166454819Y-54940475D01*
X166454819Y-54940475D02*
X166407200Y-55035713D01*
X166407200Y-55035713D02*
X166359580Y-55083332D01*
X131238333Y-91989580D02*
X131190714Y-92037200D01*
X131190714Y-92037200D02*
X131047857Y-92084819D01*
X131047857Y-92084819D02*
X130952619Y-92084819D01*
X130952619Y-92084819D02*
X130809762Y-92037200D01*
X130809762Y-92037200D02*
X130714524Y-91941961D01*
X130714524Y-91941961D02*
X130666905Y-91846723D01*
X130666905Y-91846723D02*
X130619286Y-91656247D01*
X130619286Y-91656247D02*
X130619286Y-91513390D01*
X130619286Y-91513390D02*
X130666905Y-91322914D01*
X130666905Y-91322914D02*
X130714524Y-91227676D01*
X130714524Y-91227676D02*
X130809762Y-91132438D01*
X130809762Y-91132438D02*
X130952619Y-91084819D01*
X130952619Y-91084819D02*
X131047857Y-91084819D01*
X131047857Y-91084819D02*
X131190714Y-91132438D01*
X131190714Y-91132438D02*
X131238333Y-91180057D01*
X132143095Y-91084819D02*
X131666905Y-91084819D01*
X131666905Y-91084819D02*
X131619286Y-91561009D01*
X131619286Y-91561009D02*
X131666905Y-91513390D01*
X131666905Y-91513390D02*
X131762143Y-91465771D01*
X131762143Y-91465771D02*
X132000238Y-91465771D01*
X132000238Y-91465771D02*
X132095476Y-91513390D01*
X132095476Y-91513390D02*
X132143095Y-91561009D01*
X132143095Y-91561009D02*
X132190714Y-91656247D01*
X132190714Y-91656247D02*
X132190714Y-91894342D01*
X132190714Y-91894342D02*
X132143095Y-91989580D01*
X132143095Y-91989580D02*
X132095476Y-92037200D01*
X132095476Y-92037200D02*
X132000238Y-92084819D01*
X132000238Y-92084819D02*
X131762143Y-92084819D01*
X131762143Y-92084819D02*
X131666905Y-92037200D01*
X131666905Y-92037200D02*
X131619286Y-91989580D01*
X154833333Y-84824819D02*
X154500000Y-84348628D01*
X154261905Y-84824819D02*
X154261905Y-83824819D01*
X154261905Y-83824819D02*
X154642857Y-83824819D01*
X154642857Y-83824819D02*
X154738095Y-83872438D01*
X154738095Y-83872438D02*
X154785714Y-83920057D01*
X154785714Y-83920057D02*
X154833333Y-84015295D01*
X154833333Y-84015295D02*
X154833333Y-84158152D01*
X154833333Y-84158152D02*
X154785714Y-84253390D01*
X154785714Y-84253390D02*
X154738095Y-84301009D01*
X154738095Y-84301009D02*
X154642857Y-84348628D01*
X154642857Y-84348628D02*
X154261905Y-84348628D01*
X155214286Y-83920057D02*
X155261905Y-83872438D01*
X155261905Y-83872438D02*
X155357143Y-83824819D01*
X155357143Y-83824819D02*
X155595238Y-83824819D01*
X155595238Y-83824819D02*
X155690476Y-83872438D01*
X155690476Y-83872438D02*
X155738095Y-83920057D01*
X155738095Y-83920057D02*
X155785714Y-84015295D01*
X155785714Y-84015295D02*
X155785714Y-84110533D01*
X155785714Y-84110533D02*
X155738095Y-84253390D01*
X155738095Y-84253390D02*
X155166667Y-84824819D01*
X155166667Y-84824819D02*
X155785714Y-84824819D01*
X140728095Y-76819819D02*
X140728095Y-77629342D01*
X140728095Y-77629342D02*
X140775714Y-77724580D01*
X140775714Y-77724580D02*
X140823333Y-77772200D01*
X140823333Y-77772200D02*
X140918571Y-77819819D01*
X140918571Y-77819819D02*
X141109047Y-77819819D01*
X141109047Y-77819819D02*
X141204285Y-77772200D01*
X141204285Y-77772200D02*
X141251904Y-77724580D01*
X141251904Y-77724580D02*
X141299523Y-77629342D01*
X141299523Y-77629342D02*
X141299523Y-76819819D01*
X142299523Y-77819819D02*
X141728095Y-77819819D01*
X142013809Y-77819819D02*
X142013809Y-76819819D01*
X142013809Y-76819819D02*
X141918571Y-76962676D01*
X141918571Y-76962676D02*
X141823333Y-77057914D01*
X141823333Y-77057914D02*
X141728095Y-77105533D01*
X139749761Y-70167557D02*
X139654523Y-70119938D01*
X139654523Y-70119938D02*
X139559285Y-70024700D01*
X139559285Y-70024700D02*
X139416428Y-69881842D01*
X139416428Y-69881842D02*
X139321190Y-69834223D01*
X139321190Y-69834223D02*
X139225952Y-69834223D01*
X139273571Y-70072319D02*
X139178333Y-70024700D01*
X139178333Y-70024700D02*
X139083095Y-69929461D01*
X139083095Y-69929461D02*
X139035476Y-69738985D01*
X139035476Y-69738985D02*
X139035476Y-69405652D01*
X139035476Y-69405652D02*
X139083095Y-69215176D01*
X139083095Y-69215176D02*
X139178333Y-69119938D01*
X139178333Y-69119938D02*
X139273571Y-69072319D01*
X139273571Y-69072319D02*
X139464047Y-69072319D01*
X139464047Y-69072319D02*
X139559285Y-69119938D01*
X139559285Y-69119938D02*
X139654523Y-69215176D01*
X139654523Y-69215176D02*
X139702142Y-69405652D01*
X139702142Y-69405652D02*
X139702142Y-69738985D01*
X139702142Y-69738985D02*
X139654523Y-69929461D01*
X139654523Y-69929461D02*
X139559285Y-70024700D01*
X139559285Y-70024700D02*
X139464047Y-70072319D01*
X139464047Y-70072319D02*
X139273571Y-70072319D01*
X140654523Y-70072319D02*
X140083095Y-70072319D01*
X140368809Y-70072319D02*
X140368809Y-69072319D01*
X140368809Y-69072319D02*
X140273571Y-69215176D01*
X140273571Y-69215176D02*
X140178333Y-69310414D01*
X140178333Y-69310414D02*
X140083095Y-69358033D01*
X162359580Y-55416666D02*
X162407200Y-55464285D01*
X162407200Y-55464285D02*
X162454819Y-55607142D01*
X162454819Y-55607142D02*
X162454819Y-55702380D01*
X162454819Y-55702380D02*
X162407200Y-55845237D01*
X162407200Y-55845237D02*
X162311961Y-55940475D01*
X162311961Y-55940475D02*
X162216723Y-55988094D01*
X162216723Y-55988094D02*
X162026247Y-56035713D01*
X162026247Y-56035713D02*
X161883390Y-56035713D01*
X161883390Y-56035713D02*
X161692914Y-55988094D01*
X161692914Y-55988094D02*
X161597676Y-55940475D01*
X161597676Y-55940475D02*
X161502438Y-55845237D01*
X161502438Y-55845237D02*
X161454819Y-55702380D01*
X161454819Y-55702380D02*
X161454819Y-55607142D01*
X161454819Y-55607142D02*
X161502438Y-55464285D01*
X161502438Y-55464285D02*
X161550057Y-55416666D01*
X161788152Y-54559523D02*
X162454819Y-54559523D01*
X161407200Y-54797618D02*
X162121485Y-55035713D01*
X162121485Y-55035713D02*
X162121485Y-54416666D01*
X145296905Y-104174819D02*
X145296905Y-103174819D01*
X145296905Y-103174819D02*
X145535000Y-103174819D01*
X145535000Y-103174819D02*
X145677857Y-103222438D01*
X145677857Y-103222438D02*
X145773095Y-103317676D01*
X145773095Y-103317676D02*
X145820714Y-103412914D01*
X145820714Y-103412914D02*
X145868333Y-103603390D01*
X145868333Y-103603390D02*
X145868333Y-103746247D01*
X145868333Y-103746247D02*
X145820714Y-103936723D01*
X145820714Y-103936723D02*
X145773095Y-104031961D01*
X145773095Y-104031961D02*
X145677857Y-104127200D01*
X145677857Y-104127200D02*
X145535000Y-104174819D01*
X145535000Y-104174819D02*
X145296905Y-104174819D01*
X146249286Y-103270057D02*
X146296905Y-103222438D01*
X146296905Y-103222438D02*
X146392143Y-103174819D01*
X146392143Y-103174819D02*
X146630238Y-103174819D01*
X146630238Y-103174819D02*
X146725476Y-103222438D01*
X146725476Y-103222438D02*
X146773095Y-103270057D01*
X146773095Y-103270057D02*
X146820714Y-103365295D01*
X146820714Y-103365295D02*
X146820714Y-103460533D01*
X146820714Y-103460533D02*
X146773095Y-103603390D01*
X146773095Y-103603390D02*
X146201667Y-104174819D01*
X146201667Y-104174819D02*
X146820714Y-104174819D01*
X153393095Y-103054819D02*
X153393095Y-102054819D01*
X153964523Y-103054819D02*
X153535952Y-102483390D01*
X153964523Y-102054819D02*
X153393095Y-102626247D01*
X176304819Y-79166666D02*
X176304819Y-79642856D01*
X176304819Y-79642856D02*
X175304819Y-79642856D01*
X176304819Y-78309523D02*
X176304819Y-78880951D01*
X176304819Y-78595237D02*
X175304819Y-78595237D01*
X175304819Y-78595237D02*
X175447676Y-78690475D01*
X175447676Y-78690475D02*
X175542914Y-78785713D01*
X175542914Y-78785713D02*
X175590533Y-78880951D01*
X130643333Y-84274819D02*
X130310000Y-83798628D01*
X130071905Y-84274819D02*
X130071905Y-83274819D01*
X130071905Y-83274819D02*
X130452857Y-83274819D01*
X130452857Y-83274819D02*
X130548095Y-83322438D01*
X130548095Y-83322438D02*
X130595714Y-83370057D01*
X130595714Y-83370057D02*
X130643333Y-83465295D01*
X130643333Y-83465295D02*
X130643333Y-83608152D01*
X130643333Y-83608152D02*
X130595714Y-83703390D01*
X130595714Y-83703390D02*
X130548095Y-83751009D01*
X130548095Y-83751009D02*
X130452857Y-83798628D01*
X130452857Y-83798628D02*
X130071905Y-83798628D01*
X131500476Y-83608152D02*
X131500476Y-84274819D01*
X131262381Y-83227200D02*
X131024286Y-83941485D01*
X131024286Y-83941485D02*
X131643333Y-83941485D01*
X144654761Y-70359580D02*
X144607142Y-70407200D01*
X144607142Y-70407200D02*
X144464285Y-70454819D01*
X144464285Y-70454819D02*
X144369047Y-70454819D01*
X144369047Y-70454819D02*
X144226190Y-70407200D01*
X144226190Y-70407200D02*
X144130952Y-70311961D01*
X144130952Y-70311961D02*
X144083333Y-70216723D01*
X144083333Y-70216723D02*
X144035714Y-70026247D01*
X144035714Y-70026247D02*
X144035714Y-69883390D01*
X144035714Y-69883390D02*
X144083333Y-69692914D01*
X144083333Y-69692914D02*
X144130952Y-69597676D01*
X144130952Y-69597676D02*
X144226190Y-69502438D01*
X144226190Y-69502438D02*
X144369047Y-69454819D01*
X144369047Y-69454819D02*
X144464285Y-69454819D01*
X144464285Y-69454819D02*
X144607142Y-69502438D01*
X144607142Y-69502438D02*
X144654761Y-69550057D01*
X144845238Y-70550057D02*
X145607142Y-70550057D01*
X146273809Y-70454819D02*
X146273809Y-69931009D01*
X146273809Y-69931009D02*
X146226190Y-69835771D01*
X146226190Y-69835771D02*
X146130952Y-69788152D01*
X146130952Y-69788152D02*
X145940476Y-69788152D01*
X145940476Y-69788152D02*
X145845238Y-69835771D01*
X146273809Y-70407200D02*
X146178571Y-70454819D01*
X146178571Y-70454819D02*
X145940476Y-70454819D01*
X145940476Y-70454819D02*
X145845238Y-70407200D01*
X145845238Y-70407200D02*
X145797619Y-70311961D01*
X145797619Y-70311961D02*
X145797619Y-70216723D01*
X145797619Y-70216723D02*
X145845238Y-70121485D01*
X145845238Y-70121485D02*
X145940476Y-70073866D01*
X145940476Y-70073866D02*
X146178571Y-70073866D01*
X146178571Y-70073866D02*
X146273809Y-70026247D01*
X146607143Y-69788152D02*
X146988095Y-69788152D01*
X146750000Y-70454819D02*
X146750000Y-69597676D01*
X146750000Y-69597676D02*
X146797619Y-69502438D01*
X146797619Y-69502438D02*
X146892857Y-69454819D01*
X146892857Y-69454819D02*
X146988095Y-69454819D01*
X147321429Y-70454819D02*
X147321429Y-69454819D01*
X147416667Y-70073866D02*
X147702381Y-70454819D01*
X147702381Y-69788152D02*
X147321429Y-70169104D01*
X148273810Y-70454819D02*
X148178572Y-70407200D01*
X148178572Y-70407200D02*
X148130953Y-70359580D01*
X148130953Y-70359580D02*
X148083334Y-70264342D01*
X148083334Y-70264342D02*
X148083334Y-69978628D01*
X148083334Y-69978628D02*
X148130953Y-69883390D01*
X148130953Y-69883390D02*
X148178572Y-69835771D01*
X148178572Y-69835771D02*
X148273810Y-69788152D01*
X148273810Y-69788152D02*
X148416667Y-69788152D01*
X148416667Y-69788152D02*
X148511905Y-69835771D01*
X148511905Y-69835771D02*
X148559524Y-69883390D01*
X148559524Y-69883390D02*
X148607143Y-69978628D01*
X148607143Y-69978628D02*
X148607143Y-70264342D01*
X148607143Y-70264342D02*
X148559524Y-70359580D01*
X148559524Y-70359580D02*
X148511905Y-70407200D01*
X148511905Y-70407200D02*
X148416667Y-70454819D01*
X148416667Y-70454819D02*
X148273810Y-70454819D01*
X149035715Y-70454819D02*
X149035715Y-69454819D01*
X149035715Y-69835771D02*
X149130953Y-69788152D01*
X149130953Y-69788152D02*
X149321429Y-69788152D01*
X149321429Y-69788152D02*
X149416667Y-69835771D01*
X149416667Y-69835771D02*
X149464286Y-69883390D01*
X149464286Y-69883390D02*
X149511905Y-69978628D01*
X149511905Y-69978628D02*
X149511905Y-70264342D01*
X149511905Y-70264342D02*
X149464286Y-70359580D01*
X149464286Y-70359580D02*
X149416667Y-70407200D01*
X149416667Y-70407200D02*
X149321429Y-70454819D01*
X149321429Y-70454819D02*
X149130953Y-70454819D01*
X149130953Y-70454819D02*
X149035715Y-70407200D01*
X149892858Y-69550057D02*
X149940477Y-69502438D01*
X149940477Y-69502438D02*
X150035715Y-69454819D01*
X150035715Y-69454819D02*
X150273810Y-69454819D01*
X150273810Y-69454819D02*
X150369048Y-69502438D01*
X150369048Y-69502438D02*
X150416667Y-69550057D01*
X150416667Y-69550057D02*
X150464286Y-69645295D01*
X150464286Y-69645295D02*
X150464286Y-69740533D01*
X150464286Y-69740533D02*
X150416667Y-69883390D01*
X150416667Y-69883390D02*
X149845239Y-70454819D01*
X149845239Y-70454819D02*
X150464286Y-70454819D01*
X126324819Y-80976666D02*
X125848628Y-81309999D01*
X126324819Y-81548094D02*
X125324819Y-81548094D01*
X125324819Y-81548094D02*
X125324819Y-81167142D01*
X125324819Y-81167142D02*
X125372438Y-81071904D01*
X125372438Y-81071904D02*
X125420057Y-81024285D01*
X125420057Y-81024285D02*
X125515295Y-80976666D01*
X125515295Y-80976666D02*
X125658152Y-80976666D01*
X125658152Y-80976666D02*
X125753390Y-81024285D01*
X125753390Y-81024285D02*
X125801009Y-81071904D01*
X125801009Y-81071904D02*
X125848628Y-81167142D01*
X125848628Y-81167142D02*
X125848628Y-81548094D01*
X125324819Y-80119523D02*
X125324819Y-80309999D01*
X125324819Y-80309999D02*
X125372438Y-80405237D01*
X125372438Y-80405237D02*
X125420057Y-80452856D01*
X125420057Y-80452856D02*
X125562914Y-80548094D01*
X125562914Y-80548094D02*
X125753390Y-80595713D01*
X125753390Y-80595713D02*
X126134342Y-80595713D01*
X126134342Y-80595713D02*
X126229580Y-80548094D01*
X126229580Y-80548094D02*
X126277200Y-80500475D01*
X126277200Y-80500475D02*
X126324819Y-80405237D01*
X126324819Y-80405237D02*
X126324819Y-80214761D01*
X126324819Y-80214761D02*
X126277200Y-80119523D01*
X126277200Y-80119523D02*
X126229580Y-80071904D01*
X126229580Y-80071904D02*
X126134342Y-80024285D01*
X126134342Y-80024285D02*
X125896247Y-80024285D01*
X125896247Y-80024285D02*
X125801009Y-80071904D01*
X125801009Y-80071904D02*
X125753390Y-80119523D01*
X125753390Y-80119523D02*
X125705771Y-80214761D01*
X125705771Y-80214761D02*
X125705771Y-80405237D01*
X125705771Y-80405237D02*
X125753390Y-80500475D01*
X125753390Y-80500475D02*
X125801009Y-80548094D01*
X125801009Y-80548094D02*
X125896247Y-80595713D01*
X98699027Y-85609819D02*
X98699027Y-86419342D01*
X98699027Y-86419342D02*
X98746646Y-86514580D01*
X98746646Y-86514580D02*
X98794265Y-86562200D01*
X98794265Y-86562200D02*
X98889503Y-86609819D01*
X98889503Y-86609819D02*
X99079979Y-86609819D01*
X99079979Y-86609819D02*
X99175217Y-86562200D01*
X99175217Y-86562200D02*
X99222836Y-86514580D01*
X99222836Y-86514580D02*
X99270455Y-86419342D01*
X99270455Y-86419342D02*
X99270455Y-85609819D01*
X100175217Y-85943152D02*
X100175217Y-86609819D01*
X99937122Y-85562200D02*
X99699027Y-86276485D01*
X99699027Y-86276485D02*
X100318074Y-86276485D01*
D10*
X92896549Y-56796966D02*
X92896549Y-57263633D01*
X92729883Y-56530300D02*
X92563216Y-57030300D01*
X92563216Y-57030300D02*
X92996549Y-57030300D01*
X93196550Y-56563633D02*
X93629883Y-56563633D01*
X93629883Y-56563633D02*
X93396550Y-56830300D01*
X93396550Y-56830300D02*
X93496550Y-56830300D01*
X93496550Y-56830300D02*
X93563216Y-56863633D01*
X93563216Y-56863633D02*
X93596550Y-56896966D01*
X93596550Y-56896966D02*
X93629883Y-56963633D01*
X93629883Y-56963633D02*
X93629883Y-57130300D01*
X93629883Y-57130300D02*
X93596550Y-57196966D01*
X93596550Y-57196966D02*
X93563216Y-57230300D01*
X93563216Y-57230300D02*
X93496550Y-57263633D01*
X93496550Y-57263633D02*
X93296550Y-57263633D01*
X93296550Y-57263633D02*
X93229883Y-57230300D01*
X93229883Y-57230300D02*
X93196550Y-57196966D01*
X92896549Y-59336966D02*
X92896549Y-59803633D01*
X92729883Y-59070300D02*
X92563216Y-59570300D01*
X92563216Y-59570300D02*
X92996549Y-59570300D01*
X93563216Y-59336966D02*
X93563216Y-59803633D01*
X93396550Y-59070300D02*
X93229883Y-59570300D01*
X93229883Y-59570300D02*
X93663216Y-59570300D01*
X92963216Y-62343633D02*
X92563216Y-62343633D01*
X92763216Y-62343633D02*
X92763216Y-61643633D01*
X92763216Y-61643633D02*
X92696549Y-61743633D01*
X92696549Y-61743633D02*
X92629883Y-61810300D01*
X92629883Y-61810300D02*
X92563216Y-61843633D01*
X93363216Y-61943633D02*
X93296550Y-61910300D01*
X93296550Y-61910300D02*
X93263216Y-61876966D01*
X93263216Y-61876966D02*
X93229883Y-61810300D01*
X93229883Y-61810300D02*
X93229883Y-61776966D01*
X93229883Y-61776966D02*
X93263216Y-61710300D01*
X93263216Y-61710300D02*
X93296550Y-61676966D01*
X93296550Y-61676966D02*
X93363216Y-61643633D01*
X93363216Y-61643633D02*
X93496550Y-61643633D01*
X93496550Y-61643633D02*
X93563216Y-61676966D01*
X93563216Y-61676966D02*
X93596550Y-61710300D01*
X93596550Y-61710300D02*
X93629883Y-61776966D01*
X93629883Y-61776966D02*
X93629883Y-61810300D01*
X93629883Y-61810300D02*
X93596550Y-61876966D01*
X93596550Y-61876966D02*
X93563216Y-61910300D01*
X93563216Y-61910300D02*
X93496550Y-61943633D01*
X93496550Y-61943633D02*
X93363216Y-61943633D01*
X93363216Y-61943633D02*
X93296550Y-61976966D01*
X93296550Y-61976966D02*
X93263216Y-62010300D01*
X93263216Y-62010300D02*
X93229883Y-62076966D01*
X93229883Y-62076966D02*
X93229883Y-62210300D01*
X93229883Y-62210300D02*
X93263216Y-62276966D01*
X93263216Y-62276966D02*
X93296550Y-62310300D01*
X93296550Y-62310300D02*
X93363216Y-62343633D01*
X93363216Y-62343633D02*
X93496550Y-62343633D01*
X93496550Y-62343633D02*
X93563216Y-62310300D01*
X93563216Y-62310300D02*
X93596550Y-62276966D01*
X93596550Y-62276966D02*
X93629883Y-62210300D01*
X93629883Y-62210300D02*
X93629883Y-62076966D01*
X93629883Y-62076966D02*
X93596550Y-62010300D01*
X93596550Y-62010300D02*
X93563216Y-61976966D01*
X93563216Y-61976966D02*
X93496550Y-61943633D01*
X92963216Y-64883633D02*
X92563216Y-64883633D01*
X92763216Y-64883633D02*
X92763216Y-64183633D01*
X92763216Y-64183633D02*
X92696549Y-64283633D01*
X92696549Y-64283633D02*
X92629883Y-64350300D01*
X92629883Y-64350300D02*
X92563216Y-64383633D01*
X93196550Y-64183633D02*
X93663216Y-64183633D01*
X93663216Y-64183633D02*
X93363216Y-64883633D01*
X92563216Y-66790300D02*
X92596549Y-66756966D01*
X92596549Y-66756966D02*
X92663216Y-66723633D01*
X92663216Y-66723633D02*
X92829883Y-66723633D01*
X92829883Y-66723633D02*
X92896549Y-66756966D01*
X92896549Y-66756966D02*
X92929883Y-66790300D01*
X92929883Y-66790300D02*
X92963216Y-66856966D01*
X92963216Y-66856966D02*
X92963216Y-66923633D01*
X92963216Y-66923633D02*
X92929883Y-67023633D01*
X92929883Y-67023633D02*
X92529883Y-67423633D01*
X92529883Y-67423633D02*
X92963216Y-67423633D01*
X93629883Y-67423633D02*
X93229883Y-67423633D01*
X93429883Y-67423633D02*
X93429883Y-66723633D01*
X93429883Y-66723633D02*
X93363216Y-66823633D01*
X93363216Y-66823633D02*
X93296550Y-66890300D01*
X93296550Y-66890300D02*
X93229883Y-66923633D01*
X92963216Y-69963633D02*
X92563216Y-69963633D01*
X92763216Y-69963633D02*
X92763216Y-69263633D01*
X92763216Y-69263633D02*
X92696549Y-69363633D01*
X92696549Y-69363633D02*
X92629883Y-69430300D01*
X92629883Y-69430300D02*
X92563216Y-69463633D01*
X93563216Y-69263633D02*
X93429883Y-69263633D01*
X93429883Y-69263633D02*
X93363216Y-69296966D01*
X93363216Y-69296966D02*
X93329883Y-69330300D01*
X93329883Y-69330300D02*
X93263216Y-69430300D01*
X93263216Y-69430300D02*
X93229883Y-69563633D01*
X93229883Y-69563633D02*
X93229883Y-69830300D01*
X93229883Y-69830300D02*
X93263216Y-69896966D01*
X93263216Y-69896966D02*
X93296550Y-69930300D01*
X93296550Y-69930300D02*
X93363216Y-69963633D01*
X93363216Y-69963633D02*
X93496550Y-69963633D01*
X93496550Y-69963633D02*
X93563216Y-69930300D01*
X93563216Y-69930300D02*
X93596550Y-69896966D01*
X93596550Y-69896966D02*
X93629883Y-69830300D01*
X93629883Y-69830300D02*
X93629883Y-69663633D01*
X93629883Y-69663633D02*
X93596550Y-69596966D01*
X93596550Y-69596966D02*
X93563216Y-69563633D01*
X93563216Y-69563633D02*
X93496550Y-69530300D01*
X93496550Y-69530300D02*
X93363216Y-69530300D01*
X93363216Y-69530300D02*
X93296550Y-69563633D01*
X93296550Y-69563633D02*
X93263216Y-69596966D01*
X93263216Y-69596966D02*
X93229883Y-69663633D01*
X92546550Y-72503633D02*
X92546550Y-71803633D01*
X92546550Y-71803633D02*
X92946550Y-72503633D01*
X92946550Y-72503633D02*
X92946550Y-71803633D01*
X93679883Y-72436966D02*
X93646550Y-72470300D01*
X93646550Y-72470300D02*
X93546550Y-72503633D01*
X93546550Y-72503633D02*
X93479883Y-72503633D01*
X93479883Y-72503633D02*
X93379883Y-72470300D01*
X93379883Y-72470300D02*
X93313217Y-72403633D01*
X93313217Y-72403633D02*
X93279883Y-72336966D01*
X93279883Y-72336966D02*
X93246550Y-72203633D01*
X93246550Y-72203633D02*
X93246550Y-72103633D01*
X93246550Y-72103633D02*
X93279883Y-71970300D01*
X93279883Y-71970300D02*
X93313217Y-71903633D01*
X93313217Y-71903633D02*
X93379883Y-71836966D01*
X93379883Y-71836966D02*
X93479883Y-71803633D01*
X93479883Y-71803633D02*
X93546550Y-71803633D01*
X93546550Y-71803633D02*
X93646550Y-71836966D01*
X93646550Y-71836966D02*
X93679883Y-71870300D01*
X92577599Y-51516966D02*
X92510932Y-51483633D01*
X92510932Y-51483633D02*
X92410932Y-51483633D01*
X92410932Y-51483633D02*
X92310932Y-51516966D01*
X92310932Y-51516966D02*
X92244266Y-51583633D01*
X92244266Y-51583633D02*
X92210932Y-51650300D01*
X92210932Y-51650300D02*
X92177599Y-51783633D01*
X92177599Y-51783633D02*
X92177599Y-51883633D01*
X92177599Y-51883633D02*
X92210932Y-52016966D01*
X92210932Y-52016966D02*
X92244266Y-52083633D01*
X92244266Y-52083633D02*
X92310932Y-52150300D01*
X92310932Y-52150300D02*
X92410932Y-52183633D01*
X92410932Y-52183633D02*
X92477599Y-52183633D01*
X92477599Y-52183633D02*
X92577599Y-52150300D01*
X92577599Y-52150300D02*
X92610932Y-52116966D01*
X92610932Y-52116966D02*
X92610932Y-51883633D01*
X92610932Y-51883633D02*
X92477599Y-51883633D01*
X92910932Y-52183633D02*
X92910932Y-51483633D01*
X92910932Y-51483633D02*
X93310932Y-52183633D01*
X93310932Y-52183633D02*
X93310932Y-51483633D01*
X93644265Y-52183633D02*
X93644265Y-51483633D01*
X93644265Y-51483633D02*
X93810932Y-51483633D01*
X93810932Y-51483633D02*
X93910932Y-51516966D01*
X93910932Y-51516966D02*
X93977599Y-51583633D01*
X93977599Y-51583633D02*
X94010932Y-51650300D01*
X94010932Y-51650300D02*
X94044265Y-51783633D01*
X94044265Y-51783633D02*
X94044265Y-51883633D01*
X94044265Y-51883633D02*
X94010932Y-52016966D01*
X94010932Y-52016966D02*
X93977599Y-52083633D01*
X93977599Y-52083633D02*
X93910932Y-52150300D01*
X93910932Y-52150300D02*
X93810932Y-52183633D01*
X93810932Y-52183633D02*
X93644265Y-52183633D01*
X92577599Y-54056966D02*
X92510932Y-54023633D01*
X92510932Y-54023633D02*
X92410932Y-54023633D01*
X92410932Y-54023633D02*
X92310932Y-54056966D01*
X92310932Y-54056966D02*
X92244266Y-54123633D01*
X92244266Y-54123633D02*
X92210932Y-54190300D01*
X92210932Y-54190300D02*
X92177599Y-54323633D01*
X92177599Y-54323633D02*
X92177599Y-54423633D01*
X92177599Y-54423633D02*
X92210932Y-54556966D01*
X92210932Y-54556966D02*
X92244266Y-54623633D01*
X92244266Y-54623633D02*
X92310932Y-54690300D01*
X92310932Y-54690300D02*
X92410932Y-54723633D01*
X92410932Y-54723633D02*
X92477599Y-54723633D01*
X92477599Y-54723633D02*
X92577599Y-54690300D01*
X92577599Y-54690300D02*
X92610932Y-54656966D01*
X92610932Y-54656966D02*
X92610932Y-54423633D01*
X92610932Y-54423633D02*
X92477599Y-54423633D01*
X92910932Y-54723633D02*
X92910932Y-54023633D01*
X92910932Y-54023633D02*
X93310932Y-54723633D01*
X93310932Y-54723633D02*
X93310932Y-54023633D01*
X93644265Y-54723633D02*
X93644265Y-54023633D01*
X93644265Y-54023633D02*
X93810932Y-54023633D01*
X93810932Y-54023633D02*
X93910932Y-54056966D01*
X93910932Y-54056966D02*
X93977599Y-54123633D01*
X93977599Y-54123633D02*
X94010932Y-54190300D01*
X94010932Y-54190300D02*
X94044265Y-54323633D01*
X94044265Y-54323633D02*
X94044265Y-54423633D01*
X94044265Y-54423633D02*
X94010932Y-54556966D01*
X94010932Y-54556966D02*
X93977599Y-54623633D01*
X93977599Y-54623633D02*
X93910932Y-54690300D01*
X93910932Y-54690300D02*
X93810932Y-54723633D01*
X93810932Y-54723633D02*
X93644265Y-54723633D01*
X92577599Y-74376966D02*
X92510932Y-74343633D01*
X92510932Y-74343633D02*
X92410932Y-74343633D01*
X92410932Y-74343633D02*
X92310932Y-74376966D01*
X92310932Y-74376966D02*
X92244266Y-74443633D01*
X92244266Y-74443633D02*
X92210932Y-74510300D01*
X92210932Y-74510300D02*
X92177599Y-74643633D01*
X92177599Y-74643633D02*
X92177599Y-74743633D01*
X92177599Y-74743633D02*
X92210932Y-74876966D01*
X92210932Y-74876966D02*
X92244266Y-74943633D01*
X92244266Y-74943633D02*
X92310932Y-75010300D01*
X92310932Y-75010300D02*
X92410932Y-75043633D01*
X92410932Y-75043633D02*
X92477599Y-75043633D01*
X92477599Y-75043633D02*
X92577599Y-75010300D01*
X92577599Y-75010300D02*
X92610932Y-74976966D01*
X92610932Y-74976966D02*
X92610932Y-74743633D01*
X92610932Y-74743633D02*
X92477599Y-74743633D01*
X92910932Y-75043633D02*
X92910932Y-74343633D01*
X92910932Y-74343633D02*
X93310932Y-75043633D01*
X93310932Y-75043633D02*
X93310932Y-74343633D01*
X93644265Y-75043633D02*
X93644265Y-74343633D01*
X93644265Y-74343633D02*
X93810932Y-74343633D01*
X93810932Y-74343633D02*
X93910932Y-74376966D01*
X93910932Y-74376966D02*
X93977599Y-74443633D01*
X93977599Y-74443633D02*
X94010932Y-74510300D01*
X94010932Y-74510300D02*
X94044265Y-74643633D01*
X94044265Y-74643633D02*
X94044265Y-74743633D01*
X94044265Y-74743633D02*
X94010932Y-74876966D01*
X94010932Y-74876966D02*
X93977599Y-74943633D01*
X93977599Y-74943633D02*
X93910932Y-75010300D01*
X93910932Y-75010300D02*
X93810932Y-75043633D01*
X93810932Y-75043633D02*
X93644265Y-75043633D01*
X92577599Y-76916966D02*
X92510932Y-76883633D01*
X92510932Y-76883633D02*
X92410932Y-76883633D01*
X92410932Y-76883633D02*
X92310932Y-76916966D01*
X92310932Y-76916966D02*
X92244266Y-76983633D01*
X92244266Y-76983633D02*
X92210932Y-77050300D01*
X92210932Y-77050300D02*
X92177599Y-77183633D01*
X92177599Y-77183633D02*
X92177599Y-77283633D01*
X92177599Y-77283633D02*
X92210932Y-77416966D01*
X92210932Y-77416966D02*
X92244266Y-77483633D01*
X92244266Y-77483633D02*
X92310932Y-77550300D01*
X92310932Y-77550300D02*
X92410932Y-77583633D01*
X92410932Y-77583633D02*
X92477599Y-77583633D01*
X92477599Y-77583633D02*
X92577599Y-77550300D01*
X92577599Y-77550300D02*
X92610932Y-77516966D01*
X92610932Y-77516966D02*
X92610932Y-77283633D01*
X92610932Y-77283633D02*
X92477599Y-77283633D01*
X92910932Y-77583633D02*
X92910932Y-76883633D01*
X92910932Y-76883633D02*
X93310932Y-77583633D01*
X93310932Y-77583633D02*
X93310932Y-76883633D01*
X93644265Y-77583633D02*
X93644265Y-76883633D01*
X93644265Y-76883633D02*
X93810932Y-76883633D01*
X93810932Y-76883633D02*
X93910932Y-76916966D01*
X93910932Y-76916966D02*
X93977599Y-76983633D01*
X93977599Y-76983633D02*
X94010932Y-77050300D01*
X94010932Y-77050300D02*
X94044265Y-77183633D01*
X94044265Y-77183633D02*
X94044265Y-77283633D01*
X94044265Y-77283633D02*
X94010932Y-77416966D01*
X94010932Y-77416966D02*
X93977599Y-77483633D01*
X93977599Y-77483633D02*
X93910932Y-77550300D01*
X93910932Y-77550300D02*
X93810932Y-77583633D01*
X93810932Y-77583633D02*
X93644265Y-77583633D01*
X92610932Y-79423633D02*
X93044265Y-79423633D01*
X93044265Y-79423633D02*
X92810932Y-79690300D01*
X92810932Y-79690300D02*
X92910932Y-79690300D01*
X92910932Y-79690300D02*
X92977598Y-79723633D01*
X92977598Y-79723633D02*
X93010932Y-79756966D01*
X93010932Y-79756966D02*
X93044265Y-79823633D01*
X93044265Y-79823633D02*
X93044265Y-79990300D01*
X93044265Y-79990300D02*
X93010932Y-80056966D01*
X93010932Y-80056966D02*
X92977598Y-80090300D01*
X92977598Y-80090300D02*
X92910932Y-80123633D01*
X92910932Y-80123633D02*
X92710932Y-80123633D01*
X92710932Y-80123633D02*
X92644265Y-80090300D01*
X92644265Y-80090300D02*
X92610932Y-80056966D01*
X93277599Y-79656966D02*
X93444265Y-80123633D01*
X93444265Y-80123633D02*
X93610932Y-79656966D01*
X95354265Y-61643633D02*
X95354265Y-62210300D01*
X95354265Y-62210300D02*
X95387599Y-62276966D01*
X95387599Y-62276966D02*
X95420932Y-62310300D01*
X95420932Y-62310300D02*
X95487599Y-62343633D01*
X95487599Y-62343633D02*
X95620932Y-62343633D01*
X95620932Y-62343633D02*
X95687599Y-62310300D01*
X95687599Y-62310300D02*
X95720932Y-62276966D01*
X95720932Y-62276966D02*
X95754265Y-62210300D01*
X95754265Y-62210300D02*
X95754265Y-61643633D01*
X96454265Y-62343633D02*
X96054265Y-62343633D01*
X96254265Y-62343633D02*
X96254265Y-61643633D01*
X96254265Y-61643633D02*
X96187598Y-61743633D01*
X96187598Y-61743633D02*
X96120932Y-61810300D01*
X96120932Y-61810300D02*
X96054265Y-61843633D01*
X97154265Y-62343633D02*
X96920932Y-62010300D01*
X96754265Y-62343633D02*
X96754265Y-61643633D01*
X96754265Y-61643633D02*
X97020932Y-61643633D01*
X97020932Y-61643633D02*
X97087599Y-61676966D01*
X97087599Y-61676966D02*
X97120932Y-61710300D01*
X97120932Y-61710300D02*
X97154265Y-61776966D01*
X97154265Y-61776966D02*
X97154265Y-61876966D01*
X97154265Y-61876966D02*
X97120932Y-61943633D01*
X97120932Y-61943633D02*
X97087599Y-61976966D01*
X97087599Y-61976966D02*
X97020932Y-62010300D01*
X97020932Y-62010300D02*
X96754265Y-62010300D01*
X97387599Y-61643633D02*
X97854265Y-62343633D01*
X97854265Y-61643633D02*
X97387599Y-62343633D01*
X98120932Y-62343633D02*
X98120932Y-61643633D01*
X98120932Y-61643633D02*
X98287599Y-61643633D01*
X98287599Y-61643633D02*
X98387599Y-61676966D01*
X98387599Y-61676966D02*
X98454266Y-61743633D01*
X98454266Y-61743633D02*
X98487599Y-61810300D01*
X98487599Y-61810300D02*
X98520932Y-61943633D01*
X98520932Y-61943633D02*
X98520932Y-62043633D01*
X98520932Y-62043633D02*
X98487599Y-62176966D01*
X98487599Y-62176966D02*
X98454266Y-62243633D01*
X98454266Y-62243633D02*
X98387599Y-62310300D01*
X98387599Y-62310300D02*
X98287599Y-62343633D01*
X98287599Y-62343633D02*
X98120932Y-62343633D01*
X95437598Y-64183633D02*
X95437598Y-64750300D01*
X95437598Y-64750300D02*
X95470932Y-64816966D01*
X95470932Y-64816966D02*
X95504265Y-64850300D01*
X95504265Y-64850300D02*
X95570932Y-64883633D01*
X95570932Y-64883633D02*
X95704265Y-64883633D01*
X95704265Y-64883633D02*
X95770932Y-64850300D01*
X95770932Y-64850300D02*
X95804265Y-64816966D01*
X95804265Y-64816966D02*
X95837598Y-64750300D01*
X95837598Y-64750300D02*
X95837598Y-64183633D01*
X96537598Y-64883633D02*
X96137598Y-64883633D01*
X96337598Y-64883633D02*
X96337598Y-64183633D01*
X96337598Y-64183633D02*
X96270931Y-64283633D01*
X96270931Y-64283633D02*
X96204265Y-64350300D01*
X96204265Y-64350300D02*
X96137598Y-64383633D01*
X96737598Y-64183633D02*
X97137598Y-64183633D01*
X96937598Y-64883633D02*
X96937598Y-64183633D01*
X97304265Y-64183633D02*
X97770931Y-64883633D01*
X97770931Y-64183633D02*
X97304265Y-64883633D01*
X98037598Y-64883633D02*
X98037598Y-64183633D01*
X98037598Y-64183633D02*
X98204265Y-64183633D01*
X98204265Y-64183633D02*
X98304265Y-64216966D01*
X98304265Y-64216966D02*
X98370932Y-64283633D01*
X98370932Y-64283633D02*
X98404265Y-64350300D01*
X98404265Y-64350300D02*
X98437598Y-64483633D01*
X98437598Y-64483633D02*
X98437598Y-64583633D01*
X98437598Y-64583633D02*
X98404265Y-64716966D01*
X98404265Y-64716966D02*
X98370932Y-64783633D01*
X98370932Y-64783633D02*
X98304265Y-64850300D01*
X98304265Y-64850300D02*
X98204265Y-64883633D01*
X98204265Y-64883633D02*
X98037598Y-64883633D01*
X108234265Y-62276966D02*
X108200932Y-62310300D01*
X108200932Y-62310300D02*
X108100932Y-62343633D01*
X108100932Y-62343633D02*
X108034265Y-62343633D01*
X108034265Y-62343633D02*
X107934265Y-62310300D01*
X107934265Y-62310300D02*
X107867599Y-62243633D01*
X107867599Y-62243633D02*
X107834265Y-62176966D01*
X107834265Y-62176966D02*
X107800932Y-62043633D01*
X107800932Y-62043633D02*
X107800932Y-61943633D01*
X107800932Y-61943633D02*
X107834265Y-61810300D01*
X107834265Y-61810300D02*
X107867599Y-61743633D01*
X107867599Y-61743633D02*
X107934265Y-61676966D01*
X107934265Y-61676966D02*
X108034265Y-61643633D01*
X108034265Y-61643633D02*
X108100932Y-61643633D01*
X108100932Y-61643633D02*
X108200932Y-61676966D01*
X108200932Y-61676966D02*
X108234265Y-61710300D01*
X108500932Y-62310300D02*
X108600932Y-62343633D01*
X108600932Y-62343633D02*
X108767599Y-62343633D01*
X108767599Y-62343633D02*
X108834265Y-62310300D01*
X108834265Y-62310300D02*
X108867599Y-62276966D01*
X108867599Y-62276966D02*
X108900932Y-62210300D01*
X108900932Y-62210300D02*
X108900932Y-62143633D01*
X108900932Y-62143633D02*
X108867599Y-62076966D01*
X108867599Y-62076966D02*
X108834265Y-62043633D01*
X108834265Y-62043633D02*
X108767599Y-62010300D01*
X108767599Y-62010300D02*
X108634265Y-61976966D01*
X108634265Y-61976966D02*
X108567599Y-61943633D01*
X108567599Y-61943633D02*
X108534265Y-61910300D01*
X108534265Y-61910300D02*
X108500932Y-61843633D01*
X108500932Y-61843633D02*
X108500932Y-61776966D01*
X108500932Y-61776966D02*
X108534265Y-61710300D01*
X108534265Y-61710300D02*
X108567599Y-61676966D01*
X108567599Y-61676966D02*
X108634265Y-61643633D01*
X108634265Y-61643633D02*
X108800932Y-61643633D01*
X108800932Y-61643633D02*
X108900932Y-61676966D01*
X108167598Y-64883633D02*
X108167598Y-64183633D01*
X108167598Y-64183633D02*
X108334265Y-64183633D01*
X108334265Y-64183633D02*
X108434265Y-64216966D01*
X108434265Y-64216966D02*
X108500932Y-64283633D01*
X108500932Y-64283633D02*
X108534265Y-64350300D01*
X108534265Y-64350300D02*
X108567598Y-64483633D01*
X108567598Y-64483633D02*
X108567598Y-64583633D01*
X108567598Y-64583633D02*
X108534265Y-64716966D01*
X108534265Y-64716966D02*
X108500932Y-64783633D01*
X108500932Y-64783633D02*
X108434265Y-64850300D01*
X108434265Y-64850300D02*
X108334265Y-64883633D01*
X108334265Y-64883633D02*
X108167598Y-64883633D01*
X107934265Y-67356966D02*
X107900932Y-67390300D01*
X107900932Y-67390300D02*
X107800932Y-67423633D01*
X107800932Y-67423633D02*
X107734265Y-67423633D01*
X107734265Y-67423633D02*
X107634265Y-67390300D01*
X107634265Y-67390300D02*
X107567599Y-67323633D01*
X107567599Y-67323633D02*
X107534265Y-67256966D01*
X107534265Y-67256966D02*
X107500932Y-67123633D01*
X107500932Y-67123633D02*
X107500932Y-67023633D01*
X107500932Y-67023633D02*
X107534265Y-66890300D01*
X107534265Y-66890300D02*
X107567599Y-66823633D01*
X107567599Y-66823633D02*
X107634265Y-66756966D01*
X107634265Y-66756966D02*
X107734265Y-66723633D01*
X107734265Y-66723633D02*
X107800932Y-66723633D01*
X107800932Y-66723633D02*
X107900932Y-66756966D01*
X107900932Y-66756966D02*
X107934265Y-66790300D01*
X108567599Y-67423633D02*
X108234265Y-67423633D01*
X108234265Y-67423633D02*
X108234265Y-66723633D01*
X108800932Y-67423633D02*
X108800932Y-66723633D01*
X109200932Y-67423633D02*
X108900932Y-67023633D01*
X109200932Y-66723633D02*
X108800932Y-67123633D01*
X108617599Y-70030300D02*
X108550932Y-69996966D01*
X108550932Y-69996966D02*
X108484266Y-69930300D01*
X108484266Y-69930300D02*
X108384266Y-69830300D01*
X108384266Y-69830300D02*
X108317599Y-69796966D01*
X108317599Y-69796966D02*
X108250932Y-69796966D01*
X108284266Y-69963633D02*
X108217599Y-69930300D01*
X108217599Y-69930300D02*
X108150932Y-69863633D01*
X108150932Y-69863633D02*
X108117599Y-69730300D01*
X108117599Y-69730300D02*
X108117599Y-69496966D01*
X108117599Y-69496966D02*
X108150932Y-69363633D01*
X108150932Y-69363633D02*
X108217599Y-69296966D01*
X108217599Y-69296966D02*
X108284266Y-69263633D01*
X108284266Y-69263633D02*
X108417599Y-69263633D01*
X108417599Y-69263633D02*
X108484266Y-69296966D01*
X108484266Y-69296966D02*
X108550932Y-69363633D01*
X108550932Y-69363633D02*
X108584266Y-69496966D01*
X108584266Y-69496966D02*
X108584266Y-69730300D01*
X108584266Y-69730300D02*
X108550932Y-69863633D01*
X108550932Y-69863633D02*
X108484266Y-69930300D01*
X108484266Y-69930300D02*
X108417599Y-69963633D01*
X108417599Y-69963633D02*
X108284266Y-69963633D01*
X110390932Y-51483633D02*
X110824265Y-51483633D01*
X110824265Y-51483633D02*
X110590932Y-51750300D01*
X110590932Y-51750300D02*
X110690932Y-51750300D01*
X110690932Y-51750300D02*
X110757598Y-51783633D01*
X110757598Y-51783633D02*
X110790932Y-51816966D01*
X110790932Y-51816966D02*
X110824265Y-51883633D01*
X110824265Y-51883633D02*
X110824265Y-52050300D01*
X110824265Y-52050300D02*
X110790932Y-52116966D01*
X110790932Y-52116966D02*
X110757598Y-52150300D01*
X110757598Y-52150300D02*
X110690932Y-52183633D01*
X110690932Y-52183633D02*
X110490932Y-52183633D01*
X110490932Y-52183633D02*
X110424265Y-52150300D01*
X110424265Y-52150300D02*
X110390932Y-52116966D01*
X111057599Y-51716966D02*
X111224265Y-52183633D01*
X111224265Y-52183633D02*
X111390932Y-51716966D01*
X111090932Y-54723633D02*
X110690932Y-54723633D01*
X110890932Y-54723633D02*
X110890932Y-54023633D01*
X110890932Y-54023633D02*
X110824265Y-54123633D01*
X110824265Y-54123633D02*
X110757599Y-54190300D01*
X110757599Y-54190300D02*
X110690932Y-54223633D01*
X110690932Y-56630300D02*
X110724265Y-56596966D01*
X110724265Y-56596966D02*
X110790932Y-56563633D01*
X110790932Y-56563633D02*
X110957599Y-56563633D01*
X110957599Y-56563633D02*
X111024265Y-56596966D01*
X111024265Y-56596966D02*
X111057599Y-56630300D01*
X111057599Y-56630300D02*
X111090932Y-56696966D01*
X111090932Y-56696966D02*
X111090932Y-56763633D01*
X111090932Y-56763633D02*
X111057599Y-56863633D01*
X111057599Y-56863633D02*
X110657599Y-57263633D01*
X110657599Y-57263633D02*
X111090932Y-57263633D01*
X110657599Y-59103633D02*
X111090932Y-59103633D01*
X111090932Y-59103633D02*
X110857599Y-59370300D01*
X110857599Y-59370300D02*
X110957599Y-59370300D01*
X110957599Y-59370300D02*
X111024265Y-59403633D01*
X111024265Y-59403633D02*
X111057599Y-59436966D01*
X111057599Y-59436966D02*
X111090932Y-59503633D01*
X111090932Y-59503633D02*
X111090932Y-59670300D01*
X111090932Y-59670300D02*
X111057599Y-59736966D01*
X111057599Y-59736966D02*
X111024265Y-59770300D01*
X111024265Y-59770300D02*
X110957599Y-59803633D01*
X110957599Y-59803633D02*
X110757599Y-59803633D01*
X110757599Y-59803633D02*
X110690932Y-59770300D01*
X110690932Y-59770300D02*
X110657599Y-59736966D01*
X110757598Y-62343633D02*
X110357598Y-62343633D01*
X110557598Y-62343633D02*
X110557598Y-61643633D01*
X110557598Y-61643633D02*
X110490931Y-61743633D01*
X110490931Y-61743633D02*
X110424265Y-61810300D01*
X110424265Y-61810300D02*
X110357598Y-61843633D01*
X111190932Y-61643633D02*
X111257598Y-61643633D01*
X111257598Y-61643633D02*
X111324265Y-61676966D01*
X111324265Y-61676966D02*
X111357598Y-61710300D01*
X111357598Y-61710300D02*
X111390932Y-61776966D01*
X111390932Y-61776966D02*
X111424265Y-61910300D01*
X111424265Y-61910300D02*
X111424265Y-62076966D01*
X111424265Y-62076966D02*
X111390932Y-62210300D01*
X111390932Y-62210300D02*
X111357598Y-62276966D01*
X111357598Y-62276966D02*
X111324265Y-62310300D01*
X111324265Y-62310300D02*
X111257598Y-62343633D01*
X111257598Y-62343633D02*
X111190932Y-62343633D01*
X111190932Y-62343633D02*
X111124265Y-62310300D01*
X111124265Y-62310300D02*
X111090932Y-62276966D01*
X111090932Y-62276966D02*
X111057598Y-62210300D01*
X111057598Y-62210300D02*
X111024265Y-62076966D01*
X111024265Y-62076966D02*
X111024265Y-61910300D01*
X111024265Y-61910300D02*
X111057598Y-61776966D01*
X111057598Y-61776966D02*
X111090932Y-61710300D01*
X111090932Y-61710300D02*
X111124265Y-61676966D01*
X111124265Y-61676966D02*
X111190932Y-61643633D01*
X110757598Y-64883633D02*
X110357598Y-64883633D01*
X110557598Y-64883633D02*
X110557598Y-64183633D01*
X110557598Y-64183633D02*
X110490931Y-64283633D01*
X110490931Y-64283633D02*
X110424265Y-64350300D01*
X110424265Y-64350300D02*
X110357598Y-64383633D01*
X111424265Y-64883633D02*
X111024265Y-64883633D01*
X111224265Y-64883633D02*
X111224265Y-64183633D01*
X111224265Y-64183633D02*
X111157598Y-64283633D01*
X111157598Y-64283633D02*
X111090932Y-64350300D01*
X111090932Y-64350300D02*
X111024265Y-64383633D01*
X110757598Y-67423633D02*
X110357598Y-67423633D01*
X110557598Y-67423633D02*
X110557598Y-66723633D01*
X110557598Y-66723633D02*
X110490931Y-66823633D01*
X110490931Y-66823633D02*
X110424265Y-66890300D01*
X110424265Y-66890300D02*
X110357598Y-66923633D01*
X111024265Y-66790300D02*
X111057598Y-66756966D01*
X111057598Y-66756966D02*
X111124265Y-66723633D01*
X111124265Y-66723633D02*
X111290932Y-66723633D01*
X111290932Y-66723633D02*
X111357598Y-66756966D01*
X111357598Y-66756966D02*
X111390932Y-66790300D01*
X111390932Y-66790300D02*
X111424265Y-66856966D01*
X111424265Y-66856966D02*
X111424265Y-66923633D01*
X111424265Y-66923633D02*
X111390932Y-67023633D01*
X111390932Y-67023633D02*
X110990932Y-67423633D01*
X110990932Y-67423633D02*
X111424265Y-67423633D01*
X110757598Y-69963633D02*
X110357598Y-69963633D01*
X110557598Y-69963633D02*
X110557598Y-69263633D01*
X110557598Y-69263633D02*
X110490931Y-69363633D01*
X110490931Y-69363633D02*
X110424265Y-69430300D01*
X110424265Y-69430300D02*
X110357598Y-69463633D01*
X110990932Y-69263633D02*
X111424265Y-69263633D01*
X111424265Y-69263633D02*
X111190932Y-69530300D01*
X111190932Y-69530300D02*
X111290932Y-69530300D01*
X111290932Y-69530300D02*
X111357598Y-69563633D01*
X111357598Y-69563633D02*
X111390932Y-69596966D01*
X111390932Y-69596966D02*
X111424265Y-69663633D01*
X111424265Y-69663633D02*
X111424265Y-69830300D01*
X111424265Y-69830300D02*
X111390932Y-69896966D01*
X111390932Y-69896966D02*
X111357598Y-69930300D01*
X111357598Y-69930300D02*
X111290932Y-69963633D01*
X111290932Y-69963633D02*
X111090932Y-69963633D01*
X111090932Y-69963633D02*
X111024265Y-69930300D01*
X111024265Y-69930300D02*
X110990932Y-69896966D01*
X110340932Y-72503633D02*
X110340932Y-71803633D01*
X110340932Y-71803633D02*
X110740932Y-72503633D01*
X110740932Y-72503633D02*
X110740932Y-71803633D01*
X111474265Y-72436966D02*
X111440932Y-72470300D01*
X111440932Y-72470300D02*
X111340932Y-72503633D01*
X111340932Y-72503633D02*
X111274265Y-72503633D01*
X111274265Y-72503633D02*
X111174265Y-72470300D01*
X111174265Y-72470300D02*
X111107599Y-72403633D01*
X111107599Y-72403633D02*
X111074265Y-72336966D01*
X111074265Y-72336966D02*
X111040932Y-72203633D01*
X111040932Y-72203633D02*
X111040932Y-72103633D01*
X111040932Y-72103633D02*
X111074265Y-71970300D01*
X111074265Y-71970300D02*
X111107599Y-71903633D01*
X111107599Y-71903633D02*
X111174265Y-71836966D01*
X111174265Y-71836966D02*
X111274265Y-71803633D01*
X111274265Y-71803633D02*
X111340932Y-71803633D01*
X111340932Y-71803633D02*
X111440932Y-71836966D01*
X111440932Y-71836966D02*
X111474265Y-71870300D01*
X110340932Y-75043633D02*
X110340932Y-74343633D01*
X110340932Y-74343633D02*
X110740932Y-75043633D01*
X110740932Y-75043633D02*
X110740932Y-74343633D01*
X111474265Y-74976966D02*
X111440932Y-75010300D01*
X111440932Y-75010300D02*
X111340932Y-75043633D01*
X111340932Y-75043633D02*
X111274265Y-75043633D01*
X111274265Y-75043633D02*
X111174265Y-75010300D01*
X111174265Y-75010300D02*
X111107599Y-74943633D01*
X111107599Y-74943633D02*
X111074265Y-74876966D01*
X111074265Y-74876966D02*
X111040932Y-74743633D01*
X111040932Y-74743633D02*
X111040932Y-74643633D01*
X111040932Y-74643633D02*
X111074265Y-74510300D01*
X111074265Y-74510300D02*
X111107599Y-74443633D01*
X111107599Y-74443633D02*
X111174265Y-74376966D01*
X111174265Y-74376966D02*
X111274265Y-74343633D01*
X111274265Y-74343633D02*
X111340932Y-74343633D01*
X111340932Y-74343633D02*
X111440932Y-74376966D01*
X111440932Y-74376966D02*
X111474265Y-74410300D01*
X110357599Y-76916966D02*
X110290932Y-76883633D01*
X110290932Y-76883633D02*
X110190932Y-76883633D01*
X110190932Y-76883633D02*
X110090932Y-76916966D01*
X110090932Y-76916966D02*
X110024266Y-76983633D01*
X110024266Y-76983633D02*
X109990932Y-77050300D01*
X109990932Y-77050300D02*
X109957599Y-77183633D01*
X109957599Y-77183633D02*
X109957599Y-77283633D01*
X109957599Y-77283633D02*
X109990932Y-77416966D01*
X109990932Y-77416966D02*
X110024266Y-77483633D01*
X110024266Y-77483633D02*
X110090932Y-77550300D01*
X110090932Y-77550300D02*
X110190932Y-77583633D01*
X110190932Y-77583633D02*
X110257599Y-77583633D01*
X110257599Y-77583633D02*
X110357599Y-77550300D01*
X110357599Y-77550300D02*
X110390932Y-77516966D01*
X110390932Y-77516966D02*
X110390932Y-77283633D01*
X110390932Y-77283633D02*
X110257599Y-77283633D01*
X110690932Y-77583633D02*
X110690932Y-76883633D01*
X110690932Y-76883633D02*
X111090932Y-77583633D01*
X111090932Y-77583633D02*
X111090932Y-76883633D01*
X111424265Y-77583633D02*
X111424265Y-76883633D01*
X111424265Y-76883633D02*
X111590932Y-76883633D01*
X111590932Y-76883633D02*
X111690932Y-76916966D01*
X111690932Y-76916966D02*
X111757599Y-76983633D01*
X111757599Y-76983633D02*
X111790932Y-77050300D01*
X111790932Y-77050300D02*
X111824265Y-77183633D01*
X111824265Y-77183633D02*
X111824265Y-77283633D01*
X111824265Y-77283633D02*
X111790932Y-77416966D01*
X111790932Y-77416966D02*
X111757599Y-77483633D01*
X111757599Y-77483633D02*
X111690932Y-77550300D01*
X111690932Y-77550300D02*
X111590932Y-77583633D01*
X111590932Y-77583633D02*
X111424265Y-77583633D01*
X110790932Y-79423633D02*
X110457598Y-79423633D01*
X110457598Y-79423633D02*
X110424265Y-79756966D01*
X110424265Y-79756966D02*
X110457598Y-79723633D01*
X110457598Y-79723633D02*
X110524265Y-79690300D01*
X110524265Y-79690300D02*
X110690932Y-79690300D01*
X110690932Y-79690300D02*
X110757598Y-79723633D01*
X110757598Y-79723633D02*
X110790932Y-79756966D01*
X110790932Y-79756966D02*
X110824265Y-79823633D01*
X110824265Y-79823633D02*
X110824265Y-79990300D01*
X110824265Y-79990300D02*
X110790932Y-80056966D01*
X110790932Y-80056966D02*
X110757598Y-80090300D01*
X110757598Y-80090300D02*
X110690932Y-80123633D01*
X110690932Y-80123633D02*
X110524265Y-80123633D01*
X110524265Y-80123633D02*
X110457598Y-80090300D01*
X110457598Y-80090300D02*
X110424265Y-80056966D01*
X111057599Y-79656966D02*
X111224265Y-80123633D01*
X111224265Y-80123633D02*
X111390932Y-79656966D01*
D11*
X151109580Y-70916666D02*
X151157200Y-70964285D01*
X151157200Y-70964285D02*
X151204819Y-71107142D01*
X151204819Y-71107142D02*
X151204819Y-71202380D01*
X151204819Y-71202380D02*
X151157200Y-71345237D01*
X151157200Y-71345237D02*
X151061961Y-71440475D01*
X151061961Y-71440475D02*
X150966723Y-71488094D01*
X150966723Y-71488094D02*
X150776247Y-71535713D01*
X150776247Y-71535713D02*
X150633390Y-71535713D01*
X150633390Y-71535713D02*
X150442914Y-71488094D01*
X150442914Y-71488094D02*
X150347676Y-71440475D01*
X150347676Y-71440475D02*
X150252438Y-71345237D01*
X150252438Y-71345237D02*
X150204819Y-71202380D01*
X150204819Y-71202380D02*
X150204819Y-71107142D01*
X150204819Y-71107142D02*
X150252438Y-70964285D01*
X150252438Y-70964285D02*
X150300057Y-70916666D01*
X150204819Y-70059523D02*
X150204819Y-70249999D01*
X150204819Y-70249999D02*
X150252438Y-70345237D01*
X150252438Y-70345237D02*
X150300057Y-70392856D01*
X150300057Y-70392856D02*
X150442914Y-70488094D01*
X150442914Y-70488094D02*
X150633390Y-70535713D01*
X150633390Y-70535713D02*
X151014342Y-70535713D01*
X151014342Y-70535713D02*
X151109580Y-70488094D01*
X151109580Y-70488094D02*
X151157200Y-70440475D01*
X151157200Y-70440475D02*
X151204819Y-70345237D01*
X151204819Y-70345237D02*
X151204819Y-70154761D01*
X151204819Y-70154761D02*
X151157200Y-70059523D01*
X151157200Y-70059523D02*
X151109580Y-70011904D01*
X151109580Y-70011904D02*
X151014342Y-69964285D01*
X151014342Y-69964285D02*
X150776247Y-69964285D01*
X150776247Y-69964285D02*
X150681009Y-70011904D01*
X150681009Y-70011904D02*
X150633390Y-70059523D01*
X150633390Y-70059523D02*
X150585771Y-70154761D01*
X150585771Y-70154761D02*
X150585771Y-70345237D01*
X150585771Y-70345237D02*
X150633390Y-70440475D01*
X150633390Y-70440475D02*
X150681009Y-70488094D01*
X150681009Y-70488094D02*
X150776247Y-70535713D01*
X176054819Y-62801904D02*
X176864342Y-62801904D01*
X176864342Y-62801904D02*
X176959580Y-62754285D01*
X176959580Y-62754285D02*
X177007200Y-62706666D01*
X177007200Y-62706666D02*
X177054819Y-62611428D01*
X177054819Y-62611428D02*
X177054819Y-62420952D01*
X177054819Y-62420952D02*
X177007200Y-62325714D01*
X177007200Y-62325714D02*
X176959580Y-62278095D01*
X176959580Y-62278095D02*
X176864342Y-62230476D01*
X176864342Y-62230476D02*
X176054819Y-62230476D01*
X176054819Y-61849523D02*
X176054819Y-61230476D01*
X176054819Y-61230476D02*
X176435771Y-61563809D01*
X176435771Y-61563809D02*
X176435771Y-61420952D01*
X176435771Y-61420952D02*
X176483390Y-61325714D01*
X176483390Y-61325714D02*
X176531009Y-61278095D01*
X176531009Y-61278095D02*
X176626247Y-61230476D01*
X176626247Y-61230476D02*
X176864342Y-61230476D01*
X176864342Y-61230476D02*
X176959580Y-61278095D01*
X176959580Y-61278095D02*
X177007200Y-61325714D01*
X177007200Y-61325714D02*
X177054819Y-61420952D01*
X177054819Y-61420952D02*
X177054819Y-61706666D01*
X177054819Y-61706666D02*
X177007200Y-61801904D01*
X177007200Y-61801904D02*
X176959580Y-61849523D01*
X144559761Y-97932557D02*
X144464523Y-97884938D01*
X144464523Y-97884938D02*
X144369285Y-97789700D01*
X144369285Y-97789700D02*
X144226428Y-97646842D01*
X144226428Y-97646842D02*
X144131190Y-97599223D01*
X144131190Y-97599223D02*
X144035952Y-97599223D01*
X144083571Y-97837319D02*
X143988333Y-97789700D01*
X143988333Y-97789700D02*
X143893095Y-97694461D01*
X143893095Y-97694461D02*
X143845476Y-97503985D01*
X143845476Y-97503985D02*
X143845476Y-97170652D01*
X143845476Y-97170652D02*
X143893095Y-96980176D01*
X143893095Y-96980176D02*
X143988333Y-96884938D01*
X143988333Y-96884938D02*
X144083571Y-96837319D01*
X144083571Y-96837319D02*
X144274047Y-96837319D01*
X144274047Y-96837319D02*
X144369285Y-96884938D01*
X144369285Y-96884938D02*
X144464523Y-96980176D01*
X144464523Y-96980176D02*
X144512142Y-97170652D01*
X144512142Y-97170652D02*
X144512142Y-97503985D01*
X144512142Y-97503985D02*
X144464523Y-97694461D01*
X144464523Y-97694461D02*
X144369285Y-97789700D01*
X144369285Y-97789700D02*
X144274047Y-97837319D01*
X144274047Y-97837319D02*
X144083571Y-97837319D01*
X144893095Y-96932557D02*
X144940714Y-96884938D01*
X144940714Y-96884938D02*
X145035952Y-96837319D01*
X145035952Y-96837319D02*
X145274047Y-96837319D01*
X145274047Y-96837319D02*
X145369285Y-96884938D01*
X145369285Y-96884938D02*
X145416904Y-96932557D01*
X145416904Y-96932557D02*
X145464523Y-97027795D01*
X145464523Y-97027795D02*
X145464523Y-97123033D01*
X145464523Y-97123033D02*
X145416904Y-97265890D01*
X145416904Y-97265890D02*
X144845476Y-97837319D01*
X144845476Y-97837319D02*
X145464523Y-97837319D01*
X155404761Y-50915319D02*
X155071428Y-50439128D01*
X154833333Y-50915319D02*
X154833333Y-49915319D01*
X154833333Y-49915319D02*
X155214285Y-49915319D01*
X155214285Y-49915319D02*
X155309523Y-49962938D01*
X155309523Y-49962938D02*
X155357142Y-50010557D01*
X155357142Y-50010557D02*
X155404761Y-50105795D01*
X155404761Y-50105795D02*
X155404761Y-50248652D01*
X155404761Y-50248652D02*
X155357142Y-50343890D01*
X155357142Y-50343890D02*
X155309523Y-50391509D01*
X155309523Y-50391509D02*
X155214285Y-50439128D01*
X155214285Y-50439128D02*
X154833333Y-50439128D01*
X155690476Y-49915319D02*
X156023809Y-50915319D01*
X156023809Y-50915319D02*
X156357142Y-49915319D01*
X157214285Y-50915319D02*
X156642857Y-50915319D01*
X156928571Y-50915319D02*
X156928571Y-49915319D01*
X156928571Y-49915319D02*
X156833333Y-50058176D01*
X156833333Y-50058176D02*
X156738095Y-50153414D01*
X156738095Y-50153414D02*
X156642857Y-50201033D01*
X80954819Y-80309523D02*
X80954819Y-79738095D01*
X81954819Y-80023809D02*
X80954819Y-80023809D01*
X81431009Y-79404761D02*
X81431009Y-79071428D01*
X81954819Y-78928571D02*
X81954819Y-79404761D01*
X81954819Y-79404761D02*
X80954819Y-79404761D01*
X80954819Y-79404761D02*
X80954819Y-78928571D01*
X81954819Y-78499999D02*
X80954819Y-78499999D01*
X80954819Y-78499999D02*
X81669104Y-78166666D01*
X81669104Y-78166666D02*
X80954819Y-77833333D01*
X80954819Y-77833333D02*
X81954819Y-77833333D01*
X81954819Y-77357142D02*
X80954819Y-77357142D01*
X80954819Y-77357142D02*
X80954819Y-76976190D01*
X80954819Y-76976190D02*
X81002438Y-76880952D01*
X81002438Y-76880952D02*
X81050057Y-76833333D01*
X81050057Y-76833333D02*
X81145295Y-76785714D01*
X81145295Y-76785714D02*
X81288152Y-76785714D01*
X81288152Y-76785714D02*
X81383390Y-76833333D01*
X81383390Y-76833333D02*
X81431009Y-76880952D01*
X81431009Y-76880952D02*
X81478628Y-76976190D01*
X81478628Y-76976190D02*
X81478628Y-77357142D01*
D12*
X119135000Y-63610000D02*
X125485000Y-63610000D01*
X119135000Y-73770000D02*
X119135000Y-63610000D01*
X119135000Y-73770000D02*
X121675000Y-73770000D01*
X122945000Y-73770000D02*
X125485000Y-73770000D01*
X125485000Y-63610000D02*
X125485000Y-73770000D01*
X121675000Y-73769000D02*
G75*
G02*
X122945000Y-73769000I635000J0D01*
G01*
D13*
X150880000Y-89130000D02*
X156120000Y-89130000D01*
X150880000Y-91870000D02*
X150880000Y-89130000D01*
X156120000Y-89130000D02*
X156120000Y-91870000D01*
X156120000Y-91870000D02*
X150880000Y-91870000D01*
D10*
X120000000Y-30000000D02*
X168000000Y-30000000D01*
X168000000Y-50000000D01*
X120000000Y-50000000D01*
X120000000Y-30000000D01*
D13*
X116920000Y-91710000D02*
X125080000Y-91710000D01*
X116920000Y-91750000D02*
X125080000Y-91750000D01*
X116921000Y-91670000D02*
X125079000Y-91670000D01*
X116922000Y-91630000D02*
X125078000Y-91630000D01*
X116923000Y-91590000D02*
X125077000Y-91590000D01*
X116925000Y-91550000D02*
X125075000Y-91550000D01*
X116927000Y-91510000D02*
X125073000Y-91510000D01*
X116930000Y-91470000D02*
X125070000Y-91470000D01*
X116932000Y-91430000D02*
X125068000Y-91430000D01*
X116936000Y-91390000D02*
X125064000Y-91390000D01*
X116939000Y-91350000D02*
X125061000Y-91350000D01*
X116944000Y-91310000D02*
X125056000Y-91310000D01*
X116948000Y-91270000D02*
X125052000Y-91270000D01*
X116953000Y-91230000D02*
X125047000Y-91230000D01*
X116958000Y-91190000D02*
X125042000Y-91190000D01*
X116964000Y-91150000D02*
X125036000Y-91150000D01*
X116970000Y-91110000D02*
X125030000Y-91110000D01*
X116977000Y-91070000D02*
X125023000Y-91070000D01*
X116983000Y-91030000D02*
X119960000Y-91030000D01*
X116991000Y-90990000D02*
X119960000Y-90990000D01*
X116998000Y-90950000D02*
X119960000Y-90950000D01*
X117007000Y-90910000D02*
X119960000Y-90910000D01*
X117015000Y-90870000D02*
X119960000Y-90870000D01*
X117024000Y-90830000D02*
X119960000Y-90830000D01*
X117033000Y-90790000D02*
X119960000Y-90790000D01*
X117043000Y-90750000D02*
X119960000Y-90750000D01*
X117053000Y-90710000D02*
X119960000Y-90710000D01*
X117064000Y-90670000D02*
X119960000Y-90670000D01*
X117075000Y-90630000D02*
X119960000Y-90630000D01*
X117087000Y-90590000D02*
X119960000Y-90590000D01*
X117099000Y-90550000D02*
X119960000Y-90550000D01*
X117111000Y-90510000D02*
X119960000Y-90510000D01*
X117124000Y-90470000D02*
X119960000Y-90470000D01*
X117137000Y-90430000D02*
X119960000Y-90430000D01*
X117151000Y-90390000D02*
X119960000Y-90390000D01*
X117165000Y-90350000D02*
X119960000Y-90350000D01*
X117180000Y-90310000D02*
X119960000Y-90310000D01*
X117195000Y-90270000D02*
X119960000Y-90270000D01*
X117211000Y-90230000D02*
X119960000Y-90230000D01*
X117227000Y-90190000D02*
X119960000Y-90190000D01*
X117243000Y-90150000D02*
X119960000Y-90150000D01*
X117260000Y-90110000D02*
X119960000Y-90110000D01*
X117278000Y-90070000D02*
X119960000Y-90070000D01*
X117296000Y-90030000D02*
X119960000Y-90030000D01*
X117315000Y-89990000D02*
X119960000Y-89990000D01*
X117334000Y-89950000D02*
X119960000Y-89950000D01*
X117354000Y-89910000D02*
X119960000Y-89910000D01*
X117374000Y-89870000D02*
X119960000Y-89870000D01*
X117395000Y-89830000D02*
X119960000Y-89830000D01*
X117416000Y-89790000D02*
X119960000Y-89790000D01*
X117438000Y-89750000D02*
X119960000Y-89750000D01*
X117461000Y-89710000D02*
X119960000Y-89710000D01*
X117484000Y-89670000D02*
X119960000Y-89670000D01*
X117507000Y-89630000D02*
X119960000Y-89630000D01*
X117532000Y-89590000D02*
X119960000Y-89590000D01*
X117557000Y-89550000D02*
X119960000Y-89550000D01*
X117582000Y-89510000D02*
X119960000Y-89510000D01*
X117608000Y-89470000D02*
X119960000Y-89470000D01*
X117635000Y-89430000D02*
X119960000Y-89430000D01*
X117663000Y-89390000D02*
X119960000Y-89390000D01*
X117691000Y-89350000D02*
X119960000Y-89350000D01*
X117720000Y-89310000D02*
X119960000Y-89310000D01*
X117750000Y-89270000D02*
X119960000Y-89270000D01*
X117781000Y-89230000D02*
X119960000Y-89230000D01*
X117812000Y-89190000D02*
X119960000Y-89190000D01*
X117844000Y-89150000D02*
X119960000Y-89150000D01*
X117877000Y-89110000D02*
X119960000Y-89110000D01*
X117911000Y-89070000D02*
X119960000Y-89070000D01*
X117945000Y-89030000D02*
X119960000Y-89030000D01*
X117981000Y-88990000D02*
X119960000Y-88990000D01*
X118018000Y-88950000D02*
X123982000Y-88950000D01*
X118055000Y-88910000D02*
X123945000Y-88910000D01*
X118094000Y-88870000D02*
X123906000Y-88870000D01*
X118133000Y-88830000D02*
X123867000Y-88830000D01*
X118174000Y-88790000D02*
X123826000Y-88790000D01*
X118216000Y-88750000D02*
X123784000Y-88750000D01*
X118259000Y-88710000D02*
X123741000Y-88710000D01*
X118285000Y-95759698D02*
X119085000Y-95759698D01*
X118304000Y-88670000D02*
X123696000Y-88670000D01*
X118349000Y-88630000D02*
X123651000Y-88630000D01*
X118396000Y-88590000D02*
X123604000Y-88590000D01*
X118445000Y-88550000D02*
X123555000Y-88550000D01*
X118495000Y-88510000D02*
X123505000Y-88510000D01*
X118547000Y-88470000D02*
X123453000Y-88470000D01*
X118600000Y-88430000D02*
X123400000Y-88430000D01*
X118656000Y-88390000D02*
X123344000Y-88390000D01*
X118685000Y-96159698D02*
X118685000Y-95359698D01*
X118713000Y-88350000D02*
X123287000Y-88350000D01*
X118773000Y-88310000D02*
X123227000Y-88310000D01*
X118835000Y-88270000D02*
X123165000Y-88270000D01*
X118899000Y-88230000D02*
X123101000Y-88230000D01*
X118966000Y-88190000D02*
X123034000Y-88190000D01*
X119036000Y-88150000D02*
X122964000Y-88150000D01*
X119110000Y-88110000D02*
X122890000Y-88110000D01*
X119187000Y-88070000D02*
X122813000Y-88070000D01*
X119269000Y-88030000D02*
X122731000Y-88030000D01*
X119356000Y-87990000D02*
X122644000Y-87990000D01*
X119448000Y-87950000D02*
X122552000Y-87950000D01*
X119547000Y-87910000D02*
X122453000Y-87910000D01*
X119654000Y-87870000D02*
X122346000Y-87870000D01*
X119772000Y-87830000D02*
X122228000Y-87830000D01*
X119903000Y-87790000D02*
X122097000Y-87790000D01*
X120053000Y-87750000D02*
X121947000Y-87750000D01*
X120232000Y-87710000D02*
X121768000Y-87710000D01*
X120467000Y-87670000D02*
X121533000Y-87670000D01*
X122040000Y-88990000D02*
X124019000Y-88990000D01*
X122040000Y-89030000D02*
X124055000Y-89030000D01*
X122040000Y-89070000D02*
X124089000Y-89070000D01*
X122040000Y-89110000D02*
X124123000Y-89110000D01*
X122040000Y-89150000D02*
X124156000Y-89150000D01*
X122040000Y-89190000D02*
X124188000Y-89190000D01*
X122040000Y-89230000D02*
X124219000Y-89230000D01*
X122040000Y-89270000D02*
X124250000Y-89270000D01*
X122040000Y-89310000D02*
X124280000Y-89310000D01*
X122040000Y-89350000D02*
X124309000Y-89350000D01*
X122040000Y-89390000D02*
X124337000Y-89390000D01*
X122040000Y-89430000D02*
X124365000Y-89430000D01*
X122040000Y-89470000D02*
X124392000Y-89470000D01*
X122040000Y-89510000D02*
X124418000Y-89510000D01*
X122040000Y-89550000D02*
X124443000Y-89550000D01*
X122040000Y-89590000D02*
X124468000Y-89590000D01*
X122040000Y-89630000D02*
X124493000Y-89630000D01*
X122040000Y-89670000D02*
X124516000Y-89670000D01*
X122040000Y-89710000D02*
X124539000Y-89710000D01*
X122040000Y-89750000D02*
X124562000Y-89750000D01*
X122040000Y-89790000D02*
X124584000Y-89790000D01*
X122040000Y-89830000D02*
X124605000Y-89830000D01*
X122040000Y-89870000D02*
X124626000Y-89870000D01*
X122040000Y-89910000D02*
X124646000Y-89910000D01*
X122040000Y-89950000D02*
X124666000Y-89950000D01*
X122040000Y-89990000D02*
X124685000Y-89990000D01*
X122040000Y-90030000D02*
X124704000Y-90030000D01*
X122040000Y-90070000D02*
X124722000Y-90070000D01*
X122040000Y-90110000D02*
X124740000Y-90110000D01*
X122040000Y-90150000D02*
X124757000Y-90150000D01*
X122040000Y-90190000D02*
X124773000Y-90190000D01*
X122040000Y-90230000D02*
X124789000Y-90230000D01*
X122040000Y-90270000D02*
X124805000Y-90270000D01*
X122040000Y-90310000D02*
X124820000Y-90310000D01*
X122040000Y-90350000D02*
X124835000Y-90350000D01*
X122040000Y-90390000D02*
X124849000Y-90390000D01*
X122040000Y-90430000D02*
X124863000Y-90430000D01*
X122040000Y-90470000D02*
X124876000Y-90470000D01*
X122040000Y-90510000D02*
X124889000Y-90510000D01*
X122040000Y-90550000D02*
X124901000Y-90550000D01*
X122040000Y-90590000D02*
X124913000Y-90590000D01*
X122040000Y-90630000D02*
X124925000Y-90630000D01*
X122040000Y-90670000D02*
X124936000Y-90670000D01*
X122040000Y-90710000D02*
X124947000Y-90710000D01*
X122040000Y-90750000D02*
X124957000Y-90750000D01*
X122040000Y-90790000D02*
X124967000Y-90790000D01*
X122040000Y-90830000D02*
X124976000Y-90830000D01*
X122040000Y-90870000D02*
X124985000Y-90870000D01*
X122040000Y-90910000D02*
X124993000Y-90910000D01*
X122040000Y-90950000D02*
X125002000Y-90950000D01*
X122040000Y-90990000D02*
X125009000Y-90990000D01*
X122040000Y-91030000D02*
X125017000Y-91030000D01*
X125120000Y-91750000D02*
G75*
G02*
X116880000Y-91750000I-4120000J0D01*
G01*
X116880000Y-91750000D02*
G75*
G02*
X125120000Y-91750000I4120000J0D01*
G01*
X107612500Y-29630000D02*
X115652500Y-29630000D01*
X107612500Y-32450000D02*
X107612500Y-29630000D01*
X107612500Y-40370000D02*
X107612500Y-33050000D01*
X109732500Y-29630000D02*
X109732500Y-30870000D01*
X109732500Y-34630000D02*
X109732500Y-37207000D01*
X109732500Y-38293000D02*
X109732500Y-40370000D01*
X111032500Y-29630000D02*
X111032500Y-30870000D01*
X111032500Y-34630000D02*
X111032500Y-35938000D01*
X111032500Y-39562000D02*
X111032500Y-40370000D01*
X112032500Y-29630000D02*
X112032500Y-30870000D01*
X112032500Y-34630000D02*
X112032500Y-35938000D01*
X112032500Y-39562000D02*
X112032500Y-40370000D01*
X115652500Y-29630000D02*
X115652500Y-40370000D01*
X115652500Y-40370000D02*
X107612500Y-40370000D01*
X107612500Y-32750000D02*
X107002500Y-33190000D01*
X107002500Y-32310000D01*
X107612500Y-32750000D01*
G36*
X107612500Y-32750000D02*
G01*
X107002500Y-33190000D01*
X107002500Y-32310000D01*
X107612500Y-32750000D01*
G37*
X84390000Y-45890000D02*
X85500000Y-45890000D01*
X84390000Y-47000000D02*
X84390000Y-45890000D01*
X84390000Y-48000000D02*
X84390000Y-58110000D01*
X84390000Y-48000000D02*
X86610000Y-48000000D01*
X84390000Y-58110000D02*
X86610000Y-58110000D01*
X86610000Y-48000000D02*
X86610000Y-58110000D01*
X153420000Y-59130000D02*
X153420000Y-59460000D01*
X153420000Y-61870000D02*
X153420000Y-61540000D01*
X159960000Y-59130000D02*
X153420000Y-59130000D01*
X159960000Y-59460000D02*
X159960000Y-59130000D01*
X159960000Y-61540000D02*
X159960000Y-61870000D01*
X159960000Y-61870000D02*
X153420000Y-61870000D01*
X162287677Y-84599000D02*
X162287677Y-83401000D01*
X162327677Y-84862000D02*
X162327677Y-83138000D01*
X162367677Y-85062000D02*
X162367677Y-82938000D01*
X162407677Y-85230000D02*
X162407677Y-82770000D01*
X162447677Y-85377000D02*
X162447677Y-82623000D01*
X162487677Y-85509000D02*
X162487677Y-82491000D01*
X162527677Y-85630000D02*
X162527677Y-82370000D01*
X162567677Y-85742000D02*
X162567677Y-82258000D01*
X162607677Y-85846000D02*
X162607677Y-82154000D01*
X162647677Y-85944000D02*
X162647677Y-82056000D01*
X162687677Y-86037000D02*
X162687677Y-81963000D01*
X162727677Y-86124000D02*
X162727677Y-81876000D01*
X162767677Y-86208000D02*
X162767677Y-81792000D01*
X162807677Y-86288000D02*
X162807677Y-81712000D01*
X162847677Y-86365000D02*
X162847677Y-81635000D01*
X162887677Y-86439000D02*
X162887677Y-81561000D01*
X162927677Y-86510000D02*
X162927677Y-81490000D01*
X162967677Y-86578000D02*
X162967677Y-81422000D01*
X163007677Y-86644000D02*
X163007677Y-81356000D01*
X163047677Y-86708000D02*
X163047677Y-81292000D01*
X163087677Y-86770000D02*
X163087677Y-81230000D01*
X163127677Y-86830000D02*
X163127677Y-81170000D01*
X163167677Y-86888000D02*
X163167677Y-81112000D01*
X163207677Y-86945000D02*
X163207677Y-81055000D01*
X163247677Y-87000000D02*
X163247677Y-81000000D01*
X163287677Y-87053000D02*
X163287677Y-80947000D01*
X163327677Y-87105000D02*
X163327677Y-80895000D01*
X163367677Y-87156000D02*
X163367677Y-80844000D01*
X163407677Y-87205000D02*
X163407677Y-80795000D01*
X163447677Y-87254000D02*
X163447677Y-80746000D01*
X163487677Y-87301000D02*
X163487677Y-80699000D01*
X163527677Y-87347000D02*
X163527677Y-80653000D01*
X163567677Y-87391000D02*
X163567677Y-80609000D01*
X163607677Y-87435000D02*
X163607677Y-80565000D01*
X163647677Y-82760000D02*
X163647677Y-80522000D01*
X163647677Y-87478000D02*
X163647677Y-85240000D01*
X163687677Y-82760000D02*
X163687677Y-80480000D01*
X163687677Y-87520000D02*
X163687677Y-85240000D01*
X163727677Y-82760000D02*
X163727677Y-80439000D01*
X163727677Y-87561000D02*
X163727677Y-85240000D01*
X163767677Y-82760000D02*
X163767677Y-80399000D01*
X163767677Y-87601000D02*
X163767677Y-85240000D01*
X163807677Y-82760000D02*
X163807677Y-80360000D01*
X163807677Y-87640000D02*
X163807677Y-85240000D01*
X163847677Y-82760000D02*
X163847677Y-80322000D01*
X163847677Y-87678000D02*
X163847677Y-85240000D01*
X163887677Y-82760000D02*
X163887677Y-80284000D01*
X163887677Y-87716000D02*
X163887677Y-85240000D01*
X163927677Y-82760000D02*
X163927677Y-80248000D01*
X163927677Y-87752000D02*
X163927677Y-85240000D01*
X163967677Y-82760000D02*
X163967677Y-80212000D01*
X163967677Y-87788000D02*
X163967677Y-85240000D01*
X164007677Y-82760000D02*
X164007677Y-80177000D01*
X164007677Y-87823000D02*
X164007677Y-85240000D01*
X164047677Y-82760000D02*
X164047677Y-80142000D01*
X164047677Y-87858000D02*
X164047677Y-85240000D01*
X164087677Y-82760000D02*
X164087677Y-80109000D01*
X164087677Y-87891000D02*
X164087677Y-85240000D01*
X164127677Y-82760000D02*
X164127677Y-80076000D01*
X164127677Y-87924000D02*
X164127677Y-85240000D01*
X164167677Y-82760000D02*
X164167677Y-80043000D01*
X164167677Y-87957000D02*
X164167677Y-85240000D01*
X164207677Y-82760000D02*
X164207677Y-80012000D01*
X164207677Y-87988000D02*
X164207677Y-85240000D01*
X164247677Y-82760000D02*
X164247677Y-79980000D01*
X164247677Y-88020000D02*
X164247677Y-85240000D01*
X164287677Y-82760000D02*
X164287677Y-79950000D01*
X164287677Y-88050000D02*
X164287677Y-85240000D01*
X164327677Y-82760000D02*
X164327677Y-79920000D01*
X164327677Y-88080000D02*
X164327677Y-85240000D01*
X164367677Y-82760000D02*
X164367677Y-79891000D01*
X164367677Y-88109000D02*
X164367677Y-85240000D01*
X164407677Y-82760000D02*
X164407677Y-79862000D01*
X164407677Y-88138000D02*
X164407677Y-85240000D01*
X164447677Y-82760000D02*
X164447677Y-79834000D01*
X164447677Y-88166000D02*
X164447677Y-85240000D01*
X164487677Y-82760000D02*
X164487677Y-79807000D01*
X164487677Y-88193000D02*
X164487677Y-85240000D01*
X164527677Y-82760000D02*
X164527677Y-79780000D01*
X164527677Y-88220000D02*
X164527677Y-85240000D01*
X164567677Y-82760000D02*
X164567677Y-79753000D01*
X164567677Y-88247000D02*
X164567677Y-85240000D01*
X164607677Y-82760000D02*
X164607677Y-79728000D01*
X164607677Y-88272000D02*
X164607677Y-85240000D01*
X164647677Y-82760000D02*
X164647677Y-79702000D01*
X164647677Y-88298000D02*
X164647677Y-85240000D01*
X164687677Y-82760000D02*
X164687677Y-79677000D01*
X164687677Y-88323000D02*
X164687677Y-85240000D01*
X164727677Y-82760000D02*
X164727677Y-79653000D01*
X164727677Y-88347000D02*
X164727677Y-85240000D01*
X164767677Y-82760000D02*
X164767677Y-79629000D01*
X164767677Y-88371000D02*
X164767677Y-85240000D01*
X164807677Y-82760000D02*
X164807677Y-79606000D01*
X164807677Y-88394000D02*
X164807677Y-85240000D01*
X164847677Y-82760000D02*
X164847677Y-79583000D01*
X164847677Y-88417000D02*
X164847677Y-85240000D01*
X164887677Y-82760000D02*
X164887677Y-79561000D01*
X164887677Y-88439000D02*
X164887677Y-85240000D01*
X164927677Y-82760000D02*
X164927677Y-79539000D01*
X164927677Y-88461000D02*
X164927677Y-85240000D01*
X164967677Y-82760000D02*
X164967677Y-79517000D01*
X164967677Y-88483000D02*
X164967677Y-85240000D01*
X165007677Y-82760000D02*
X165007677Y-79496000D01*
X165007677Y-88504000D02*
X165007677Y-85240000D01*
X165047677Y-82760000D02*
X165047677Y-79476000D01*
X165047677Y-88524000D02*
X165047677Y-85240000D01*
X165087677Y-82760000D02*
X165087677Y-79456000D01*
X165087677Y-88544000D02*
X165087677Y-85240000D01*
X165127677Y-82760000D02*
X165127677Y-79436000D01*
X165127677Y-88564000D02*
X165127677Y-85240000D01*
X165167677Y-82760000D02*
X165167677Y-79417000D01*
X165167677Y-88583000D02*
X165167677Y-85240000D01*
X165207677Y-82760000D02*
X165207677Y-79398000D01*
X165207677Y-88602000D02*
X165207677Y-85240000D01*
X165247677Y-82760000D02*
X165247677Y-79380000D01*
X165247677Y-88620000D02*
X165247677Y-85240000D01*
X165287677Y-82760000D02*
X165287677Y-79362000D01*
X165287677Y-88638000D02*
X165287677Y-85240000D01*
X165327677Y-82760000D02*
X165327677Y-79344000D01*
X165327677Y-88656000D02*
X165327677Y-85240000D01*
X165367677Y-82760000D02*
X165367677Y-79327000D01*
X165367677Y-88673000D02*
X165367677Y-85240000D01*
X165407677Y-82760000D02*
X165407677Y-79310000D01*
X165407677Y-88690000D02*
X165407677Y-85240000D01*
X165447677Y-82760000D02*
X165447677Y-79294000D01*
X165447677Y-88706000D02*
X165447677Y-85240000D01*
X165487677Y-82760000D02*
X165487677Y-79278000D01*
X165487677Y-88722000D02*
X165487677Y-85240000D01*
X165527677Y-82760000D02*
X165527677Y-79262000D01*
X165527677Y-88738000D02*
X165527677Y-85240000D01*
X165567677Y-82760000D02*
X165567677Y-79247000D01*
X165567677Y-88753000D02*
X165567677Y-85240000D01*
X165607677Y-82760000D02*
X165607677Y-79232000D01*
X165607677Y-88768000D02*
X165607677Y-85240000D01*
X165647677Y-82760000D02*
X165647677Y-79218000D01*
X165647677Y-88782000D02*
X165647677Y-85240000D01*
X165687677Y-82760000D02*
X165687677Y-79203000D01*
X165687677Y-88797000D02*
X165687677Y-85240000D01*
X165727677Y-82760000D02*
X165727677Y-79190000D01*
X165727677Y-88810000D02*
X165727677Y-85240000D01*
X165767677Y-82760000D02*
X165767677Y-79176000D01*
X165767677Y-88824000D02*
X165767677Y-85240000D01*
X165807677Y-82760000D02*
X165807677Y-79163000D01*
X165807677Y-88837000D02*
X165807677Y-85240000D01*
X165847677Y-82760000D02*
X165847677Y-79151000D01*
X165847677Y-88849000D02*
X165847677Y-85240000D01*
X165887677Y-82760000D02*
X165887677Y-79139000D01*
X165887677Y-88861000D02*
X165887677Y-85240000D01*
X165927677Y-82760000D02*
X165927677Y-79127000D01*
X165927677Y-88873000D02*
X165927677Y-85240000D01*
X165967677Y-82760000D02*
X165967677Y-79115000D01*
X165967677Y-88885000D02*
X165967677Y-85240000D01*
X166007677Y-82760000D02*
X166007677Y-79104000D01*
X166007677Y-88896000D02*
X166007677Y-85240000D01*
X166047677Y-82760000D02*
X166047677Y-79093000D01*
X166047677Y-88907000D02*
X166047677Y-85240000D01*
X166087677Y-82760000D02*
X166087677Y-79083000D01*
X166087677Y-88917000D02*
X166087677Y-85240000D01*
X166127677Y-88928000D02*
X166127677Y-79072000D01*
X166167677Y-88937000D02*
X166167677Y-79063000D01*
X166207677Y-88947000D02*
X166207677Y-79053000D01*
X166247677Y-88956000D02*
X166247677Y-79044000D01*
X166287677Y-88965000D02*
X166287677Y-79035000D01*
X166327677Y-88973000D02*
X166327677Y-79027000D01*
X166367677Y-88981000D02*
X166367677Y-79019000D01*
X166407677Y-88989000D02*
X166407677Y-79011000D01*
X166447677Y-88997000D02*
X166447677Y-79003000D01*
X166487677Y-89004000D02*
X166487677Y-78996000D01*
X166527677Y-89011000D02*
X166527677Y-78989000D01*
X166567677Y-89017000D02*
X166567677Y-78983000D01*
X166607677Y-89023000D02*
X166607677Y-78977000D01*
X166647677Y-89029000D02*
X166647677Y-78971000D01*
X166687677Y-89035000D02*
X166687677Y-78965000D01*
X166727677Y-89040000D02*
X166727677Y-78960000D01*
X166767677Y-89045000D02*
X166767677Y-78955000D01*
X166807677Y-89049000D02*
X166807677Y-78951000D01*
X166847677Y-89054000D02*
X166847677Y-78946000D01*
X166887677Y-89057000D02*
X166887677Y-78943000D01*
X166927677Y-89061000D02*
X166927677Y-78939000D01*
X166967677Y-89064000D02*
X166967677Y-78936000D01*
X167007677Y-89067000D02*
X167007677Y-78933000D01*
X167047677Y-89070000D02*
X167047677Y-78930000D01*
X167087677Y-89072000D02*
X167087677Y-78928000D01*
X167127677Y-89074000D02*
X167127677Y-78926000D01*
X167167677Y-89076000D02*
X167167677Y-78924000D01*
X167207677Y-89077000D02*
X167207677Y-78923000D01*
X167247677Y-89079000D02*
X167247677Y-78921000D01*
X167287677Y-89079000D02*
X167287677Y-78921000D01*
X167327677Y-89080000D02*
X167327677Y-78920000D01*
X167367677Y-89080000D02*
X167367677Y-78920000D01*
X172347323Y-87375000D02*
X172347323Y-86375000D01*
X172847323Y-86875000D02*
X171847323Y-86875000D01*
X172487677Y-84000000D02*
G75*
G02*
X162247677Y-84000000I-5120000J0D01*
G01*
X162247677Y-84000000D02*
G75*
G02*
X172487677Y-84000000I5120000J0D01*
G01*
X127730000Y-86630000D02*
X134270000Y-86630000D01*
X127730000Y-86960000D02*
X127730000Y-86630000D01*
X127730000Y-89040000D02*
X127730000Y-89370000D01*
X127730000Y-89370000D02*
X134270000Y-89370000D01*
X134270000Y-86630000D02*
X134270000Y-86960000D01*
X134270000Y-89370000D02*
X134270000Y-89040000D01*
X151730000Y-84630000D02*
X151730000Y-84960000D01*
X151730000Y-87370000D02*
X151730000Y-87040000D01*
X158270000Y-84630000D02*
X151730000Y-84630000D01*
X158270000Y-84960000D02*
X158270000Y-84630000D01*
X158270000Y-87040000D02*
X158270000Y-87370000D01*
X158270000Y-87370000D02*
X151730000Y-87370000D01*
X130630000Y-72130000D02*
X135870000Y-72130000D01*
X130630000Y-74870000D02*
X130630000Y-72130000D01*
X135870000Y-72130000D02*
X135870000Y-74870000D01*
X135870000Y-74870000D02*
X130630000Y-74870000D01*
X84390000Y-97500000D02*
X84390000Y-89390000D01*
X86610000Y-89390000D02*
X84390000Y-89390000D01*
X86610000Y-97500000D02*
X84390000Y-97500000D01*
X86610000Y-97500000D02*
X86610000Y-89390000D01*
X86610000Y-98500000D02*
X86610000Y-99610000D01*
X86610000Y-99610000D02*
X85500000Y-99610000D01*
X127730000Y-77630000D02*
X127730000Y-77960000D01*
X127730000Y-80370000D02*
X127730000Y-80040000D01*
X134270000Y-77630000D02*
X127730000Y-77630000D01*
X134270000Y-77960000D02*
X134270000Y-77630000D01*
X134270000Y-80040000D02*
X134270000Y-80370000D01*
X134270000Y-80370000D02*
X127730000Y-80370000D01*
X117320000Y-78940000D02*
X120060000Y-78940000D01*
X117320000Y-84180000D02*
X117320000Y-78940000D01*
X120060000Y-78940000D02*
X120060000Y-84180000D01*
X120060000Y-84180000D02*
X117320000Y-84180000D01*
X125940000Y-58500000D02*
X127080000Y-58500000D01*
X148460000Y-58500000D02*
X147320000Y-58500000D01*
X127080000Y-53880000D02*
X147320000Y-53880000D01*
X147320000Y-63120000D01*
X127080000Y-63120000D01*
X127080000Y-53880000D01*
X84390000Y-60890000D02*
X85500000Y-60890000D01*
X84390000Y-62000000D02*
X84390000Y-60890000D01*
X84390000Y-63000000D02*
X84390000Y-75110000D01*
X84390000Y-63000000D02*
X86610000Y-63000000D01*
X84390000Y-75110000D02*
X86610000Y-75110000D01*
X86610000Y-63000000D02*
X86610000Y-75110000D01*
X133890000Y-64890000D02*
X135000000Y-64890000D01*
X133890000Y-66000000D02*
X133890000Y-64890000D01*
X133890000Y-67000000D02*
X133890000Y-69110000D01*
X133890000Y-67000000D02*
X136000000Y-67000000D01*
X133890000Y-69110000D02*
X138110000Y-69110000D01*
X136000000Y-64890000D02*
X138110000Y-64890000D01*
X136000000Y-67000000D02*
X136000000Y-64890000D01*
X138110000Y-64890000D02*
X138110000Y-69110000D01*
X158630000Y-94080000D02*
X165950000Y-94080000D01*
X158630000Y-102120000D02*
X158630000Y-94080000D01*
X159438000Y-97500000D02*
X158630000Y-97500000D01*
X159438000Y-98500000D02*
X158630000Y-98500000D01*
X160707000Y-96200000D02*
X158630000Y-96200000D01*
X164370000Y-96200000D02*
X161793000Y-96200000D01*
X164370000Y-97500000D02*
X163062000Y-97500000D01*
X164370000Y-98500000D02*
X163062000Y-98500000D01*
X166550000Y-94080000D02*
X169370000Y-94080000D01*
X169370000Y-94080000D02*
X169370000Y-102120000D01*
X169370000Y-96200000D02*
X168130000Y-96200000D01*
X169370000Y-97500000D02*
X168130000Y-97500000D01*
X169370000Y-98500000D02*
X168130000Y-98500000D01*
X169370000Y-102120000D02*
X158630000Y-102120000D01*
X166250000Y-94080000D02*
X165810000Y-93470000D01*
X166690000Y-93470000D01*
X166250000Y-94080000D01*
G36*
X166250000Y-94080000D02*
G01*
X165810000Y-93470000D01*
X166690000Y-93470000D01*
X166250000Y-94080000D01*
G37*
X167130000Y-52630000D02*
X169870000Y-52630000D01*
X167130000Y-57870000D02*
X167130000Y-52630000D01*
X169870000Y-52630000D02*
X169870000Y-57870000D01*
X169870000Y-57870000D02*
X167130000Y-57870000D01*
X126995302Y-94565000D02*
X127795302Y-94565000D01*
X127395302Y-94165000D02*
X127395302Y-94965000D01*
X131405000Y-92800000D02*
X131405000Y-100960000D01*
X131445000Y-92800000D02*
X131445000Y-100960000D01*
X131485000Y-92801000D02*
X131485000Y-100959000D01*
X131525000Y-92802000D02*
X131525000Y-100958000D01*
X131565000Y-92803000D02*
X131565000Y-100957000D01*
X131605000Y-92805000D02*
X131605000Y-100955000D01*
X131645000Y-92807000D02*
X131645000Y-100953000D01*
X131685000Y-92810000D02*
X131685000Y-100950000D01*
X131725000Y-92812000D02*
X131725000Y-100948000D01*
X131765000Y-92816000D02*
X131765000Y-100944000D01*
X131805000Y-92819000D02*
X131805000Y-100941000D01*
X131845000Y-92824000D02*
X131845000Y-100936000D01*
X131885000Y-92828000D02*
X131885000Y-100932000D01*
X131925000Y-92833000D02*
X131925000Y-100927000D01*
X131965000Y-92838000D02*
X131965000Y-100922000D01*
X132005000Y-92844000D02*
X132005000Y-100916000D01*
X132045000Y-92850000D02*
X132045000Y-100910000D01*
X132085000Y-92857000D02*
X132085000Y-100903000D01*
X132125000Y-92863000D02*
X132125000Y-95840000D01*
X132125000Y-97920000D02*
X132125000Y-100897000D01*
X132165000Y-92871000D02*
X132165000Y-95840000D01*
X132165000Y-97920000D02*
X132165000Y-100889000D01*
X132205000Y-92878000D02*
X132205000Y-95840000D01*
X132205000Y-97920000D02*
X132205000Y-100882000D01*
X132245000Y-92887000D02*
X132245000Y-95840000D01*
X132245000Y-97920000D02*
X132245000Y-100873000D01*
X132285000Y-92895000D02*
X132285000Y-95840000D01*
X132285000Y-97920000D02*
X132285000Y-100865000D01*
X132325000Y-92904000D02*
X132325000Y-95840000D01*
X132325000Y-97920000D02*
X132325000Y-100856000D01*
X132365000Y-92913000D02*
X132365000Y-95840000D01*
X132365000Y-97920000D02*
X132365000Y-100847000D01*
X132405000Y-92923000D02*
X132405000Y-95840000D01*
X132405000Y-97920000D02*
X132405000Y-100837000D01*
X132445000Y-92933000D02*
X132445000Y-95840000D01*
X132445000Y-97920000D02*
X132445000Y-100827000D01*
X132485000Y-92944000D02*
X132485000Y-95840000D01*
X132485000Y-97920000D02*
X132485000Y-100816000D01*
X132525000Y-92955000D02*
X132525000Y-95840000D01*
X132525000Y-97920000D02*
X132525000Y-100805000D01*
X132565000Y-92967000D02*
X132565000Y-95840000D01*
X132565000Y-97920000D02*
X132565000Y-100793000D01*
X132605000Y-92979000D02*
X132605000Y-95840000D01*
X132605000Y-97920000D02*
X132605000Y-100781000D01*
X132645000Y-92991000D02*
X132645000Y-95840000D01*
X132645000Y-97920000D02*
X132645000Y-100769000D01*
X132685000Y-93004000D02*
X132685000Y-95840000D01*
X132685000Y-97920000D02*
X132685000Y-100756000D01*
X132725000Y-93017000D02*
X132725000Y-95840000D01*
X132725000Y-97920000D02*
X132725000Y-100743000D01*
X132765000Y-93031000D02*
X132765000Y-95840000D01*
X132765000Y-97920000D02*
X132765000Y-100729000D01*
X132805000Y-93045000D02*
X132805000Y-95840000D01*
X132805000Y-97920000D02*
X132805000Y-100715000D01*
X132845000Y-93060000D02*
X132845000Y-95840000D01*
X132845000Y-97920000D02*
X132845000Y-100700000D01*
X132885000Y-93075000D02*
X132885000Y-95840000D01*
X132885000Y-97920000D02*
X132885000Y-100685000D01*
X132925000Y-93091000D02*
X132925000Y-95840000D01*
X132925000Y-97920000D02*
X132925000Y-100669000D01*
X132965000Y-93107000D02*
X132965000Y-95840000D01*
X132965000Y-97920000D02*
X132965000Y-100653000D01*
X133005000Y-93123000D02*
X133005000Y-95840000D01*
X133005000Y-97920000D02*
X133005000Y-100637000D01*
X133045000Y-93140000D02*
X133045000Y-95840000D01*
X133045000Y-97920000D02*
X133045000Y-100620000D01*
X133085000Y-93158000D02*
X133085000Y-95840000D01*
X133085000Y-97920000D02*
X133085000Y-100602000D01*
X133125000Y-93176000D02*
X133125000Y-95840000D01*
X133125000Y-97920000D02*
X133125000Y-100584000D01*
X133165000Y-93195000D02*
X133165000Y-95840000D01*
X133165000Y-97920000D02*
X133165000Y-100565000D01*
X133205000Y-93214000D02*
X133205000Y-95840000D01*
X133205000Y-97920000D02*
X133205000Y-100546000D01*
X133245000Y-93234000D02*
X133245000Y-95840000D01*
X133245000Y-97920000D02*
X133245000Y-100526000D01*
X133285000Y-93254000D02*
X133285000Y-95840000D01*
X133285000Y-97920000D02*
X133285000Y-100506000D01*
X133325000Y-93275000D02*
X133325000Y-95840000D01*
X133325000Y-97920000D02*
X133325000Y-100485000D01*
X133365000Y-93296000D02*
X133365000Y-95840000D01*
X133365000Y-97920000D02*
X133365000Y-100464000D01*
X133405000Y-93318000D02*
X133405000Y-95840000D01*
X133405000Y-97920000D02*
X133405000Y-100442000D01*
X133445000Y-93341000D02*
X133445000Y-95840000D01*
X133445000Y-97920000D02*
X133445000Y-100419000D01*
X133485000Y-93364000D02*
X133485000Y-95840000D01*
X133485000Y-97920000D02*
X133485000Y-100396000D01*
X133525000Y-93387000D02*
X133525000Y-95840000D01*
X133525000Y-97920000D02*
X133525000Y-100373000D01*
X133565000Y-93412000D02*
X133565000Y-95840000D01*
X133565000Y-97920000D02*
X133565000Y-100348000D01*
X133605000Y-93437000D02*
X133605000Y-95840000D01*
X133605000Y-97920000D02*
X133605000Y-100323000D01*
X133645000Y-93462000D02*
X133645000Y-95840000D01*
X133645000Y-97920000D02*
X133645000Y-100298000D01*
X133685000Y-93488000D02*
X133685000Y-95840000D01*
X133685000Y-97920000D02*
X133685000Y-100272000D01*
X133725000Y-93515000D02*
X133725000Y-95840000D01*
X133725000Y-97920000D02*
X133725000Y-100245000D01*
X133765000Y-93543000D02*
X133765000Y-95840000D01*
X133765000Y-97920000D02*
X133765000Y-100217000D01*
X133805000Y-93571000D02*
X133805000Y-95840000D01*
X133805000Y-97920000D02*
X133805000Y-100189000D01*
X133845000Y-93600000D02*
X133845000Y-95840000D01*
X133845000Y-97920000D02*
X133845000Y-100160000D01*
X133885000Y-93630000D02*
X133885000Y-95840000D01*
X133885000Y-97920000D02*
X133885000Y-100130000D01*
X133925000Y-93661000D02*
X133925000Y-95840000D01*
X133925000Y-97920000D02*
X133925000Y-100099000D01*
X133965000Y-93692000D02*
X133965000Y-95840000D01*
X133965000Y-97920000D02*
X133965000Y-100068000D01*
X134005000Y-93724000D02*
X134005000Y-95840000D01*
X134005000Y-97920000D02*
X134005000Y-100036000D01*
X134045000Y-93757000D02*
X134045000Y-95840000D01*
X134045000Y-97920000D02*
X134045000Y-100003000D01*
X134085000Y-93791000D02*
X134085000Y-95840000D01*
X134085000Y-97920000D02*
X134085000Y-99969000D01*
X134125000Y-93825000D02*
X134125000Y-95840000D01*
X134125000Y-97920000D02*
X134125000Y-99935000D01*
X134165000Y-93861000D02*
X134165000Y-95840000D01*
X134165000Y-97920000D02*
X134165000Y-99899000D01*
X134205000Y-93898000D02*
X134205000Y-99862000D01*
X134245000Y-93935000D02*
X134245000Y-99825000D01*
X134285000Y-93974000D02*
X134285000Y-99786000D01*
X134325000Y-94013000D02*
X134325000Y-99747000D01*
X134365000Y-94054000D02*
X134365000Y-99706000D01*
X134405000Y-94096000D02*
X134405000Y-99664000D01*
X134445000Y-94139000D02*
X134445000Y-99621000D01*
X134485000Y-94184000D02*
X134485000Y-99576000D01*
X134525000Y-94229000D02*
X134525000Y-99531000D01*
X134565000Y-94276000D02*
X134565000Y-99484000D01*
X134605000Y-94325000D02*
X134605000Y-99435000D01*
X134645000Y-94375000D02*
X134645000Y-99385000D01*
X134685000Y-94427000D02*
X134685000Y-99333000D01*
X134725000Y-94480000D02*
X134725000Y-99280000D01*
X134765000Y-94536000D02*
X134765000Y-99224000D01*
X134805000Y-94593000D02*
X134805000Y-99167000D01*
X134845000Y-94653000D02*
X134845000Y-99107000D01*
X134885000Y-94715000D02*
X134885000Y-99045000D01*
X134925000Y-94779000D02*
X134925000Y-98981000D01*
X134965000Y-94846000D02*
X134965000Y-98914000D01*
X135005000Y-94916000D02*
X135005000Y-98844000D01*
X135045000Y-94990000D02*
X135045000Y-98770000D01*
X135085000Y-95067000D02*
X135085000Y-98693000D01*
X135125000Y-95149000D02*
X135125000Y-98611000D01*
X135165000Y-95236000D02*
X135165000Y-98524000D01*
X135205000Y-95328000D02*
X135205000Y-98432000D01*
X135245000Y-95427000D02*
X135245000Y-98333000D01*
X135285000Y-95534000D02*
X135285000Y-98226000D01*
X135325000Y-95652000D02*
X135325000Y-98108000D01*
X135365000Y-95783000D02*
X135365000Y-97977000D01*
X135405000Y-95933000D02*
X135405000Y-97827000D01*
X135445000Y-96112000D02*
X135445000Y-97648000D01*
X135485000Y-96347000D02*
X135485000Y-97413000D01*
X135525000Y-96880000D02*
G75*
G02*
X127285000Y-96880000I-4120000J0D01*
G01*
X127285000Y-96880000D02*
G75*
G02*
X135525000Y-96880000I4120000J0D01*
G01*
X151730000Y-80630000D02*
X151730000Y-80960000D01*
X151730000Y-83370000D02*
X151730000Y-83040000D01*
X158270000Y-80630000D02*
X151730000Y-80630000D01*
X158270000Y-80960000D02*
X158270000Y-80630000D01*
X158270000Y-83040000D02*
X158270000Y-83370000D01*
X158270000Y-83370000D02*
X151730000Y-83370000D01*
D12*
X139697500Y-78560000D02*
X146302500Y-78560000D01*
X139697500Y-78745000D02*
X139697500Y-78560000D01*
X139697500Y-88440000D02*
X139697500Y-88255000D01*
X146302500Y-78560000D02*
X146302500Y-78745000D01*
X146302500Y-88440000D02*
X139697500Y-88440000D01*
X146302500Y-88440000D02*
X146302500Y-88255000D01*
D14*
X137850000Y-79690000D02*
G75*
G02*
X137650000Y-79690000I-100000J0D01*
G01*
X137650000Y-79690000D02*
G75*
G02*
X137850000Y-79690000I100000J0D01*
G01*
D12*
X136920000Y-70902500D02*
X147080000Y-70902500D01*
X136920000Y-75097500D02*
X136920000Y-70902500D01*
X147080000Y-70902500D02*
X147080000Y-75097500D01*
X147080000Y-75097500D02*
X136920000Y-75097500D01*
D14*
X136330000Y-73620000D02*
G75*
G02*
X136130000Y-73620000I-100000J0D01*
G01*
X136130000Y-73620000D02*
G75*
G02*
X136330000Y-73620000I100000J0D01*
G01*
D13*
X163130000Y-52630000D02*
X165870000Y-52630000D01*
X163130000Y-57870000D02*
X163130000Y-52630000D01*
X165870000Y-52630000D02*
X165870000Y-57870000D01*
X165870000Y-57870000D02*
X163130000Y-57870000D01*
X140255000Y-100000000D02*
X141165000Y-100000000D01*
X149240000Y-102720000D02*
X149240000Y-97280000D01*
X149360000Y-102720000D02*
X149360000Y-97280000D01*
X149480000Y-102720000D02*
X149480000Y-97280000D01*
X151815000Y-100000000D02*
X150905000Y-100000000D01*
X141165000Y-97280000D02*
X150905000Y-97280000D01*
X150905000Y-102720000D01*
X141165000Y-102720000D01*
X141165000Y-97280000D01*
X180230000Y-55880000D02*
X199570000Y-55880000D01*
X180230000Y-77249000D02*
X180230000Y-55880000D01*
X180230000Y-102120000D02*
X180230000Y-80751000D01*
X199570000Y-55880000D02*
X199570000Y-77249000D01*
X199570000Y-80751000D02*
X199570000Y-102120000D01*
X199570000Y-102120000D02*
X180230000Y-102120000D01*
X127730000Y-82130000D02*
X127730000Y-82460000D01*
X127730000Y-84870000D02*
X127730000Y-84540000D01*
X134270000Y-82130000D02*
X127730000Y-82130000D01*
X134270000Y-82460000D02*
X134270000Y-82130000D01*
X134270000Y-84540000D02*
X134270000Y-84870000D01*
X134270000Y-84870000D02*
X127730000Y-84870000D01*
X144630000Y-66130000D02*
X149870000Y-66130000D01*
X144630000Y-68870000D02*
X144630000Y-66130000D01*
X149870000Y-66130000D02*
X149870000Y-68870000D01*
X149870000Y-68870000D02*
X144630000Y-68870000D01*
X122130000Y-77540000D02*
X122130000Y-84080000D01*
X122130000Y-84080000D02*
X122460000Y-84080000D01*
X122460000Y-77540000D02*
X122130000Y-77540000D01*
X124540000Y-77540000D02*
X124870000Y-77540000D01*
X124870000Y-77540000D02*
X124870000Y-84080000D01*
X124870000Y-84080000D02*
X124540000Y-84080000D01*
X151920000Y-70670000D02*
X168080000Y-70670000D01*
X151920000Y-70710000D02*
X168080000Y-70710000D01*
X151920000Y-70750000D02*
X168080000Y-70750000D01*
X151921000Y-70630000D02*
X168079000Y-70630000D01*
X151922000Y-70550000D02*
X168078000Y-70550000D01*
X151922000Y-70590000D02*
X168078000Y-70590000D01*
X151924000Y-70510000D02*
X168076000Y-70510000D01*
X151925000Y-70470000D02*
X168075000Y-70470000D01*
X151926000Y-70430000D02*
X168074000Y-70430000D01*
X151928000Y-70390000D02*
X168072000Y-70390000D01*
X151930000Y-70350000D02*
X168070000Y-70350000D01*
X151932000Y-70310000D02*
X168068000Y-70310000D01*
X151934000Y-70270000D02*
X168066000Y-70270000D01*
X151937000Y-70230000D02*
X168063000Y-70230000D01*
X151939000Y-70190000D02*
X168061000Y-70190000D01*
X151942000Y-70150000D02*
X168058000Y-70150000D01*
X151945000Y-70110000D02*
X168055000Y-70110000D01*
X151949000Y-70070000D02*
X168051000Y-70070000D01*
X151952000Y-70030000D02*
X168048000Y-70030000D01*
X151956000Y-69990000D02*
X168044000Y-69990000D01*
X151960000Y-69950000D02*
X168040000Y-69950000D01*
X151964000Y-69910000D02*
X168036000Y-69910000D01*
X151968000Y-69870000D02*
X168032000Y-69870000D01*
X151972000Y-69830000D02*
X168028000Y-69830000D01*
X151977000Y-69790000D02*
X168023000Y-69790000D01*
X151982000Y-69750000D02*
X168018000Y-69750000D01*
X151987000Y-69710000D02*
X168013000Y-69710000D01*
X151992000Y-69670000D02*
X168008000Y-69670000D01*
X151998000Y-69630000D02*
X168002000Y-69630000D01*
X152003000Y-69590000D02*
X167997000Y-69590000D01*
X152009000Y-69550000D02*
X167991000Y-69550000D01*
X152015000Y-69510000D02*
X167985000Y-69510000D01*
X152022000Y-69470000D02*
X167978000Y-69470000D01*
X152028000Y-69430000D02*
X167972000Y-69430000D01*
X152035000Y-69390000D02*
X167965000Y-69390000D01*
X152042000Y-69350000D02*
X167958000Y-69350000D01*
X152049000Y-69310000D02*
X167951000Y-69310000D01*
X152056000Y-69270000D02*
X167944000Y-69270000D01*
X152064000Y-69230000D02*
X167936000Y-69230000D01*
X152071000Y-69190000D02*
X167929000Y-69190000D01*
X152079000Y-69150000D02*
X167921000Y-69150000D01*
X152087000Y-69110000D02*
X167913000Y-69110000D01*
X152096000Y-69070000D02*
X167904000Y-69070000D01*
X152104000Y-69030000D02*
X167896000Y-69030000D01*
X152113000Y-68990000D02*
X167887000Y-68990000D01*
X152122000Y-68950000D02*
X167878000Y-68950000D01*
X152131000Y-68910000D02*
X167869000Y-68910000D01*
X152141000Y-68870000D02*
X167859000Y-68870000D01*
X152150000Y-68830000D02*
X167850000Y-68830000D01*
X152160000Y-68790000D02*
X167840000Y-68790000D01*
X152170000Y-68750000D02*
X167830000Y-68750000D01*
X152180000Y-68710000D02*
X167820000Y-68710000D01*
X152191000Y-68670000D02*
X167809000Y-68670000D01*
X152202000Y-68630000D02*
X167798000Y-68630000D01*
X152213000Y-68590000D02*
X167787000Y-68590000D01*
X152224000Y-68550000D02*
X167776000Y-68550000D01*
X152235000Y-68510000D02*
X167765000Y-68510000D01*
X152247000Y-68470000D02*
X167753000Y-68470000D01*
X152258000Y-68430000D02*
X158560000Y-68430000D01*
X152271000Y-68390000D02*
X158560000Y-68390000D01*
X152283000Y-68350000D02*
X158560000Y-68350000D01*
X152295000Y-68310000D02*
X158560000Y-68310000D01*
X152308000Y-68270000D02*
X158560000Y-68270000D01*
X152321000Y-68230000D02*
X158560000Y-68230000D01*
X152334000Y-68190000D02*
X158560000Y-68190000D01*
X152348000Y-68150000D02*
X158560000Y-68150000D01*
X152361000Y-68110000D02*
X158560000Y-68110000D01*
X152375000Y-68070000D02*
X158560000Y-68070000D01*
X152389000Y-68030000D02*
X158560000Y-68030000D01*
X152403000Y-67990000D02*
X158560000Y-67990000D01*
X152418000Y-67950000D02*
X158560000Y-67950000D01*
X152433000Y-67910000D02*
X158560000Y-67910000D01*
X152448000Y-67870000D02*
X158560000Y-67870000D01*
X152463000Y-67830000D02*
X158560000Y-67830000D01*
X152479000Y-67790000D02*
X158560000Y-67790000D01*
X152495000Y-67750000D02*
X158560000Y-67750000D01*
X152511000Y-67710000D02*
X158560000Y-67710000D01*
X152527000Y-67670000D02*
X158560000Y-67670000D01*
X152543000Y-67630000D02*
X158560000Y-67630000D01*
X152560000Y-67590000D02*
X158560000Y-67590000D01*
X152577000Y-67550000D02*
X158560000Y-67550000D01*
X152594000Y-67510000D02*
X158560000Y-67510000D01*
X152612000Y-67470000D02*
X158560000Y-67470000D01*
X152630000Y-67430000D02*
X158560000Y-67430000D01*
X152648000Y-67390000D02*
X158560000Y-67390000D01*
X152666000Y-67350000D02*
X158560000Y-67350000D01*
X152685000Y-67310000D02*
X158560000Y-67310000D01*
X152704000Y-67270000D02*
X158560000Y-67270000D01*
X152723000Y-67230000D02*
X158560000Y-67230000D01*
X152742000Y-67190000D02*
X158560000Y-67190000D01*
X152762000Y-67150000D02*
X158560000Y-67150000D01*
X152782000Y-67110000D02*
X158560000Y-67110000D01*
X152802000Y-67070000D02*
X158560000Y-67070000D01*
X152822000Y-67030000D02*
X158560000Y-67030000D01*
X152843000Y-66990000D02*
X158560000Y-66990000D01*
X152864000Y-66950000D02*
X158560000Y-66950000D01*
X152885000Y-66910000D02*
X158560000Y-66910000D01*
X152907000Y-66870000D02*
X158560000Y-66870000D01*
X152929000Y-66830000D02*
X158560000Y-66830000D01*
X152951000Y-66790000D02*
X158560000Y-66790000D01*
X152974000Y-66750000D02*
X158560000Y-66750000D01*
X152996000Y-66710000D02*
X158560000Y-66710000D01*
X153019000Y-66670000D02*
X158560000Y-66670000D01*
X153043000Y-66630000D02*
X158560000Y-66630000D01*
X153067000Y-66590000D02*
X158560000Y-66590000D01*
X153091000Y-66550000D02*
X158560000Y-66550000D01*
X153115000Y-66510000D02*
X158560000Y-66510000D01*
X153140000Y-66470000D02*
X158560000Y-66470000D01*
X153165000Y-66430000D02*
X158560000Y-66430000D01*
X153190000Y-66390000D02*
X158560000Y-66390000D01*
X153215000Y-66350000D02*
X158560000Y-66350000D01*
X153241000Y-66310000D02*
X158560000Y-66310000D01*
X153268000Y-66270000D02*
X158560000Y-66270000D01*
X153294000Y-66230000D02*
X158560000Y-66230000D01*
X153321000Y-66190000D02*
X158560000Y-66190000D01*
X153349000Y-66150000D02*
X158560000Y-66150000D01*
X153376000Y-66110000D02*
X158560000Y-66110000D01*
X153404000Y-66070000D02*
X158560000Y-66070000D01*
X153433000Y-66030000D02*
X158560000Y-66030000D01*
X153461000Y-65990000D02*
X158560000Y-65990000D01*
X153491000Y-65950000D02*
X158560000Y-65950000D01*
X153520000Y-65910000D02*
X158560000Y-65910000D01*
X153550000Y-65870000D02*
X158560000Y-65870000D01*
X153580000Y-65830000D02*
X158560000Y-65830000D01*
X153611000Y-65790000D02*
X158560000Y-65790000D01*
X153642000Y-65750000D02*
X158560000Y-65750000D01*
X153673000Y-65710000D02*
X158560000Y-65710000D01*
X153705000Y-65670000D02*
X158560000Y-65670000D01*
X153738000Y-65630000D02*
X158560000Y-65630000D01*
X153770000Y-65590000D02*
X158560000Y-65590000D01*
X153803000Y-65550000D02*
X166197000Y-65550000D01*
X153837000Y-65510000D02*
X166163000Y-65510000D01*
X153871000Y-65470000D02*
X166129000Y-65470000D01*
X153906000Y-65430000D02*
X166094000Y-65430000D01*
X153940000Y-65390000D02*
X166060000Y-65390000D01*
X153976000Y-65350000D02*
X166024000Y-65350000D01*
X154012000Y-65310000D02*
X165988000Y-65310000D01*
X154048000Y-65270000D02*
X165952000Y-65270000D01*
X154085000Y-65230000D02*
X165915000Y-65230000D01*
X154122000Y-65190000D02*
X165878000Y-65190000D01*
X154160000Y-65150000D02*
X165840000Y-65150000D01*
X154198000Y-65110000D02*
X165802000Y-65110000D01*
X154237000Y-65070000D02*
X165763000Y-65070000D01*
X154277000Y-65030000D02*
X165723000Y-65030000D01*
X154317000Y-64990000D02*
X165683000Y-64990000D01*
X154357000Y-64950000D02*
X165643000Y-64950000D01*
X154398000Y-64910000D02*
X165602000Y-64910000D01*
X154440000Y-64870000D02*
X165560000Y-64870000D01*
X154482000Y-64830000D02*
X165518000Y-64830000D01*
X154525000Y-64790000D02*
X165475000Y-64790000D01*
X154569000Y-64750000D02*
X165431000Y-64750000D01*
X154613000Y-64710000D02*
X165387000Y-64710000D01*
X154645000Y-78639491D02*
X156245000Y-78639491D01*
X154658000Y-64670000D02*
X165342000Y-64670000D01*
X154703000Y-64630000D02*
X165297000Y-64630000D01*
X154750000Y-64590000D02*
X165250000Y-64590000D01*
X154796000Y-64550000D02*
X165204000Y-64550000D01*
X154844000Y-64510000D02*
X165156000Y-64510000D01*
X154893000Y-64470000D02*
X165107000Y-64470000D01*
X154942000Y-64430000D02*
X165058000Y-64430000D01*
X154992000Y-64390000D02*
X165008000Y-64390000D01*
X155043000Y-64350000D02*
X164957000Y-64350000D01*
X155094000Y-64310000D02*
X164906000Y-64310000D01*
X155147000Y-64270000D02*
X164853000Y-64270000D01*
X155200000Y-64230000D02*
X164800000Y-64230000D01*
X155255000Y-64190000D02*
X164745000Y-64190000D01*
X155310000Y-64150000D02*
X164690000Y-64150000D01*
X155366000Y-64110000D02*
X164634000Y-64110000D01*
X155424000Y-64070000D02*
X164576000Y-64070000D01*
X155445000Y-79439491D02*
X155445000Y-77839491D01*
X155482000Y-64030000D02*
X164518000Y-64030000D01*
X155541000Y-63990000D02*
X164459000Y-63990000D01*
X155602000Y-63950000D02*
X164398000Y-63950000D01*
X155664000Y-63910000D02*
X164336000Y-63910000D01*
X155727000Y-63870000D02*
X164273000Y-63870000D01*
X155792000Y-63830000D02*
X164208000Y-63830000D01*
X155858000Y-63790000D02*
X164142000Y-63790000D01*
X155925000Y-63750000D02*
X164075000Y-63750000D01*
X155994000Y-63710000D02*
X164006000Y-63710000D01*
X156064000Y-63670000D02*
X163936000Y-63670000D01*
X156136000Y-63630000D02*
X163864000Y-63630000D01*
X156210000Y-63590000D02*
X163790000Y-63590000D01*
X156286000Y-63550000D02*
X163714000Y-63550000D01*
X156363000Y-63510000D02*
X163637000Y-63510000D01*
X156443000Y-63470000D02*
X163557000Y-63470000D01*
X156525000Y-63430000D02*
X163475000Y-63430000D01*
X156610000Y-63390000D02*
X163390000Y-63390000D01*
X156697000Y-63350000D02*
X163303000Y-63350000D01*
X156787000Y-63310000D02*
X163213000Y-63310000D01*
X156880000Y-63270000D02*
X163120000Y-63270000D01*
X156977000Y-63230000D02*
X163023000Y-63230000D01*
X157077000Y-63190000D02*
X162923000Y-63190000D01*
X157181000Y-63150000D02*
X162819000Y-63150000D01*
X157290000Y-63110000D02*
X162710000Y-63110000D01*
X157403000Y-63070000D02*
X162597000Y-63070000D01*
X157523000Y-63030000D02*
X162477000Y-63030000D01*
X157649000Y-62990000D02*
X162351000Y-62990000D01*
X157783000Y-62950000D02*
X162217000Y-62950000D01*
X157926000Y-62910000D02*
X162074000Y-62910000D01*
X158080000Y-62870000D02*
X161920000Y-62870000D01*
X158249000Y-62830000D02*
X161751000Y-62830000D01*
X158436000Y-62790000D02*
X161564000Y-62790000D01*
X158649000Y-62750000D02*
X161351000Y-62750000D01*
X158903000Y-62710000D02*
X161097000Y-62710000D01*
X159235000Y-62670000D02*
X160765000Y-62670000D01*
X161440000Y-65590000D02*
X166230000Y-65590000D01*
X161440000Y-65630000D02*
X166262000Y-65630000D01*
X161440000Y-65670000D02*
X166295000Y-65670000D01*
X161440000Y-65710000D02*
X166327000Y-65710000D01*
X161440000Y-65750000D02*
X166358000Y-65750000D01*
X161440000Y-65790000D02*
X166389000Y-65790000D01*
X161440000Y-65830000D02*
X166420000Y-65830000D01*
X161440000Y-65870000D02*
X166450000Y-65870000D01*
X161440000Y-65910000D02*
X166480000Y-65910000D01*
X161440000Y-65950000D02*
X166509000Y-65950000D01*
X161440000Y-65990000D02*
X166539000Y-65990000D01*
X161440000Y-66030000D02*
X166567000Y-66030000D01*
X161440000Y-66070000D02*
X166596000Y-66070000D01*
X161440000Y-66110000D02*
X166624000Y-66110000D01*
X161440000Y-66150000D02*
X166651000Y-66150000D01*
X161440000Y-66190000D02*
X166679000Y-66190000D01*
X161440000Y-66230000D02*
X166706000Y-66230000D01*
X161440000Y-66270000D02*
X166732000Y-66270000D01*
X161440000Y-66310000D02*
X166759000Y-66310000D01*
X161440000Y-66350000D02*
X166785000Y-66350000D01*
X161440000Y-66390000D02*
X166810000Y-66390000D01*
X161440000Y-66430000D02*
X166835000Y-66430000D01*
X161440000Y-66470000D02*
X166860000Y-66470000D01*
X161440000Y-66510000D02*
X166885000Y-66510000D01*
X161440000Y-66550000D02*
X166909000Y-66550000D01*
X161440000Y-66590000D02*
X166933000Y-66590000D01*
X161440000Y-66630000D02*
X166957000Y-66630000D01*
X161440000Y-66670000D02*
X166981000Y-66670000D01*
X161440000Y-66710000D02*
X167004000Y-66710000D01*
X161440000Y-66750000D02*
X167026000Y-66750000D01*
X161440000Y-66790000D02*
X167049000Y-66790000D01*
X161440000Y-66830000D02*
X167071000Y-66830000D01*
X161440000Y-66870000D02*
X167093000Y-66870000D01*
X161440000Y-66910000D02*
X167115000Y-66910000D01*
X161440000Y-66950000D02*
X167136000Y-66950000D01*
X161440000Y-66990000D02*
X167157000Y-66990000D01*
X161440000Y-67030000D02*
X167178000Y-67030000D01*
X161440000Y-67070000D02*
X167198000Y-67070000D01*
X161440000Y-67110000D02*
X167218000Y-67110000D01*
X161440000Y-67150000D02*
X167238000Y-67150000D01*
X161440000Y-67190000D02*
X167258000Y-67190000D01*
X161440000Y-67230000D02*
X167277000Y-67230000D01*
X161440000Y-67270000D02*
X167296000Y-67270000D01*
X161440000Y-67310000D02*
X167315000Y-67310000D01*
X161440000Y-67350000D02*
X167334000Y-67350000D01*
X161440000Y-67390000D02*
X167352000Y-67390000D01*
X161440000Y-67430000D02*
X167370000Y-67430000D01*
X161440000Y-67470000D02*
X167388000Y-67470000D01*
X161440000Y-67510000D02*
X167406000Y-67510000D01*
X161440000Y-67550000D02*
X167423000Y-67550000D01*
X161440000Y-67590000D02*
X167440000Y-67590000D01*
X161440000Y-67630000D02*
X167457000Y-67630000D01*
X161440000Y-67670000D02*
X167473000Y-67670000D01*
X161440000Y-67710000D02*
X167489000Y-67710000D01*
X161440000Y-67750000D02*
X167505000Y-67750000D01*
X161440000Y-67790000D02*
X167521000Y-67790000D01*
X161440000Y-67830000D02*
X167537000Y-67830000D01*
X161440000Y-67870000D02*
X167552000Y-67870000D01*
X161440000Y-67910000D02*
X167567000Y-67910000D01*
X161440000Y-67950000D02*
X167582000Y-67950000D01*
X161440000Y-67990000D02*
X167597000Y-67990000D01*
X161440000Y-68030000D02*
X167611000Y-68030000D01*
X161440000Y-68070000D02*
X167625000Y-68070000D01*
X161440000Y-68110000D02*
X167639000Y-68110000D01*
X161440000Y-68150000D02*
X167652000Y-68150000D01*
X161440000Y-68190000D02*
X167666000Y-68190000D01*
X161440000Y-68230000D02*
X167679000Y-68230000D01*
X161440000Y-68270000D02*
X167692000Y-68270000D01*
X161440000Y-68310000D02*
X167705000Y-68310000D01*
X161440000Y-68350000D02*
X167717000Y-68350000D01*
X161440000Y-68390000D02*
X167729000Y-68390000D01*
X161440000Y-68430000D02*
X167742000Y-68430000D01*
X168120000Y-70750000D02*
G75*
G02*
X151880000Y-70750000I-8120000J0D01*
G01*
X151880000Y-70750000D02*
G75*
G02*
X168120000Y-70750000I8120000J0D01*
G01*
X171140000Y-56930000D02*
X175760000Y-56930000D01*
X171140000Y-67150000D02*
X171140000Y-56930000D01*
X174380000Y-56930000D02*
X174380000Y-67150000D01*
X175760000Y-56930000D02*
X175760000Y-67150000D01*
X175760000Y-60190000D02*
X174380000Y-60190000D01*
X175760000Y-63890000D02*
X174380000Y-63890000D01*
X175760000Y-67150000D02*
X171140000Y-67150000D01*
D12*
X137420000Y-91902500D02*
X147580000Y-91902500D01*
X137420000Y-96097500D02*
X137420000Y-91902500D01*
X147580000Y-91902500D02*
X147580000Y-96097500D01*
X147580000Y-96097500D02*
X137420000Y-96097500D01*
D14*
X148370000Y-93380000D02*
G75*
G02*
X148170000Y-93380000I-100000J0D01*
G01*
X148170000Y-93380000D02*
G75*
G02*
X148370000Y-93380000I100000J0D01*
G01*
D13*
X152585000Y-51750000D02*
X162335000Y-51750000D01*
X152585000Y-56800000D02*
X152585000Y-51750000D01*
X162335000Y-51750000D02*
X162335000Y-56800000D01*
X162335000Y-56800000D02*
X152585000Y-56800000D01*
X84390000Y-77890000D02*
X85500000Y-77890000D01*
X84390000Y-79000000D02*
X84390000Y-77890000D01*
X84390000Y-80000000D02*
X84390000Y-86110000D01*
X84390000Y-80000000D02*
X86610000Y-80000000D01*
X84390000Y-86110000D02*
X86610000Y-86110000D01*
X86610000Y-80000000D02*
X86610000Y-86110000D01*
M02*
